<svg width="361" height="263" viewBox="0 0 361 263" fill="none" xmlns="http://www.w3.org/2000/svg">
<path d="M112.576 63.224C110.507 63.224 108.619 62.744 106.912 61.784C105.205 60.8027 103.851 59.448 102.848 57.72C101.867 55.9707 101.376 54.008 101.376 51.832C101.376 49.656 101.867 47.704 102.848 45.976C103.851 44.2267 105.205 42.872 106.912 41.912C108.619 40.9307 110.507 40.44 112.576 40.44C114.667 40.44 116.565 40.9307 118.272 41.912C119.979 42.872 121.323 44.216 122.304 45.944C123.285 47.672 123.776 49.6347 123.776 51.832C123.776 54.0293 123.285 55.992 122.304 57.72C121.323 59.448 119.979 60.8027 118.272 61.784C116.565 62.744 114.667 63.224 112.576 63.224ZM112.576 60.696C114.133 60.696 115.531 60.3333 116.768 59.608C118.027 58.8827 119.008 57.848 119.712 56.504C120.437 55.16 120.8 53.6027 120.8 51.832C120.8 50.04 120.437 48.4827 119.712 47.16C119.008 45.816 118.037 44.7813 116.8 44.056C115.563 43.3307 114.155 42.968 112.576 42.968C110.997 42.968 109.589 43.3307 108.352 44.056C107.115 44.7813 106.133 45.816 105.408 47.16C104.704 48.4827 104.352 50.04 104.352 51.832C104.352 53.6027 104.704 55.16 105.408 56.504C106.133 57.848 107.115 58.8827 108.352 59.608C109.611 60.3333 111.019 60.696 112.576 60.696ZM143.172 45.464V63H140.26V60.408C139.706 61.304 138.927 62.008 137.924 62.52C136.943 63.0107 135.855 63.256 134.66 63.256C133.295 63.256 132.068 62.9787 130.98 62.424C129.892 61.848 129.028 60.9947 128.388 59.864C127.77 58.7333 127.46 57.3573 127.46 55.736V45.464H130.34V55.352C130.34 57.08 130.778 58.4133 131.652 59.352C132.527 60.2693 133.722 60.728 135.236 60.728C136.794 60.728 138.02 60.248 138.916 59.288C139.812 58.328 140.26 56.9307 140.26 55.096V45.464H143.172ZM151.001 48.312C151.513 47.3093 152.238 46.5307 153.177 45.976C154.137 45.4213 155.3 45.144 156.665 45.144V48.152H155.897C152.633 48.152 151.001 49.9227 151.001 53.464V63H148.089V45.464H151.001V48.312ZM186.99 40.696L178.574 63H175.214L166.798 40.696H169.902L176.91 59.928L183.918 40.696H186.99ZM191.687 42.616C191.132 42.616 190.663 42.424 190.279 42.04C189.895 41.656 189.703 41.1867 189.703 40.632C189.703 40.0773 189.895 39.608 190.279 39.224C190.663 38.84 191.132 38.648 191.687 38.648C192.22 38.648 192.668 38.84 193.031 39.224C193.415 39.608 193.607 40.0773 193.607 40.632C193.607 41.1867 193.415 41.656 193.031 42.04C192.668 42.424 192.22 42.616 191.687 42.616ZM193.095 45.464V63H190.183V45.464H193.095ZM204.266 63.288C202.922 63.288 201.716 63.064 200.65 62.616C199.583 62.1467 198.74 61.5067 198.122 60.696C197.503 59.864 197.162 58.9147 197.098 57.848H200.106C200.191 58.7227 200.596 59.4373 201.322 59.992C202.068 60.5467 203.039 60.824 204.234 60.824C205.343 60.824 206.218 60.5787 206.858 60.088C207.498 59.5973 207.818 58.9787 207.818 58.232C207.818 57.464 207.476 56.8987 206.794 56.536C206.111 56.152 205.055 55.7787 203.626 55.416C202.324 55.0747 201.258 54.7333 200.426 54.392C199.615 54.0293 198.911 53.5067 198.314 52.824C197.738 52.12 197.45 51.2027 197.45 50.072C197.45 49.176 197.716 48.3547 198.25 47.608C198.783 46.8613 199.54 46.2747 200.522 45.848C201.503 45.4 202.623 45.176 203.882 45.176C205.823 45.176 207.391 45.6667 208.586 46.648C209.78 47.6293 210.42 48.9733 210.506 50.68H207.594C207.53 49.7627 207.156 49.0267 206.474 48.472C205.812 47.9173 204.916 47.64 203.786 47.64C202.74 47.64 201.908 47.864 201.29 48.312C200.671 48.76 200.362 49.3467 200.362 50.072C200.362 50.648 200.543 51.128 200.906 51.512C201.29 51.8747 201.759 52.1733 202.314 52.408C202.89 52.6213 203.679 52.8667 204.682 53.144C205.94 53.4853 206.964 53.8267 207.754 54.168C208.543 54.488 209.215 54.9787 209.77 55.64C210.346 56.3013 210.644 57.1653 210.666 58.232C210.666 59.192 210.399 60.056 209.866 60.824C209.332 61.592 208.575 62.2 207.594 62.648C206.634 63.0747 205.524 63.288 204.266 63.288ZM216.281 42.616C215.726 42.616 215.257 42.424 214.873 42.04C214.489 41.656 214.297 41.1867 214.297 40.632C214.297 40.0773 214.489 39.608 214.873 39.224C215.257 38.84 215.726 38.648 216.281 38.648C216.814 38.648 217.262 38.84 217.625 39.224C218.009 39.608 218.201 40.0773 218.201 40.632C218.201 41.1867 218.009 41.656 217.625 42.04C217.262 42.424 216.814 42.616 216.281 42.616ZM217.689 45.464V63H214.777V45.464H217.689ZM230.3 63.288C228.657 63.288 227.164 62.9147 225.82 62.168C224.497 61.4213 223.452 60.3653 222.684 59C221.937 57.6133 221.564 56.0133 221.564 54.2C221.564 52.408 221.948 50.8293 222.716 49.464C223.505 48.0773 224.572 47.0213 225.916 46.296C227.26 45.5493 228.764 45.176 230.428 45.176C232.092 45.176 233.596 45.5493 234.94 46.296C236.284 47.0213 237.34 48.0667 238.108 49.432C238.897 50.7973 239.292 52.3867 239.292 54.2C239.292 56.0133 238.886 57.6133 238.076 59C237.286 60.3653 236.209 61.4213 234.844 62.168C233.478 62.9147 231.964 63.288 230.3 63.288ZM230.3 60.728C231.345 60.728 232.326 60.4827 233.244 59.992C234.161 59.5013 234.897 58.7653 235.452 57.784C236.028 56.8027 236.316 55.608 236.316 54.2C236.316 52.792 236.038 51.5973 235.484 50.616C234.929 49.6347 234.204 48.9093 233.308 48.44C232.412 47.9493 231.441 47.704 230.396 47.704C229.329 47.704 228.348 47.9493 227.452 48.44C226.577 48.9093 225.873 49.6347 225.34 50.616C224.806 51.5973 224.54 52.792 224.54 54.2C224.54 55.6293 224.796 56.8347 225.308 57.816C225.841 58.7973 226.545 59.5333 227.42 60.024C228.294 60.4933 229.254 60.728 230.3 60.728ZM251.664 45.144C253.798 45.144 255.526 45.7947 256.848 47.096C258.171 48.376 258.832 50.232 258.832 52.664V63H255.952V53.08C255.952 51.3307 255.515 49.9973 254.64 49.08C253.766 48.1413 252.571 47.672 251.056 47.672C249.52 47.672 248.294 48.152 247.376 49.112C246.48 50.072 246.032 51.4693 246.032 53.304V63H243.12V45.464H246.032V47.96C246.608 47.064 247.387 46.3707 248.368 45.88C249.371 45.3893 250.47 45.144 251.664 45.144Z" fill="#0051B4"/>
<path d="M69.2597 107.088H73.2757V108H68.1397V96.816H69.2597V107.088ZM79.0181 108.128C78.1967 108.128 77.4554 107.947 76.7941 107.584C76.1434 107.211 75.6261 106.688 75.2421 106.016C74.8687 105.333 74.6821 104.539 74.6821 103.632C74.6821 102.725 74.8741 101.936 75.2581 101.264C75.6421 100.581 76.1647 100.059 76.8261 99.696C77.4874 99.3227 78.2287 99.136 79.0501 99.136C79.8714 99.136 80.6127 99.3227 81.2741 99.696C81.9461 100.059 82.4687 100.581 82.8421 101.264C83.2261 101.936 83.4181 102.725 83.4181 103.632C83.4181 104.528 83.2261 105.317 82.8421 106C82.4581 106.683 81.9301 107.211 81.2581 107.584C80.5861 107.947 79.8394 108.128 79.0181 108.128ZM79.0181 107.152C79.5941 107.152 80.1274 107.024 80.6181 106.768C81.1087 106.501 81.5034 106.107 81.8021 105.584C82.1114 105.051 82.2661 104.4 82.2661 103.632C82.2661 102.864 82.1167 102.219 81.8181 101.696C81.5194 101.163 81.1247 100.768 80.6341 100.512C80.1434 100.245 79.6101 100.112 79.0341 100.112C78.4581 100.112 77.9247 100.245 77.4341 100.512C76.9434 100.768 76.5487 101.163 76.2501 101.696C75.9621 102.219 75.8181 102.864 75.8181 103.632C75.8181 104.4 75.9621 105.051 76.2501 105.584C76.5487 106.107 76.9381 106.501 77.4181 106.768C77.9087 107.024 78.4421 107.152 79.0181 107.152ZM86.8997 100.816C87.145 100.272 87.5184 99.8507 88.0197 99.552C88.5317 99.2533 89.1557 99.104 89.8917 99.104V100.272H89.5877C88.777 100.272 88.1264 100.491 87.6357 100.928C87.145 101.365 86.8997 102.096 86.8997 103.12V108H85.7797V99.264H86.8997V100.816ZM99.8006 103.184C99.8006 103.568 99.7899 103.861 99.7686 104.064H92.5206C92.5526 104.725 92.7126 105.291 93.0006 105.76C93.2886 106.229 93.6672 106.587 94.1366 106.832C94.6059 107.067 95.1179 107.184 95.6726 107.184C96.3979 107.184 97.0059 107.008 97.4966 106.656C97.9979 106.304 98.3286 105.829 98.4886 105.232H99.6726C99.4592 106.085 99.0006 106.784 98.2966 107.328C97.6032 107.861 96.7286 108.128 95.6726 108.128C94.8512 108.128 94.1152 107.947 93.4646 107.584C92.8139 107.211 92.3019 106.688 91.9286 106.016C91.5659 105.333 91.3846 104.539 91.3846 103.632C91.3846 102.725 91.5659 101.931 91.9286 101.248C92.2912 100.565 92.7979 100.043 93.4486 99.68C94.0992 99.3173 94.8406 99.136 95.6726 99.136C96.5046 99.136 97.2299 99.3173 97.8486 99.68C98.4779 100.043 98.9579 100.533 99.2886 101.152C99.6299 101.76 99.8006 102.437 99.8006 103.184ZM98.6646 103.152C98.6752 102.501 98.5419 101.947 98.2646 101.488C97.9979 101.029 97.6299 100.683 97.1606 100.448C96.6912 100.213 96.1792 100.096 95.6246 100.096C94.7926 100.096 94.0832 100.363 93.4966 100.896C92.9099 101.429 92.5846 102.181 92.5206 103.152H98.6646ZM112.57 99.104C113.594 99.104 114.426 99.4293 115.066 100.08C115.716 100.72 116.042 101.653 116.042 102.88V108H114.938V103.008C114.938 102.059 114.708 101.333 114.25 100.832C113.791 100.331 113.167 100.08 112.378 100.08C111.556 100.08 110.9 100.352 110.41 100.896C109.919 101.44 109.674 102.229 109.674 103.264V108H108.57V103.008C108.57 102.059 108.34 101.333 107.882 100.832C107.423 100.331 106.794 100.08 105.994 100.08C105.172 100.08 104.516 100.352 104.026 100.896C103.535 101.44 103.29 102.229 103.29 103.264V108H102.17V99.264H103.29V100.768C103.567 100.224 103.962 99.8133 104.474 99.536C104.986 99.248 105.556 99.104 106.186 99.104C106.943 99.104 107.604 99.2853 108.17 99.648C108.746 100.011 109.162 100.544 109.418 101.248C109.652 100.555 110.052 100.027 110.618 99.664C111.194 99.2907 111.844 99.104 112.57 99.104ZM124.12 97.616C123.896 97.616 123.704 97.536 123.544 97.376C123.384 97.216 123.304 97.0187 123.304 96.784C123.304 96.5493 123.384 96.3573 123.544 96.208C123.704 96.048 123.896 95.968 124.12 95.968C124.344 95.968 124.536 96.048 124.696 96.208C124.856 96.3573 124.936 96.5493 124.936 96.784C124.936 97.0187 124.856 97.216 124.696 97.376C124.536 97.536 124.344 97.616 124.12 97.616ZM124.68 99.264V108H123.56V99.264H124.68ZM128.64 101.184C128.917 100.597 129.355 100.112 129.952 99.728C130.56 99.3333 131.28 99.136 132.112 99.136C132.901 99.136 133.611 99.3227 134.24 99.696C134.88 100.059 135.376 100.581 135.728 101.264C136.091 101.936 136.272 102.72 136.272 103.616C136.272 104.512 136.091 105.301 135.728 105.984C135.376 106.667 134.88 107.195 134.24 107.568C133.611 107.941 132.901 108.128 132.112 108.128C131.291 108.128 130.576 107.936 129.968 107.552C129.36 107.157 128.917 106.667 128.64 106.08V112.128H127.536V99.264H128.64V101.184ZM135.136 103.616C135.136 102.891 134.992 102.267 134.704 101.744C134.427 101.211 134.043 100.805 133.552 100.528C133.061 100.251 132.507 100.112 131.888 100.112C131.291 100.112 130.741 100.256 130.24 100.544C129.749 100.832 129.36 101.243 129.072 101.776C128.784 102.309 128.64 102.928 128.64 103.632C128.64 104.336 128.784 104.955 129.072 105.488C129.36 106.021 129.749 106.432 130.24 106.72C130.741 107.008 131.291 107.152 131.888 107.152C132.507 107.152 133.061 107.013 133.552 106.736C134.043 106.448 134.427 106.037 134.704 105.504C134.992 104.96 135.136 104.331 135.136 103.616ZM141.661 108.128C140.658 108.128 139.837 107.899 139.197 107.44C138.567 106.971 138.215 106.336 138.141 105.536H139.293C139.346 106.027 139.575 106.427 139.981 106.736C140.397 107.035 140.951 107.184 141.645 107.184C142.253 107.184 142.727 107.04 143.069 106.752C143.421 106.464 143.597 106.107 143.597 105.68C143.597 105.381 143.501 105.136 143.309 104.944C143.117 104.752 142.871 104.603 142.573 104.496C142.285 104.379 141.89 104.256 141.389 104.128C140.738 103.957 140.21 103.787 139.805 103.616C139.399 103.445 139.053 103.195 138.765 102.864C138.487 102.523 138.349 102.069 138.349 101.504C138.349 101.077 138.477 100.683 138.733 100.32C138.989 99.9573 139.351 99.6693 139.821 99.456C140.29 99.2427 140.823 99.136 141.421 99.136C142.359 99.136 143.117 99.376 143.693 99.856C144.269 100.325 144.578 100.976 144.621 101.808H143.501C143.469 101.296 143.266 100.885 142.893 100.576C142.53 100.256 142.029 100.096 141.389 100.096C140.823 100.096 140.365 100.229 140.013 100.496C139.661 100.763 139.485 101.093 139.485 101.488C139.485 101.829 139.586 102.112 139.789 102.336C140.002 102.549 140.263 102.72 140.573 102.848C140.882 102.965 141.298 103.099 141.821 103.248C142.45 103.419 142.951 103.584 143.325 103.744C143.698 103.904 144.018 104.139 144.285 104.448C144.551 104.757 144.69 105.168 144.701 105.68C144.701 106.149 144.573 106.571 144.317 106.944C144.061 107.307 143.703 107.595 143.245 107.808C142.786 108.021 142.258 108.128 141.661 108.128ZM154.697 99.264V108H153.577V106.464C153.321 107.008 152.926 107.424 152.393 107.712C151.86 108 151.262 108.144 150.601 108.144C149.556 108.144 148.702 107.824 148.041 107.184C147.38 106.533 147.049 105.595 147.049 104.368V99.264H148.153V104.24C148.153 105.189 148.388 105.915 148.857 106.416C149.337 106.917 149.988 107.168 150.809 107.168C151.652 107.168 152.324 106.901 152.825 106.368C153.326 105.835 153.577 105.051 153.577 104.016V99.264H154.697ZM167.974 99.104C168.998 99.104 169.83 99.4293 170.47 100.08C171.121 100.72 171.446 101.653 171.446 102.88V108H170.342V103.008C170.342 102.059 170.113 101.333 169.654 100.832C169.195 100.331 168.571 100.08 167.782 100.08C166.961 100.08 166.305 100.352 165.814 100.896C165.323 101.44 165.078 102.229 165.078 103.264V108H163.974V103.008C163.974 102.059 163.745 101.333 163.286 100.832C162.827 100.331 162.198 100.08 161.398 100.08C160.577 100.08 159.921 100.352 159.43 100.896C158.939 101.44 158.694 102.229 158.694 103.264V108H157.574V99.264H158.694V100.768C158.971 100.224 159.366 99.8133 159.878 99.536C160.39 99.248 160.961 99.104 161.59 99.104C162.347 99.104 163.009 99.2853 163.574 99.648C164.15 100.011 164.566 100.544 164.822 101.248C165.057 100.555 165.457 100.027 166.022 99.664C166.598 99.2907 167.249 99.104 167.974 99.104ZM178.452 103.616C178.452 102.72 178.633 101.936 178.996 101.264C179.359 100.581 179.855 100.059 180.484 99.696C181.124 99.3227 181.844 99.136 182.644 99.136C183.412 99.136 184.105 99.3227 184.724 99.696C185.343 100.069 185.796 100.555 186.084 101.152V96.16H187.204V108H186.084V106.048C185.817 106.656 185.38 107.157 184.772 107.552C184.164 107.936 183.449 108.128 182.628 108.128C181.828 108.128 181.108 107.941 180.468 107.568C179.839 107.195 179.343 106.667 178.98 105.984C178.628 105.301 178.452 104.512 178.452 103.616ZM186.084 103.632C186.084 102.928 185.94 102.309 185.652 101.776C185.364 101.243 184.969 100.832 184.468 100.544C183.977 100.256 183.433 100.112 182.836 100.112C182.217 100.112 181.663 100.251 181.172 100.528C180.681 100.805 180.292 101.211 180.004 101.744C179.727 102.267 179.588 102.891 179.588 103.616C179.588 104.331 179.727 104.96 180.004 105.504C180.292 106.037 180.681 106.448 181.172 106.736C181.663 107.013 182.217 107.152 182.836 107.152C183.433 107.152 183.977 107.008 184.468 106.72C184.969 106.432 185.364 106.021 185.652 105.488C185.94 104.955 186.084 104.336 186.084 103.632ZM193.905 108.128C193.084 108.128 192.342 107.947 191.681 107.584C191.03 107.211 190.513 106.688 190.129 106.016C189.756 105.333 189.569 104.539 189.569 103.632C189.569 102.725 189.761 101.936 190.145 101.264C190.529 100.581 191.052 100.059 191.713 99.696C192.374 99.3227 193.116 99.136 193.937 99.136C194.758 99.136 195.5 99.3227 196.161 99.696C196.833 100.059 197.356 100.581 197.729 101.264C198.113 101.936 198.305 102.725 198.305 103.632C198.305 104.528 198.113 105.317 197.729 106C197.345 106.683 196.817 107.211 196.145 107.584C195.473 107.947 194.726 108.128 193.905 108.128ZM193.905 107.152C194.481 107.152 195.014 107.024 195.505 106.768C195.996 106.501 196.39 106.107 196.689 105.584C196.998 105.051 197.153 104.4 197.153 103.632C197.153 102.864 197.004 102.219 196.705 101.696C196.406 101.163 196.012 100.768 195.521 100.512C195.03 100.245 194.497 100.112 193.921 100.112C193.345 100.112 192.812 100.245 192.321 100.512C191.83 100.768 191.436 101.163 191.137 101.696C190.849 102.219 190.705 102.864 190.705 103.632C190.705 104.4 190.849 105.051 191.137 105.584C191.436 106.107 191.825 106.501 192.305 106.768C192.796 107.024 193.329 107.152 193.905 107.152ZM201.787 96.16V108H200.667V96.16H201.787ZM208.467 108.128C207.645 108.128 206.904 107.947 206.243 107.584C205.592 107.211 205.075 106.688 204.691 106.016C204.317 105.333 204.131 104.539 204.131 103.632C204.131 102.725 204.323 101.936 204.707 101.264C205.091 100.581 205.613 100.059 206.275 99.696C206.936 99.3227 207.677 99.136 208.499 99.136C209.32 99.136 210.061 99.3227 210.723 99.696C211.395 100.059 211.917 100.581 212.291 101.264C212.675 101.936 212.867 102.725 212.867 103.632C212.867 104.528 212.675 105.317 212.291 106C211.907 106.683 211.379 107.211 210.707 107.584C210.035 107.947 209.288 108.128 208.467 108.128ZM208.467 107.152C209.043 107.152 209.576 107.024 210.067 106.768C210.557 106.501 210.952 106.107 211.251 105.584C211.56 105.051 211.715 104.4 211.715 103.632C211.715 102.864 211.565 102.219 211.267 101.696C210.968 101.163 210.573 100.768 210.083 100.512C209.592 100.245 209.059 100.112 208.483 100.112C207.907 100.112 207.373 100.245 206.883 100.512C206.392 100.768 205.997 101.163 205.699 101.696C205.411 102.219 205.267 102.864 205.267 103.632C205.267 104.4 205.411 105.051 205.699 105.584C205.997 106.107 206.387 106.501 206.867 106.768C207.357 107.024 207.891 107.152 208.467 107.152ZM216.348 100.816C216.594 100.272 216.967 99.8507 217.468 99.552C217.98 99.2533 218.604 99.104 219.34 99.104V100.272H219.036C218.226 100.272 217.575 100.491 217.084 100.928C216.594 101.365 216.348 102.096 216.348 103.12V108H215.228V99.264H216.348V100.816ZM229.064 108.128C228.061 108.128 227.24 107.899 226.6 107.44C225.971 106.971 225.619 106.336 225.544 105.536H226.696C226.749 106.027 226.979 106.427 227.384 106.736C227.8 107.035 228.355 107.184 229.048 107.184C229.656 107.184 230.131 107.04 230.472 106.752C230.824 106.464 231 106.107 231 105.68C231 105.381 230.904 105.136 230.712 104.944C230.52 104.752 230.275 104.603 229.976 104.496C229.688 104.379 229.293 104.256 228.792 104.128C228.141 103.957 227.613 103.787 227.208 103.616C226.803 103.445 226.456 103.195 226.168 102.864C225.891 102.523 225.752 102.069 225.752 101.504C225.752 101.077 225.88 100.683 226.136 100.32C226.392 99.9573 226.755 99.6693 227.224 99.456C227.693 99.2427 228.227 99.136 228.824 99.136C229.763 99.136 230.52 99.376 231.096 99.856C231.672 100.325 231.981 100.976 232.024 101.808H230.904C230.872 101.296 230.669 100.885 230.296 100.576C229.933 100.256 229.432 100.096 228.792 100.096C228.227 100.096 227.768 100.229 227.416 100.496C227.064 100.763 226.888 101.093 226.888 101.488C226.888 101.829 226.989 102.112 227.192 102.336C227.405 102.549 227.667 102.72 227.976 102.848C228.285 102.965 228.701 103.099 229.224 103.248C229.853 103.419 230.355 103.584 230.728 103.744C231.101 103.904 231.421 104.139 231.688 104.448C231.955 104.757 232.093 105.168 232.104 105.68C232.104 106.149 231.976 106.571 231.72 106.944C231.464 107.307 231.107 107.595 230.648 107.808C230.189 108.021 229.661 108.128 229.064 108.128ZM235.092 97.616C234.868 97.616 234.676 97.536 234.516 97.376C234.356 97.216 234.276 97.0187 234.276 96.784C234.276 96.5493 234.356 96.3573 234.516 96.208C234.676 96.048 234.868 95.968 235.092 95.968C235.316 95.968 235.508 96.048 235.668 96.208C235.828 96.3573 235.908 96.5493 235.908 96.784C235.908 97.0187 235.828 97.216 235.668 97.376C235.508 97.536 235.316 97.616 235.092 97.616ZM235.652 99.264V108H234.532V99.264H235.652ZM239.964 100.208V105.632C239.964 106.165 240.066 106.533 240.268 106.736C240.471 106.939 240.828 107.04 241.34 107.04H242.364V108H241.164C240.375 108 239.788 107.819 239.404 107.456C239.02 107.083 238.828 106.475 238.828 105.632V100.208H237.612V99.264H238.828V97.072H239.964V99.264H242.364V100.208H239.964ZM248.73 103.616C248.73 102.72 248.906 101.936 249.258 101.264C249.621 100.581 250.117 100.059 250.746 99.696C251.386 99.3227 252.106 99.136 252.906 99.136C253.738 99.136 254.453 99.328 255.05 99.712C255.658 100.096 256.096 100.587 256.362 101.184V99.264H257.482V108H256.362V106.064C256.085 106.661 255.642 107.157 255.034 107.552C254.437 107.936 253.722 108.128 252.89 108.128C252.101 108.128 251.386 107.941 250.746 107.568C250.117 107.195 249.621 106.667 249.258 105.984C248.906 105.301 248.73 104.512 248.73 103.616ZM256.362 103.632C256.362 102.928 256.218 102.309 255.93 101.776C255.642 101.243 255.248 100.832 254.746 100.544C254.256 100.256 253.712 100.112 253.114 100.112C252.496 100.112 251.941 100.251 251.45 100.528C250.96 100.805 250.57 101.211 250.282 101.744C250.005 102.267 249.866 102.891 249.866 103.616C249.866 104.331 250.005 104.96 250.282 105.504C250.57 106.037 250.96 106.448 251.45 106.736C251.941 107.013 252.496 107.152 253.114 107.152C253.712 107.152 254.256 107.008 254.746 106.72C255.248 106.432 255.642 106.021 255.93 105.488C256.218 104.955 256.362 104.336 256.362 103.632ZM270.759 99.104C271.783 99.104 272.615 99.4293 273.255 100.08C273.906 100.72 274.231 101.653 274.231 102.88V108H273.127V103.008C273.127 102.059 272.898 101.333 272.439 100.832C271.98 100.331 271.356 100.08 270.567 100.08C269.746 100.08 269.09 100.352 268.599 100.896C268.108 101.44 267.863 102.229 267.863 103.264V108H266.759V103.008C266.759 102.059 266.53 101.333 266.071 100.832C265.612 100.331 264.983 100.08 264.183 100.08C263.362 100.08 262.706 100.352 262.215 100.896C261.724 101.44 261.479 102.229 261.479 103.264V108H260.359V99.264H261.479V100.768C261.756 100.224 262.151 99.8133 262.663 99.536C263.175 99.248 263.746 99.104 264.375 99.104C265.132 99.104 265.794 99.2853 266.359 99.648C266.935 100.011 267.351 100.544 267.607 101.248C267.842 100.555 268.242 100.027 268.807 99.664C269.383 99.2907 270.034 99.104 270.759 99.104ZM284.942 103.184C284.942 103.568 284.932 103.861 284.91 104.064H277.662C277.694 104.725 277.854 105.291 278.142 105.76C278.43 106.229 278.809 106.587 279.278 106.832C279.748 107.067 280.26 107.184 280.814 107.184C281.54 107.184 282.148 107.008 282.638 106.656C283.14 106.304 283.47 105.829 283.63 105.232H284.814C284.601 106.085 284.142 106.784 283.438 107.328C282.745 107.861 281.87 108.128 280.814 108.128C279.993 108.128 279.257 107.947 278.606 107.584C277.956 107.211 277.444 106.688 277.07 106.016C276.708 105.333 276.526 104.539 276.526 103.632C276.526 102.725 276.708 101.931 277.07 101.248C277.433 100.565 277.94 100.043 278.59 99.68C279.241 99.3173 279.982 99.136 280.814 99.136C281.646 99.136 282.372 99.3173 282.99 99.68C283.62 100.043 284.1 100.533 284.43 101.152C284.772 101.76 284.942 102.437 284.942 103.184ZM283.806 103.152C283.817 102.501 283.684 101.947 283.406 101.488C283.14 101.029 282.772 100.683 282.302 100.448C281.833 100.213 281.321 100.096 280.766 100.096C279.934 100.096 279.225 100.363 278.638 100.896C278.052 101.429 277.726 102.181 277.662 103.152H283.806ZM288.768 100.208V105.632C288.768 106.165 288.869 106.533 289.072 106.736C289.274 106.939 289.632 107.04 290.144 107.04H291.168V108H289.968C289.178 108 288.592 107.819 288.208 107.456C287.824 107.083 287.632 106.475 287.632 105.632V100.208H286.416V99.264H287.632V97.072H288.768V99.264H291.168V100.208H288.768ZM294.359 106.144L292.695 110.336H291.927L293.111 106.144H294.359ZM62.1555 127.632C62.1555 126.725 62.3368 125.936 62.6995 125.264C63.0622 124.581 63.5635 124.059 64.2035 123.696C64.8435 123.323 65.5742 123.136 66.3955 123.136C67.4728 123.136 68.3582 123.403 69.0515 123.936C69.7555 124.469 70.2088 125.195 70.4115 126.112H69.2115C69.0622 125.483 68.7368 124.992 68.2355 124.64C67.7448 124.277 67.1315 124.096 66.3955 124.096C65.8088 124.096 65.2808 124.229 64.8115 124.496C64.3422 124.763 63.9688 125.163 63.6915 125.696C63.4248 126.219 63.2915 126.864 63.2915 127.632C63.2915 128.4 63.4248 129.051 63.6915 129.584C63.9688 130.117 64.3422 130.517 64.8115 130.784C65.2808 131.051 65.8088 131.184 66.3955 131.184C67.1315 131.184 67.7448 131.008 68.2355 130.656C68.7368 130.293 69.0622 129.792 69.2115 129.152H70.4115C70.2088 130.048 69.7555 130.768 69.0515 131.312C68.3475 131.856 67.4622 132.128 66.3955 132.128C65.5742 132.128 64.8435 131.947 64.2035 131.584C63.5635 131.211 63.0622 130.688 62.6995 130.016C62.3368 129.333 62.1555 128.539 62.1555 127.632ZM76.624 132.128C75.8027 132.128 75.0613 131.947 74.4 131.584C73.7493 131.211 73.232 130.688 72.848 130.016C72.4747 129.333 72.288 128.539 72.288 127.632C72.288 126.725 72.48 125.936 72.864 125.264C73.248 124.581 73.7707 124.059 74.432 123.696C75.0933 123.323 75.8347 123.136 76.656 123.136C77.4773 123.136 78.2187 123.323 78.88 123.696C79.552 124.059 80.0747 124.581 80.448 125.264C80.832 125.936 81.024 126.725 81.024 127.632C81.024 128.528 80.832 129.317 80.448 130C80.064 130.683 79.536 131.211 78.864 131.584C78.192 131.947 77.4453 132.128 76.624 132.128ZM76.624 131.152C77.2 131.152 77.7333 131.024 78.224 130.768C78.7147 130.501 79.1093 130.107 79.408 129.584C79.7173 129.051 79.872 128.4 79.872 127.632C79.872 126.864 79.7227 126.219 79.424 125.696C79.1253 125.163 78.7307 124.768 78.24 124.512C77.7493 124.245 77.216 124.112 76.64 124.112C76.064 124.112 75.5307 124.245 75.04 124.512C74.5493 124.768 74.1547 125.163 73.856 125.696C73.568 126.219 73.424 126.864 73.424 127.632C73.424 128.4 73.568 129.051 73.856 129.584C74.1547 130.107 74.544 130.501 75.024 130.768C75.5147 131.024 76.048 131.152 76.624 131.152ZM87.4816 123.104C88.527 123.104 89.3803 123.429 90.0416 124.08C90.703 124.72 91.0336 125.653 91.0336 126.88V132H89.9296V127.008C89.9296 126.059 89.6896 125.333 89.2096 124.832C88.7403 124.331 88.095 124.08 87.2736 124.08C86.431 124.08 85.759 124.347 85.2576 124.88C84.7563 125.413 84.5056 126.197 84.5056 127.232V132H83.3856V123.264H84.5056V124.752C84.783 124.219 85.183 123.813 85.7056 123.536C86.2283 123.248 86.8203 123.104 87.4816 123.104ZM96.8386 132.128C95.836 132.128 95.0146 131.899 94.3746 131.44C93.7453 130.971 93.3933 130.336 93.3186 129.536H94.4706C94.524 130.027 94.7533 130.427 95.1586 130.736C95.5746 131.035 96.1293 131.184 96.8226 131.184C97.4306 131.184 97.9053 131.04 98.2466 130.752C98.5986 130.464 98.7746 130.107 98.7746 129.68C98.7746 129.381 98.6786 129.136 98.4866 128.944C98.2946 128.752 98.0493 128.603 97.7506 128.496C97.4626 128.379 97.068 128.256 96.5666 128.128C95.916 127.957 95.388 127.787 94.9826 127.616C94.5773 127.445 94.2306 127.195 93.9426 126.864C93.6653 126.523 93.5266 126.069 93.5266 125.504C93.5266 125.077 93.6546 124.683 93.9106 124.32C94.1666 123.957 94.5293 123.669 94.9986 123.456C95.468 123.243 96.0013 123.136 96.5986 123.136C97.5373 123.136 98.2946 123.376 98.8706 123.856C99.4466 124.325 99.756 124.976 99.7986 125.808H98.6786C98.6466 125.296 98.444 124.885 98.0706 124.576C97.708 124.256 97.2066 124.096 96.5666 124.096C96.0013 124.096 95.5426 124.229 95.1906 124.496C94.8386 124.763 94.6626 125.093 94.6626 125.488C94.6626 125.829 94.764 126.112 94.9666 126.336C95.18 126.549 95.4413 126.72 95.7506 126.848C96.06 126.965 96.476 127.099 96.9986 127.248C97.628 127.419 98.1293 127.584 98.5026 127.744C98.876 127.904 99.196 128.139 99.4626 128.448C99.7293 128.757 99.868 129.168 99.8786 129.68C99.8786 130.149 99.7506 130.571 99.4946 130.944C99.2386 131.307 98.8813 131.595 98.4226 131.808C97.964 132.021 97.436 132.128 96.8386 132.128ZM110.211 127.184C110.211 127.568 110.2 127.861 110.179 128.064H102.931C102.963 128.725 103.123 129.291 103.411 129.76C103.699 130.229 104.078 130.587 104.547 130.832C105.016 131.067 105.528 131.184 106.083 131.184C106.808 131.184 107.416 131.008 107.907 130.656C108.408 130.304 108.739 129.829 108.899 129.232H110.083C109.87 130.085 109.411 130.784 108.707 131.328C108.014 131.861 107.139 132.128 106.083 132.128C105.262 132.128 104.526 131.947 103.875 131.584C103.224 131.211 102.712 130.688 102.339 130.016C101.976 129.333 101.795 128.539 101.795 127.632C101.795 126.725 101.976 125.931 102.339 125.248C102.702 124.565 103.208 124.043 103.859 123.68C104.51 123.317 105.251 123.136 106.083 123.136C106.915 123.136 107.64 123.317 108.259 123.68C108.888 124.043 109.368 124.533 109.699 125.152C110.04 125.76 110.211 126.437 110.211 127.184ZM109.075 127.152C109.086 126.501 108.952 125.947 108.675 125.488C108.408 125.029 108.04 124.683 107.571 124.448C107.102 124.213 106.59 124.096 106.035 124.096C105.203 124.096 104.494 124.363 103.907 124.896C103.32 125.429 102.995 126.181 102.931 127.152H109.075ZM112.068 127.632C112.068 126.725 112.249 125.936 112.612 125.264C112.975 124.581 113.476 124.059 114.116 123.696C114.756 123.323 115.487 123.136 116.308 123.136C117.385 123.136 118.271 123.403 118.964 123.936C119.668 124.469 120.121 125.195 120.324 126.112H119.124C118.975 125.483 118.649 124.992 118.148 124.64C117.657 124.277 117.044 124.096 116.308 124.096C115.721 124.096 115.193 124.229 114.724 124.496C114.255 124.763 113.881 125.163 113.604 125.696C113.337 126.219 113.204 126.864 113.204 127.632C113.204 128.4 113.337 129.051 113.604 129.584C113.881 130.117 114.255 130.517 114.724 130.784C115.193 131.051 115.721 131.184 116.308 131.184C117.044 131.184 117.657 131.008 118.148 130.656C118.649 130.293 118.975 129.792 119.124 129.152H120.324C120.121 130.048 119.668 130.768 118.964 131.312C118.26 131.856 117.375 132.128 116.308 132.128C115.487 132.128 114.756 131.947 114.116 131.584C113.476 131.211 112.975 130.688 112.612 130.016C112.249 129.333 112.068 128.539 112.068 127.632ZM124.168 124.208V129.632C124.168 130.165 124.27 130.533 124.472 130.736C124.675 130.939 125.032 131.04 125.544 131.04H126.568V132H125.368C124.579 132 123.992 131.819 123.608 131.456C123.224 131.083 123.032 130.475 123.032 129.632V124.208H121.816V123.264H123.032V121.072H124.168V123.264H126.568V124.208H124.168ZM136.64 127.184C136.64 127.568 136.629 127.861 136.608 128.064H129.36C129.392 128.725 129.552 129.291 129.84 129.76C130.128 130.229 130.506 130.587 130.976 130.832C131.445 131.067 131.957 131.184 132.512 131.184C133.237 131.184 133.845 131.008 134.336 130.656C134.837 130.304 135.168 129.829 135.328 129.232H136.512C136.298 130.085 135.84 130.784 135.136 131.328C134.442 131.861 133.568 132.128 132.512 132.128C131.69 132.128 130.954 131.947 130.304 131.584C129.653 131.211 129.141 130.688 128.768 130.016C128.405 129.333 128.224 128.539 128.224 127.632C128.224 126.725 128.405 125.931 128.768 125.248C129.13 124.565 129.637 124.043 130.288 123.68C130.938 123.317 131.68 123.136 132.512 123.136C133.344 123.136 134.069 123.317 134.688 123.68C135.317 124.043 135.797 124.533 136.128 125.152C136.469 125.76 136.64 126.437 136.64 127.184ZM135.504 127.152C135.514 126.501 135.381 125.947 135.104 125.488C134.837 125.029 134.469 124.683 134 124.448C133.53 124.213 133.018 124.096 132.464 124.096C131.632 124.096 130.922 124.363 130.336 124.896C129.749 125.429 129.424 126.181 129.36 127.152H135.504ZM140.465 124.208V129.632C140.465 130.165 140.566 130.533 140.769 130.736C140.971 130.939 141.329 131.04 141.841 131.04H142.865V132H141.665C140.875 132 140.289 131.819 139.905 131.456C139.521 131.083 139.329 130.475 139.329 129.632V124.208H138.113V123.264H139.329V121.072H140.465V123.264H142.865V124.208H140.465ZM152.6 123.264V132H151.48V130.464C151.224 131.008 150.829 131.424 150.296 131.712C149.763 132 149.165 132.144 148.504 132.144C147.459 132.144 146.605 131.824 145.944 131.184C145.283 130.533 144.952 129.595 144.952 128.368V123.264H146.056V128.24C146.056 129.189 146.291 129.915 146.76 130.416C147.24 130.917 147.891 131.168 148.712 131.168C149.555 131.168 150.227 130.901 150.728 130.368C151.229 129.835 151.48 129.051 151.48 128.016V123.264H152.6ZM156.597 124.816C156.842 124.272 157.216 123.851 157.717 123.552C158.229 123.253 158.853 123.104 159.589 123.104V124.272H159.285C158.474 124.272 157.824 124.491 157.333 124.928C156.842 125.365 156.597 126.096 156.597 127.12V132H155.477V123.264H156.597V124.816ZM165.792 127.616C165.792 126.72 165.968 125.936 166.32 125.264C166.683 124.581 167.179 124.059 167.808 123.696C168.448 123.323 169.168 123.136 169.968 123.136C170.8 123.136 171.515 123.328 172.112 123.712C172.72 124.096 173.158 124.587 173.424 125.184V123.264H174.544V132H173.424V130.064C173.147 130.661 172.704 131.157 172.096 131.552C171.499 131.936 170.784 132.128 169.952 132.128C169.163 132.128 168.448 131.941 167.808 131.568C167.179 131.195 166.683 130.667 166.32 129.984C165.968 129.301 165.792 128.512 165.792 127.616ZM173.424 127.632C173.424 126.928 173.28 126.309 172.992 125.776C172.704 125.243 172.31 124.832 171.808 124.544C171.318 124.256 170.774 124.112 170.176 124.112C169.558 124.112 169.003 124.251 168.512 124.528C168.022 124.805 167.632 125.211 167.344 125.744C167.067 126.267 166.928 126.891 166.928 127.616C166.928 128.331 167.067 128.96 167.344 129.504C167.632 130.037 168.022 130.448 168.512 130.736C169.003 131.013 169.558 131.152 170.176 131.152C170.774 131.152 171.318 131.008 171.808 130.72C172.31 130.432 172.704 130.021 172.992 129.488C173.28 128.955 173.424 128.336 173.424 127.632ZM176.909 127.616C176.909 126.72 177.091 125.936 177.453 125.264C177.816 124.581 178.312 124.059 178.941 123.696C179.581 123.323 180.301 123.136 181.101 123.136C181.869 123.136 182.563 123.323 183.181 123.696C183.8 124.069 184.253 124.555 184.541 125.152V120.16H185.661V132H184.541V130.048C184.275 130.656 183.837 131.157 183.229 131.552C182.621 131.936 181.907 132.128 181.085 132.128C180.285 132.128 179.565 131.941 178.925 131.568C178.296 131.195 177.8 130.667 177.437 129.984C177.085 129.301 176.909 128.512 176.909 127.616ZM184.541 127.632C184.541 126.928 184.397 126.309 184.109 125.776C183.821 125.243 183.427 124.832 182.925 124.544C182.435 124.256 181.891 124.112 181.293 124.112C180.675 124.112 180.12 124.251 179.629 124.528C179.139 124.805 178.749 125.211 178.461 125.744C178.184 126.267 178.045 126.891 178.045 127.616C178.045 128.331 178.184 128.96 178.461 129.504C178.749 130.037 179.139 130.448 179.629 130.736C180.12 131.013 180.675 131.152 181.293 131.152C181.891 131.152 182.435 131.008 182.925 130.72C183.427 130.432 183.821 130.021 184.109 129.488C184.397 128.955 184.541 128.336 184.541 127.632ZM189.098 121.616C188.874 121.616 188.682 121.536 188.522 121.376C188.362 121.216 188.282 121.019 188.282 120.784C188.282 120.549 188.362 120.357 188.522 120.208C188.682 120.048 188.874 119.968 189.098 119.968C189.322 119.968 189.514 120.048 189.674 120.208C189.834 120.357 189.914 120.549 189.914 120.784C189.914 121.019 189.834 121.216 189.674 121.376C189.514 121.536 189.322 121.616 189.098 121.616ZM189.658 123.264V132H188.538V123.264H189.658ZM193.618 125.184C193.896 124.597 194.333 124.112 194.93 123.728C195.538 123.333 196.258 123.136 197.09 123.136C197.88 123.136 198.589 123.323 199.218 123.696C199.858 124.059 200.354 124.581 200.706 125.264C201.069 125.936 201.25 126.72 201.25 127.616C201.25 128.512 201.069 129.301 200.706 129.984C200.354 130.667 199.858 131.195 199.218 131.568C198.589 131.941 197.88 132.128 197.09 132.128C196.269 132.128 195.554 131.936 194.946 131.552C194.338 131.157 193.896 130.667 193.618 130.08V136.128H192.514V123.264H193.618V125.184ZM200.114 127.616C200.114 126.891 199.97 126.267 199.682 125.744C199.405 125.211 199.021 124.805 198.53 124.528C198.04 124.251 197.485 124.112 196.866 124.112C196.269 124.112 195.72 124.256 195.218 124.544C194.728 124.832 194.338 125.243 194.05 125.776C193.762 126.309 193.618 126.928 193.618 127.632C193.618 128.336 193.762 128.955 194.05 129.488C194.338 130.021 194.728 130.432 195.218 130.72C195.72 131.008 196.269 131.152 196.866 131.152C197.485 131.152 198.04 131.013 198.53 130.736C199.021 130.448 199.405 130.037 199.682 129.504C199.97 128.96 200.114 128.331 200.114 127.616ZM204.191 121.616C203.967 121.616 203.775 121.536 203.615 121.376C203.455 121.216 203.375 121.019 203.375 120.784C203.375 120.549 203.455 120.357 203.615 120.208C203.775 120.048 203.967 119.968 204.191 119.968C204.415 119.968 204.607 120.048 204.767 120.208C204.927 120.357 205.007 120.549 205.007 120.784C205.007 121.019 204.927 121.216 204.767 121.376C204.607 121.536 204.415 121.616 204.191 121.616ZM204.751 123.264V132H203.631V123.264H204.751ZM210.615 132.128C209.613 132.128 208.791 131.899 208.151 131.44C207.522 130.971 207.17 130.336 207.095 129.536H208.247C208.301 130.027 208.53 130.427 208.935 130.736C209.351 131.035 209.906 131.184 210.599 131.184C211.207 131.184 211.682 131.04 212.023 130.752C212.375 130.464 212.551 130.107 212.551 129.68C212.551 129.381 212.455 129.136 212.263 128.944C212.071 128.752 211.826 128.603 211.527 128.496C211.239 128.379 210.845 128.256 210.343 128.128C209.693 127.957 209.165 127.787 208.759 127.616C208.354 127.445 208.007 127.195 207.719 126.864C207.442 126.523 207.303 126.069 207.303 125.504C207.303 125.077 207.431 124.683 207.687 124.32C207.943 123.957 208.306 123.669 208.775 123.456C209.245 123.243 209.778 123.136 210.375 123.136C211.314 123.136 212.071 123.376 212.647 123.856C213.223 124.325 213.533 124.976 213.575 125.808H212.455C212.423 125.296 212.221 124.885 211.847 124.576C211.485 124.256 210.983 124.096 210.343 124.096C209.778 124.096 209.319 124.229 208.967 124.496C208.615 124.763 208.439 125.093 208.439 125.488C208.439 125.829 208.541 126.112 208.743 126.336C208.957 126.549 209.218 126.72 209.527 126.848C209.837 126.965 210.253 127.099 210.775 127.248C211.405 127.419 211.906 127.584 212.279 127.744C212.653 127.904 212.973 128.139 213.239 128.448C213.506 128.757 213.645 129.168 213.655 129.68C213.655 130.149 213.527 130.571 213.271 130.944C213.015 131.307 212.658 131.595 212.199 131.808C211.741 132.021 211.213 132.128 210.615 132.128ZM215.572 127.632C215.572 126.725 215.753 125.936 216.116 125.264C216.478 124.581 216.98 124.059 217.62 123.696C218.26 123.323 218.99 123.136 219.812 123.136C220.889 123.136 221.774 123.403 222.468 123.936C223.172 124.469 223.625 125.195 223.828 126.112H222.628C222.478 125.483 222.153 124.992 221.652 124.64C221.161 124.277 220.548 124.096 219.812 124.096C219.225 124.096 218.697 124.229 218.228 124.496C217.758 124.763 217.385 125.163 217.108 125.696C216.841 126.219 216.708 126.864 216.708 127.632C216.708 128.4 216.841 129.051 217.108 129.584C217.385 130.117 217.758 130.517 218.228 130.784C218.697 131.051 219.225 131.184 219.812 131.184C220.548 131.184 221.161 131.008 221.652 130.656C222.153 130.293 222.478 129.792 222.628 129.152H223.828C223.625 130.048 223.172 130.768 222.468 131.312C221.764 131.856 220.878 132.128 219.812 132.128C218.99 132.128 218.26 131.947 217.62 131.584C216.98 131.211 216.478 130.688 216.116 130.016C215.753 129.333 215.572 128.539 215.572 127.632ZM226.776 121.616C226.552 121.616 226.36 121.536 226.2 121.376C226.04 121.216 225.96 121.019 225.96 120.784C225.96 120.549 226.04 120.357 226.2 120.208C226.36 120.048 226.552 119.968 226.776 119.968C227 119.968 227.192 120.048 227.352 120.208C227.512 120.357 227.592 120.549 227.592 120.784C227.592 121.019 227.512 121.216 227.352 121.376C227.192 121.536 227 121.616 226.776 121.616ZM227.336 123.264V132H226.216V123.264H227.336ZM234.288 123.104C235.334 123.104 236.187 123.429 236.848 124.08C237.51 124.72 237.84 125.653 237.84 126.88V132H236.736V127.008C236.736 126.059 236.496 125.333 236.016 124.832C235.547 124.331 234.902 124.08 234.08 124.08C233.238 124.08 232.566 124.347 232.064 124.88C231.563 125.413 231.312 126.197 231.312 127.232V132H230.192V123.264H231.312V124.752C231.59 124.219 231.99 123.813 232.512 123.536C233.035 123.248 233.627 123.104 234.288 123.104ZM244.301 123.136C245.123 123.136 245.837 123.328 246.445 123.712C247.053 124.096 247.491 124.581 247.757 125.168V123.264H248.877V132.224C248.877 133.024 248.701 133.733 248.349 134.352C248.008 134.971 247.528 135.445 246.909 135.776C246.291 136.117 245.587 136.288 244.797 136.288C243.677 136.288 242.744 136.021 241.997 135.488C241.261 134.955 240.803 134.229 240.621 133.312H241.725C241.917 133.92 242.28 134.405 242.813 134.768C243.357 135.131 244.019 135.312 244.797 135.312C245.363 135.312 245.869 135.189 246.317 134.944C246.765 134.709 247.117 134.357 247.373 133.888C247.629 133.419 247.757 132.864 247.757 132.224V130.064C247.48 130.661 247.037 131.157 246.429 131.552C245.832 131.936 245.123 132.128 244.301 132.128C243.501 132.128 242.781 131.941 242.141 131.568C241.512 131.195 241.016 130.667 240.653 129.984C240.301 129.301 240.125 128.512 240.125 127.616C240.125 126.72 240.301 125.936 240.653 125.264C241.016 124.581 241.512 124.059 242.141 123.696C242.781 123.323 243.501 123.136 244.301 123.136ZM247.757 127.632C247.757 126.928 247.613 126.309 247.325 125.776C247.037 125.243 246.643 124.832 246.141 124.544C245.651 124.256 245.107 124.112 244.509 124.112C243.891 124.112 243.336 124.251 242.845 124.528C242.355 124.805 241.965 125.211 241.677 125.744C241.4 126.267 241.261 126.891 241.261 127.616C241.261 128.331 241.4 128.96 241.677 129.504C241.965 130.037 242.355 130.448 242.845 130.736C243.336 131.013 243.891 131.152 244.509 131.152C245.107 131.152 245.651 131.008 246.141 130.72C246.643 130.432 247.037 130.021 247.325 129.488C247.613 128.955 247.757 128.336 247.757 127.632ZM264.369 127.184C264.369 127.568 264.358 127.861 264.337 128.064H257.089C257.121 128.725 257.281 129.291 257.569 129.76C257.857 130.229 258.236 130.587 258.705 130.832C259.174 131.067 259.686 131.184 260.241 131.184C260.966 131.184 261.574 131.008 262.065 130.656C262.566 130.304 262.897 129.829 263.057 129.232H264.241C264.028 130.085 263.569 130.784 262.865 131.328C262.172 131.861 261.297 132.128 260.241 132.128C259.42 132.128 258.684 131.947 258.033 131.584C257.382 131.211 256.87 130.688 256.497 130.016C256.134 129.333 255.953 128.539 255.953 127.632C255.953 126.725 256.134 125.931 256.497 125.248C256.86 124.565 257.366 124.043 258.017 123.68C258.668 123.317 259.409 123.136 260.241 123.136C261.073 123.136 261.798 123.317 262.417 123.68C263.046 124.043 263.526 124.533 263.857 125.152C264.198 125.76 264.369 126.437 264.369 127.184ZM263.233 127.152C263.244 126.501 263.11 125.947 262.833 125.488C262.566 125.029 262.198 124.683 261.729 124.448C261.26 124.213 260.748 124.096 260.193 124.096C259.361 124.096 258.652 124.363 258.065 124.896C257.478 125.429 257.153 126.181 257.089 127.152H263.233ZM267.858 120.16V132H266.738V120.16H267.858ZM271.274 121.616C271.05 121.616 270.858 121.536 270.698 121.376C270.538 121.216 270.458 121.019 270.458 120.784C270.458 120.549 270.538 120.357 270.698 120.208C270.858 120.048 271.05 119.968 271.274 119.968C271.498 119.968 271.69 120.048 271.85 120.208C272.01 120.357 272.09 120.549 272.09 120.784C272.09 121.019 272.01 121.216 271.85 121.376C271.69 121.536 271.498 121.616 271.274 121.616ZM271.834 123.264V132H270.714V123.264H271.834ZM276.147 124.208V129.632C276.147 130.165 276.248 130.533 276.451 130.736C276.653 130.939 277.011 131.04 277.523 131.04H278.547V132H277.347C276.557 132 275.971 131.819 275.587 131.456C275.203 131.083 275.011 130.475 275.011 129.632V124.208H273.795V123.264H275.011V121.072H276.147V123.264H278.547V124.208H276.147ZM292.992 123.264V132H291.872V130.464C291.616 131.008 291.222 131.424 290.688 131.712C290.155 132 289.558 132.144 288.896 132.144C287.851 132.144 286.998 131.824 286.336 131.184C285.675 130.533 285.344 129.595 285.344 128.368V123.264H286.448V128.24C286.448 129.189 286.683 129.915 287.152 130.416C287.632 130.917 288.283 131.168 289.104 131.168C289.947 131.168 290.619 130.901 291.12 130.368C291.622 129.835 291.872 129.051 291.872 128.016V123.264H292.992ZM297.325 124.208V129.632C297.325 130.165 297.427 130.533 297.629 130.736C297.832 130.939 298.189 131.04 298.701 131.04H299.725V132H298.525C297.736 132 297.149 131.819 296.765 131.456C296.381 131.083 296.189 130.475 296.189 129.632V124.208H294.973V123.264H296.189V121.072H297.325V123.264H299.725V124.208H297.325ZM57.2571 151.616C57.2571 150.72 57.4331 149.936 57.7851 149.264C58.1477 148.581 58.6437 148.059 59.2731 147.696C59.9131 147.323 60.6331 147.136 61.4331 147.136C62.2651 147.136 62.9797 147.328 63.5771 147.712C64.1851 148.096 64.6224 148.587 64.8891 149.184V147.264H66.0091V156H64.8891V154.064C64.6117 154.661 64.1691 155.157 63.5611 155.552C62.9637 155.936 62.2491 156.128 61.4171 156.128C60.6277 156.128 59.9131 155.941 59.2731 155.568C58.6437 155.195 58.1477 154.667 57.7851 153.984C57.4331 153.301 57.2571 152.512 57.2571 151.616ZM64.8891 151.632C64.8891 150.928 64.7451 150.309 64.4571 149.776C64.1691 149.243 63.7744 148.832 63.2731 148.544C62.7824 148.256 62.2384 148.112 61.6411 148.112C61.0224 148.112 60.4677 148.251 59.9771 148.528C59.4864 148.805 59.0971 149.211 58.8091 149.744C58.5317 150.267 58.3931 150.891 58.3931 151.616C58.3931 152.331 58.5317 152.96 58.8091 153.504C59.0971 154.037 59.4864 154.448 59.9771 154.736C60.4677 155.013 61.0224 155.152 61.6411 155.152C62.2384 155.152 62.7824 155.008 63.2731 154.72C63.7744 154.432 64.1691 154.021 64.4571 153.488C64.7451 152.955 64.8891 152.336 64.8891 151.632ZM70.0059 144.16V156H68.8859V144.16H70.0059ZM73.4222 145.616C73.1982 145.616 73.0062 145.536 72.8462 145.376C72.6862 145.216 72.6062 145.019 72.6062 144.784C72.6062 144.549 72.6862 144.357 72.8462 144.208C73.0062 144.048 73.1982 143.968 73.4222 143.968C73.6462 143.968 73.8382 144.048 73.9982 144.208C74.1582 144.357 74.2382 144.549 74.2382 144.784C74.2382 145.019 74.1582 145.216 73.9982 145.376C73.8382 145.536 73.6462 145.616 73.4222 145.616ZM73.9822 147.264V156H72.8622V147.264H73.9822ZM76.3264 151.616C76.3264 150.72 76.5078 149.936 76.8704 149.264C77.2331 148.581 77.7291 148.059 78.3584 147.696C78.9984 147.323 79.7184 147.136 80.5184 147.136C81.3398 147.136 82.0544 147.333 82.6624 147.728C83.2704 148.112 83.7024 148.597 83.9584 149.184V147.264H85.0784V160.128H83.9584V154.08C83.7024 154.667 83.2651 155.157 82.6464 155.552C82.0384 155.936 81.3184 156.128 80.4864 156.128C79.6971 156.128 78.9824 155.941 78.3424 155.568C77.7131 155.195 77.2171 154.667 76.8544 153.984C76.5024 153.301 76.3264 152.512 76.3264 151.616ZM83.9584 151.632C83.9584 150.928 83.8144 150.309 83.5264 149.776C83.2384 149.243 82.8438 148.832 82.3424 148.544C81.8518 148.256 81.3078 148.112 80.7104 148.112C80.0918 148.112 79.5371 148.251 79.0464 148.528C78.5558 148.805 78.1664 149.211 77.8784 149.744C77.6011 150.267 77.4624 150.891 77.4624 151.616C77.4624 152.331 77.6011 152.96 77.8784 153.504C78.1664 154.037 78.5558 154.448 79.0464 154.736C79.5371 155.013 80.0918 155.152 80.7104 155.152C81.3078 155.152 81.8518 155.008 82.3424 154.72C82.8438 154.432 83.2384 154.021 83.5264 153.488C83.8144 152.955 83.9584 152.336 83.9584 151.632ZM95.5233 147.264V156H94.4033V154.464C94.1473 155.008 93.7526 155.424 93.2193 155.712C92.686 156 92.0886 156.144 91.4273 156.144C90.382 156.144 89.5286 155.824 88.8673 155.184C88.206 154.533 87.8753 153.595 87.8753 152.368V147.264H88.9793V152.24C88.9793 153.189 89.214 153.915 89.6833 154.416C90.1633 154.917 90.814 155.168 91.6353 155.168C92.478 155.168 93.15 154.901 93.6513 154.368C94.1526 153.835 94.4033 153.051 94.4033 152.016V147.264H95.5233ZM97.8883 151.616C97.8883 150.72 98.0643 149.936 98.4163 149.264C98.779 148.581 99.275 148.059 99.9043 147.696C100.544 147.323 101.264 147.136 102.064 147.136C102.896 147.136 103.611 147.328 104.208 147.712C104.816 148.096 105.254 148.587 105.52 149.184V147.264H106.64V156H105.52V154.064C105.243 154.661 104.8 155.157 104.192 155.552C103.595 155.936 102.88 156.128 102.048 156.128C101.259 156.128 100.544 155.941 99.9043 155.568C99.275 155.195 98.779 154.667 98.4163 153.984C98.0643 153.301 97.8883 152.512 97.8883 151.616ZM105.52 151.632C105.52 150.928 105.376 150.309 105.088 149.776C104.8 149.243 104.406 148.832 103.904 148.544C103.414 148.256 102.87 148.112 102.272 148.112C101.654 148.112 101.099 148.251 100.608 148.528C100.118 148.805 99.7283 149.211 99.4403 149.744C99.163 150.267 99.0243 150.891 99.0243 151.616C99.0243 152.331 99.163 152.96 99.4403 153.504C99.7283 154.037 100.118 154.448 100.608 154.736C101.099 155.013 101.654 155.152 102.272 155.152C102.87 155.152 103.414 155.008 103.904 154.72C104.406 154.432 104.8 154.021 105.088 153.488C105.376 152.955 105.52 152.336 105.52 151.632ZM119.917 147.104C120.941 147.104 121.773 147.429 122.413 148.08C123.064 148.72 123.389 149.653 123.389 150.88V156H122.285V151.008C122.285 150.059 122.056 149.333 121.597 148.832C121.139 148.331 120.515 148.08 119.725 148.08C118.904 148.08 118.248 148.352 117.757 148.896C117.267 149.44 117.021 150.229 117.021 151.264V156H115.917V151.008C115.917 150.059 115.688 149.333 115.229 148.832C114.771 148.331 114.141 148.08 113.341 148.08C112.52 148.08 111.864 148.352 111.373 148.896C110.883 149.44 110.637 150.229 110.637 151.264V156H109.517V147.264H110.637V148.768C110.915 148.224 111.309 147.813 111.821 147.536C112.333 147.248 112.904 147.104 113.533 147.104C114.291 147.104 114.952 147.285 115.517 147.648C116.093 148.011 116.509 148.544 116.765 149.248C117 148.555 117.4 148.027 117.965 147.664C118.541 147.291 119.192 147.104 119.917 147.104ZM127.221 154.144L125.557 158.336H124.789L125.973 154.144H127.221ZM135.097 149.184C135.374 148.597 135.811 148.112 136.409 147.728C137.017 147.333 137.737 147.136 138.569 147.136C139.358 147.136 140.067 147.323 140.697 147.696C141.337 148.059 141.833 148.581 142.185 149.264C142.547 149.936 142.729 150.72 142.729 151.616C142.729 152.512 142.547 153.301 142.185 153.984C141.833 154.667 141.337 155.195 140.697 155.568C140.067 155.941 139.358 156.128 138.569 156.128C137.747 156.128 137.033 155.936 136.425 155.552C135.817 155.157 135.374 154.667 135.097 154.08V160.128H133.993V147.264H135.097V149.184ZM141.593 151.616C141.593 150.891 141.449 150.267 141.161 149.744C140.883 149.211 140.499 148.805 140.009 148.528C139.518 148.251 138.963 148.112 138.345 148.112C137.747 148.112 137.198 148.256 136.697 148.544C136.206 148.832 135.817 149.243 135.529 149.776C135.241 150.309 135.097 150.928 135.097 151.632C135.097 152.336 135.241 152.955 135.529 153.488C135.817 154.021 136.206 154.432 136.697 154.72C137.198 155.008 137.747 155.152 138.345 155.152C138.963 155.152 139.518 155.013 140.009 154.736C140.499 154.448 140.883 154.037 141.161 153.504C141.449 152.96 141.593 152.331 141.593 151.616ZM152.678 147.264V156H151.558V154.464C151.302 155.008 150.907 155.424 150.374 155.712C149.84 156 149.243 156.144 148.582 156.144C147.536 156.144 146.683 155.824 146.022 155.184C145.36 154.533 145.03 153.595 145.03 152.368V147.264H146.134V152.24C146.134 153.189 146.368 153.915 146.838 154.416C147.318 154.917 147.968 155.168 148.79 155.168C149.632 155.168 150.304 154.901 150.806 154.368C151.307 153.835 151.558 153.051 151.558 152.016V147.264H152.678ZM156.675 148.816C156.92 148.272 157.293 147.851 157.795 147.552C158.307 147.253 158.931 147.104 159.667 147.104V148.272H159.363C158.552 148.272 157.901 148.491 157.411 148.928C156.92 149.365 156.675 150.096 156.675 151.12V156H155.555V147.264H156.675V148.816ZM169.24 147.264V156H168.12V154.464C167.864 155.008 167.469 155.424 166.936 155.712C166.402 156 165.805 156.144 165.144 156.144C164.098 156.144 163.245 155.824 162.584 155.184C161.922 154.533 161.592 153.595 161.592 152.368V147.264H162.696V152.24C162.696 153.189 162.93 153.915 163.4 154.416C163.88 154.917 164.53 155.168 165.352 155.168C166.194 155.168 166.866 154.901 167.368 154.368C167.869 153.835 168.12 153.051 168.12 152.016V147.264H169.24ZM175.125 156.128C174.122 156.128 173.301 155.899 172.661 155.44C172.031 154.971 171.679 154.336 171.605 153.536H172.757C172.81 154.027 173.039 154.427 173.445 154.736C173.861 155.035 174.415 155.184 175.109 155.184C175.717 155.184 176.191 155.04 176.533 154.752C176.885 154.464 177.061 154.107 177.061 153.68C177.061 153.381 176.965 153.136 176.773 152.944C176.581 152.752 176.335 152.603 176.037 152.496C175.749 152.379 175.354 152.256 174.853 152.128C174.202 151.957 173.674 151.787 173.269 151.616C172.863 151.445 172.517 151.195 172.229 150.864C171.951 150.523 171.813 150.069 171.813 149.504C171.813 149.077 171.941 148.683 172.197 148.32C172.453 147.957 172.815 147.669 173.285 147.456C173.754 147.243 174.287 147.136 174.885 147.136C175.823 147.136 176.581 147.376 177.157 147.856C177.733 148.325 178.042 148.976 178.085 149.808H176.965C176.933 149.296 176.73 148.885 176.357 148.576C175.994 148.256 175.493 148.096 174.853 148.096C174.287 148.096 173.829 148.229 173.477 148.496C173.125 148.763 172.949 149.093 172.949 149.488C172.949 149.829 173.05 150.112 173.253 150.336C173.466 150.549 173.727 150.72 174.037 150.848C174.346 150.965 174.762 151.099 175.285 151.248C175.914 151.419 176.415 151.584 176.789 151.744C177.162 151.904 177.482 152.139 177.749 152.448C178.015 152.757 178.154 153.168 178.165 153.68C178.165 154.149 178.037 154.571 177.781 154.944C177.525 155.307 177.167 155.595 176.709 155.808C176.25 156.021 175.722 156.128 175.125 156.128ZM188.311 156.128C187.309 156.128 186.487 155.899 185.847 155.44C185.218 154.971 184.866 154.336 184.791 153.536H185.943C185.997 154.027 186.226 154.427 186.631 154.736C187.047 155.035 187.602 155.184 188.295 155.184C188.903 155.184 189.378 155.04 189.719 154.752C190.071 154.464 190.247 154.107 190.247 153.68C190.247 153.381 190.151 153.136 189.959 152.944C189.767 152.752 189.522 152.603 189.223 152.496C188.935 152.379 188.541 152.256 188.039 152.128C187.389 151.957 186.861 151.787 186.455 151.616C186.05 151.445 185.703 151.195 185.415 150.864C185.138 150.523 184.999 150.069 184.999 149.504C184.999 149.077 185.127 148.683 185.383 148.32C185.639 147.957 186.002 147.669 186.471 147.456C186.941 147.243 187.474 147.136 188.071 147.136C189.01 147.136 189.767 147.376 190.343 147.856C190.919 148.325 191.229 148.976 191.271 149.808H190.151C190.119 149.296 189.917 148.885 189.543 148.576C189.181 148.256 188.679 148.096 188.039 148.096C187.474 148.096 187.015 148.229 186.663 148.496C186.311 148.763 186.135 149.093 186.135 149.488C186.135 149.829 186.237 150.112 186.439 150.336C186.653 150.549 186.914 150.72 187.223 150.848C187.533 150.965 187.949 151.099 188.471 151.248C189.101 151.419 189.602 151.584 189.975 151.744C190.349 151.904 190.669 152.139 190.935 152.448C191.202 152.757 191.341 153.168 191.351 153.68C191.351 154.149 191.223 154.571 190.967 154.944C190.711 155.307 190.354 155.595 189.895 155.808C189.437 156.021 188.909 156.128 188.311 156.128ZM194.34 145.616C194.116 145.616 193.924 145.536 193.764 145.376C193.604 145.216 193.524 145.019 193.524 144.784C193.524 144.549 193.604 144.357 193.764 144.208C193.924 144.048 194.116 143.968 194.34 143.968C194.564 143.968 194.756 144.048 194.916 144.208C195.076 144.357 195.156 144.549 195.156 144.784C195.156 145.019 195.076 145.216 194.916 145.376C194.756 145.536 194.564 145.616 194.34 145.616ZM194.9 147.264V156H193.78V147.264H194.9ZM199.212 148.208V153.632C199.212 154.165 199.313 154.533 199.516 154.736C199.719 154.939 200.076 155.04 200.588 155.04H201.612V156H200.412C199.623 156 199.036 155.819 198.652 155.456C198.268 155.083 198.076 154.475 198.076 153.632V148.208H196.86V147.264H198.076V145.072H199.212V147.264H201.612V148.208H199.212ZM207.978 151.616C207.978 150.72 208.154 149.936 208.506 149.264C208.868 148.581 209.364 148.059 209.994 147.696C210.634 147.323 211.354 147.136 212.154 147.136C212.986 147.136 213.7 147.328 214.298 147.712C214.906 148.096 215.343 148.587 215.61 149.184V147.264H216.73V156H215.61V154.064C215.332 154.661 214.89 155.157 214.282 155.552C213.684 155.936 212.97 156.128 212.138 156.128C211.348 156.128 210.634 155.941 209.994 155.568C209.364 155.195 208.868 154.667 208.506 153.984C208.154 153.301 207.978 152.512 207.978 151.616ZM215.61 151.632C215.61 150.928 215.466 150.309 215.178 149.776C214.89 149.243 214.495 148.832 213.994 148.544C213.503 148.256 212.959 148.112 212.362 148.112C211.743 148.112 211.188 148.251 210.698 148.528C210.207 148.805 209.818 149.211 209.53 149.744C209.252 150.267 209.114 150.891 209.114 151.616C209.114 152.331 209.252 152.96 209.53 153.504C209.818 154.037 210.207 154.448 210.698 154.736C211.188 155.013 211.743 155.152 212.362 155.152C212.959 155.152 213.503 155.008 213.994 154.72C214.495 154.432 214.89 154.021 215.178 153.488C215.466 152.955 215.61 152.336 215.61 151.632ZM230.007 147.104C231.031 147.104 231.863 147.429 232.503 148.08C233.153 148.72 233.479 149.653 233.479 150.88V156H232.375V151.008C232.375 150.059 232.145 149.333 231.687 148.832C231.228 148.331 230.604 148.08 229.815 148.08C228.993 148.08 228.337 148.352 227.847 148.896C227.356 149.44 227.111 150.229 227.111 151.264V156H226.007V151.008C226.007 150.059 225.777 149.333 225.319 148.832C224.86 148.331 224.231 148.08 223.431 148.08C222.609 148.08 221.953 148.352 221.463 148.896C220.972 149.44 220.727 150.229 220.727 151.264V156H219.607V147.264H220.727V148.768C221.004 148.224 221.399 147.813 221.911 147.536C222.423 147.248 222.993 147.104 223.623 147.104C224.38 147.104 225.041 147.285 225.607 147.648C226.183 148.011 226.599 148.544 226.855 149.248C227.089 148.555 227.489 148.027 228.055 147.664C228.631 147.291 229.281 147.104 230.007 147.104ZM244.19 151.184C244.19 151.568 244.179 151.861 244.158 152.064H236.91C236.942 152.725 237.102 153.291 237.39 153.76C237.678 154.229 238.057 154.587 238.526 154.832C238.995 155.067 239.507 155.184 240.062 155.184C240.787 155.184 241.395 155.008 241.886 154.656C242.387 154.304 242.718 153.829 242.878 153.232H244.062C243.849 154.085 243.39 154.784 242.686 155.328C241.993 155.861 241.118 156.128 240.062 156.128C239.241 156.128 238.505 155.947 237.854 155.584C237.203 155.211 236.691 154.688 236.318 154.016C235.955 153.333 235.774 152.539 235.774 151.632C235.774 150.725 235.955 149.931 236.318 149.248C236.681 148.565 237.187 148.043 237.838 147.68C238.489 147.317 239.23 147.136 240.062 147.136C240.894 147.136 241.619 147.317 242.238 147.68C242.867 148.043 243.347 148.533 243.678 149.152C244.019 149.76 244.19 150.437 244.19 151.184ZM243.054 151.152C243.065 150.501 242.931 149.947 242.654 149.488C242.387 149.029 242.019 148.683 241.55 148.448C241.081 148.213 240.569 148.096 240.014 148.096C239.182 148.096 238.473 148.363 237.886 148.896C237.299 149.429 236.974 150.181 236.91 151.152H243.054ZM248.015 148.208V153.632C248.015 154.165 248.116 154.533 248.319 154.736C248.522 154.939 248.879 155.04 249.391 155.04H250.415V156H249.215C248.426 156 247.839 155.819 247.455 155.456C247.071 155.083 246.879 154.475 246.879 153.632V148.208H245.663V147.264H246.879V145.072H248.015V147.264H250.415V148.208H248.015ZM258.413 144.16V156H257.293V144.16H258.413ZM268.837 147.264V156H267.717V154.464C267.461 155.008 267.066 155.424 266.533 155.712C266 156 265.402 156.144 264.741 156.144C263.696 156.144 262.842 155.824 262.181 155.184C261.52 154.533 261.189 153.595 261.189 152.368V147.264H262.293V152.24C262.293 153.189 262.528 153.915 262.997 154.416C263.477 154.917 264.128 155.168 264.949 155.168C265.792 155.168 266.464 154.901 266.965 154.368C267.466 153.835 267.717 153.051 267.717 152.016V147.264H268.837ZM271.202 151.632C271.202 150.725 271.383 149.936 271.746 149.264C272.109 148.581 272.61 148.059 273.25 147.696C273.89 147.323 274.621 147.136 275.442 147.136C276.519 147.136 277.405 147.403 278.098 147.936C278.802 148.469 279.255 149.195 279.458 150.112H278.258C278.109 149.483 277.783 148.992 277.282 148.64C276.791 148.277 276.178 148.096 275.442 148.096C274.855 148.096 274.327 148.229 273.858 148.496C273.389 148.763 273.015 149.163 272.738 149.696C272.471 150.219 272.338 150.864 272.338 151.632C272.338 152.4 272.471 153.051 272.738 153.584C273.015 154.117 273.389 154.517 273.858 154.784C274.327 155.051 274.855 155.184 275.442 155.184C276.178 155.184 276.791 155.008 277.282 154.656C277.783 154.293 278.109 153.792 278.258 153.152H279.458C279.255 154.048 278.802 154.768 278.098 155.312C277.394 155.856 276.509 156.128 275.442 156.128C274.621 156.128 273.89 155.947 273.25 155.584C272.61 155.211 272.109 154.688 271.746 154.016C271.383 153.333 271.202 152.539 271.202 151.632ZM283.303 148.208V153.632C283.303 154.165 283.404 154.533 283.607 154.736C283.809 154.939 284.167 155.04 284.679 155.04H285.703V156H284.503C283.713 156 283.127 155.819 282.743 155.456C282.359 155.083 282.167 154.475 282.167 153.632V148.208H280.951V147.264H282.167V145.072H283.303V147.264H285.703V148.208H283.303ZM295.438 147.264V156H294.318V154.464C294.062 155.008 293.667 155.424 293.134 155.712C292.6 156 292.003 156.144 291.342 156.144C290.296 156.144 289.443 155.824 288.782 155.184C288.12 154.533 287.79 153.595 287.79 152.368V147.264H288.894V152.24C288.894 153.189 289.128 153.915 289.598 154.416C290.078 154.917 290.728 155.168 291.55 155.168C292.392 155.168 293.064 154.901 293.566 154.368C294.067 153.835 294.318 153.051 294.318 152.016V147.264H295.438ZM301.323 156.128C300.32 156.128 299.499 155.899 298.859 155.44C298.229 154.971 297.877 154.336 297.803 153.536H298.955C299.008 154.027 299.237 154.427 299.643 154.736C300.059 155.035 300.613 155.184 301.307 155.184C301.915 155.184 302.389 155.04 302.731 154.752C303.083 154.464 303.259 154.107 303.259 153.68C303.259 153.381 303.163 153.136 302.971 152.944C302.779 152.752 302.533 152.603 302.235 152.496C301.947 152.379 301.552 152.256 301.051 152.128C300.4 151.957 299.872 151.787 299.467 151.616C299.061 151.445 298.715 151.195 298.427 150.864C298.149 150.523 298.011 150.069 298.011 149.504C298.011 149.077 298.139 148.683 298.395 148.32C298.651 147.957 299.013 147.669 299.483 147.456C299.952 147.243 300.485 147.136 301.083 147.136C302.021 147.136 302.779 147.376 303.355 147.856C303.931 148.325 304.24 148.976 304.283 149.808H303.163C303.131 149.296 302.928 148.885 302.555 148.576C302.192 148.256 301.691 148.096 301.051 148.096C300.485 148.096 300.027 148.229 299.675 148.496C299.323 148.763 299.147 149.093 299.147 149.488C299.147 149.829 299.248 150.112 299.451 150.336C299.664 150.549 299.925 150.72 300.235 150.848C300.544 150.965 300.96 151.099 301.483 151.248C302.112 151.419 302.613 151.584 302.987 151.744C303.36 151.904 303.68 152.139 303.947 152.448C304.213 152.757 304.352 153.168 304.363 153.68C304.363 154.149 304.235 154.571 303.979 154.944C303.723 155.307 303.365 155.595 302.907 155.808C302.448 156.021 301.92 156.128 301.323 156.128ZM51.8734 178.912L54.8174 171.264H56.0014L52.4974 180H51.2334L47.7294 171.264H48.9294L51.8734 178.912ZM65.7434 175.184C65.7434 175.568 65.7327 175.861 65.7114 176.064H58.4634C58.4954 176.725 58.6554 177.291 58.9434 177.76C59.2314 178.229 59.61 178.587 60.0794 178.832C60.5487 179.067 61.0607 179.184 61.6154 179.184C62.3407 179.184 62.9487 179.008 63.4394 178.656C63.9407 178.304 64.2714 177.829 64.4314 177.232H65.6154C65.402 178.085 64.9434 178.784 64.2394 179.328C63.546 179.861 62.6714 180.128 61.6154 180.128C60.794 180.128 60.058 179.947 59.4074 179.584C58.7567 179.211 58.2447 178.688 57.8714 178.016C57.5087 177.333 57.3274 176.539 57.3274 175.632C57.3274 174.725 57.5087 173.931 57.8714 173.248C58.234 172.565 58.7407 172.043 59.3914 171.68C60.042 171.317 60.7834 171.136 61.6154 171.136C62.4474 171.136 63.1727 171.317 63.7914 171.68C64.4207 172.043 64.9007 172.533 65.2314 173.152C65.5727 173.76 65.7434 174.437 65.7434 175.184ZM64.6074 175.152C64.618 174.501 64.4847 173.947 64.2074 173.488C63.9407 173.029 63.5727 172.683 63.1034 172.448C62.634 172.213 62.122 172.096 61.5674 172.096C60.7354 172.096 60.026 172.363 59.4394 172.896C58.8527 173.429 58.5274 174.181 58.4634 175.152H64.6074ZM72.2085 171.104C73.2538 171.104 74.1072 171.429 74.7685 172.08C75.4298 172.72 75.7605 173.653 75.7605 174.88V180H74.6565V175.008C74.6565 174.059 74.4165 173.333 73.9365 172.832C73.4672 172.331 72.8218 172.08 72.0005 172.08C71.1578 172.08 70.4858 172.347 69.9845 172.88C69.4832 173.413 69.2325 174.197 69.2325 175.232V180H68.1125V171.264H69.2325V172.752C69.5098 172.219 69.9098 171.813 70.4325 171.536C70.9552 171.248 71.5472 171.104 72.2085 171.104ZM86.4615 175.184C86.4615 175.568 86.4508 175.861 86.4295 176.064H79.1815C79.2135 176.725 79.3735 177.291 79.6615 177.76C79.9495 178.229 80.3282 178.587 80.7975 178.832C81.2668 179.067 81.7788 179.184 82.3335 179.184C83.0588 179.184 83.6668 179.008 84.1575 178.656C84.6588 178.304 84.9895 177.829 85.1495 177.232H86.3335C86.1202 178.085 85.6615 178.784 84.9575 179.328C84.2642 179.861 83.3895 180.128 82.3335 180.128C81.5122 180.128 80.7762 179.947 80.1255 179.584C79.4748 179.211 78.9628 178.688 78.5895 178.016C78.2268 177.333 78.0455 176.539 78.0455 175.632C78.0455 174.725 78.2268 173.931 78.5895 173.248C78.9522 172.565 79.4588 172.043 80.1095 171.68C80.7602 171.317 81.5015 171.136 82.3335 171.136C83.1655 171.136 83.8908 171.317 84.5095 171.68C85.1388 172.043 85.6188 172.533 85.9495 173.152C86.2908 173.76 86.4615 174.437 86.4615 175.184ZM85.3255 175.152C85.3362 174.501 85.2028 173.947 84.9255 173.488C84.6588 173.029 84.2908 172.683 83.8215 172.448C83.3522 172.213 82.8402 172.096 82.2855 172.096C81.4535 172.096 80.7442 172.363 80.1575 172.896C79.5708 173.429 79.2455 174.181 79.1815 175.152H85.3255ZM92.9266 171.104C93.972 171.104 94.8253 171.429 95.4866 172.08C96.148 172.72 96.4786 173.653 96.4786 174.88V180H95.3746V175.008C95.3746 174.059 95.1346 173.333 94.6546 172.832C94.1853 172.331 93.54 172.08 92.7186 172.08C91.876 172.08 91.204 172.347 90.7026 172.88C90.2013 173.413 89.9506 174.197 89.9506 175.232V180H88.8306V171.264H89.9506V172.752C90.228 172.219 90.628 171.813 91.1506 171.536C91.6733 171.248 92.2653 171.104 92.9266 171.104ZM98.7636 175.616C98.7636 174.72 98.9396 173.936 99.2916 173.264C99.6543 172.581 100.15 172.059 100.78 171.696C101.42 171.323 102.14 171.136 102.94 171.136C103.772 171.136 104.486 171.328 105.084 171.712C105.692 172.096 106.129 172.587 106.396 173.184V171.264H107.516V180H106.396V178.064C106.118 178.661 105.676 179.157 105.068 179.552C104.47 179.936 103.756 180.128 102.924 180.128C102.134 180.128 101.42 179.941 100.78 179.568C100.15 179.195 99.6543 178.667 99.2916 177.984C98.9396 177.301 98.7636 176.512 98.7636 175.616ZM106.396 175.632C106.396 174.928 106.252 174.309 105.964 173.776C105.676 173.243 105.281 172.832 104.78 172.544C104.289 172.256 103.745 172.112 103.148 172.112C102.529 172.112 101.974 172.251 101.484 172.528C100.993 172.805 100.604 173.211 100.316 173.744C100.038 174.267 99.8996 174.891 99.8996 175.616C99.8996 176.331 100.038 176.96 100.316 177.504C100.604 178.037 100.993 178.448 101.484 178.736C101.974 179.013 102.529 179.152 103.148 179.152C103.745 179.152 104.289 179.008 104.78 178.72C105.281 178.432 105.676 178.021 105.964 177.488C106.252 176.955 106.396 176.336 106.396 175.632ZM111.849 172.208V177.632C111.849 178.165 111.95 178.533 112.153 178.736C112.355 178.939 112.713 179.04 113.225 179.04H114.249V180H113.049C112.259 180 111.673 179.819 111.289 179.456C110.905 179.083 110.713 178.475 110.713 177.632V172.208H109.497V171.264H110.713V169.072H111.849V171.264H114.249V172.208H111.849ZM116.976 169.616C116.752 169.616 116.56 169.536 116.4 169.376C116.24 169.216 116.16 169.019 116.16 168.784C116.16 168.549 116.24 168.357 116.4 168.208C116.56 168.048 116.752 167.968 116.976 167.968C117.2 167.968 117.392 168.048 117.552 168.208C117.712 168.357 117.792 168.549 117.792 168.784C117.792 169.019 117.712 169.216 117.552 169.376C117.392 169.536 117.2 169.616 116.976 169.616ZM117.536 171.264V180H116.416V171.264H117.536ZM123.4 180.128C122.397 180.128 121.576 179.899 120.936 179.44C120.307 178.971 119.955 178.336 119.88 177.536H121.032C121.085 178.027 121.315 178.427 121.72 178.736C122.136 179.035 122.691 179.184 123.384 179.184C123.992 179.184 124.467 179.04 124.808 178.752C125.16 178.464 125.336 178.107 125.336 177.68C125.336 177.381 125.24 177.136 125.048 176.944C124.856 176.752 124.611 176.603 124.312 176.496C124.024 176.379 123.629 176.256 123.128 176.128C122.477 175.957 121.949 175.787 121.544 175.616C121.139 175.445 120.792 175.195 120.504 174.864C120.227 174.523 120.088 174.069 120.088 173.504C120.088 173.077 120.216 172.683 120.472 172.32C120.728 171.957 121.091 171.669 121.56 171.456C122.029 171.243 122.563 171.136 123.16 171.136C124.099 171.136 124.856 171.376 125.432 171.856C126.008 172.325 126.317 172.976 126.36 173.808H125.24C125.208 173.296 125.005 172.885 124.632 172.576C124.269 172.256 123.768 172.096 123.128 172.096C122.563 172.096 122.104 172.229 121.752 172.496C121.4 172.763 121.224 173.093 121.224 173.488C121.224 173.829 121.325 174.112 121.528 174.336C121.741 174.549 122.003 174.72 122.312 174.848C122.621 174.965 123.037 175.099 123.56 175.248C124.189 175.419 124.691 175.584 125.064 175.744C125.437 175.904 125.757 176.139 126.024 176.448C126.291 176.757 126.429 177.168 126.44 177.68C126.44 178.149 126.312 178.571 126.056 178.944C125.8 179.307 125.443 179.595 124.984 179.808C124.525 180.021 123.997 180.128 123.4 180.128ZM129.892 178.144L128.228 182.336H127.46L128.644 178.144H129.892ZM137.784 168.16V180H136.664V168.16H137.784ZM148.545 175.184C148.545 175.568 148.534 175.861 148.513 176.064H141.265C141.297 176.725 141.457 177.291 141.745 177.76C142.033 178.229 142.411 178.587 142.881 178.832C143.35 179.067 143.862 179.184 144.417 179.184C145.142 179.184 145.75 179.008 146.241 178.656C146.742 178.304 147.073 177.829 147.233 177.232H148.417C148.203 178.085 147.745 178.784 147.041 179.328C146.347 179.861 145.473 180.128 144.417 180.128C143.595 180.128 142.859 179.947 142.209 179.584C141.558 179.211 141.046 178.688 140.673 178.016C140.31 177.333 140.129 176.539 140.129 175.632C140.129 174.725 140.31 173.931 140.673 173.248C141.035 172.565 141.542 172.043 142.193 171.68C142.843 171.317 143.585 171.136 144.417 171.136C145.249 171.136 145.974 171.317 146.593 171.68C147.222 172.043 147.702 172.533 148.033 173.152C148.374 173.76 148.545 174.437 148.545 175.184ZM147.409 175.152C147.419 174.501 147.286 173.947 147.009 173.488C146.742 173.029 146.374 172.683 145.905 172.448C145.435 172.213 144.923 172.096 144.369 172.096C143.537 172.096 142.827 172.363 142.241 172.896C141.654 173.429 141.329 174.181 141.265 175.152H147.409ZM150.402 175.632C150.402 174.725 150.583 173.936 150.946 173.264C151.308 172.581 151.81 172.059 152.45 171.696C153.09 171.323 153.82 171.136 154.642 171.136C155.719 171.136 156.604 171.403 157.298 171.936C158.002 172.469 158.455 173.195 158.658 174.112H157.458C157.308 173.483 156.983 172.992 156.482 172.64C155.991 172.277 155.378 172.096 154.642 172.096C154.055 172.096 153.527 172.229 153.058 172.496C152.588 172.763 152.215 173.163 151.938 173.696C151.671 174.219 151.538 174.864 151.538 175.632C151.538 176.4 151.671 177.051 151.938 177.584C152.215 178.117 152.588 178.517 153.058 178.784C153.527 179.051 154.055 179.184 154.642 179.184C155.378 179.184 155.991 179.008 156.482 178.656C156.983 178.293 157.308 177.792 157.458 177.152H158.658C158.455 178.048 158.002 178.768 157.298 179.312C156.594 179.856 155.708 180.128 154.642 180.128C153.82 180.128 153.09 179.947 152.45 179.584C151.81 179.211 151.308 178.688 150.946 178.016C150.583 177.333 150.402 176.539 150.402 175.632ZM162.502 172.208V177.632C162.502 178.165 162.604 178.533 162.806 178.736C163.009 178.939 163.366 179.04 163.878 179.04H164.902V180H163.702C162.913 180 162.326 179.819 161.942 179.456C161.558 179.083 161.366 178.475 161.366 177.632V172.208H160.15V171.264H161.366V169.072H162.502V171.264H164.902V172.208H162.502ZM174.637 171.264V180H173.517V178.464C173.261 179.008 172.867 179.424 172.333 179.712C171.8 180 171.203 180.144 170.541 180.144C169.496 180.144 168.643 179.824 167.981 179.184C167.32 178.533 166.989 177.595 166.989 176.368V171.264H168.093V176.24C168.093 177.189 168.328 177.915 168.797 178.416C169.277 178.917 169.928 179.168 170.749 179.168C171.592 179.168 172.264 178.901 172.765 178.368C173.267 177.835 173.517 177.051 173.517 176.016V171.264H174.637ZM180.522 180.128C179.52 180.128 178.698 179.899 178.058 179.44C177.429 178.971 177.077 178.336 177.002 177.536H178.154C178.208 178.027 178.437 178.427 178.842 178.736C179.258 179.035 179.813 179.184 180.506 179.184C181.114 179.184 181.589 179.04 181.93 178.752C182.282 178.464 182.458 178.107 182.458 177.68C182.458 177.381 182.362 177.136 182.17 176.944C181.978 176.752 181.733 176.603 181.434 176.496C181.146 176.379 180.752 176.256 180.25 176.128C179.6 175.957 179.072 175.787 178.666 175.616C178.261 175.445 177.914 175.195 177.626 174.864C177.349 174.523 177.21 174.069 177.21 173.504C177.21 173.077 177.338 172.683 177.594 172.32C177.85 171.957 178.213 171.669 178.682 171.456C179.152 171.243 179.685 171.136 180.282 171.136C181.221 171.136 181.978 171.376 182.554 171.856C183.13 172.325 183.44 172.976 183.482 173.808H182.362C182.33 173.296 182.128 172.885 181.754 172.576C181.392 172.256 180.89 172.096 180.25 172.096C179.685 172.096 179.226 172.229 178.874 172.496C178.522 172.763 178.346 173.093 178.346 173.488C178.346 173.829 178.448 174.112 178.65 174.336C178.864 174.549 179.125 174.72 179.434 174.848C179.744 174.965 180.16 175.099 180.682 175.248C181.312 175.419 181.813 175.584 182.186 175.744C182.56 175.904 182.88 176.139 183.146 176.448C183.413 176.757 183.552 177.168 183.562 177.68C183.562 178.149 183.434 178.571 183.178 178.944C182.922 179.307 182.565 179.595 182.106 179.808C181.648 180.021 181.12 180.128 180.522 180.128ZM201.101 171.104C202.125 171.104 202.957 171.429 203.597 172.08C204.248 172.72 204.573 173.653 204.573 174.88V180H203.469V175.008C203.469 174.059 203.24 173.333 202.781 172.832C202.323 172.331 201.699 172.08 200.909 172.08C200.088 172.08 199.432 172.352 198.941 172.896C198.451 173.44 198.205 174.229 198.205 175.264V180H197.101V175.008C197.101 174.059 196.872 173.333 196.413 172.832C195.955 172.331 195.325 172.08 194.525 172.08C193.704 172.08 193.048 172.352 192.557 172.896C192.067 173.44 191.821 174.229 191.821 175.264V180H190.701V171.264H191.821V172.768C192.099 172.224 192.493 171.813 193.005 171.536C193.517 171.248 194.088 171.104 194.717 171.104C195.475 171.104 196.136 171.285 196.701 171.648C197.277 172.011 197.693 172.544 197.949 173.248C198.184 172.555 198.584 172.027 199.149 171.664C199.725 171.291 200.376 171.104 201.101 171.104ZM206.869 175.616C206.869 174.72 207.045 173.936 207.397 173.264C207.759 172.581 208.255 172.059 208.885 171.696C209.525 171.323 210.245 171.136 211.045 171.136C211.877 171.136 212.591 171.328 213.189 171.712C213.797 172.096 214.234 172.587 214.501 173.184V171.264H215.621V180H214.501V178.064C214.223 178.661 213.781 179.157 213.173 179.552C212.575 179.936 211.861 180.128 211.029 180.128C210.239 180.128 209.525 179.941 208.885 179.568C208.255 179.195 207.759 178.667 207.397 177.984C207.045 177.301 206.869 176.512 206.869 175.616ZM214.501 175.632C214.501 174.928 214.357 174.309 214.069 173.776C213.781 173.243 213.386 172.832 212.885 172.544C212.394 172.256 211.85 172.112 211.253 172.112C210.634 172.112 210.079 172.251 209.589 172.528C209.098 172.805 208.709 173.211 208.421 173.744C208.143 174.267 208.005 174.891 208.005 175.616C208.005 176.331 208.143 176.96 208.421 177.504C208.709 178.037 209.098 178.448 209.589 178.736C210.079 179.013 210.634 179.152 211.253 179.152C211.85 179.152 212.394 179.008 212.885 178.72C213.386 178.432 213.781 178.021 214.069 177.488C214.357 176.955 214.501 176.336 214.501 175.632ZM222.161 171.136C222.983 171.136 223.697 171.328 224.305 171.712C224.913 172.096 225.351 172.581 225.617 173.168V171.264H226.737V180.224C226.737 181.024 226.561 181.733 226.209 182.352C225.868 182.971 225.388 183.445 224.769 183.776C224.151 184.117 223.447 184.288 222.657 184.288C221.537 184.288 220.604 184.021 219.857 183.488C219.121 182.955 218.663 182.229 218.481 181.312H219.585C219.777 181.92 220.14 182.405 220.673 182.768C221.217 183.131 221.879 183.312 222.657 183.312C223.223 183.312 223.729 183.189 224.177 182.944C224.625 182.709 224.977 182.357 225.233 181.888C225.489 181.419 225.617 180.864 225.617 180.224V178.064C225.34 178.661 224.897 179.157 224.289 179.552C223.692 179.936 222.983 180.128 222.161 180.128C221.361 180.128 220.641 179.941 220.001 179.568C219.372 179.195 218.876 178.667 218.513 177.984C218.161 177.301 217.985 176.512 217.985 175.616C217.985 174.72 218.161 173.936 218.513 173.264C218.876 172.581 219.372 172.059 220.001 171.696C220.641 171.323 221.361 171.136 222.161 171.136ZM225.617 175.632C225.617 174.928 225.473 174.309 225.185 173.776C224.897 173.243 224.503 172.832 224.001 172.544C223.511 172.256 222.967 172.112 222.369 172.112C221.751 172.112 221.196 172.251 220.705 172.528C220.215 172.805 219.825 173.211 219.537 173.744C219.26 174.267 219.121 174.891 219.121 175.616C219.121 176.331 219.26 176.96 219.537 177.504C219.825 178.037 220.215 178.448 220.705 178.736C221.196 179.013 221.751 179.152 222.369 179.152C222.967 179.152 223.511 179.008 224.001 178.72C224.503 178.432 224.897 178.021 225.185 177.488C225.473 176.955 225.617 176.336 225.617 175.632ZM233.71 171.104C234.756 171.104 235.609 171.429 236.27 172.08C236.932 172.72 237.262 173.653 237.262 174.88V180H236.158V175.008C236.158 174.059 235.918 173.333 235.438 172.832C234.969 172.331 234.324 172.08 233.502 172.08C232.66 172.08 231.988 172.347 231.486 172.88C230.985 173.413 230.734 174.197 230.734 175.232V180H229.614V171.264H230.734V172.752C231.012 172.219 231.412 171.813 231.934 171.536C232.457 171.248 233.049 171.104 233.71 171.104ZM239.547 175.616C239.547 174.72 239.723 173.936 240.075 173.264C240.438 172.581 240.934 172.059 241.563 171.696C242.203 171.323 242.923 171.136 243.723 171.136C244.555 171.136 245.27 171.328 245.867 171.712C246.475 172.096 246.913 172.587 247.179 173.184V171.264H248.299V180H247.179V178.064C246.902 178.661 246.459 179.157 245.851 179.552C245.254 179.936 244.539 180.128 243.707 180.128C242.918 180.128 242.203 179.941 241.563 179.568C240.934 179.195 240.438 178.667 240.075 177.984C239.723 177.301 239.547 176.512 239.547 175.616ZM247.179 175.632C247.179 174.928 247.035 174.309 246.747 173.776C246.459 173.243 246.065 172.832 245.563 172.544C245.073 172.256 244.529 172.112 243.931 172.112C243.313 172.112 242.758 172.251 242.267 172.528C241.777 172.805 241.387 173.211 241.099 173.744C240.822 174.267 240.683 174.891 240.683 175.616C240.683 176.331 240.822 176.96 241.099 177.504C241.387 178.037 241.777 178.448 242.267 178.736C242.758 179.013 243.313 179.152 243.931 179.152C244.529 179.152 245.073 179.008 245.563 178.72C246.065 178.432 246.459 178.021 246.747 177.488C247.035 176.955 247.179 176.336 247.179 175.632ZM259.327 172.208H257.295V180H256.175V172.208H254.959V171.264H256.175V170.656C256.175 169.707 256.415 169.008 256.895 168.56C257.386 168.112 258.175 167.888 259.263 167.888V168.848C258.538 168.848 258.026 168.987 257.727 169.264C257.439 169.541 257.295 170.005 257.295 170.656V171.264H259.327V172.208ZM262.53 172.816C262.775 172.272 263.149 171.851 263.65 171.552C264.162 171.253 264.786 171.104 265.522 171.104V172.272H265.218C264.407 172.272 263.757 172.491 263.266 172.928C262.775 173.365 262.53 174.096 262.53 175.12V180H261.41V171.264H262.53V172.816ZM268.087 169.616C267.863 169.616 267.671 169.536 267.511 169.376C267.351 169.216 267.271 169.019 267.271 168.784C267.271 168.549 267.351 168.357 267.511 168.208C267.671 168.048 267.863 167.968 268.087 167.968C268.311 167.968 268.503 168.048 268.663 168.208C268.823 168.357 268.903 168.549 268.903 168.784C268.903 169.019 268.823 169.216 268.663 169.376C268.503 169.536 268.311 169.616 268.087 169.616ZM268.647 171.264V180H267.527V171.264H268.647ZM275.599 171.104C276.644 171.104 277.498 171.429 278.159 172.08C278.82 172.72 279.151 173.653 279.151 174.88V180H278.047V175.008C278.047 174.059 277.807 173.333 277.327 172.832C276.858 172.331 276.212 172.08 275.391 172.08C274.548 172.08 273.876 172.347 273.375 172.88C272.874 173.413 272.623 174.197 272.623 175.232V180H271.503V171.264H272.623V172.752C272.9 172.219 273.3 171.813 273.823 171.536C274.346 171.248 274.938 171.104 275.599 171.104ZM285.612 171.136C286.433 171.136 287.148 171.328 287.756 171.712C288.364 172.096 288.801 172.581 289.068 173.168V171.264H290.188V180.224C290.188 181.024 290.012 181.733 289.66 182.352C289.319 182.971 288.839 183.445 288.22 183.776C287.601 184.117 286.897 184.288 286.108 184.288C284.988 184.288 284.055 184.021 283.308 183.488C282.572 182.955 282.113 182.229 281.932 181.312H283.036C283.228 181.92 283.591 182.405 284.124 182.768C284.668 183.131 285.329 183.312 286.108 183.312C286.673 183.312 287.18 183.189 287.628 182.944C288.076 182.709 288.428 182.357 288.684 181.888C288.94 181.419 289.068 180.864 289.068 180.224V178.064C288.791 178.661 288.348 179.157 287.74 179.552C287.143 179.936 286.433 180.128 285.612 180.128C284.812 180.128 284.092 179.941 283.452 179.568C282.823 179.195 282.327 178.667 281.964 177.984C281.612 177.301 281.436 176.512 281.436 175.616C281.436 174.72 281.612 173.936 281.964 173.264C282.327 172.581 282.823 172.059 283.452 171.696C284.092 171.323 284.812 171.136 285.612 171.136ZM289.068 175.632C289.068 174.928 288.924 174.309 288.636 173.776C288.348 173.243 287.953 172.832 287.452 172.544C286.961 172.256 286.417 172.112 285.82 172.112C285.201 172.112 284.647 172.251 284.156 172.528C283.665 172.805 283.276 173.211 282.988 173.744C282.711 174.267 282.572 174.891 282.572 175.616C282.572 176.331 282.711 176.96 282.988 177.504C283.276 178.037 283.665 178.448 284.156 178.736C284.647 179.013 285.201 179.152 285.82 179.152C286.417 179.152 286.961 179.008 287.452 178.72C287.953 178.432 288.348 178.021 288.636 177.488C288.924 176.955 289.068 176.336 289.068 175.632ZM293.625 169.616C293.401 169.616 293.209 169.536 293.049 169.376C292.889 169.216 292.809 169.019 292.809 168.784C292.809 168.549 292.889 168.357 293.049 168.208C293.209 168.048 293.401 167.968 293.625 167.968C293.849 167.968 294.041 168.048 294.201 168.208C294.361 168.357 294.441 168.549 294.441 168.784C294.441 169.019 294.361 169.216 294.201 169.376C294.041 169.536 293.849 169.616 293.625 169.616ZM294.185 171.264V180H293.065V171.264H294.185ZM298.161 168.16V180H297.041V168.16H298.161ZM302.137 168.16V180H301.017V168.16H302.137ZM304.482 175.616C304.482 174.72 304.658 173.936 305.01 173.264C305.372 172.581 305.868 172.059 306.498 171.696C307.138 171.323 307.858 171.136 308.658 171.136C309.49 171.136 310.204 171.328 310.802 171.712C311.41 172.096 311.847 172.587 312.114 173.184V171.264H313.234V180H312.114V178.064C311.836 178.661 311.394 179.157 310.786 179.552C310.188 179.936 309.474 180.128 308.642 180.128C307.852 180.128 307.138 179.941 306.498 179.568C305.868 179.195 305.372 178.667 305.01 177.984C304.658 177.301 304.482 176.512 304.482 175.616ZM312.114 175.632C312.114 174.928 311.97 174.309 311.682 173.776C311.394 173.243 310.999 172.832 310.498 172.544C310.007 172.256 309.463 172.112 308.866 172.112C308.247 172.112 307.692 172.251 307.202 172.528C306.711 172.805 306.322 173.211 306.034 173.744C305.756 174.267 305.618 174.891 305.618 175.616C305.618 176.331 305.756 176.96 306.034 177.504C306.322 178.037 306.711 178.448 307.202 178.736C307.692 179.013 308.247 179.152 308.866 179.152C309.463 179.152 310.007 179.008 310.498 178.72C310.999 178.432 311.394 178.021 311.682 177.488C311.97 176.955 312.114 176.336 312.114 175.632Z" fill="#001465"/>
</svg>
