<svg width="1512" height="138" viewBox="0 0 1512 138" fill="none" xmlns="http://www.w3.org/2000/svg">
<g filter="url(#filter0_d_903_548)">
<rect width="1512" height="107" fill="white"/>
<rect x="154.836" y="49.2317" width="1.69565" height="10.6228" transform="rotate(-90 154.836 49.2317)" fill="#0051B4"/>
<rect x="122.755" y="49.2317" width="1.69565" height="11.4332" transform="rotate(-90 122.755 49.2317)" fill="#0051B4"/>
<rect x="139.045" y="55.3608" width="2.77813" height="10.6223" transform="rotate(-90 139.045 55.3608)" fill="#0051B4"/>
<path fill-rule="evenodd" clip-rule="evenodd" d="M150.648 37.2976C150.061 37.5969 149.501 37.9414 148.973 38.3267V71.8998L150.006 71.3726L149.972 71.3071L149.973 71.307C150.006 71.3724 150.006 71.3724 150.006 71.3724L150.006 71.3723L150.007 71.3719L150.008 71.3713L150.011 71.3699L150.016 71.3671L150.029 71.3607L150.058 71.3456L150.136 71.3055C150.196 71.2744 150.272 71.2346 150.362 71.1865C150.459 71.1355 150.554 71.0835 150.648 71.0303V37.2976ZM153.426 69.4087C153.537 69.3338 153.646 69.2574 153.753 69.1795C154.075 69.0083 154.392 68.8216 154.704 68.6191C154.848 68.5256 154.994 68.4298 155.142 68.3317V36C154.557 36.0533 153.984 36.1472 153.426 36.2787V69.4087ZM133.571 36C134.141 36.052 134.7 36.1426 135.246 36.2691V69.3782C135.131 69.3067 135.014 69.2333 134.895 69.1583C134.74 69.0607 134.589 68.9603 134.44 68.8571C134.284 68.7642 134.13 68.6674 133.977 68.5668C133.843 68.4792 133.708 68.3895 133.571 68.2979V36ZM138.266 71.1398C138.185 71.0957 138.104 71.0509 138.024 71.0053V37.2768C138.625 37.5809 139.199 37.9324 139.74 38.3266V71.9109L138.616 71.3257L138.718 71.1297L138.718 71.1297L138.629 71.3007C138.616 71.3256 138.616 71.3256 138.616 71.3256L138.615 71.3254L138.615 71.3251L138.614 71.3244L138.611 71.3231L138.606 71.3203L138.594 71.314L138.565 71.299L138.489 71.259C138.431 71.2279 138.356 71.1881 138.266 71.1398ZM165.459 39.991V58.6173C165.622 58.3843 165.779 58.144 165.929 57.8967C166.464 57.0135 166.987 56.0101 167.433 54.8922C167.783 54.0137 168.026 53.119 168.168 52.2225C168.459 51.2661 168.639 50.2589 168.692 49.2151C168.705 48.9382 168.713 48.6579 168.713 48.3747C168.713 45.1439 167.48 42.201 165.459 39.991ZM120 48.3747C120 45.1973 121.193 42.2984 123.154 40.1012V58.3771C123.063 58.2181 122.975 58.0576 122.89 57.8959C122.491 57.3336 122.132 56.7303 121.822 56.0882C121.305 55.0183 120.827 53.7848 120.49 52.4034C120.365 51.8913 120.273 51.3788 120.214 50.8682C120.116 50.3371 120.051 49.7934 120.023 49.2394C120.008 48.9547 120 48.6664 120 48.3747Z" fill="#0051B4"/>
<path fill-rule="evenodd" clip-rule="evenodd" d="M150.648 37.2976C150.061 37.5969 149.501 37.9414 148.973 38.3267V71.8998L150.006 71.3726L149.972 71.3071L149.973 71.307C150.006 71.3724 150.006 71.3724 150.006 71.3724L150.006 71.3723L150.007 71.3719L150.008 71.3713L150.011 71.3699L150.016 71.3671L150.029 71.3607L150.058 71.3456L150.136 71.3055C150.196 71.2744 150.272 71.2346 150.362 71.1865C150.459 71.1355 150.554 71.0835 150.648 71.0303V37.2976ZM153.426 69.4087C153.537 69.3338 153.646 69.2574 153.753 69.1795C154.075 69.0083 154.392 68.8216 154.704 68.6191C154.848 68.5256 154.994 68.4298 155.142 68.3317V36C154.557 36.0533 153.984 36.1472 153.426 36.2787V69.4087ZM133.571 36C134.141 36.052 134.7 36.1426 135.246 36.2691V69.3782C135.131 69.3067 135.014 69.2333 134.895 69.1583C134.74 69.0607 134.589 68.9603 134.44 68.8571C134.284 68.7642 134.13 68.6674 133.977 68.5668C133.843 68.4792 133.708 68.3895 133.571 68.2979V36ZM138.266 71.1398C138.185 71.0957 138.104 71.0509 138.024 71.0053V37.2768C138.625 37.5809 139.199 37.9324 139.74 38.3266V71.9109L138.616 71.3257L138.718 71.1297L138.718 71.1297L138.629 71.3007C138.616 71.3256 138.616 71.3256 138.616 71.3256L138.615 71.3254L138.615 71.3251L138.614 71.3244L138.611 71.3231L138.606 71.3203L138.594 71.314L138.565 71.299L138.489 71.259C138.431 71.2279 138.356 71.1881 138.266 71.1398ZM165.459 39.991V58.6173C165.622 58.3843 165.779 58.144 165.929 57.8967C166.464 57.0135 166.987 56.0101 167.433 54.8922C167.783 54.0137 168.026 53.119 168.168 52.2225C168.459 51.2661 168.639 50.2589 168.692 49.2151C168.705 48.9382 168.713 48.6579 168.713 48.3747C168.713 45.1439 167.48 42.201 165.459 39.991ZM120 48.3747C120 45.1973 121.193 42.2984 123.154 40.1012V58.3771C123.063 58.2181 122.975 58.0576 122.89 57.8959C122.491 57.3336 122.132 56.7303 121.822 56.0882C121.305 55.0183 120.827 53.7848 120.49 52.4034C120.365 51.8913 120.273 51.3788 120.214 50.8682C120.116 50.3371 120.051 49.7934 120.023 49.2394C120.008 48.9547 120 48.6664 120 48.3747Z" fill="#0051B4"/>
<path d="M187.415 45.5857V60H185.533V53.4649H178.191V60H176.309V45.5857H178.191V51.9139H185.533V45.5857H187.415ZM200.969 53.8992C200.969 54.2577 200.948 54.6368 200.906 55.0366H191.848C191.917 56.1534 192.296 57.0289 192.986 57.6631C193.689 58.2835 194.537 58.5937 195.53 58.5937C196.343 58.5937 197.019 58.4076 197.556 58.0353C198.108 57.6493 198.494 57.1392 198.714 56.505H200.741C200.438 57.5941 199.831 58.4834 198.921 59.1727C198.011 59.8483 196.881 60.1861 195.53 60.1861C194.454 60.1861 193.489 59.9448 192.634 59.4623C191.793 58.9797 191.131 58.2973 190.649 57.4149C190.166 56.5188 189.925 55.4847 189.925 54.3128C189.925 53.1409 190.16 52.1138 190.628 51.2314C191.097 50.3491 191.752 49.6735 192.593 49.2047C193.448 48.7222 194.427 48.4809 195.53 48.4809C196.605 48.4809 197.556 48.7153 198.383 49.1841C199.211 49.6528 199.845 50.3008 200.286 51.128C200.741 51.9415 200.969 52.8652 200.969 53.8992ZM199.025 53.5063C199.025 52.7894 198.866 52.1758 198.549 51.6657C198.232 51.1418 197.798 50.7489 197.246 50.4869C196.708 50.2112 196.109 50.0733 195.447 50.0733C194.496 50.0733 193.682 50.3766 193.007 50.9833C192.345 51.5899 191.966 52.4309 191.869 53.5063H199.025ZM202.749 54.2921C202.749 53.134 202.984 52.1207 203.453 51.2521C203.921 50.3697 204.562 49.6873 205.376 49.2047C206.203 48.7222 207.12 48.4809 208.126 48.4809C209.119 48.4809 209.981 48.6946 210.711 49.122C211.442 49.5494 211.987 50.0871 212.345 50.7351V48.6671H214.248V60H212.345V57.8906C211.973 58.5523 211.415 59.1038 210.67 59.545C209.939 59.9724 209.085 60.1861 208.106 60.1861C207.099 60.1861 206.189 59.9379 205.376 59.4416C204.562 58.9453 203.921 58.249 203.453 57.3529C202.984 56.4567 202.749 55.4365 202.749 54.2921ZM212.345 54.3128C212.345 53.458 212.173 52.7135 211.828 52.0793C211.484 51.4451 211.015 50.9626 210.422 50.6317C209.843 50.287 209.202 50.1147 208.499 50.1147C207.796 50.1147 207.154 50.2801 206.575 50.611C205.996 50.9419 205.534 51.4245 205.19 52.0587C204.845 52.6929 204.673 53.4374 204.673 54.2921C204.673 55.1607 204.845 55.919 205.19 56.567C205.534 57.2012 205.996 57.6906 206.575 58.0353C207.154 58.3662 207.796 58.5317 208.499 58.5317C209.202 58.5317 209.843 58.3662 210.422 58.0353C211.015 57.6906 211.484 57.2012 211.828 56.567C212.173 55.919 212.345 55.1676 212.345 54.3128ZM219.31 44.6964V60H217.428V44.6964H219.31ZM224.813 50.2181V56.8979C224.813 57.4494 224.93 57.8423 225.165 58.0767C225.399 58.2973 225.806 58.4076 226.385 58.4076H227.77V60H226.074C225.027 60 224.241 59.7587 223.717 59.2762C223.193 58.7936 222.931 58.0009 222.931 56.8979V50.2181H221.463V48.6671H222.931V45.8131H224.813V48.6671H227.77V50.2181H224.813ZM235.676 48.4602C236.53 48.4602 237.302 48.6464 237.992 49.0186C238.681 49.3771 239.219 49.9217 239.605 50.6524C240.005 51.3831 240.205 52.2724 240.205 53.3202V60H238.343V53.589C238.343 52.4585 238.061 51.5968 237.495 51.0039C236.93 50.3973 236.158 50.094 235.179 50.094C234.187 50.094 233.394 50.4042 232.801 51.0246C232.222 51.645 231.932 52.5481 231.932 53.7338V60H230.05V44.6964H231.932V50.2801C232.305 49.7011 232.815 49.253 233.463 48.9359C234.125 48.6188 234.862 48.4602 235.676 48.4602ZM244.251 46.8265C243.892 46.8265 243.589 46.7024 243.341 46.4542C243.093 46.2061 242.969 45.9028 242.969 45.5443C242.969 45.1858 243.093 44.8825 243.341 44.6344C243.589 44.3862 243.892 44.2621 244.251 44.2621C244.595 44.2621 244.885 44.3862 245.119 44.6344C245.367 44.8825 245.492 45.1858 245.492 45.5443C245.492 45.9028 245.367 46.2061 245.119 46.4542C244.885 46.7024 244.595 46.8265 244.251 46.8265ZM245.161 48.6671V60H243.279V48.6671H245.161ZM247.665 54.3128C247.665 53.1409 247.899 52.1207 248.368 51.2521C248.837 50.3697 249.485 49.6873 250.312 49.2047C251.153 48.7222 252.111 48.4809 253.187 48.4809C254.579 48.4809 255.723 48.8187 256.62 49.4943C257.53 50.1698 258.129 51.1074 258.419 52.3068H256.392C256.199 51.6175 255.82 51.0729 255.255 50.6731C254.703 50.2732 254.014 50.0733 253.187 50.0733C252.111 50.0733 251.243 50.4456 250.581 51.1901C249.919 51.9208 249.588 52.9617 249.588 54.3128C249.588 55.6777 249.919 56.7324 250.581 57.4769C251.243 58.2214 252.111 58.5937 253.187 58.5937C254.014 58.5937 254.703 58.4007 255.255 58.0146C255.806 57.6286 256.185 57.0771 256.392 56.3602H258.419C258.115 57.5183 257.509 58.4489 256.599 59.1521C255.689 59.8414 254.552 60.1861 253.187 60.1861C252.111 60.1861 251.153 59.9448 250.312 59.4623C249.485 58.9797 248.837 58.2973 248.368 57.4149C247.899 56.5325 247.665 55.4985 247.665 54.3128ZM260.227 54.2921C260.227 53.134 260.461 52.1207 260.93 51.2521C261.399 50.3697 262.04 49.6873 262.853 49.2047C263.68 48.7222 264.597 48.4809 265.604 48.4809C266.596 48.4809 267.458 48.6946 268.189 49.122C268.919 49.5494 269.464 50.0871 269.822 50.7351V48.6671H271.725V60H269.822V57.8906C269.45 58.5523 268.892 59.1038 268.147 59.545C267.417 59.9724 266.562 60.1861 265.583 60.1861C264.577 60.1861 263.667 59.9379 262.853 59.4416C262.04 58.9453 261.399 58.249 260.93 57.3529C260.461 56.4567 260.227 55.4365 260.227 54.2921ZM269.822 54.3128C269.822 53.458 269.65 52.7135 269.305 52.0793C268.961 51.4451 268.492 50.9626 267.899 50.6317C267.32 50.287 266.679 50.1147 265.976 50.1147C265.273 50.1147 264.632 50.2801 264.053 50.611C263.474 50.9419 263.012 51.4245 262.667 52.0587C262.322 52.6929 262.15 53.4374 262.15 54.2921C262.15 55.1607 262.322 55.919 262.667 56.567C263.012 57.2012 263.474 57.6906 264.053 58.0353C264.632 58.3662 265.273 58.5317 265.976 58.5317C266.679 58.5317 267.32 58.3662 267.899 58.0353C268.492 57.6906 268.961 57.2012 269.305 56.567C269.65 55.919 269.822 55.1676 269.822 54.3128ZM276.787 44.6964V60H274.905V44.6964H276.787Z" fill="#0051B4"/>
<path d="M551.824 41.848V53H550.368V47.944H544.688V53H543.232V41.848H544.688V46.744H550.368V41.848H551.824ZM558.158 53.144C557.337 53.144 556.59 52.9573 555.918 52.584C555.257 52.2107 554.734 51.6827 554.35 51C553.977 50.3067 553.79 49.5067 553.79 48.6C553.79 47.704 553.982 46.9147 554.366 46.232C554.761 45.5387 555.294 45.0107 555.966 44.648C556.638 44.2747 557.39 44.088 558.222 44.088C559.054 44.088 559.806 44.2747 560.478 44.648C561.15 45.0107 561.678 45.5333 562.062 46.216C562.457 46.8987 562.654 47.6933 562.654 48.6C562.654 49.5067 562.451 50.3067 562.046 51C561.651 51.6827 561.113 52.2107 560.43 52.584C559.747 52.9573 558.99 53.144 558.158 53.144ZM558.158 51.864C558.681 51.864 559.171 51.7413 559.63 51.496C560.089 51.2507 560.457 50.8827 560.734 50.392C561.022 49.9013 561.166 49.304 561.166 48.6C561.166 47.896 561.027 47.2987 560.75 46.808C560.473 46.3173 560.11 45.9547 559.662 45.72C559.214 45.4747 558.729 45.352 558.206 45.352C557.673 45.352 557.182 45.4747 556.734 45.72C556.297 45.9547 555.945 46.3173 555.678 46.808C555.411 47.2987 555.278 47.896 555.278 48.6C555.278 49.3147 555.406 49.9173 555.662 50.408C555.929 50.8987 556.281 51.2667 556.718 51.512C557.155 51.7467 557.635 51.864 558.158 51.864ZM575.137 44.072C575.819 44.072 576.427 44.216 576.961 44.504C577.494 44.7813 577.915 45.2027 578.225 45.768C578.534 46.3333 578.689 47.0213 578.689 47.832V53H577.249V48.04C577.249 47.1653 577.03 46.4987 576.593 46.04C576.166 45.5707 575.585 45.336 574.849 45.336C574.091 45.336 573.489 45.5813 573.041 46.072C572.593 46.552 572.369 47.2507 572.369 48.168V53H570.929V48.04C570.929 47.1653 570.71 46.4987 570.273 46.04C569.846 45.5707 569.265 45.336 568.529 45.336C567.771 45.336 567.169 45.5813 566.721 46.072C566.273 46.552 566.049 47.2507 566.049 48.168V53H564.593V44.232H566.049V45.496C566.337 45.0373 566.721 44.6853 567.201 44.44C567.691 44.1947 568.23 44.072 568.817 44.072C569.553 44.072 570.203 44.2373 570.769 44.568C571.334 44.8987 571.755 45.384 572.033 46.024C572.278 45.4053 572.683 44.9253 573.249 44.584C573.814 44.2427 574.443 44.072 575.137 44.072ZM589.101 48.28C589.101 48.5573 589.085 48.8507 589.053 49.16H582.045C582.098 50.024 582.392 50.7013 582.925 51.192C583.469 51.672 584.125 51.912 584.893 51.912C585.522 51.912 586.045 51.768 586.461 51.48C586.888 51.1813 587.186 50.7867 587.357 50.296H588.925C588.69 51.1387 588.221 51.8267 587.517 52.36C586.813 52.8827 585.938 53.144 584.893 53.144C584.061 53.144 583.314 52.9573 582.653 52.584C582.002 52.2107 581.49 51.6827 581.117 51C580.744 50.3067 580.557 49.5067 580.557 48.6C580.557 47.6933 580.738 46.8987 581.101 46.216C581.464 45.5333 581.97 45.0107 582.621 44.648C583.282 44.2747 584.04 44.088 584.893 44.088C585.725 44.088 586.461 44.2693 587.101 44.632C587.741 44.9947 588.232 45.496 588.573 46.136C588.925 46.7653 589.101 47.48 589.101 48.28ZM587.597 47.976C587.597 47.4213 587.474 46.9467 587.229 46.552C586.984 46.1467 586.648 45.8427 586.221 45.64C585.805 45.4267 585.341 45.32 584.829 45.32C584.093 45.32 583.464 45.5547 582.941 46.024C582.429 46.4933 582.136 47.144 582.061 47.976H587.597Z" fill="#0051B4"/>
<path d="M661.768 53.112C661.032 53.112 660.371 52.984 659.784 52.728C659.208 52.4613 658.755 52.0987 658.424 51.64C658.093 51.1707 657.923 50.632 657.912 50.024H659.464C659.517 50.5467 659.731 50.9893 660.104 51.352C660.488 51.704 661.043 51.88 661.768 51.88C662.461 51.88 663.005 51.7093 663.4 51.368C663.805 51.016 664.008 50.568 664.008 50.024C664.008 49.5973 663.891 49.2507 663.656 48.984C663.421 48.7173 663.128 48.5147 662.776 48.376C662.424 48.2373 661.949 48.088 661.352 47.928C660.616 47.736 660.024 47.544 659.576 47.352C659.139 47.16 658.76 46.8613 658.44 46.456C658.131 46.04 657.976 45.4853 657.976 44.792C657.976 44.184 658.131 43.6453 658.44 43.176C658.749 42.7067 659.181 42.344 659.736 42.088C660.301 41.832 660.947 41.704 661.672 41.704C662.717 41.704 663.571 41.9653 664.232 42.488C664.904 43.0107 665.283 43.704 665.368 44.568H663.768C663.715 44.1413 663.491 43.768 663.096 43.448C662.701 43.1173 662.179 42.952 661.528 42.952C660.92 42.952 660.424 43.112 660.04 43.432C659.656 43.7413 659.464 44.1787 659.464 44.744C659.464 45.1493 659.576 45.48 659.8 45.736C660.035 45.992 660.317 46.1893 660.648 46.328C660.989 46.456 661.464 46.6053 662.072 46.776C662.808 46.9787 663.4 47.1813 663.848 47.384C664.296 47.576 664.68 47.88 665 48.296C665.32 48.7013 665.48 49.256 665.48 49.96C665.48 50.504 665.336 51.016 665.048 51.496C664.76 51.976 664.333 52.3653 663.768 52.664C663.203 52.9627 662.536 53.112 661.768 53.112ZM675.647 48.28C675.647 48.5573 675.631 48.8507 675.599 49.16H668.591C668.644 50.024 668.937 50.7013 669.471 51.192C670.015 51.672 670.671 51.912 671.439 51.912C672.068 51.912 672.591 51.768 673.007 51.48C673.433 51.1813 673.732 50.7867 673.903 50.296H675.471C675.236 51.1387 674.767 51.8267 674.063 52.36C673.359 52.8827 672.484 53.144 671.439 53.144C670.607 53.144 669.86 52.9573 669.199 52.584C668.548 52.2107 668.036 51.6827 667.663 51C667.289 50.3067 667.103 49.5067 667.103 48.6C667.103 47.6933 667.284 46.8987 667.647 46.216C668.009 45.5333 668.516 45.0107 669.167 44.648C669.828 44.2747 670.585 44.088 671.439 44.088C672.271 44.088 673.007 44.2693 673.647 44.632C674.287 44.9947 674.777 45.496 675.119 46.136C675.471 46.7653 675.647 47.48 675.647 48.28ZM674.143 47.976C674.143 47.4213 674.02 46.9467 673.775 46.552C673.529 46.1467 673.193 45.8427 672.767 45.64C672.351 45.4267 671.887 45.32 671.375 45.32C670.639 45.32 670.009 45.5547 669.487 46.024C668.975 46.4933 668.681 47.144 668.607 47.976H674.143ZM679.049 45.656C679.305 45.1547 679.667 44.7653 680.137 44.488C680.617 44.2107 681.198 44.072 681.881 44.072V45.576H681.497C679.865 45.576 679.049 46.4613 679.049 48.232V53H677.593V44.232H679.049V45.656ZM686.849 51.656L689.569 44.232H691.121L687.681 53H685.985L682.545 44.232H684.113L686.849 51.656ZM693.33 42.808C693.053 42.808 692.818 42.712 692.626 42.52C692.434 42.328 692.338 42.0933 692.338 41.816C692.338 41.5387 692.434 41.304 692.626 41.112C692.818 40.92 693.053 40.824 693.33 40.824C693.597 40.824 693.821 40.92 694.002 41.112C694.194 41.304 694.29 41.5387 694.29 41.816C694.29 42.0933 694.194 42.328 694.002 42.52C693.821 42.712 693.597 42.808 693.33 42.808ZM694.034 44.232V53H692.578V44.232H694.034ZM695.995 48.6C695.995 47.6933 696.177 46.904 696.539 46.232C696.902 45.5493 697.403 45.0213 698.043 44.648C698.694 44.2747 699.435 44.088 700.267 44.088C701.345 44.088 702.23 44.3493 702.923 44.872C703.627 45.3947 704.091 46.12 704.315 47.048H702.747C702.598 46.5147 702.305 46.0933 701.867 45.784C701.441 45.4747 700.907 45.32 700.267 45.32C699.435 45.32 698.763 45.608 698.251 46.184C697.739 46.7493 697.483 47.5547 697.483 48.6C697.483 49.656 697.739 50.472 698.251 51.048C698.763 51.624 699.435 51.912 700.267 51.912C700.907 51.912 701.441 51.7627 701.867 51.464C702.294 51.1653 702.587 50.7387 702.747 50.184H704.315C704.081 51.08 703.611 51.8 702.907 52.344C702.203 52.8773 701.323 53.144 700.267 53.144C699.435 53.144 698.694 52.9573 698.043 52.584C697.403 52.2107 696.902 51.6827 696.539 51C696.177 50.3173 695.995 49.5173 695.995 48.6ZM714.282 48.28C714.282 48.5573 714.266 48.8507 714.234 49.16H707.226C707.28 50.024 707.573 50.7013 708.106 51.192C708.65 51.672 709.306 51.912 710.074 51.912C710.704 51.912 711.226 51.768 711.642 51.48C712.069 51.1813 712.368 50.7867 712.538 50.296H714.106C713.872 51.1387 713.402 51.8267 712.698 52.36C711.994 52.8827 711.12 53.144 710.074 53.144C709.242 53.144 708.496 52.9573 707.834 52.584C707.184 52.2107 706.672 51.6827 706.298 51C705.925 50.3067 705.738 49.5067 705.738 48.6C705.738 47.6933 705.92 46.8987 706.282 46.216C706.645 45.5333 707.152 45.0107 707.802 44.648C708.464 44.2747 709.221 44.088 710.074 44.088C710.906 44.088 711.642 44.2693 712.282 44.632C712.922 44.9947 713.413 45.496 713.754 46.136C714.106 46.7653 714.282 47.48 714.282 48.28ZM712.778 47.976C712.778 47.4213 712.656 46.9467 712.41 46.552C712.165 46.1467 711.829 45.8427 711.402 45.64C710.986 45.4267 710.522 45.32 710.01 45.32C709.274 45.32 708.645 45.5547 708.122 46.024C707.61 46.4933 707.317 47.144 707.242 47.976H712.778ZM719.332 53.144C718.66 53.144 718.057 53.032 717.524 52.808C716.991 52.5733 716.569 52.2533 716.26 51.848C715.951 51.432 715.78 50.9573 715.748 50.424H717.252C717.295 50.8613 717.497 51.2187 717.86 51.496C718.233 51.7733 718.719 51.912 719.316 51.912C719.871 51.912 720.308 51.7893 720.628 51.544C720.948 51.2987 721.108 50.9893 721.108 50.616C721.108 50.232 720.937 49.9493 720.596 49.768C720.255 49.576 719.727 49.3893 719.012 49.208C718.361 49.0373 717.828 48.8667 717.412 48.696C717.007 48.5147 716.655 48.2533 716.356 47.912C716.068 47.56 715.924 47.1013 715.924 46.536C715.924 46.088 716.057 45.6773 716.324 45.304C716.591 44.9307 716.969 44.6373 717.46 44.424C717.951 44.2 718.511 44.088 719.14 44.088C720.111 44.088 720.895 44.3333 721.492 44.824C722.089 45.3147 722.409 45.9867 722.452 46.84H720.996C720.964 46.3813 720.777 46.0133 720.436 45.736C720.105 45.4587 719.657 45.32 719.092 45.32C718.569 45.32 718.153 45.432 717.844 45.656C717.535 45.88 717.38 46.1733 717.38 46.536C717.38 46.824 717.471 47.064 717.652 47.256C717.844 47.4373 718.079 47.5867 718.356 47.704C718.644 47.8107 719.039 47.9333 719.54 48.072C720.169 48.2427 720.681 48.4133 721.076 48.584C721.471 48.744 721.807 48.9893 722.084 49.32C722.372 49.6507 722.521 50.0827 722.532 50.616C722.532 51.096 722.399 51.528 722.132 51.912C721.865 52.296 721.487 52.6 720.996 52.824C720.516 53.0373 719.961 53.144 719.332 53.144Z" fill="#0051B4"/>
<path d="M779.824 50.52H774.96L774.064 53H772.528L776.56 41.912H778.24L782.256 53H780.72L779.824 50.52ZM779.408 49.336L777.392 43.704L775.376 49.336H779.408ZM785.493 45.864C785.792 45.3413 786.229 44.9147 786.805 44.584C787.381 44.2533 788.037 44.088 788.773 44.088C789.563 44.088 790.272 44.2747 790.901 44.648C791.531 45.0213 792.027 45.5493 792.389 46.232C792.752 46.904 792.933 47.688 792.933 48.584C792.933 49.4693 792.752 50.2587 792.389 50.952C792.027 51.6453 791.525 52.184 790.885 52.568C790.256 52.952 789.552 53.144 788.773 53.144C788.016 53.144 787.349 52.9787 786.773 52.648C786.208 52.3173 785.781 51.896 785.493 51.384V53H784.037V41.16H785.493V45.864ZM791.445 48.584C791.445 47.9227 791.312 47.3467 791.045 46.856C790.779 46.3653 790.416 45.992 789.957 45.736C789.509 45.48 789.013 45.352 788.469 45.352C787.936 45.352 787.44 45.4853 786.981 45.752C786.533 46.008 786.171 46.3867 785.893 46.888C785.627 47.3787 785.493 47.9493 785.493 48.6C785.493 49.2613 785.627 49.8427 785.893 50.344C786.171 50.8347 786.533 51.2133 786.981 51.48C787.44 51.736 787.936 51.864 788.469 51.864C789.013 51.864 789.509 51.736 789.957 51.48C790.416 51.2133 790.779 50.8347 791.045 50.344C791.312 49.8427 791.445 49.256 791.445 48.584ZM798.698 53.144C797.876 53.144 797.13 52.9573 796.458 52.584C795.796 52.2107 795.274 51.6827 794.89 51C794.516 50.3067 794.33 49.5067 794.33 48.6C794.33 47.704 794.522 46.9147 794.906 46.232C795.3 45.5387 795.834 45.0107 796.506 44.648C797.178 44.2747 797.93 44.088 798.762 44.088C799.594 44.088 800.346 44.2747 801.018 44.648C801.69 45.0107 802.218 45.5333 802.602 46.216C802.996 46.8987 803.194 47.6933 803.194 48.6C803.194 49.5067 802.991 50.3067 802.586 51C802.191 51.6827 801.652 52.2107 800.97 52.584C800.287 52.9573 799.53 53.144 798.698 53.144ZM798.698 51.864C799.22 51.864 799.711 51.7413 800.17 51.496C800.628 51.2507 800.996 50.8827 801.274 50.392C801.562 49.9013 801.706 49.304 801.706 48.6C801.706 47.896 801.567 47.2987 801.29 46.808C801.012 46.3173 800.65 45.9547 800.202 45.72C799.754 45.4747 799.268 45.352 798.746 45.352C798.212 45.352 797.722 45.4747 797.274 45.72C796.836 45.9547 796.484 46.3173 796.218 46.808C795.951 47.2987 795.818 47.896 795.818 48.6C795.818 49.3147 795.946 49.9173 796.202 50.408C796.468 50.8987 796.82 51.2667 797.258 51.512C797.695 51.7467 798.175 51.864 798.698 51.864ZM812.908 44.232V53H811.452V51.704C811.175 52.152 810.785 52.504 810.284 52.76C809.793 53.0053 809.249 53.128 808.652 53.128C807.969 53.128 807.356 52.9893 806.812 52.712C806.268 52.424 805.836 51.9973 805.516 51.432C805.207 50.8667 805.052 50.1787 805.052 49.368V44.232H806.492V49.176C806.492 50.04 806.711 50.7067 807.148 51.176C807.585 51.6347 808.183 51.864 808.94 51.864C809.719 51.864 810.332 51.624 810.78 51.144C811.228 50.664 811.452 49.9653 811.452 49.048V44.232H812.908ZM817.167 45.432V50.6C817.167 51.0267 817.257 51.3307 817.439 51.512C817.62 51.6827 817.935 51.768 818.383 51.768H819.455V53H818.143C817.332 53 816.724 52.8133 816.319 52.44C815.913 52.0667 815.711 51.4533 815.711 50.6V45.432H814.575V44.232H815.711V42.024H817.167V44.232H819.455V45.432H817.167ZM826.956 41.848V48.904C826.956 49.896 827.196 50.632 827.676 51.112C828.167 51.592 828.844 51.832 829.708 51.832C830.562 51.832 831.228 51.592 831.708 51.112C832.199 50.632 832.444 49.896 832.444 48.904V41.848H833.9V48.888C833.9 49.816 833.714 50.6 833.34 51.24C832.967 51.8693 832.46 52.3387 831.82 52.648C831.191 52.9573 830.482 53.112 829.692 53.112C828.903 53.112 828.188 52.9573 827.548 52.648C826.919 52.3387 826.418 51.8693 826.044 51.24C825.682 50.6 825.5 49.816 825.5 48.888V41.848H826.956ZM839.457 53.144C838.785 53.144 838.182 53.032 837.649 52.808C837.116 52.5733 836.694 52.2533 836.385 51.848C836.076 51.432 835.905 50.9573 835.873 50.424H837.377C837.42 50.8613 837.622 51.2187 837.985 51.496C838.358 51.7733 838.844 51.912 839.441 51.912C839.996 51.912 840.433 51.7893 840.753 51.544C841.073 51.2987 841.233 50.9893 841.233 50.616C841.233 50.232 841.062 49.9493 840.721 49.768C840.38 49.576 839.852 49.3893 839.137 49.208C838.486 49.0373 837.953 48.8667 837.537 48.696C837.132 48.5147 836.78 48.2533 836.481 47.912C836.193 47.56 836.049 47.1013 836.049 46.536C836.049 46.088 836.182 45.6773 836.449 45.304C836.716 44.9307 837.094 44.6373 837.585 44.424C838.076 44.2 838.636 44.088 839.265 44.088C840.236 44.088 841.02 44.3333 841.617 44.824C842.214 45.3147 842.534 45.9867 842.577 46.84H841.121C841.089 46.3813 840.902 46.0133 840.561 45.736C840.23 45.4587 839.782 45.32 839.217 45.32C838.694 45.32 838.278 45.432 837.969 45.656C837.66 45.88 837.505 46.1733 837.505 46.536C837.505 46.824 837.596 47.064 837.777 47.256C837.969 47.4373 838.204 47.5867 838.481 47.704C838.769 47.8107 839.164 47.9333 839.665 48.072C840.294 48.2427 840.806 48.4133 841.201 48.584C841.596 48.744 841.932 48.9893 842.209 49.32C842.497 49.6507 842.646 50.0827 842.657 50.616C842.657 51.096 842.524 51.528 842.257 51.912C841.99 52.296 841.612 52.6 841.121 52.824C840.641 53.0373 840.086 53.144 839.457 53.144Z" fill="#0051B4"/>
<path d="M887.688 47.416C887.688 46.328 887.933 45.352 888.424 44.488C888.915 43.6133 889.581 42.9307 890.424 42.44C891.277 41.9493 892.221 41.704 893.256 41.704C894.472 41.704 895.533 41.9973 896.44 42.584C897.347 43.1707 898.008 44.0027 898.424 45.08H896.68C896.371 44.408 895.923 43.8907 895.336 43.528C894.76 43.1653 894.067 42.984 893.256 42.984C892.477 42.984 891.779 43.1653 891.16 43.528C890.541 43.8907 890.056 44.408 889.704 45.08C889.352 45.7413 889.176 46.52 889.176 47.416C889.176 48.3013 889.352 49.08 889.704 49.752C890.056 50.4133 890.541 50.9253 891.16 51.288C891.779 51.6507 892.477 51.832 893.256 51.832C894.067 51.832 894.76 51.656 895.336 51.304C895.923 50.9413 896.371 50.424 896.68 49.752H898.424C898.008 50.8187 897.347 51.6453 896.44 52.232C895.533 52.808 894.472 53.096 893.256 53.096C892.221 53.096 891.277 52.856 890.424 52.376C889.581 51.8853 888.915 51.208 888.424 50.344C887.933 49.48 887.688 48.504 887.688 47.416ZM904.439 53.144C903.618 53.144 902.871 52.9573 902.199 52.584C901.538 52.2107 901.015 51.6827 900.631 51C900.258 50.3067 900.071 49.5067 900.071 48.6C900.071 47.704 900.263 46.9147 900.647 46.232C901.042 45.5387 901.575 45.0107 902.247 44.648C902.919 44.2747 903.671 44.088 904.503 44.088C905.335 44.088 906.087 44.2747 906.759 44.648C907.431 45.0107 907.959 45.5333 908.343 46.216C908.738 46.8987 908.935 47.6933 908.935 48.6C908.935 49.5067 908.733 50.3067 908.327 51C907.933 51.6827 907.394 52.2107 906.711 52.584C906.029 52.9573 905.271 53.144 904.439 53.144ZM904.439 51.864C904.962 51.864 905.453 51.7413 905.911 51.496C906.37 51.2507 906.738 50.8827 907.015 50.392C907.303 49.9013 907.447 49.304 907.447 48.6C907.447 47.896 907.309 47.2987 907.031 46.808C906.754 46.3173 906.391 45.9547 905.943 45.72C905.495 45.4747 905.01 45.352 904.487 45.352C903.954 45.352 903.463 45.4747 903.015 45.72C902.578 45.9547 902.226 46.3173 901.959 46.808C901.693 47.2987 901.559 47.896 901.559 48.6C901.559 49.3147 901.687 49.9173 901.943 50.408C902.21 50.8987 902.562 51.2667 902.999 51.512C903.437 51.7467 903.917 51.864 904.439 51.864ZM915.146 44.072C916.212 44.072 917.076 44.3973 917.738 45.048C918.399 45.688 918.73 46.616 918.73 47.832V53H917.29V48.04C917.29 47.1653 917.071 46.4987 916.634 46.04C916.196 45.5707 915.599 45.336 914.842 45.336C914.074 45.336 913.46 45.576 913.002 46.056C912.554 46.536 912.33 47.2347 912.33 48.152V53H910.874V44.232H912.33V45.48C912.618 45.032 913.007 44.6853 913.498 44.44C913.999 44.1947 914.548 44.072 915.146 44.072ZM922.908 45.432V50.6C922.908 51.0267 922.999 51.3307 923.18 51.512C923.361 51.6827 923.676 51.768 924.124 51.768H925.196V53H923.884C923.073 53 922.465 52.8133 922.06 52.44C921.655 52.0667 921.452 51.4533 921.452 50.6V45.432H920.316V44.232H921.452V42.024H922.908V44.232H925.196V45.432H922.908ZM926.44 48.584C926.44 47.688 926.622 46.904 926.984 46.232C927.347 45.5493 927.843 45.0213 928.472 44.648C929.112 44.2747 929.822 44.088 930.6 44.088C931.368 44.088 932.035 44.2533 932.6 44.584C933.166 44.9147 933.587 45.3307 933.864 45.832V44.232H935.336V53H933.864V51.368C933.576 51.88 933.144 52.3067 932.568 52.648C932.003 52.9787 931.342 53.144 930.584 53.144C929.806 53.144 929.102 52.952 928.472 52.568C927.843 52.184 927.347 51.6453 926.984 50.952C926.622 50.2587 926.44 49.4693 926.44 48.584ZM933.864 48.6C933.864 47.9387 933.731 47.3627 933.464 46.872C933.198 46.3813 932.835 46.008 932.376 45.752C931.928 45.4853 931.432 45.352 930.888 45.352C930.344 45.352 929.848 45.48 929.4 45.736C928.952 45.992 928.595 46.3653 928.328 46.856C928.062 47.3467 927.928 47.9227 927.928 48.584C927.928 49.256 928.062 49.8427 928.328 50.344C928.595 50.8347 928.952 51.2133 929.4 51.48C929.848 51.736 930.344 51.864 930.888 51.864C931.432 51.864 931.928 51.736 932.376 51.48C932.835 51.2133 933.198 50.8347 933.464 50.344C933.731 49.8427 933.864 49.2613 933.864 48.6ZM937.277 48.6C937.277 47.6933 937.458 46.904 937.821 46.232C938.183 45.5493 938.685 45.0213 939.325 44.648C939.975 44.2747 940.717 44.088 941.549 44.088C942.626 44.088 943.511 44.3493 944.205 44.872C944.909 45.3947 945.373 46.12 945.597 47.048H944.029C943.879 46.5147 943.586 46.0933 943.149 45.784C942.722 45.4747 942.189 45.32 941.549 45.32C940.717 45.32 940.045 45.608 939.533 46.184C939.021 46.7493 938.765 47.5547 938.765 48.6C938.765 49.656 939.021 50.472 939.533 51.048C940.045 51.624 940.717 51.912 941.549 51.912C942.189 51.912 942.722 51.7627 943.149 51.464C943.575 51.1653 943.869 50.7387 944.029 50.184H945.597C945.362 51.08 944.893 51.8 944.189 52.344C943.485 52.8773 942.605 53.144 941.549 53.144C940.717 53.144 939.975 52.9573 939.325 52.584C938.685 52.2107 938.183 51.6827 937.821 51C937.458 50.3173 937.277 49.5173 937.277 48.6ZM949.34 45.432V50.6C949.34 51.0267 949.43 51.3307 949.612 51.512C949.793 51.6827 950.108 51.768 950.556 51.768H951.628V53H950.316C949.505 53 948.897 52.8133 948.492 52.44C948.086 52.0667 947.884 51.4533 947.884 50.6V45.432H946.748V44.232H947.884V42.024H949.34V44.232H951.628V45.432H949.34ZM959.129 41.848V48.904C959.129 49.896 959.369 50.632 959.849 51.112C960.34 51.592 961.017 51.832 961.881 51.832C962.735 51.832 963.401 51.592 963.881 51.112C964.372 50.632 964.617 49.896 964.617 48.904V41.848H966.073V48.888C966.073 49.816 965.887 50.6 965.513 51.24C965.14 51.8693 964.633 52.3387 963.993 52.648C963.364 52.9573 962.655 53.112 961.865 53.112C961.076 53.112 960.361 52.9573 959.721 52.648C959.092 52.3387 958.591 51.8693 958.217 51.24C957.855 50.6 957.673 49.816 957.673 48.888V41.848H959.129ZM971.63 53.144C970.958 53.144 970.355 53.032 969.822 52.808C969.289 52.5733 968.867 52.2533 968.558 51.848C968.249 51.432 968.078 50.9573 968.046 50.424H969.55C969.593 50.8613 969.795 51.2187 970.158 51.496C970.531 51.7733 971.017 51.912 971.614 51.912C972.169 51.912 972.606 51.7893 972.926 51.544C973.246 51.2987 973.406 50.9893 973.406 50.616C973.406 50.232 973.235 49.9493 972.894 49.768C972.553 49.576 972.025 49.3893 971.31 49.208C970.659 49.0373 970.126 48.8667 969.71 48.696C969.305 48.5147 968.953 48.2533 968.654 47.912C968.366 47.56 968.222 47.1013 968.222 46.536C968.222 46.088 968.355 45.6773 968.622 45.304C968.889 44.9307 969.267 44.6373 969.758 44.424C970.249 44.2 970.809 44.088 971.438 44.088C972.409 44.088 973.193 44.3333 973.79 44.824C974.387 45.3147 974.707 45.9867 974.75 46.84H973.294C973.262 46.3813 973.075 46.0133 972.734 45.736C972.403 45.4587 971.955 45.32 971.39 45.32C970.867 45.32 970.451 45.432 970.142 45.656C969.833 45.88 969.678 46.1733 969.678 46.536C969.678 46.824 969.769 47.064 969.95 47.256C970.142 47.4373 970.377 47.5867 970.654 47.704C970.942 47.8107 971.337 47.9333 971.838 48.072C972.467 48.2427 972.979 48.4133 973.374 48.584C973.769 48.744 974.105 48.9893 974.382 49.32C974.67 49.6507 974.819 50.0827 974.83 50.616C974.83 51.096 974.697 51.528 974.43 51.912C974.163 52.296 973.785 52.6 973.294 52.824C972.814 53.0373 972.259 53.144 971.63 53.144Z" fill="#0051B4"/>
<path d="M1019.69 47.416C1019.69 46.328 1019.93 45.352 1020.42 44.488C1020.91 43.6133 1021.58 42.9307 1022.42 42.44C1023.28 41.9493 1024.22 41.704 1025.26 41.704C1026.47 41.704 1027.53 41.9973 1028.44 42.584C1029.35 43.1707 1030.01 44.0027 1030.42 45.08H1028.68C1028.37 44.408 1027.92 43.8907 1027.34 43.528C1026.76 43.1653 1026.07 42.984 1025.26 42.984C1024.48 42.984 1023.78 43.1653 1023.16 43.528C1022.54 43.8907 1022.06 44.408 1021.7 45.08C1021.35 45.7413 1021.18 46.52 1021.18 47.416C1021.18 48.3013 1021.35 49.08 1021.7 49.752C1022.06 50.4133 1022.54 50.9253 1023.16 51.288C1023.78 51.6507 1024.48 51.832 1025.26 51.832C1026.07 51.832 1026.76 51.656 1027.34 51.304C1027.92 50.9413 1028.37 50.424 1028.68 49.752H1030.42C1030.01 50.8187 1029.35 51.6453 1028.44 52.232C1027.53 52.808 1026.47 53.096 1025.26 53.096C1024.22 53.096 1023.28 52.856 1022.42 52.376C1021.58 51.8853 1020.91 51.208 1020.42 50.344C1019.93 49.48 1019.69 48.504 1019.69 47.416ZM1032.07 48.584C1032.07 47.688 1032.25 46.904 1032.62 46.232C1032.98 45.5493 1033.47 45.0213 1034.1 44.648C1034.74 44.2747 1035.45 44.088 1036.23 44.088C1037 44.088 1037.67 44.2533 1038.23 44.584C1038.8 44.9147 1039.22 45.3307 1039.5 45.832V44.232H1040.97V53H1039.5V51.368C1039.21 51.88 1038.78 52.3067 1038.2 52.648C1037.63 52.9787 1036.97 53.144 1036.22 53.144C1035.44 53.144 1034.73 52.952 1034.1 52.568C1033.47 52.184 1032.98 51.6453 1032.62 50.952C1032.25 50.2587 1032.07 49.4693 1032.07 48.584ZM1039.5 48.6C1039.5 47.9387 1039.36 47.3627 1039.1 46.872C1038.83 46.3813 1038.47 46.008 1038.01 45.752C1037.56 45.4853 1037.06 45.352 1036.52 45.352C1035.98 45.352 1035.48 45.48 1035.03 45.736C1034.58 45.992 1034.23 46.3653 1033.96 46.856C1033.69 47.3467 1033.56 47.9227 1033.56 48.584C1033.56 49.256 1033.69 49.8427 1033.96 50.344C1034.23 50.8347 1034.58 51.2133 1035.03 51.48C1035.48 51.736 1035.98 51.864 1036.52 51.864C1037.06 51.864 1037.56 51.736 1038.01 51.48C1038.47 51.2133 1038.83 50.8347 1039.1 50.344C1039.36 49.8427 1039.5 49.2613 1039.5 48.6ZM1044.91 45.656C1045.16 45.1547 1045.53 44.7653 1046 44.488C1046.48 44.2107 1047.06 44.072 1047.74 44.072V45.576H1047.36C1045.72 45.576 1044.91 46.4613 1044.91 48.232V53H1043.45V44.232H1044.91V45.656ZM1057.44 48.28C1057.44 48.5573 1057.43 48.8507 1057.4 49.16H1050.39C1050.44 50.024 1050.74 50.7013 1051.27 51.192C1051.81 51.672 1052.47 51.912 1053.24 51.912C1053.87 51.912 1054.39 51.768 1054.8 51.48C1055.23 51.1813 1055.53 50.7867 1055.7 50.296H1057.27C1057.03 51.1387 1056.56 51.8267 1055.86 52.36C1055.16 52.8827 1054.28 53.144 1053.24 53.144C1052.4 53.144 1051.66 52.9573 1051 52.584C1050.35 52.2107 1049.83 51.6827 1049.46 51C1049.09 50.3067 1048.9 49.5067 1048.9 48.6C1048.9 47.6933 1049.08 46.8987 1049.44 46.216C1049.81 45.5333 1050.31 45.0107 1050.96 44.648C1051.63 44.2747 1052.38 44.088 1053.24 44.088C1054.07 44.088 1054.8 44.2693 1055.44 44.632C1056.08 44.9947 1056.58 45.496 1056.92 46.136C1057.27 46.7653 1057.44 47.48 1057.44 48.28ZM1055.94 47.976C1055.94 47.4213 1055.82 46.9467 1055.57 46.552C1055.33 46.1467 1054.99 45.8427 1054.56 45.64C1054.15 45.4267 1053.68 45.32 1053.17 45.32C1052.44 45.32 1051.81 45.5547 1051.28 46.024C1050.77 46.4933 1050.48 47.144 1050.4 47.976H1055.94ZM1067.39 48.28C1067.39 48.5573 1067.37 48.8507 1067.34 49.16H1060.33C1060.39 50.024 1060.68 50.7013 1061.21 51.192C1061.76 51.672 1062.41 51.912 1063.18 51.912C1063.81 51.912 1064.33 51.768 1064.75 51.48C1065.18 51.1813 1065.48 50.7867 1065.65 50.296H1067.21C1066.98 51.1387 1066.51 51.8267 1065.81 52.36C1065.1 52.8827 1064.23 53.144 1063.18 53.144C1062.35 53.144 1061.6 52.9573 1060.94 52.584C1060.29 52.2107 1059.78 51.6827 1059.41 51C1059.03 50.3067 1058.85 49.5067 1058.85 48.6C1058.85 47.6933 1059.03 46.8987 1059.39 46.216C1059.75 45.5333 1060.26 45.0107 1060.91 44.648C1061.57 44.2747 1062.33 44.088 1063.18 44.088C1064.01 44.088 1064.75 44.2693 1065.39 44.632C1066.03 44.9947 1066.52 45.496 1066.86 46.136C1067.21 46.7653 1067.39 47.48 1067.39 48.28ZM1065.89 47.976C1065.89 47.4213 1065.76 46.9467 1065.52 46.552C1065.27 46.1467 1064.94 45.8427 1064.51 45.64C1064.09 45.4267 1063.63 45.32 1063.12 45.32C1062.38 45.32 1061.75 45.5547 1061.23 46.024C1060.72 46.4933 1060.43 47.144 1060.35 47.976H1065.89ZM1070.79 45.656C1071.05 45.1547 1071.41 44.7653 1071.88 44.488C1072.36 44.2107 1072.94 44.072 1073.62 44.072V45.576H1073.24C1071.61 45.576 1070.79 46.4613 1070.79 48.232V53H1069.34V44.232H1070.79V45.656ZM1078.43 53.144C1077.76 53.144 1077.16 53.032 1076.63 52.808C1076.09 52.5733 1075.67 52.2533 1075.36 51.848C1075.05 51.432 1074.88 50.9573 1074.85 50.424H1076.35C1076.4 50.8613 1076.6 51.2187 1076.96 51.496C1077.33 51.7733 1077.82 51.912 1078.42 51.912C1078.97 51.912 1079.41 51.7893 1079.73 51.544C1080.05 51.2987 1080.21 50.9893 1080.21 50.616C1080.21 50.232 1080.04 49.9493 1079.7 49.768C1079.36 49.576 1078.83 49.3893 1078.11 49.208C1077.46 49.0373 1076.93 48.8667 1076.51 48.696C1076.11 48.5147 1075.76 48.2533 1075.46 47.912C1075.17 47.56 1075.03 47.1013 1075.03 46.536C1075.03 46.088 1075.16 45.6773 1075.43 45.304C1075.69 44.9307 1076.07 44.6373 1076.56 44.424C1077.05 44.2 1077.61 44.088 1078.24 44.088C1079.21 44.088 1080 44.3333 1080.59 44.824C1081.19 45.3147 1081.51 45.9867 1081.55 46.84H1080.1C1080.07 46.3813 1079.88 46.0133 1079.54 45.736C1079.21 45.4587 1078.76 45.32 1078.19 45.32C1077.67 45.32 1077.25 45.432 1076.95 45.656C1076.64 45.88 1076.48 46.1733 1076.48 46.536C1076.48 46.824 1076.57 47.064 1076.75 47.256C1076.95 47.4373 1077.18 47.5867 1077.46 47.704C1077.75 47.8107 1078.14 47.9333 1078.64 48.072C1079.27 48.2427 1079.78 48.4133 1080.18 48.584C1080.57 48.744 1080.91 48.9893 1081.19 49.32C1081.47 49.6507 1081.62 50.0827 1081.63 50.616C1081.63 51.096 1081.5 51.528 1081.23 51.912C1080.97 52.296 1080.59 52.6 1080.1 52.824C1079.62 53.0373 1079.06 53.144 1078.43 53.144Z" fill="#0051B4"/>
<rect x="1009" y="69" width="84" height="4" rx="2" fill="#0051B4"/>
<rect x="1141.5" y="25.5" width="124" height="43" rx="5.5" stroke="#0051B4"/>
<path d="M1177.86 53.112C1177.12 53.112 1176.45 52.984 1175.85 52.728C1175.25 52.4613 1174.78 52.088 1174.44 51.608C1174.1 51.128 1173.93 50.568 1173.93 49.928H1175.88C1175.92 50.408 1176.11 50.8027 1176.44 51.112C1176.78 51.4213 1177.26 51.576 1177.86 51.576C1178.49 51.576 1178.98 51.4267 1179.34 51.128C1179.69 50.8187 1179.86 50.424 1179.86 49.944C1179.86 49.5707 1179.75 49.2667 1179.53 49.032C1179.31 48.7973 1179.04 48.616 1178.71 48.488C1178.39 48.36 1177.94 48.2213 1177.37 48.072C1176.64 47.88 1176.05 47.688 1175.59 47.496C1175.14 47.2933 1174.76 46.984 1174.44 46.568C1174.12 46.152 1173.96 45.5973 1173.96 44.904C1173.96 44.264 1174.12 43.704 1174.44 43.224C1174.76 42.744 1175.21 42.376 1175.78 42.12C1176.36 41.864 1177.03 41.736 1177.78 41.736C1178.86 41.736 1179.74 42.008 1180.42 42.552C1181.12 43.0853 1181.5 43.8213 1181.58 44.76H1179.56C1179.53 44.3547 1179.34 44.008 1178.98 43.72C1178.63 43.432 1178.17 43.288 1177.59 43.288C1177.07 43.288 1176.64 43.4213 1176.31 43.688C1175.98 43.9547 1175.82 44.3387 1175.82 44.84C1175.82 45.1813 1175.92 45.464 1176.12 45.688C1176.33 45.9013 1176.6 46.072 1176.92 46.2C1177.24 46.328 1177.68 46.4667 1178.23 46.616C1178.97 46.8187 1179.57 47.0213 1180.02 47.224C1180.49 47.4267 1180.89 47.7413 1181.21 48.168C1181.54 48.584 1181.7 49.144 1181.7 49.848C1181.7 50.4133 1181.55 50.9467 1181.24 51.448C1180.94 51.9493 1180.5 52.3547 1179.91 52.664C1179.34 52.9627 1178.65 53.112 1177.86 53.112ZM1184.81 43.016C1184.48 43.016 1184.2 42.904 1183.98 42.68C1183.75 42.456 1183.64 42.1787 1183.64 41.848C1183.64 41.5173 1183.75 41.24 1183.98 41.016C1184.2 40.792 1184.48 40.68 1184.81 40.68C1185.13 40.68 1185.4 40.792 1185.62 41.016C1185.85 41.24 1185.96 41.5173 1185.96 41.848C1185.96 42.1787 1185.85 42.456 1185.62 42.68C1185.4 42.904 1185.13 43.016 1184.81 43.016ZM1185.7 44.184V53H1183.88V44.184H1185.7ZM1191.68 44.04C1192.36 44.04 1192.96 44.1787 1193.48 44.456C1194.02 44.7227 1194.43 45.0587 1194.73 45.464V44.184H1196.57V53.144C1196.57 53.9547 1196.4 54.6747 1196.06 55.304C1195.72 55.944 1195.22 56.4453 1194.57 56.808C1193.93 57.1707 1193.16 57.352 1192.27 57.352C1191.07 57.352 1190.08 57.0693 1189.29 56.504C1188.5 55.9493 1188.05 55.192 1187.95 54.232H1189.76C1189.89 54.6907 1190.19 55.0587 1190.64 55.336C1191.09 55.624 1191.64 55.768 1192.27 55.768C1193 55.768 1193.6 55.544 1194.04 55.096C1194.5 54.648 1194.73 53.9973 1194.73 53.144V51.672C1194.42 52.088 1194 52.44 1193.47 52.728C1192.94 53.0053 1192.35 53.144 1191.68 53.144C1190.91 53.144 1190.2 52.952 1189.56 52.568C1188.93 52.1733 1188.43 51.6293 1188.06 50.936C1187.7 50.232 1187.52 49.4373 1187.52 48.552C1187.52 47.6667 1187.7 46.8827 1188.06 46.2C1188.43 45.5173 1188.93 44.9893 1189.56 44.616C1190.2 44.232 1190.91 44.04 1191.68 44.04ZM1194.73 48.584C1194.73 47.976 1194.6 47.448 1194.35 47C1194.1 46.552 1193.78 46.2107 1193.37 45.976C1192.97 45.7413 1192.53 45.624 1192.06 45.624C1191.59 45.624 1191.15 45.7413 1190.75 45.976C1190.34 46.2 1190.01 46.536 1189.76 46.984C1189.51 47.4213 1189.39 47.944 1189.39 48.552C1189.39 49.16 1189.51 49.6933 1189.76 50.152C1190.01 50.6107 1190.34 50.9627 1190.75 51.208C1191.16 51.4427 1191.6 51.56 1192.06 51.56C1192.53 51.56 1192.97 51.4427 1193.37 51.208C1193.78 50.9733 1194.1 50.632 1194.35 50.184C1194.6 49.7253 1194.73 49.192 1194.73 48.584ZM1203.44 44.04C1204.13 44.04 1204.75 44.184 1205.29 44.472C1205.85 44.76 1206.28 45.1867 1206.59 45.752C1206.9 46.3173 1207.05 47 1207.05 47.8V53H1205.25V48.072C1205.25 47.2827 1205.05 46.68 1204.65 46.264C1204.26 45.8373 1203.72 45.624 1203.04 45.624C1202.36 45.624 1201.81 45.8373 1201.41 46.264C1201.01 46.68 1200.81 47.2827 1200.81 48.072V53H1198.99V44.184H1200.81V45.192C1201.11 44.8293 1201.49 44.5467 1201.95 44.344C1202.42 44.1413 1202.92 44.04 1203.44 44.04ZM1221.57 44.184V53H1219.75V51.96C1219.46 52.3227 1219.08 52.6107 1218.61 52.824C1218.15 53.0267 1217.66 53.128 1217.14 53.128C1216.44 53.128 1215.82 52.984 1215.27 52.696C1214.72 52.408 1214.29 51.9813 1213.97 51.416C1213.66 50.8507 1213.51 50.168 1213.51 49.368V44.184H1215.31V49.096C1215.31 49.8853 1215.51 50.4933 1215.91 50.92C1216.3 51.336 1216.84 51.544 1217.52 51.544C1218.2 51.544 1218.74 51.336 1219.14 50.92C1219.54 50.4933 1219.75 49.8853 1219.75 49.096V44.184H1221.57ZM1225.82 45.48C1226.13 45.0747 1226.55 44.7333 1227.09 44.456C1227.62 44.1787 1228.22 44.04 1228.9 44.04C1229.66 44.04 1230.36 44.232 1230.99 44.616C1231.63 44.9893 1232.13 45.5173 1232.5 46.2C1232.86 46.8827 1233.04 47.6667 1233.04 48.552C1233.04 49.4373 1232.86 50.232 1232.5 50.936C1232.13 51.6293 1231.63 52.1733 1230.99 52.568C1230.36 52.952 1229.66 53.144 1228.9 53.144C1228.22 53.144 1227.63 53.0107 1227.1 52.744C1226.58 52.4667 1226.15 52.1253 1225.82 51.72V57.192H1224V44.184H1225.82V45.48ZM1231.18 48.552C1231.18 47.944 1231.06 47.4213 1230.8 46.984C1230.55 46.536 1230.22 46.2 1229.81 45.976C1229.4 45.7413 1228.97 45.624 1228.5 45.624C1228.04 45.624 1227.6 45.7413 1227.18 45.976C1226.78 46.2107 1226.45 46.552 1226.19 47C1225.95 47.448 1225.82 47.976 1225.82 48.584C1225.82 49.192 1225.95 49.7253 1226.19 50.184C1226.45 50.632 1226.78 50.9733 1227.18 51.208C1227.6 51.4427 1228.04 51.56 1228.5 51.56C1228.97 51.56 1229.4 51.4427 1229.81 51.208C1230.22 50.9627 1230.55 50.6107 1230.8 50.152C1231.06 49.6933 1231.18 49.16 1231.18 48.552Z" fill="#0051B4"/>
<rect x="1280" y="25" width="112" height="44" rx="6" fill="#0051B4"/>
<path d="M1315.02 51.528H1318.78V53H1313.2V41.88H1315.02V51.528ZM1324.16 53.144C1323.33 53.144 1322.57 52.9573 1321.9 52.584C1321.23 52.2 1320.7 51.6667 1320.32 50.984C1319.93 50.2907 1319.74 49.4907 1319.74 48.584C1319.74 47.688 1319.94 46.8933 1320.33 46.2C1320.73 45.5067 1321.27 44.9733 1321.95 44.6C1322.63 44.2267 1323.39 44.04 1324.24 44.04C1325.08 44.04 1325.84 44.2267 1326.53 44.6C1327.21 44.9733 1327.75 45.5067 1328.14 46.2C1328.54 46.8933 1328.73 47.688 1328.73 48.584C1328.73 49.48 1328.53 50.2747 1328.13 50.968C1327.72 51.6613 1327.17 52.2 1326.46 52.584C1325.77 52.9573 1325 53.144 1324.16 53.144ZM1324.16 51.56C1324.63 51.56 1325.06 51.448 1325.47 51.224C1325.89 51 1326.22 50.664 1326.48 50.216C1326.73 49.768 1326.86 49.224 1326.86 48.584C1326.86 47.944 1326.74 47.4053 1326.49 46.968C1326.25 46.52 1325.92 46.184 1325.52 45.96C1325.11 45.736 1324.67 45.624 1324.21 45.624C1323.74 45.624 1323.3 45.736 1322.89 45.96C1322.5 46.184 1322.18 46.52 1321.95 46.968C1321.71 47.4053 1321.6 47.944 1321.6 48.584C1321.6 49.5333 1321.84 50.2693 1322.32 50.792C1322.81 51.304 1323.42 51.56 1324.16 51.56ZM1334.11 44.04C1334.8 44.04 1335.4 44.1787 1335.92 44.456C1336.45 44.7227 1336.87 45.0587 1337.17 45.464V44.184H1339.01V53.144C1339.01 53.9547 1338.84 54.6747 1338.5 55.304C1338.16 55.944 1337.66 56.4453 1337.01 56.808C1336.37 57.1707 1335.6 57.352 1334.7 57.352C1333.51 57.352 1332.52 57.0693 1331.73 56.504C1330.94 55.9493 1330.49 55.192 1330.38 54.232H1332.19C1332.33 54.6907 1332.62 55.0587 1333.07 55.336C1333.53 55.624 1334.08 55.768 1334.7 55.768C1335.44 55.768 1336.03 55.544 1336.48 55.096C1336.94 54.648 1337.17 53.9973 1337.17 53.144V51.672C1336.86 52.088 1336.44 52.44 1335.9 52.728C1335.38 53.0053 1334.78 53.144 1334.11 53.144C1333.34 53.144 1332.64 52.952 1332 52.568C1331.37 52.1733 1330.87 51.6293 1330.5 50.936C1330.13 50.232 1329.95 49.4373 1329.95 48.552C1329.95 47.6667 1330.13 46.8827 1330.5 46.2C1330.87 45.5173 1331.37 44.9893 1332 44.616C1332.64 44.232 1333.34 44.04 1334.11 44.04ZM1337.17 48.584C1337.17 47.976 1337.04 47.448 1336.78 47C1336.54 46.552 1336.21 46.2107 1335.81 45.976C1335.4 45.7413 1334.97 45.624 1334.5 45.624C1334.03 45.624 1333.59 45.7413 1333.18 45.976C1332.78 46.2 1332.45 46.536 1332.19 46.984C1331.95 47.4213 1331.82 47.944 1331.82 48.552C1331.82 49.16 1331.95 49.6933 1332.19 50.152C1332.45 50.6107 1332.78 50.9627 1333.18 51.208C1333.6 51.4427 1334.04 51.56 1334.5 51.56C1334.97 51.56 1335.4 51.4427 1335.81 51.208C1336.21 50.9733 1336.54 50.632 1336.78 50.184C1337.04 49.7253 1337.17 49.192 1337.17 48.584ZM1346.54 43.016C1346.21 43.016 1345.93 42.904 1345.7 42.68C1345.48 42.456 1345.37 42.1787 1345.37 41.848C1345.37 41.5173 1345.48 41.24 1345.7 41.016C1345.93 40.792 1346.21 40.68 1346.54 40.68C1346.86 40.68 1347.13 40.792 1347.35 41.016C1347.58 41.24 1347.69 41.5173 1347.69 41.848C1347.69 42.1787 1347.58 42.456 1347.35 42.68C1347.13 42.904 1346.86 43.016 1346.54 43.016ZM1347.43 44.184V53H1345.61V44.184H1347.43ZM1354.3 44.04C1354.99 44.04 1355.61 44.184 1356.16 44.472C1356.71 44.76 1357.14 45.1867 1357.45 45.752C1357.76 46.3173 1357.92 47 1357.92 47.8V53H1356.11V48.072C1356.11 47.2827 1355.91 46.68 1355.52 46.264C1355.12 45.8373 1354.58 45.624 1353.9 45.624C1353.22 45.624 1352.67 45.8373 1352.27 46.264C1351.87 46.68 1351.68 47.2827 1351.68 48.072V53H1349.85V44.184H1351.68V45.192C1351.97 44.8293 1352.35 44.5467 1352.81 44.344C1353.28 44.1413 1353.78 44.04 1354.3 44.04Z" fill="white"/>
</g>
<defs>
<filter id="filter0_d_903_548" x="-19" y="-7" width="1550" height="145" filterUnits="userSpaceOnUse" color-interpolation-filters="sRGB">
<feFlood flood-opacity="0" result="BackgroundImageFix"/>
<feColorMatrix in="SourceAlpha" type="matrix" values="0 0 0 0 0 0 0 0 0 0 0 0 0 0 0 0 0 0 127 0" result="hardAlpha"/>
<feMorphology radius="2" operator="dilate" in="SourceAlpha" result="effect1_dropShadow_903_548"/>
<feOffset dy="12"/>
<feGaussianBlur stdDeviation="8.5"/>
<feComposite in2="hardAlpha" operator="out"/>
<feColorMatrix type="matrix" values="0 0 0 0 0 0 0 0 0 0 0 0 0 0 0 0 0 0 0.14 0"/>
<feBlend mode="normal" in2="BackgroundImageFix" result="effect1_dropShadow_903_548"/>
<feBlend mode="normal" in="SourceGraphic" in2="effect1_dropShadow_903_548" result="shape"/>
</filter>
</defs>
</svg>
