<svg width="654" height="982" viewBox="0 0 654 982" fill="none" xmlns="http://www.w3.org/2000/svg">
<g clip-path="url(#clip0_683_546)" filter="url(#filter0_d_683_546)">
<rect width="628" height="982" fill="white"/>
<rect x="331.21" y="109.73" width="2.78475" height="17.4456" transform="rotate(-90 331.21 109.73)" fill="#0051B4"/>
<rect x="278.525" y="109.73" width="2.78475" height="18.7766" transform="rotate(-90 278.525 109.73)" fill="#0051B4"/>
<rect x="305.278" y="119.796" width="4.56248" height="17.4448" transform="rotate(-90 305.278 119.796)" fill="#0051B4"/>
<path fill-rule="evenodd" clip-rule="evenodd" d="M324.333 90.131C323.369 90.6226 322.449 91.1884 321.582 91.8211V146.958L323.278 146.092L323.223 145.984L323.224 145.984C323.278 146.092 323.278 146.092 323.278 146.092L323.279 146.091L323.28 146.091L323.282 146.09L323.286 146.088L323.296 146.083L323.316 146.073L323.364 146.048L323.492 145.982C323.59 145.931 323.715 145.865 323.864 145.786C324.022 145.703 324.178 145.617 324.333 145.53V90.131ZM328.895 142.867C329.077 142.744 329.256 142.618 329.432 142.49C329.961 142.209 330.482 141.903 330.994 141.57C331.23 141.416 331.47 141.259 331.713 141.098V88C330.753 88.0876 329.812 88.2417 328.895 88.4577V142.867ZM296.287 88C297.224 88.0855 298.142 88.2343 299.038 88.442V142.817C298.849 142.699 298.657 142.579 298.461 142.455C298.208 142.295 297.959 142.13 297.715 141.961C297.459 141.808 297.205 141.649 296.953 141.484C296.734 141.34 296.512 141.193 296.287 141.042V88ZM303.999 145.71C303.865 145.637 303.732 145.564 303.6 145.489V90.0969C304.588 90.5963 305.53 91.1737 306.418 91.821V146.976L304.573 146.015L304.74 145.693L304.74 145.693L304.604 145.954L304.572 146.015L304.572 146.014L304.571 146.014L304.569 146.013L304.565 146.011L304.556 146.006L304.536 145.996L304.489 145.971L304.364 145.905C304.268 145.854 304.146 145.789 303.999 145.71ZM348.656 94.5544V125.144C348.925 124.761 349.183 124.367 349.429 123.961C350.308 122.51 351.166 120.862 351.898 119.026C352.474 117.584 352.873 116.114 353.106 114.642C353.584 113.071 353.879 111.417 353.965 109.703C353.988 109.248 354 108.788 354 108.323C354 103.017 351.975 98.1839 348.656 94.5544ZM274 108.323C274 103.105 275.958 98.3438 279.181 94.7353V124.75C279.03 124.488 278.885 124.225 278.747 123.959C278.09 123.036 277.502 122.045 276.993 120.991C276.144 119.234 275.358 117.208 274.805 114.939C274.599 114.098 274.449 113.256 274.352 112.418C274.191 111.546 274.084 110.653 274.037 109.743C274.013 109.275 274 108.802 274 108.323Z" fill="#0051B4"/>
<path d="M254.428 184.945V207H251.549V197.001H240.316V207H237.436V184.945H240.316V194.628H251.549V184.945H254.428ZM275.166 197.666C275.166 198.214 275.134 198.794 275.071 199.406H261.212C261.317 201.115 261.897 202.454 262.952 203.424C264.028 204.374 265.325 204.848 266.844 204.848C268.089 204.848 269.122 204.564 269.945 203.994C270.789 203.403 271.38 202.623 271.717 201.652H274.818C274.354 203.319 273.426 204.68 272.034 205.734C270.641 206.768 268.911 207.285 266.844 207.285C265.199 207.285 263.722 206.916 262.414 206.177C261.127 205.439 260.115 204.395 259.377 203.045C258.638 201.674 258.269 200.091 258.269 198.298C258.269 196.505 258.628 194.934 259.345 193.584C260.062 192.234 261.064 191.2 262.351 190.483C263.659 189.744 265.157 189.375 266.844 189.375C268.49 189.375 269.945 189.734 271.211 190.451C272.476 191.168 273.447 192.16 274.122 193.425C274.818 194.67 275.166 196.083 275.166 197.666ZM272.192 197.064C272.192 195.967 271.949 195.029 271.464 194.248C270.979 193.447 270.314 192.845 269.47 192.445C268.648 192.023 267.73 191.812 266.718 191.812C265.262 191.812 264.017 192.276 262.984 193.204C261.971 194.132 261.391 195.419 261.244 197.064H272.192ZM277.891 198.267C277.891 196.495 278.25 194.944 278.967 193.615C279.684 192.265 280.665 191.221 281.91 190.483C283.175 189.744 284.578 189.375 286.118 189.375C287.637 189.375 288.955 189.702 290.073 190.356C291.191 191.01 292.025 191.833 292.573 192.824V189.66H295.484V207H292.573V203.772C292.003 204.785 291.149 205.629 290.01 206.304C288.892 206.958 287.584 207.285 286.086 207.285C284.546 207.285 283.154 206.905 281.91 206.146C280.665 205.386 279.684 204.321 278.967 202.95C278.25 201.579 277.891 200.018 277.891 198.267ZM292.573 198.298C292.573 196.991 292.309 195.851 291.782 194.881C291.255 193.911 290.537 193.172 289.63 192.666C288.744 192.139 287.763 191.875 286.688 191.875C285.612 191.875 284.631 192.128 283.745 192.634C282.859 193.141 282.152 193.879 281.625 194.849C281.097 195.82 280.834 196.959 280.834 198.267C280.834 199.596 281.097 200.756 281.625 201.747C282.152 202.718 282.859 203.467 283.745 203.994C284.631 204.5 285.612 204.753 286.688 204.753C287.763 204.753 288.744 204.5 289.63 203.994C290.537 203.467 291.255 202.718 291.782 201.747C292.309 200.756 292.573 199.606 292.573 198.298ZM303.23 183.585V207H300.35V183.585H303.23ZM311.649 192.033V202.254C311.649 203.097 311.829 203.699 312.187 204.057C312.546 204.395 313.168 204.564 314.054 204.564H316.174V207H313.579C311.976 207 310.774 206.631 309.972 205.893C309.171 205.154 308.77 203.941 308.77 202.254V192.033H306.523V189.66H308.77V185.293H311.649V189.66H316.174V192.033H311.649ZM328.27 189.344C329.578 189.344 330.759 189.628 331.814 190.198C332.868 190.746 333.691 191.58 334.282 192.698C334.893 193.816 335.199 195.176 335.199 196.78V207H332.351V197.191C332.351 195.461 331.919 194.143 331.054 193.236C330.189 192.307 329.008 191.843 327.51 191.843C325.991 191.843 324.778 192.318 323.871 193.267C322.985 194.217 322.542 195.598 322.542 197.412V207H319.663V183.585H322.542V192.128C323.112 191.242 323.892 190.557 324.884 190.071C325.896 189.586 327.025 189.344 328.27 189.344ZM341.39 186.844C340.842 186.844 340.377 186.654 339.998 186.274C339.618 185.895 339.428 185.431 339.428 184.882C339.428 184.334 339.618 183.87 339.998 183.49C340.377 183.11 340.842 182.92 341.39 182.92C341.917 182.92 342.36 183.11 342.719 183.49C343.099 183.87 343.289 184.334 343.289 184.882C343.289 185.431 343.099 185.895 342.719 186.274C342.36 186.654 341.917 186.844 341.39 186.844ZM342.782 189.66V207H339.903V189.66H342.782ZM346.614 198.298C346.614 196.505 346.973 194.944 347.69 193.615C348.407 192.265 349.398 191.221 350.664 190.483C351.951 189.744 353.417 189.375 355.062 189.375C357.193 189.375 358.944 189.892 360.315 190.926C361.707 191.959 362.625 193.394 363.068 195.229H359.967C359.672 194.174 359.092 193.341 358.227 192.729C357.383 192.118 356.328 191.812 355.062 191.812C353.417 191.812 352.088 192.381 351.076 193.52C350.063 194.638 349.557 196.231 349.557 198.298C349.557 200.387 350.063 202.001 351.076 203.14C352.088 204.279 353.417 204.848 355.062 204.848C356.328 204.848 357.383 204.553 358.227 203.962C359.07 203.372 359.651 202.528 359.967 201.431H363.068C362.604 203.203 361.676 204.627 360.283 205.703C358.891 206.757 357.151 207.285 355.062 207.285C353.417 207.285 351.951 206.916 350.664 206.177C349.398 205.439 348.407 204.395 347.69 203.045C346.973 201.695 346.614 200.113 346.614 198.298ZM365.834 198.267C365.834 196.495 366.193 194.944 366.91 193.615C367.627 192.265 368.608 191.221 369.853 190.483C371.118 189.744 372.521 189.375 374.061 189.375C375.58 189.375 376.898 189.702 378.016 190.356C379.134 191.01 379.968 191.833 380.516 192.824V189.66H383.427V207H380.516V203.772C379.947 204.785 379.092 205.629 377.953 206.304C376.835 206.958 375.527 207.285 374.029 207.285C372.49 207.285 371.097 206.905 369.853 206.146C368.608 205.386 367.627 204.321 366.91 202.95C366.193 201.579 365.834 200.018 365.834 198.267ZM380.516 198.298C380.516 196.991 380.252 195.851 379.725 194.881C379.198 193.911 378.48 193.172 377.573 192.666C376.687 192.139 375.706 191.875 374.631 191.875C373.555 191.875 372.574 192.128 371.688 192.634C370.802 193.141 370.095 193.879 369.568 194.849C369.041 195.82 368.777 196.959 368.777 198.267C368.777 199.596 369.041 200.756 369.568 201.747C370.095 202.718 370.802 203.467 371.688 203.994C372.574 204.5 373.555 204.753 374.631 204.753C375.706 204.753 376.687 204.5 377.573 203.994C378.48 203.467 379.198 202.718 379.725 201.747C380.252 200.756 380.516 199.606 380.516 198.298ZM391.173 183.585V207H388.293V183.585H391.173Z" fill="#0051B4"/>
<path d="M628 776.877H-63V777.254H628V776.877Z" fill="#EBEBEB"/>
<path d="M558.762 801.148H512.99V801.526H558.762V801.148Z" fill="#EBEBEB"/>
<path d="M314.59 796.427H296.776V796.804H314.59V796.427Z" fill="#EBEBEB"/>
<path d="M420.244 798.026H382.736V798.403H420.244V798.026Z" fill="#EBEBEB"/>
<path d="M511.608 787.15H434.064V787.527H511.608V787.15Z" fill="#EBEBEB"/>
<path d="M46.1642 804.603H9.49976V804.98H46.1642V804.603Z" fill="#EBEBEB"/>
<path d="M90.2499 804.603H58.4639V804.98H90.2499V804.603Z" fill="#EBEBEB"/>
<path d="M202.081 796.246H118.042V796.623H202.081V796.246Z" fill="#EBEBEB"/>
<path d="M264.534 709.599H-2.31645C-4.40693 709.595 -6.41055 708.685 -7.88745 707.07C-9.36435 705.456 -10.1939 703.267 -10.1938 700.985V291.538C-10.1756 289.269 -9.33812 287.1 -7.86318 285.501C-6.38824 283.903 -4.39502 283.004 -2.31645 283H264.534C266.627 283 268.634 283.907 270.114 285.523C271.594 287.138 272.425 289.329 272.425 291.613V700.985C272.425 703.27 271.594 705.461 270.114 707.076C268.634 708.691 266.627 709.599 264.534 709.599ZM-2.31645 283.302C-4.3153 283.306 -6.23103 284.175 -7.64314 285.719C-9.05525 287.264 -9.84835 289.356 -9.84835 291.538V700.985C-9.84835 703.167 -9.05525 705.26 -7.64314 706.804C-6.23103 708.348 -4.3153 709.217 -2.31645 709.221H264.534C266.534 709.217 268.451 708.348 269.866 706.805C271.28 705.261 272.076 703.168 272.08 700.985V291.538C272.076 289.355 271.28 287.262 269.866 285.718C268.451 284.175 266.534 283.306 264.534 283.302H-2.31645Z" fill="#EBEBEB"/>
<path d="M563.474 709.599H296.61C294.518 709.595 292.513 708.686 291.034 707.071C289.555 705.457 288.723 703.268 288.719 700.985V291.538C288.741 289.268 289.581 287.099 291.059 285.5C292.536 283.902 294.53 283.004 296.61 283H563.474C565.551 283.008 567.54 283.908 569.012 285.507C570.484 287.105 571.32 289.272 571.338 291.538V700.985C571.338 703.264 570.51 705.451 569.036 707.065C567.563 708.68 565.562 709.591 563.474 709.599ZM296.61 283.302C294.61 283.306 292.693 284.175 291.279 285.718C289.864 287.262 289.068 289.355 289.064 291.538V700.985C289.068 703.168 289.864 705.261 291.279 706.805C292.693 708.348 294.61 709.217 296.61 709.221H563.474C565.475 709.217 567.392 708.348 568.806 706.805C570.22 705.261 571.016 703.168 571.02 700.985V291.538C571.016 289.355 570.22 287.262 568.806 285.718C567.392 284.175 565.475 283.306 563.474 283.302H296.61Z" fill="#EBEBEB"/>
<path d="M553.828 317.695H344.662V776.877H553.828V317.695Z" fill="#FAFAFA"/>
<path d="M486.552 376.526H411.924V490.16H486.552V376.526Z" fill="white"/>
<path d="M553.814 776.877H555.113V317.695H553.814V776.877Z" fill="#EBEBEB"/>
<path d="M543.449 776.877H542.067V330.517H356.409V776.877H355.027V329.009H543.449V776.877Z" fill="#E0E0E0"/>
<path d="M527.377 555.779H498.534C497.958 555.815 497.38 555.722 496.838 555.506C496.295 555.29 495.799 554.955 495.379 554.522C494.959 554.089 494.625 553.567 494.396 552.988C494.167 552.409 494.05 551.786 494.05 551.155C494.05 550.525 494.167 549.901 494.396 549.322C494.625 548.743 494.959 548.221 495.379 547.788C495.799 547.356 496.295 547.021 496.838 546.805C497.38 546.589 497.958 546.496 498.534 546.532H527.377C527.953 546.496 528.531 546.589 529.073 546.805C529.616 547.021 530.112 547.356 530.532 547.788C530.952 548.221 531.286 548.743 531.515 549.322C531.744 549.901 531.861 550.525 531.861 551.155C531.861 551.786 531.744 552.409 531.515 552.988C531.286 553.567 530.952 554.089 530.532 554.522C530.112 554.955 529.616 555.29 529.073 555.506C528.531 555.722 527.953 555.815 527.377 555.779ZM498.534 548.04C498.143 548.01 497.75 548.069 497.38 548.212C497.01 548.355 496.671 548.58 496.384 548.872C496.097 549.164 495.869 549.517 495.712 549.91C495.556 550.303 495.475 550.727 495.475 551.155C495.475 551.584 495.556 552.007 495.712 552.4C495.869 552.793 496.097 553.146 496.384 553.439C496.671 553.731 497.01 553.955 497.38 554.098C497.75 554.241 498.143 554.3 498.534 554.27H527.377C527.768 554.3 528.161 554.241 528.531 554.098C528.901 553.955 529.24 553.731 529.527 553.439C529.814 553.146 530.043 552.793 530.199 552.4C530.355 552.007 530.436 551.584 530.436 551.155C530.436 550.727 530.355 550.303 530.199 549.91C530.043 549.517 529.814 549.164 529.527 548.872C529.24 548.58 528.901 548.355 528.531 548.212C528.161 548.069 527.768 548.01 527.377 548.04H498.534Z" fill="#E0E0E0"/>
<path d="M208.895 446.58H14.3506V464.802H208.895V446.58Z" fill="#FAFAFA"/>
<path d="M208.881 464.802H16.8381V776.877H208.881V464.802Z" fill="#FAFAFA"/>
<path d="M208.895 776.877H222.991L222.991 446.595H208.895L208.895 776.877Z" fill="#F0F0F0"/>
<path d="M107.249 482.904H32.9661V667.316H107.249V482.904Z" fill="#F0F0F0"/>
<path d="M86.0211 482.904H68.594L54.1936 667.301H71.6068L86.0211 482.904Z" fill="white"/>
<path d="M190.348 762.697H35.3846C34.5134 762.693 33.6789 762.314 33.0629 761.641C32.4468 760.969 32.0991 760.058 32.0955 759.107V682.174C32.0991 681.223 32.4468 680.313 33.0629 679.64C33.6789 678.968 34.5134 678.588 35.3846 678.584H190.348C191.22 678.588 192.054 678.968 192.67 679.64C193.286 680.313 193.634 681.223 193.637 682.174V759.107C193.634 760.058 193.286 760.969 192.67 761.641C192.054 762.314 191.22 762.693 190.348 762.697ZM35.3846 680.394C34.9716 680.398 34.5764 680.579 34.2843 680.898C33.9923 681.217 33.8266 681.648 33.823 682.099V759.032C33.8266 759.482 33.9923 759.914 34.2843 760.233C34.5764 760.551 34.9716 760.732 35.3846 760.736H190.348C190.761 760.732 191.156 760.551 191.449 760.233C191.741 759.914 191.906 759.482 191.91 759.032V682.099C191.906 681.648 191.741 681.217 191.449 680.898C191.156 680.579 190.761 680.398 190.348 680.394H35.3846Z" fill="#F0F0F0"/>
<path d="M180.232 697.093C179.515 697.093 178.815 696.861 178.219 696.426C177.623 695.991 177.159 695.373 176.885 694.65C176.612 693.927 176.541 693.132 176.682 692.365C176.823 691.598 177.169 690.893 177.677 690.341C178.184 689.789 178.831 689.414 179.534 689.263C180.237 689.112 180.966 689.193 181.627 689.494C182.289 689.796 182.853 690.305 183.249 690.956C183.645 691.608 183.855 692.374 183.853 693.156C183.853 693.675 183.759 694.188 183.577 694.666C183.395 695.145 183.128 695.58 182.791 695.946C182.455 696.311 182.056 696.601 181.617 696.798C181.177 696.995 180.707 697.095 180.232 697.093ZM180.232 691.06C179.857 691.06 179.491 691.181 179.18 691.408C178.869 691.635 178.626 691.958 178.483 692.335C178.339 692.713 178.302 693.128 178.375 693.529C178.448 693.93 178.628 694.298 178.893 694.587C179.158 694.876 179.495 695.073 179.863 695.153C180.23 695.233 180.61 695.192 180.956 695.035C181.302 694.879 181.598 694.614 181.806 694.274C182.014 693.934 182.125 693.535 182.125 693.126C182.123 692.857 182.073 692.59 181.977 692.342C181.881 692.094 181.741 691.869 181.565 691.68C181.389 691.491 181.181 691.341 180.952 691.24C180.723 691.139 180.479 691.088 180.232 691.09V691.06Z" fill="#F0F0F0"/>
<path d="M34.887 482.904H32.9661V667.316H34.887V482.904Z" fill="#EBEBEB"/>
<path d="M192.767 482.904H118.484V667.316H192.767V482.904Z" fill="#F0F0F0"/>
<path d="M152.896 482.904H145.723L131.323 667.301H138.496L152.896 482.904Z" fill="white"/>
<path d="M163.689 482.904H156.517L142.103 667.301H149.275L163.689 482.904Z" fill="white"/>
<path d="M120.405 482.904H118.484V667.316H120.405V482.904Z" fill="#EBEBEB"/>
<path d="M208.881 464.802H16.8381V467.11H208.881V464.802Z" fill="#EBEBEB"/>
<path d="M247.024 314.226H47.5601V419.322H247.024V314.226Z" fill="#FAFAFA"/>
<path d="M172.907 405.805C165.836 405.805 158.924 403.517 153.044 399.229C147.165 394.941 142.583 388.846 139.877 381.715C137.171 374.584 136.463 366.738 137.842 359.168C139.222 351.598 142.627 344.644 147.627 339.187C152.627 333.729 158.997 330.012 165.932 328.506C172.868 327.001 180.056 327.774 186.589 330.727C193.122 333.681 198.706 338.683 202.634 345.1C206.563 351.518 208.66 359.063 208.66 366.781C208.645 377.126 204.874 387.043 198.172 394.358C191.47 401.673 182.385 405.79 172.907 405.805ZM172.907 329.265C166.11 329.265 159.464 331.465 153.812 335.588C148.16 339.71 143.755 345.569 141.153 352.424C138.552 359.279 137.871 366.823 139.197 374.1C140.524 381.377 143.797 388.062 148.604 393.309C153.411 398.556 159.535 402.129 166.202 403.576C172.869 405.024 179.78 404.281 186.06 401.441C192.341 398.602 197.709 393.793 201.485 387.624C205.262 381.454 207.278 374.201 207.278 366.781C207.267 356.835 203.642 347.299 197.199 340.266C190.755 333.233 182.02 329.277 172.907 329.265Z" fill="white"/>
<path d="M212.833 339.07C214.516 334.149 214.814 328.791 213.69 323.684L209.959 323.548C210.791 328.507 210.227 333.624 208.342 338.226C194.757 338.105 192.352 353.748 181.503 350.293C177.63 349.223 173.593 349.064 169.66 349.826C168.024 350.099 166.407 350.497 164.823 351.018C150.45 355.106 132.898 364.881 129.775 379.558L133.106 380.252C133.106 380.252 135.275 369.361 149.69 361.592C148.319 363.559 147.302 365.79 146.691 368.169C137.832 403.739 197.908 397.479 213.842 385.064C233.328 369.964 225.023 344.32 212.833 339.07Z" fill="#EBEBEB"/>
<path d="M117.586 326.127H57.386V330.321H117.586V326.127Z" fill="#EBEBEB"/>
<path d="M102.384 336.823H57.386V341.016H102.384V336.823Z" fill="#EBEBEB"/>
<path d="M117.586 358.198H57.386V362.391H117.586V358.198Z" fill="#EBEBEB"/>
<path d="M86.4909 368.893H57.386V373.087H86.4909V368.893Z" fill="#EBEBEB"/>
<path d="M111.934 368.893H91.2036V373.087H111.934V368.893Z" fill="#EBEBEB"/>
<path d="M105.839 379.588H57.386V383.782H105.839V379.588Z" fill="#EBEBEB"/>
<path d="M117.586 390.268H57.386V394.462H117.586V390.268Z" fill="#EBEBEB"/>
<path d="M310.707 776.877H253.893C253.25 776.876 252.629 776.619 252.146 776.156C251.663 775.693 251.351 775.054 251.267 774.358L239.796 674.722C239.751 674.317 239.786 673.905 239.897 673.515C240.008 673.124 240.194 672.764 240.442 672.458C240.69 672.151 240.995 671.906 241.336 671.737C241.677 671.568 242.047 671.481 242.422 671.479H322.177C322.552 671.481 322.922 671.568 323.263 671.737C323.604 671.906 323.909 672.151 324.157 672.458C324.405 672.764 324.591 673.124 324.702 673.515C324.814 673.905 324.848 674.317 324.803 674.722L313.332 774.358C313.252 775.055 312.94 775.696 312.456 776.16C311.973 776.624 311.35 776.879 310.707 776.877Z" fill="#EBEBEB"/>
<path opacity="0.7" d="M238.566 669.428C236.493 671.057 238.138 696.279 240.86 701.845C243.583 707.411 259.835 702.629 279.238 700.759C298.642 698.888 321.887 706.37 322.896 701.845C323.905 697.32 329.571 672.701 326.6 669.428C324.223 666.803 295.643 666.803 283.08 668.372C270.518 669.941 242.989 665.973 238.566 669.428Z" fill="#F5F5F5"/>
<path d="M282.5 845C430.488 845 550.456 837.355 550.456 827.924C550.456 818.493 430.488 810.848 282.5 810.848C134.512 810.848 14.5439 818.493 14.5439 827.924C14.5439 837.355 134.512 845 282.5 845Z" fill="#F5F5F5"/>
<path d="M163.648 352.963C153.214 342.268 136.008 340.217 129.568 351.349C123.127 362.482 126.804 374.248 113.592 386.587C104.609 395.02 111.27 420.86 162.514 418.492C186.769 417.376 178.56 389.831 177.91 376.812C177.26 363.794 177.219 347.865 163.648 352.963Z" fill="#263238"/>
<path d="M143.457 807.077L131.046 807.605L130.812 792.942L143.222 792.414L143.457 807.077Z" fill="#B55B52"/>
<path d="M130.273 804.799H144.3C144.547 804.796 144.788 804.886 144.981 805.053C145.175 805.221 145.31 805.456 145.364 805.719L147.796 817.862C147.852 818.158 147.847 818.464 147.78 818.758C147.713 819.051 147.587 819.324 147.41 819.557C147.234 819.79 147.012 819.977 146.761 820.104C146.509 820.231 146.235 820.295 145.958 820.291C141.052 820.201 138.675 819.884 132.498 819.884C128.697 819.884 118.844 820.321 113.592 820.321C108.34 820.321 107.677 814.649 109.819 814.136C119.493 811.829 125.118 808.661 128.214 805.629C128.781 805.082 129.516 804.786 130.273 804.799Z" fill="#263238"/>
<path opacity="0.2" d="M130.812 792.957L130.922 799.776L143.332 799.187L143.222 792.429L130.812 792.957Z" fill="black"/>
<path d="M112.514 511.761C109.75 528.023 112.928 607.505 117.144 642.607C122.754 689.219 128.559 797.453 128.559 797.453L145.143 796.367C145.143 796.367 149.289 682.386 145.903 644.96C147.824 596.794 152.578 512.666 152.578 512.666L112.514 511.761Z" fill="#407BFF"/>
<path opacity="0.2" d="M149.828 565.086C150.408 552.882 142.489 542.036 139.297 565.086C137.279 579.733 141.453 605.408 146.926 623.54C147.769 604.669 148.847 583.655 149.828 565.086Z" fill="black"/>
<path d="M234.641 761.475L226.57 769.893L215.639 757.101L223.696 748.698L234.641 761.475Z" fill="#B55B52"/>
<path d="M224.456 770.119L232.748 757.719C232.883 757.504 233.088 757.352 233.322 757.296C233.556 757.24 233.8 757.284 234.005 757.418L243.679 763.633C243.918 763.805 244.121 764.028 244.279 764.289C244.436 764.549 244.544 764.842 244.596 765.149C244.647 765.456 244.642 765.771 244.579 766.075C244.517 766.38 244.399 766.667 244.232 766.921C241.289 771.19 239.672 773.076 236.037 778.536C233.798 781.885 231.214 786.501 228.132 791.147C225.05 795.793 220.835 792.46 221.747 790.212C225.893 780.12 224.138 777.314 223.917 772.502C223.846 771.664 224.036 770.825 224.456 770.119Z" fill="#263238"/>
<path opacity="0.2" d="M215.639 757.116L221.277 763.693L229.279 755.215L223.71 748.698L215.639 757.116Z" fill="black"/>
<path d="M131.751 512.199C131.751 512.199 149.607 614.775 154.25 654.599C157.014 678.388 217.96 763.979 217.96 763.979L228.367 752.017C228.367 752.017 206.061 689.355 179.195 652.186C178.131 608.621 182.664 536.908 167.241 512.998L131.751 512.199Z" fill="#407BFF"/>
<path d="M116.079 433.547C116.079 442.356 115.706 451 115.112 459.734C114.518 468.468 113.73 477.157 112.445 485.906L112.21 487.55L111.892 489.406C111.652 490.622 111.39 491.814 111.104 492.981C110.496 495.289 109.722 497.506 109.031 499.648C107.519 503.848 105.803 507.957 103.89 511.957C100.124 519.78 95.8323 527.287 91.0515 534.419C90.5468 535.158 89.8098 535.668 88.9819 535.851C88.1539 536.033 87.2934 535.876 86.5654 535.408C85.8373 534.941 85.293 534.196 85.037 533.318C84.781 532.439 84.8312 531.488 85.178 530.648V530.557C88.4257 522.894 91.5766 515.035 94.3268 507.251C95.7088 503.359 96.9388 499.422 97.9891 495.56C98.4866 493.629 98.9289 491.714 99.2744 489.843C99.454 488.908 99.5784 487.988 99.7028 487.083L99.841 485.74L99.9792 484.232C100.684 475.875 101.099 467.397 101.486 458.904C101.873 450.411 102.052 441.843 102.273 433.426V433.35C102.303 431.35 103.059 429.444 104.375 428.052C105.692 426.661 107.461 425.897 109.294 425.929C111.127 425.961 112.872 426.786 114.148 428.223C115.423 429.66 116.123 431.591 116.093 433.592L116.079 433.547Z" fill="#B55B52"/>
<path d="M111.574 422.519C94.6032 427.935 96.7868 461.634 96.7868 461.634L120.916 468.724C120.916 468.724 124.924 444.045 124.565 435.191C124.206 425.989 120.93 419.548 111.574 422.519Z" fill="#407BFF"/>
<path d="M86.9744 528.702L78.4751 536.591L90.3879 541.901C90.3879 541.901 94.0779 535.761 92.3642 529.939L86.9744 528.702Z" fill="#B55B52"/>
<path d="M79.9816 548.628L85.4129 549.368C86.0162 549.45 86.6276 549.313 87.1523 548.977C87.677 548.642 88.0857 548.127 88.3151 547.512L90.3881 541.901L78.4752 536.591L77.5769 545.295C77.4949 546.084 77.7015 546.877 78.1517 547.501C78.6019 548.125 79.2594 548.53 79.9816 548.628Z" fill="#B55B52"/>
<path d="M106.088 431.284C105.327 465.074 112.445 489.737 112.528 511.761L167.241 512.998C166.84 490.944 167.006 476.553 175.699 437.031C176.077 435.31 176.122 433.521 175.831 431.78C175.54 430.038 174.919 428.382 174.009 426.917C173.099 425.452 171.918 424.211 170.544 423.272C169.169 422.333 167.63 421.717 166.025 421.463C162.75 420.936 159.115 420.438 155.425 420.166C147.156 419.33 138.843 419.138 130.549 419.593C124.717 420.046 118.443 420.981 113.965 421.72C111.838 422.065 109.888 423.209 108.45 424.955C107.012 426.7 106.177 428.938 106.088 431.284Z" fill="#407BFF"/>
<path d="M157.083 462.509L140.859 462.389C140.697 462.396 140.536 462.366 140.386 462.299C140.237 462.232 140.102 462.131 139.992 462.002C139.881 461.873 139.798 461.719 139.747 461.551C139.697 461.384 139.68 461.206 139.698 461.031L140.596 452.644C140.655 452.269 140.832 451.93 141.098 451.684C141.363 451.438 141.699 451.303 142.047 451.301L158.258 451.422C158.419 451.412 158.58 451.441 158.729 451.506C158.879 451.571 159.014 451.671 159.125 451.798C159.235 451.926 159.319 452.079 159.37 452.246C159.42 452.413 159.437 452.59 159.419 452.764L158.521 461.167C158.465 461.54 158.29 461.879 158.027 462.125C157.764 462.371 157.43 462.507 157.083 462.509Z" fill="white"/>
<path opacity="0.4" d="M130.632 419.608C130.632 419.608 121.704 426.426 131.143 443.533C138.893 435.305 147.015 427.506 155.48 420.166L130.632 419.608Z" fill="white"/>
<path d="M153.601 389.574C151.873 398.263 149.994 414.223 155.48 420.166C146.853 423.876 138.898 429.228 131.986 435.975C125.919 423.817 130.604 419.593 130.604 419.593C139.56 417.481 139.477 410.255 138.053 403.437L153.601 389.574Z" fill="#B55B52"/>
<path opacity="0.2" d="M151.915 391.083C151.699 396.275 150.469 401.356 148.308 405.987C146.801 409.169 142.78 410.512 138.73 410.768C138.864 408.303 138.645 405.829 138.081 403.437L151.915 391.083Z" fill="black"/>
<path d="M166.55 378.939C162.404 392.848 161.022 398.821 152.73 404.252C140.361 412.413 125.615 403.89 125.809 388.941C126.002 375.485 132.719 355.015 146.636 352.918C149.717 352.431 152.862 352.813 155.77 354.028C158.678 355.243 161.253 357.25 163.25 359.859C165.246 362.468 166.597 365.59 167.175 368.93C167.753 372.27 167.538 375.716 166.55 378.939Z" fill="#B55B52"/>
<path d="M132.76 360.672C139.67 362.799 156.503 364.383 159.875 362.18C156.71 367.49 159.723 382.002 164.615 385.516C171.208 379.739 172.672 365.77 166.578 358.847C160.483 351.923 141.218 343.641 132.76 360.672Z" fill="#263238"/>
<path d="M168.485 387.447C168.049 388.772 167.374 389.989 166.5 391.025C165.627 392.061 164.573 392.896 163.399 393.481C160.276 394.99 158.203 392.093 158.645 388.579C159.046 385.426 161.16 380.825 164.505 380.765C165.226 380.776 165.935 380.98 166.567 381.361C167.199 381.741 167.735 382.286 168.129 382.947C168.522 383.607 168.76 384.363 168.823 385.148C168.885 385.933 168.769 386.723 168.485 387.447Z" fill="#B55B52"/>
<path d="M168.126 509.514L170.503 514.929C170.682 515.336 170.226 515.759 169.59 515.744L112.196 514.431C111.712 514.431 111.311 514.145 111.284 513.798L110.883 508.443C110.883 508.081 111.298 507.779 111.837 507.779L167.255 509.046C167.425 509.035 167.594 509.072 167.747 509.154C167.899 509.236 168.03 509.36 168.126 509.514Z" fill="#263238"/>
<path d="M160.566 516.106H162.045C162.335 516.106 162.57 515.94 162.556 515.744L161.989 508.775C161.989 508.578 161.713 508.397 161.423 508.397H159.93C159.64 508.397 159.419 508.548 159.433 508.76L159.986 515.714C160.013 515.94 160.262 516.106 160.566 516.106Z" fill="#407BFF"/>
<path d="M116.356 515.11H117.848C118.139 515.11 118.373 514.959 118.36 514.748L117.793 507.779C117.793 507.583 117.517 507.417 117.226 507.402H115.734C115.444 507.402 115.209 507.553 115.236 507.764L115.789 514.718C115.817 514.929 116.066 515.095 116.356 515.11Z" fill="#407BFF"/>
<path d="M138.454 515.608H139.947C140.237 515.608 140.472 515.457 140.458 515.246L139.891 508.292C139.891 508.08 139.615 507.915 139.325 507.915H137.832C137.542 507.915 137.321 508.08 137.335 508.277L137.887 515.246C137.915 515.427 138.164 515.608 138.454 515.608Z" fill="#407BFF"/>
<path d="M146.663 377.778C146.387 378.925 145.613 379.709 144.922 379.513C144.231 379.317 143.899 378.231 144.162 377.084C144.424 375.938 145.212 375.153 145.903 375.349C146.594 375.546 146.926 376.632 146.663 377.778Z" fill="#263238"/>
<path d="M134.75 374.459C134.488 375.621 133.714 376.39 133.023 376.194C132.332 375.998 131.986 374.927 132.263 373.765C132.539 372.604 133.299 371.85 133.99 372.031C134.681 372.212 135.027 373.313 134.75 374.459Z" fill="#263238"/>
<path d="M134.28 372.182L131.931 370.673C131.931 370.673 132.732 373.207 134.28 372.182Z" fill="#263238"/>
<path d="M137.39 377.31C135.843 379.674 134.006 381.796 131.931 383.616C132.369 384.182 132.915 384.638 133.531 384.95C134.146 385.263 134.817 385.425 135.496 385.426L137.39 377.31Z" fill="#A02724"/>
<path d="M138.053 389.936C138.005 389.891 137.969 389.831 137.949 389.765C137.93 389.698 137.927 389.627 137.943 389.559C137.955 389.515 137.976 389.475 138.003 389.44C138.03 389.405 138.063 389.376 138.1 389.355C138.137 389.334 138.178 389.321 138.22 389.317C138.262 389.314 138.304 389.319 138.344 389.333C139.634 389.774 141.002 389.879 142.337 389.638C143.672 389.397 144.936 388.817 146.027 387.945C146.092 387.885 146.175 387.855 146.259 387.862C146.343 387.869 146.422 387.913 146.477 387.983C146.532 388.053 146.559 388.144 146.552 388.236C146.546 388.328 146.506 388.413 146.442 388.473C145.274 389.435 143.909 390.075 142.466 390.338C141.022 390.6 139.541 390.478 138.15 389.981L138.053 389.936Z" fill="#263238"/>
<path d="M153.158 372.483C153.075 372.402 153.004 372.305 152.951 372.197C152.666 371.379 152.206 370.647 151.61 370.062C151.014 369.477 150.299 369.056 149.524 368.833C149.357 368.801 149.209 368.698 149.112 368.546C149.014 368.395 148.976 368.208 149.005 368.026C149.035 367.844 149.129 367.682 149.268 367.576C149.407 367.47 149.578 367.428 149.745 367.46C150.731 367.726 151.644 368.246 152.408 368.975C153.173 369.705 153.766 370.623 154.14 371.654C154.188 371.795 154.194 371.951 154.157 372.096C154.119 372.242 154.039 372.371 153.929 372.463C153.82 372.556 153.686 372.608 153.547 372.612C153.408 372.615 153.272 372.57 153.158 372.483Z" fill="#263238"/>
<path d="M132.401 367.128L132.318 367.037C132.199 366.907 132.132 366.731 132.132 366.547C132.132 366.363 132.199 366.187 132.318 366.057C133.048 365.31 133.928 364.76 134.889 364.454C135.849 364.147 136.862 364.092 137.846 364.292C137.928 364.315 138.005 364.355 138.073 364.411C138.141 364.467 138.197 364.537 138.24 364.617C138.282 364.697 138.31 364.786 138.321 364.878C138.331 364.969 138.325 365.063 138.302 365.152C138.26 365.33 138.154 365.482 138.009 365.576C137.864 365.669 137.691 365.696 137.528 365.65C136.74 365.487 135.927 365.533 135.158 365.782C134.389 366.031 133.685 366.477 133.106 367.083C133.005 367.165 132.885 367.214 132.76 367.222C132.634 367.23 132.509 367.197 132.401 367.128Z" fill="#263238"/>
<path d="M175.685 432.128C179.707 437.936 183.466 443.789 187.114 449.868C188.925 452.885 190.721 455.902 192.421 459.16C194.252 462.456 195.895 465.872 197.341 469.388C197.778 470.484 198.157 471.607 198.474 472.752C198.704 473.635 198.862 474.538 198.944 475.452C198.967 475.819 198.967 476.187 198.944 476.553V477.232C198.919 477.531 198.877 477.828 198.82 478.122L198.723 478.59V478.801V478.967L198.612 479.299C197.963 481.109 197.451 482.934 196.678 484.684C195.276 488.27 193.593 491.717 191.647 494.987C189.643 498.288 187.297 501.325 184.654 504.038C183.308 505.416 181.861 506.672 180.329 507.794C179.541 508.352 178.739 508.895 177.91 509.393L176.597 510.087C176.1 510.328 175.74 510.494 175.022 510.781L172.396 503.902C172.583 503.702 172.781 503.516 172.99 503.344L173.75 502.62C174.262 502.122 174.759 501.579 175.243 501.021C176.227 499.868 177.15 498.654 178.007 497.385C179.695 494.794 181.166 492.043 182.402 489.164C182.982 487.656 183.618 486.238 184.101 484.639C184.585 483.04 185.124 481.622 185.566 480.113C186.009 478.605 186.354 476.945 186.782 475.377V475.09V474.939V475.075V475.377C186.782 475.558 186.713 475.829 186.7 475.935C186.693 476.05 186.693 476.166 186.7 476.282V476.719C186.7 477.066 186.7 476.96 186.7 476.81C186.7 476.659 186.313 475.844 186.022 475.211C184.765 472.631 183.079 469.659 181.351 466.824C179.624 463.988 177.827 461.076 175.989 458.225C172.327 452.508 168.554 446.731 164.85 441.059L175.685 432.128Z" fill="#B55B52"/>
<path d="M178.684 509.001L168.029 517.222L163.247 505.335C163.247 505.335 169.715 501.549 174.814 504.083L178.684 509.001Z" fill="#B55B52"/>
<path d="M160.608 518.203L157.94 514.145C157.434 513.362 157.227 512.395 157.364 511.448C157.501 510.502 157.97 509.651 158.673 509.076L163.247 505.335L168.029 517.222L165.099 519.198C164.374 519.684 163.507 519.851 162.673 519.667C161.84 519.482 161.101 518.959 160.608 518.203Z" fill="#B55B52"/>
<path d="M154.361 428.538C150.74 444.242 173.073 471.123 173.073 471.123L191.855 449.838C191.855 449.838 183.272 429.836 172.064 423.56C164.242 419.186 155.964 421.614 154.361 428.538Z" fill="#407BFF"/>
<path d="M146.193 375.5L143.844 373.992C143.844 373.992 144.631 376.526 146.193 375.5Z" fill="#263238"/>
<path d="M122.188 470.489C122.087 470.488 121.988 470.455 121.905 470.393C121.821 470.332 121.756 470.244 121.718 470.142C121.673 470.008 121.678 469.86 121.733 469.73C121.787 469.6 121.886 469.499 122.008 469.448L124.164 468.543C126.183 467.729 127.927 466.262 129.162 464.337C130.397 462.413 131.064 460.122 131.074 457.773L131.226 435.719C131.27 434.04 130.784 432.395 129.85 431.06C128.916 429.726 127.59 428.781 126.095 428.386C124.599 427.99 123.025 428.167 121.634 428.886C120.244 429.606 119.122 430.825 118.456 432.34L109.114 451.95C108.11 454.02 107.705 456.374 107.952 458.701C108.199 461.028 109.086 463.218 110.496 464.983L112.016 466.869C112.067 466.921 112.108 466.984 112.136 467.054C112.163 467.124 112.177 467.199 112.175 467.276C112.174 467.352 112.159 467.427 112.129 467.496C112.1 467.565 112.057 467.627 112.005 467.677C111.952 467.727 111.89 467.764 111.824 467.786C111.757 467.809 111.686 467.815 111.617 467.806C111.548 467.797 111.481 467.772 111.421 467.732C111.362 467.693 111.31 467.64 111.27 467.578L109.75 465.526C108.193 463.608 107.21 461.217 106.931 458.673C106.652 456.128 107.09 453.551 108.188 451.286L117.53 431.676C118.329 430.002 119.62 428.671 121.197 427.896C122.773 427.121 124.542 426.948 126.22 427.404C127.897 427.861 129.385 428.92 130.444 430.412C131.502 431.904 132.07 433.741 132.055 435.628L131.903 457.682C131.892 460.24 131.17 462.735 129.833 464.836C128.495 466.936 126.605 468.545 124.413 469.448L122.257 470.338L122.188 470.489Z" fill="#263238"/>
<path d="M131.572 440.636C131.443 440.633 131.321 440.576 131.228 440.479C131.136 440.381 131.081 440.249 131.074 440.108C130.878 438.365 130.203 436.728 129.137 435.412C128.072 434.096 126.666 433.164 125.105 432.738C123.545 432.311 121.902 432.411 120.395 433.024C118.887 433.637 117.585 434.734 116.66 436.171C116.628 436.234 116.585 436.289 116.534 436.333C116.483 436.377 116.424 436.41 116.361 436.43C116.298 436.45 116.233 436.455 116.168 436.447C116.103 436.439 116.04 436.417 115.983 436.382C115.926 436.348 115.875 436.301 115.835 436.245C115.794 436.189 115.764 436.125 115.746 436.057C115.728 435.988 115.722 435.916 115.73 435.845C115.737 435.774 115.757 435.706 115.789 435.643C116.818 433.984 118.288 432.71 120.002 431.993C121.715 431.277 123.589 431.152 125.37 431.635C127.15 432.119 128.752 433.189 129.958 434.699C131.163 436.209 131.915 438.087 132.111 440.078C132.111 440.221 132.061 440.359 131.971 440.463C131.881 440.566 131.758 440.629 131.627 440.636H131.572Z" fill="#263238"/>
<path d="M126.182 428.583C126.1 428.582 126.02 428.56 125.948 428.518C125.876 428.476 125.814 428.416 125.767 428.342C125.515 427.73 125.384 427.067 125.384 426.396C125.384 425.725 125.515 425.062 125.767 424.45C126.126 423.234 126.731 422.121 127.537 421.194C128.343 420.267 129.33 419.549 130.425 419.095C130.485 419.069 130.55 419.057 130.615 419.06C130.68 419.063 130.744 419.081 130.802 419.112C130.861 419.143 130.913 419.187 130.955 419.242C130.997 419.296 131.028 419.359 131.047 419.427C131.087 419.561 131.077 419.707 131.021 419.834C130.964 419.96 130.864 420.058 130.743 420.106C129.805 420.525 128.963 421.162 128.273 421.972C127.583 422.782 127.063 423.746 126.749 424.797C126.543 425.264 126.423 425.771 126.397 426.289C126.371 426.807 126.439 427.325 126.597 427.814C126.632 427.874 126.657 427.942 126.669 428.013C126.68 428.083 126.679 428.156 126.665 428.226C126.651 428.296 126.624 428.362 126.586 428.421C126.548 428.48 126.5 428.53 126.445 428.568C126.359 428.596 126.269 428.601 126.182 428.583Z" fill="#263238"/>
<path d="M121.055 469.659C120.82 470.64 121.055 471.575 121.718 471.741C122.381 471.907 122.989 471.228 123.211 470.233C123.432 469.237 123.128 468.302 122.533 468.151C121.939 468 121.276 468.664 121.055 469.659Z" fill="#263238"/>
<path d="M160.276 443.608C160.718 445.886 162.211 447.455 163.579 447.138C164.947 446.821 165.693 444.694 165.237 442.431C164.781 440.169 163.302 438.57 161.934 438.902C160.566 439.233 159.82 441.391 160.276 443.608Z" fill="#263238"/>
<path d="M164.601 442.899C164.538 442.901 164.475 442.889 164.415 442.865C164.356 442.84 164.301 442.803 164.255 442.755C164.209 442.708 164.172 442.65 164.146 442.587C164.12 442.524 164.106 442.456 164.104 442.386C163.814 434.044 160.911 423.681 155.259 420.619C155.142 420.554 155.054 420.442 155.012 420.306C154.971 420.171 154.98 420.023 155.038 419.895C155.066 419.83 155.105 419.773 155.154 419.725C155.203 419.678 155.26 419.642 155.322 419.619C155.384 419.597 155.45 419.588 155.515 419.594C155.58 419.6 155.644 419.62 155.701 419.653C161.754 422.927 164.781 433.411 165.085 442.281C165.091 442.352 165.083 442.423 165.062 442.491C165.041 442.558 165.007 442.62 164.963 442.673C164.919 442.725 164.865 442.767 164.805 442.796C164.745 442.824 164.681 442.839 164.615 442.839L164.601 442.899Z" fill="#263238"/>
<path d="M158.797 443.804C159.087 445.75 160.373 447.138 161.672 446.912C162.971 446.685 163.8 444.921 163.51 442.959C163.22 440.998 161.92 439.626 160.621 439.852C159.322 440.078 158.507 441.843 158.797 443.804Z" fill="white"/>
<path d="M158.687 443.97C159.101 446.384 160.262 448.164 161.271 447.953C162.28 447.741 162.736 445.63 162.321 443.216C161.907 440.802 160.746 439.022 159.737 439.234C158.728 439.445 158.258 441.557 158.687 443.97Z" fill="#263238"/>
<path d="M110.607 466.808C110.386 467.804 110.69 468.739 111.284 468.89C111.878 469.041 112.542 468.392 112.777 467.382C113.012 466.371 112.694 465.466 112.099 465.3C111.505 465.134 110.842 465.828 110.607 466.808Z" fill="#263238"/>
<path d="M261.991 343.973C253.243 345.677 252.137 344.802 252.027 337.939C251.916 331.075 248.738 319.626 253.16 316.036C253.464 315.722 253.837 315.5 254.244 315.392C254.65 315.285 255.076 315.296 255.477 315.425C255.878 315.553 256.242 315.794 256.532 316.123C256.821 316.453 257.026 316.86 257.126 317.303C257.396 316.55 257.922 315.94 258.594 315.6C259.266 315.26 260.033 315.216 260.733 315.478C260.913 314.06 261.12 310.424 263.497 309.444C265.875 308.463 268.058 310.816 268.058 310.816C268.058 310.816 267.878 305.22 271.333 305.763C272.365 305.943 273.323 306.458 274.082 307.241C274.841 308.024 275.367 309.039 275.59 310.153C275.59 310.153 277.58 306.985 280.275 308.237C282.97 309.489 282.403 313.17 282.403 313.17C282.403 313.17 285.264 311.661 287.392 313.366C289.521 315.07 287.973 317.801 287.973 317.801C287.973 317.801 289.907 312.37 293.597 315.372C296.914 318.087 293.901 322.341 293.901 322.341C293.901 322.341 297.55 321.693 298.434 323.699C301.42 330.532 290.046 338.165 289.673 349.705C272.204 356.916 261.991 343.973 261.991 343.973Z" fill="#263238"/>
<path d="M198.944 527.374L193.112 526.198L185.401 534.238C184.981 534.674 184.65 535.201 184.428 535.786C184.207 536.371 184.1 536.999 184.115 537.632L184.226 544.209C184.24 545.333 184.636 546.412 185.339 547.235C186.042 548.058 187 548.565 188.026 548.659L190.708 548.915C191.683 549.016 192.659 548.736 193.464 548.126C194.268 547.516 194.849 546.614 195.102 545.582L196.484 540.211C196.484 540.211 204.099 530.391 198.944 527.374Z" fill="#FFB573"/>
<path d="M257.845 407.088C253.934 418.145 250.037 429.247 246.278 440.38C242.519 451.512 238.787 462.69 235.291 473.687L234.669 475.723L234.241 477.051C234.075 477.549 233.909 478.062 233.757 478.454C233.107 480.249 232.458 481.727 231.808 483.221C230.509 486.238 229.196 488.938 227.87 491.668C225.202 497.099 222.452 502.333 219.674 507.552C214.146 518.006 208.618 528.219 202.897 538.582L185.304 526.635C191.108 516.784 196.705 506.617 202.068 496.465C204.707 491.366 207.305 486.253 209.724 481.184C210.926 478.65 212.087 476.116 213.11 473.642C213.593 472.45 214.077 471.228 214.395 470.233C214.506 469.946 214.547 469.75 214.616 469.554L214.837 468.769L215.473 466.567C218.804 454.982 222.3 443.789 225.672 432.43L235.788 398.474L257.845 407.088Z" fill="#407BFF"/>
<path opacity="0.6" d="M257.845 407.088C253.934 418.145 250.037 429.247 246.278 440.38C242.519 451.512 238.787 462.69 235.291 473.687L234.669 475.723L234.241 477.051C234.075 477.549 233.909 478.062 233.757 478.454C233.107 480.249 232.458 481.727 231.808 483.221C230.509 486.238 229.196 488.938 227.87 491.668C225.202 497.099 222.452 502.333 219.674 507.552C214.146 518.006 208.618 528.219 202.897 538.582L185.304 526.635C191.108 516.784 196.705 506.617 202.068 496.465C204.707 491.366 207.305 486.253 209.724 481.184C210.926 478.65 212.087 476.116 213.11 473.642C213.593 472.45 214.077 471.228 214.395 470.233C214.506 469.946 214.547 469.75 214.616 469.554L214.837 468.769L215.473 466.567C218.804 454.982 222.3 443.789 225.672 432.43L235.788 398.474L257.845 407.088Z" fill="white"/>
<path d="M205.136 810.833L192.739 811.496L198.599 776.258L210.387 779.215L205.136 810.833Z" fill="#FFB573"/>
<path d="M294.067 811.346H281.671L281.712 780.015H294.095L294.067 811.346Z" fill="#FFB573"/>
<path d="M280.496 809.777H295.601C295.844 809.773 296.08 809.863 296.268 810.032C296.455 810.2 296.581 810.436 296.624 810.697L298.614 822.765C298.658 823.064 298.642 823.369 298.567 823.66C298.492 823.951 298.36 824.221 298.18 824.451C298 824.681 297.776 824.865 297.524 824.99C297.272 825.116 296.998 825.18 296.721 825.179C291.856 825.088 288.318 824.771 282.196 824.771C278.437 824.771 266.994 825.194 261.853 825.194C256.712 825.194 256.187 819.582 258.329 819.069C268.003 816.791 275.286 813.654 278.451 810.652C279.012 810.097 279.739 809.786 280.496 809.777Z" fill="#263238"/>
<path opacity="0.2" d="M198.599 776.273L195.89 792.565L207.679 795.522L210.387 779.23L198.599 776.273Z" fill="black"/>
<path opacity="0.2" d="M294.095 780.015H281.698V796.155H294.095V780.015Z" fill="black"/>
<path d="M304.073 406.695C294.399 454.198 296.97 501.081 295.933 511.233L229.777 506.466C222.867 449.144 230.578 412.579 234.959 397.584C235.671 395.109 237.018 392.909 238.84 391.243C240.663 389.578 242.884 388.517 245.241 388.186C255.079 387.009 264.986 386.672 274.871 387.176C281.564 387.613 288.207 388.713 294.717 390.464C297.927 391.266 300.715 393.426 302.469 396.468C304.223 399.511 304.8 403.189 304.073 406.695Z" fill="#407BFF"/>
<path d="M284.131 354.985C281.947 363.93 279.363 379.769 283.523 387.779C284.172 389.031 282.929 390.102 282.873 391.55C282.721 395.985 277.221 397.313 267.381 397.373C257.541 397.433 253.326 392.953 256.007 388.729C256.418 388.086 257.043 387.642 257.748 387.492C266.966 385.245 267.146 377.355 265.888 369.828L284.131 354.985Z" fill="#FFB573"/>
<path opacity="0.4" d="M266.676 394.914C269.261 398.838 270.901 403.408 271.444 408.204C281.27 403.166 285.955 390.932 285.955 390.932L282.998 387.478C282.998 387.478 272.08 389.725 266.676 394.914Z" fill="black"/>
<path opacity="0.4" d="M265.709 394.96C262.091 398.174 259.038 402.079 256.698 406.484C249.83 401.838 252.096 388.594 252.096 388.594L257.693 387.387C257.693 387.387 260.195 389.906 265.709 394.96Z" fill="black"/>
<path d="M266.151 394.628L264.037 394.854L260.457 397.433C260.229 398.987 260.482 400.58 261.176 401.959C263.255 402.402 265.377 402.559 267.492 402.427C268.911 401.679 270.041 400.407 270.684 398.836L268.058 395.171L266.151 394.628Z" fill="#263238"/>
<path d="M266.151 394.628C268.806 398.255 270.842 402.373 272.163 406.786C281.989 401.748 287.71 389.71 287.71 389.71L282.97 385.185C282.97 385.185 271.554 389.469 266.151 394.628Z" fill="#407BFF"/>
<path d="M266.151 394.628C262.358 397.239 259.041 400.594 256.366 404.523C249.456 399.892 252.096 387.417 252.096 387.417L257.693 386.21C257.693 386.21 260.651 389.604 266.151 394.628Z" fill="#407BFF"/>
<path opacity="0.2" d="M276.696 361.034L265.916 369.813C266.243 371.628 266.423 373.47 266.455 375.319C270.338 375.002 275.922 370.794 276.599 366.389C276.924 364.624 276.956 362.811 276.696 361.034Z" fill="black"/>
<path d="M286.107 340.202C284.545 353.522 284.255 361.32 277.649 367.822C267.713 377.461 252.967 370.251 250.852 356.689C248.945 344.486 251.82 324.755 264.133 320.305C266.844 319.307 269.744 319.083 272.557 319.654C275.37 320.224 278.002 321.57 280.204 323.564C282.406 325.558 284.104 328.133 285.137 331.045C286.171 333.957 286.504 337.109 286.107 340.202Z" fill="#FFB573"/>
<path d="M283.122 352.239C280.358 349.328 282.085 335.39 283.481 331.392C276.571 332.116 254.238 332.086 255.081 325.358C255.924 318.63 264.05 312.913 277.331 317.635C288.387 321.572 291.151 327.591 291.151 332.508C291.317 342.615 283.122 352.239 283.122 352.239Z" fill="#263238"/>
<path d="M290.391 352.39C289.079 355.128 286.836 357.196 284.144 358.152C280.62 359.344 278.879 355.799 279.874 351.998C280.759 348.589 283.675 343.837 287.199 344.32C290.723 344.802 292.008 348.996 290.391 352.39Z" fill="#FFB573"/>
<path d="M191.855 788.432L212.35 793.365C212.35 793.365 232.278 708.12 238.193 666.456C240.004 653.785 244.205 635.698 248.033 616.676C252.856 592.691 258.923 566.745 263.898 546.426C269.15 525.021 273.047 509.634 273.047 509.634L229.777 506.512C229.777 506.512 209.641 618.004 205.578 659.049C201.335 701.709 191.855 788.432 191.855 788.432Z" fill="#263238"/>
<path opacity="0.2" d="M248.033 616.646C252.856 592.661 258.923 566.715 263.898 546.396L259.352 535.837C248.613 549.835 245.863 593.144 248.033 616.646Z" fill="black"/>
<path d="M250.396 507.96C250.396 507.96 259.352 621.896 262.834 661.342C266.704 704.545 277.083 793.048 277.083 793.048H297.896C297.896 793.048 298.835 698.798 295.132 657.073C294.606 575.042 295.919 511.248 295.919 511.248L250.396 507.96Z" fill="#263238"/>
<path d="M274.429 793.576H301.157V784.857L273.393 783.182L274.429 793.576Z" fill="#407BFF"/>
<path d="M189.174 788.341L213.594 794.224L215.335 785.611L189.768 778.582L189.174 788.341Z" fill="#407BFF"/>
<path d="M268.266 342.585C268.266 343.671 267.616 344.516 266.966 344.471C266.317 344.425 265.833 343.505 265.902 342.419C265.971 341.333 266.552 340.488 267.201 340.533C267.851 340.579 268.335 341.499 268.266 342.585Z" fill="#263238"/>
<path d="M256.988 341.831C256.988 342.917 256.339 343.762 255.689 343.716C255.04 343.671 254.556 342.751 254.625 341.665C254.694 340.579 255.275 339.734 255.924 339.779C256.574 339.825 257.057 340.684 256.988 341.831Z" fill="#263238"/>
<path d="M259.573 342.585C258.179 345.821 256.389 348.835 254.252 351.545C255.897 353.476 258.951 352.873 258.951 352.873L259.573 342.585Z" fill="#ED893E"/>
<path d="M262.986 356.086C264.106 356.017 265.202 355.701 266.207 355.156C267.211 354.612 268.104 353.85 268.832 352.918C268.883 352.859 268.912 352.781 268.912 352.699C268.912 352.618 268.883 352.54 268.832 352.481C268.776 352.423 268.702 352.392 268.625 352.392C268.548 352.392 268.474 352.423 268.417 352.481C267.597 353.503 266.568 354.3 265.413 354.808C264.258 355.317 263.01 355.522 261.77 355.407C261.732 355.403 261.693 355.407 261.657 355.419C261.62 355.431 261.586 355.451 261.556 355.478C261.527 355.505 261.502 355.538 261.484 355.575C261.466 355.612 261.455 355.652 261.452 355.694C261.448 355.779 261.475 355.863 261.526 355.928C261.578 355.993 261.65 356.033 261.728 356.041C262.146 356.084 262.566 356.099 262.986 356.086Z" fill="#263238"/>
<path d="M271.016 338.814C271.114 338.802 271.208 338.765 271.292 338.708C271.423 338.615 271.515 338.47 271.549 338.303C271.583 338.137 271.555 337.963 271.472 337.818C270.978 336.95 270.302 336.224 269.499 335.699C268.696 335.174 267.79 334.866 266.856 334.801C266.715 334.825 266.587 334.902 266.495 335.02C266.403 335.138 266.352 335.287 266.352 335.442C266.352 335.597 266.403 335.747 266.495 335.865C266.587 335.982 266.715 336.06 266.856 336.083C267.593 336.143 268.307 336.393 268.939 336.812C269.571 337.232 270.103 337.809 270.49 338.497C270.542 338.598 270.619 338.682 270.711 338.738C270.804 338.794 270.91 338.82 271.016 338.814Z" fill="#263238"/>
<path d="M251.419 337.2C251.515 337.192 251.608 337.16 251.69 337.105C251.771 337.049 251.84 336.973 251.889 336.883C252.241 336.182 252.741 335.582 253.346 335.131C253.951 334.68 254.645 334.391 255.371 334.288C255.525 334.273 255.668 334.194 255.771 334.068C255.874 333.942 255.928 333.778 255.924 333.61C255.914 333.44 255.843 333.282 255.726 333.169C255.61 333.056 255.458 332.998 255.302 333.006C254.375 333.129 253.487 333.492 252.715 334.067C251.943 334.642 251.309 335.411 250.866 336.31C250.792 336.456 250.773 336.628 250.814 336.789C250.856 336.95 250.954 337.087 251.087 337.17C251.191 337.221 251.308 337.232 251.419 337.2Z" fill="#263238"/>
<path d="M276.309 812.13C277.409 812.101 278.503 811.939 279.57 811.647C279.626 811.633 279.677 811.601 279.716 811.556C279.756 811.51 279.782 811.453 279.791 811.391C279.806 811.332 279.803 811.27 279.784 811.213C279.764 811.156 279.728 811.107 279.681 811.074C279.239 810.757 275.341 808.057 273.932 808.841C273.779 808.929 273.65 809.058 273.558 809.217C273.466 809.376 273.414 809.559 273.406 809.747C273.357 810.057 273.381 810.376 273.475 810.674C273.57 810.972 273.731 811.24 273.945 811.451C274.638 811.968 275.473 812.208 276.309 812.13ZM278.727 811.195C276.613 811.662 274.996 811.572 274.346 810.953C274.199 810.811 274.088 810.628 274.025 810.425C273.962 810.221 273.949 810.003 273.987 809.792C273.987 809.55 274.097 809.46 274.18 809.415C274.913 809.023 277.152 810.169 278.727 811.195Z" fill="#407BFF"/>
<path d="M279.501 811.662C279.55 811.683 279.604 811.683 279.653 811.662C279.7 811.635 279.739 811.593 279.766 811.543C279.793 811.492 279.806 811.434 279.805 811.376C279.805 811.21 279.653 807.303 278.257 806.021C278.089 805.859 277.891 805.74 277.676 805.669C277.461 805.599 277.235 805.58 277.013 805.613C276.792 805.614 276.577 805.696 276.404 805.847C276.231 805.998 276.11 806.208 276.06 806.443C275.742 807.952 278.105 810.969 279.363 811.678C279.409 811.688 279.457 811.683 279.501 811.662ZM277.207 806.172C277.453 806.174 277.689 806.276 277.87 806.458C278.755 807.273 279.073 809.551 279.169 810.697C277.939 809.641 276.405 807.393 276.626 806.503C276.626 806.428 276.627 806.232 277.069 806.187H277.207V806.172Z" fill="#407BFF"/>
<path d="M190.887 805.538L205.426 810.064C205.658 810.136 205.86 810.295 205.996 810.513C206.132 810.73 206.194 810.993 206.172 811.255L205.094 823.429C205.059 823.728 204.965 824.016 204.819 824.272C204.672 824.528 204.477 824.747 204.246 824.913C204.015 825.079 203.754 825.189 203.481 825.235C203.207 825.281 202.928 825.261 202.662 825.179C198.005 823.67 194.688 822.297 188.842 820.472C185.221 819.356 173.433 814.74 169.135 811.542C164.837 808.344 167.366 803.411 169.397 804.316C178.532 808.359 184.958 807.71 188.745 805.825C189.406 805.456 190.165 805.354 190.887 805.538Z" fill="#263238"/>
<path d="M186.257 806.564C187.326 806.854 188.419 807.021 189.519 807.062C189.578 807.066 189.637 807.051 189.689 807.018C189.74 806.986 189.782 806.938 189.809 806.881C189.842 806.83 189.859 806.769 189.859 806.707C189.859 806.645 189.842 806.584 189.809 806.534C189.464 806.111 186.382 802.37 184.848 802.687C184.677 802.728 184.519 802.816 184.388 802.943C184.258 803.07 184.159 803.231 184.102 803.411C183.982 803.693 183.928 804.004 183.945 804.314C183.962 804.625 184.049 804.926 184.198 805.191C184.725 805.887 185.45 806.37 186.257 806.564ZM188.828 806.383C186.672 806.202 185.138 805.628 184.682 804.874C184.589 804.687 184.54 804.477 184.54 804.263C184.54 804.05 184.589 803.84 184.682 803.652C184.765 803.411 184.875 803.366 184.972 803.351C185.76 803.155 187.556 804.935 188.828 806.443V806.383Z" fill="#407BFF"/>
<path d="M189.45 807.047C189.504 807.062 189.561 807.062 189.616 807.047C189.669 807.032 189.718 807.002 189.757 806.959C189.796 806.917 189.824 806.863 189.837 806.805C189.837 806.654 190.694 802.853 189.685 801.194C189.561 800.991 189.4 800.82 189.212 800.69C189.024 800.56 188.813 800.475 188.593 800.439C188.379 800.374 188.151 800.39 187.945 800.482C187.74 800.575 187.569 800.741 187.46 800.952C186.769 802.31 188.317 805.87 189.326 806.986C189.362 807.017 189.404 807.038 189.45 807.047ZM188.607 801.088C188.843 801.16 189.046 801.327 189.174 801.556C189.837 802.612 189.56 804.904 189.381 806.081C188.455 804.708 187.57 802.099 187.999 801.299C187.999 801.224 188.123 801.058 188.51 801.118L188.607 801.088Z" fill="#407BFF"/>
<path d="M284.338 386.602C284.191 386.577 284.041 386.588 283.898 386.635C283.756 386.682 283.625 386.764 283.516 386.874C283.407 386.985 283.322 387.121 283.268 387.272C283.214 387.424 283.193 387.587 283.205 387.749C283.689 395.834 272.149 410.376 269.385 453.926C267.74 480.415 266.234 563.004 267.34 605.966C267.356 606.53 267.489 607.082 267.73 607.581C267.971 608.08 268.313 608.512 268.73 608.845C269.147 609.178 269.628 609.403 270.137 609.503C270.645 609.602 271.168 609.574 271.665 609.42C292.064 603.205 301.696 618.275 305.621 600.505C305.414 579.22 299.513 502.801 301.033 484.684C302.553 466.567 308.869 417.345 310.444 404.221C311.84 392.817 290.046 387.734 284.338 386.602Z" fill="#407BFF"/>
<path opacity="0.7" d="M284.338 386.602C284.191 386.577 284.041 386.588 283.898 386.635C283.756 386.682 283.625 386.764 283.516 386.874C283.407 386.985 283.322 387.121 283.268 387.272C283.214 387.424 283.193 387.587 283.205 387.749C283.689 395.834 272.149 410.376 269.385 453.926C267.74 480.415 266.234 563.004 267.34 605.966C267.356 606.53 267.489 607.082 267.73 607.581C267.971 608.08 268.313 608.512 268.73 608.845C269.147 609.178 269.628 609.403 270.137 609.503C270.645 609.602 271.168 609.574 271.665 609.42C292.064 603.205 301.696 618.275 305.621 600.505C305.414 579.22 299.513 502.801 301.033 484.684C302.553 466.567 308.869 417.345 310.444 404.221C311.84 392.817 290.046 387.734 284.338 386.602Z" fill="white"/>
<path opacity="0.2" d="M297.785 423.515C296.887 430.243 296.541 457.426 302.47 470.504C303.465 461.453 304.764 450.698 306.022 440.335L297.785 423.515Z" fill="#407BFF"/>
<path d="M306.257 541.071L300.369 541.825L295.159 551.977C294.873 552.527 294.696 553.136 294.639 553.764C294.582 554.393 294.646 555.028 294.827 555.628L296.707 561.873C297.026 562.942 297.698 563.843 298.592 564.4C299.486 564.958 300.538 565.133 301.544 564.89L304.17 564.287C305.135 564.072 305.998 563.49 306.606 562.645C307.214 561.799 307.526 560.745 307.486 559.671L307.321 554.119C307.321 554.119 311.992 542.338 306.257 541.071Z" fill="#FFB573"/>
<path d="M309.49 399.153C311.37 405.187 313.111 411.146 314.839 417.179C316.566 423.213 318.294 429.247 319.925 435.281C321.555 441.315 323.131 447.485 324.582 453.775C325.301 456.928 325.964 460.111 326.6 463.445C326.89 465.119 327.18 466.824 327.415 468.634C327.526 469.569 327.65 470.429 327.719 471.47L327.843 472.978L327.913 474.683C327.94 475.256 327.94 475.83 327.913 476.402C327.913 477.006 327.913 477.579 327.843 478.047L327.719 479.555L327.567 480.913C327.374 482.738 327.125 484.397 326.876 486.057C326.379 489.345 325.798 492.513 325.204 495.651C324.015 501.926 322.689 508.065 321.348 514.175C320.007 520.284 318.584 526.378 317.202 532.458L313.056 550.695L293.045 544.767C296.14 532.986 298.96 520.993 301.572 509.076C302.843 503.042 304.032 497.129 305.096 491.231C305.621 488.214 306.118 485.348 306.478 482.512C306.685 481.094 306.851 479.691 306.961 478.424C307.069 477.423 307.106 476.414 307.072 475.407V474.773L306.975 473.959C306.975 473.446 306.809 472.767 306.726 472.179C306.533 470.912 306.284 469.569 306.008 468.196C305.441 465.451 304.764 462.615 304.032 459.764C302.65 454.047 300.894 448.254 299.112 442.492C295.588 430.967 291.621 419.367 287.531 408.083L309.49 399.153Z" fill="#407BFF"/>
<path opacity="0.7" d="M309.49 399.153C311.37 405.187 313.111 411.146 314.839 417.179C316.566 423.213 318.294 429.247 319.925 435.281C321.555 441.315 323.131 447.485 324.582 453.775C325.301 456.928 325.964 460.111 326.6 463.445C326.89 465.119 327.18 466.824 327.415 468.634C327.526 469.569 327.65 470.429 327.719 471.47L327.843 472.978L327.913 474.683C327.94 475.256 327.94 475.83 327.913 476.402C327.913 477.006 327.913 477.579 327.843 478.047L327.719 479.555L327.567 480.913C327.374 482.738 327.125 484.397 326.876 486.057C326.379 489.345 325.798 492.513 325.204 495.651C324.015 501.926 322.689 508.065 321.348 514.175C320.007 520.284 318.584 526.378 317.202 532.458L313.056 550.695L293.045 544.767C296.14 532.986 298.96 520.993 301.572 509.076C302.843 503.042 304.032 497.129 305.096 491.231C305.621 488.214 306.118 485.348 306.478 482.512C306.685 481.094 306.851 479.691 306.961 478.424C307.069 477.423 307.106 476.414 307.072 475.407V474.773L306.975 473.959C306.975 473.446 306.809 472.767 306.726 472.179C306.533 470.912 306.284 469.569 306.008 468.196C305.441 465.451 304.764 462.615 304.032 459.764C302.65 454.047 300.894 448.254 299.112 442.492C295.588 430.967 291.621 419.367 287.531 408.083L309.49 399.153Z" fill="white"/>
<path d="M257.458 385.471C257.762 385.469 258.06 385.561 258.318 385.736C258.576 385.911 258.783 386.163 258.914 386.462C259.046 386.761 259.097 387.094 259.062 387.424C259.027 387.753 258.907 388.065 258.716 388.322C255.427 392.486 253.354 398.203 249.456 416.546C244.758 438.675 234.752 550.016 232.872 604.578C232.863 605.032 232.764 605.477 232.581 605.885C232.399 606.292 232.138 606.652 231.816 606.938C231.494 607.225 231.12 607.432 230.717 607.546C230.315 607.659 229.895 607.676 229.486 607.595C219.73 605.634 213.041 610.793 211.976 603.96C210.802 596.417 215.183 524.372 223.378 490.492C222.093 460.443 226.736 400.164 236.009 392.154C241.04 387.704 251.737 385.577 257.458 385.471Z" fill="#407BFF"/>
<path opacity="0.7" d="M257.458 385.471C257.762 385.469 258.06 385.561 258.318 385.736C258.576 385.911 258.783 386.163 258.914 386.462C259.046 386.761 259.097 387.094 259.062 387.424C259.027 387.753 258.907 388.065 258.716 388.322C255.427 392.486 253.354 398.203 249.456 416.546C244.758 438.675 234.752 550.016 232.872 604.578C232.863 605.032 232.764 605.477 232.581 605.885C232.399 606.292 232.138 606.652 231.816 606.938C231.494 607.225 231.12 607.432 230.717 607.546C230.315 607.659 229.895 607.676 229.486 607.595C219.73 605.634 213.041 610.793 211.976 603.96C210.802 596.417 215.183 524.372 223.378 490.492C222.093 460.443 226.736 400.164 236.009 392.154C241.04 387.704 251.737 385.577 257.458 385.471Z" fill="white"/>
<path d="M262.834 400.42C262.834 400.42 250.894 437.031 246.692 467.714C246.361 476.055 249.995 492.211 252.939 499.256C259.089 484.639 262.931 476.025 263.539 467.714C264.52 455.208 266.137 400.662 266.137 400.662L262.834 400.42Z" fill="#263238"/>
<path d="M287.821 443.97C287.7 443.966 287.583 443.918 287.49 443.835C287.396 443.751 287.33 443.636 287.302 443.508C287.273 443.379 287.284 443.244 287.333 443.123C287.382 443.003 287.466 442.903 287.572 442.839L289.838 441.541C291.954 440.353 293.688 438.49 294.809 436.199C295.93 433.909 296.385 431.299 296.113 428.719L293.653 404.403C293.471 402.59 292.736 400.897 291.565 399.596C290.395 398.295 288.857 397.463 287.2 397.233C285.542 397.003 283.862 397.389 282.431 398.328C280.999 399.268 279.899 400.706 279.308 402.411L271.347 425.265C270.49 427.687 270.329 430.336 270.884 432.861C271.439 435.386 272.686 437.666 274.457 439.399L276.364 441.285C276.465 441.398 276.522 441.549 276.522 441.707C276.522 441.865 276.465 442.017 276.364 442.13C276.261 442.24 276.122 442.302 275.977 442.302C275.832 442.302 275.693 442.24 275.59 442.13L273.683 440.259C271.753 438.357 270.399 435.86 269.799 433.099C269.199 430.337 269.383 427.442 270.325 424.797L278.354 401.989C279.04 400.04 280.305 398.399 281.946 397.328C283.588 396.258 285.511 395.819 287.408 396.084C289.305 396.348 291.066 397.299 292.409 398.786C293.752 400.272 294.598 402.208 294.814 404.282L297.274 428.584C297.565 431.411 297.059 434.269 295.825 436.775C294.59 439.282 292.685 441.318 290.364 442.612L288.097 443.895C288.015 443.952 287.918 443.979 287.821 443.97Z" fill="#263238"/>
<path d="M294.676 409.713C294.544 409.714 294.416 409.662 294.317 409.568C294.218 409.473 294.153 409.342 294.137 409.2C293.815 407.244 292.905 405.461 291.551 404.133C290.197 402.805 288.476 402.008 286.66 401.868C283.592 401.446 279.418 402.502 277.746 406.907C277.722 406.985 277.684 407.057 277.633 407.118C277.583 407.179 277.521 407.229 277.453 407.263C277.384 407.297 277.31 407.316 277.235 407.318C277.159 407.32 277.084 407.305 277.014 407.274C276.944 407.243 276.881 407.197 276.828 407.138C276.775 407.079 276.734 407.009 276.707 406.933C276.679 406.856 276.667 406.774 276.67 406.692C276.672 406.609 276.691 406.528 276.723 406.454C277.658 404.482 279.125 402.87 280.927 401.838C282.729 400.806 284.777 400.404 286.795 400.686C288.814 400.967 290.704 401.919 292.21 403.412C293.716 404.905 294.765 406.868 295.215 409.034C295.234 409.188 295.197 409.344 295.112 409.468C295.026 409.593 294.899 409.675 294.758 409.697L294.676 409.713Z" fill="#263238"/>
<path d="M287.24 397.237C287.168 397.233 287.098 397.214 287.033 397.18C286.968 397.146 286.91 397.098 286.862 397.038C286.814 396.979 286.778 396.91 286.755 396.836C286.732 396.761 286.723 396.682 286.729 396.604C286.895 393.662 286.508 388.307 283.965 386.919C283.835 386.845 283.737 386.718 283.693 386.565C283.649 386.412 283.662 386.247 283.73 386.105C283.798 385.963 283.915 385.856 284.055 385.808C284.195 385.76 284.346 385.774 284.476 385.848C288.152 387.915 287.821 395.789 287.766 396.679C287.759 396.827 287.701 396.967 287.603 397.071C287.506 397.174 287.376 397.234 287.24 397.237Z" fill="#263238"/>
<path d="M277.221 441.888C277.082 443.02 276.433 443.849 275.756 443.744C275.079 443.638 274.636 442.673 274.775 441.556C274.913 440.44 275.548 439.595 276.226 439.701C276.903 439.807 277.345 440.772 277.221 441.888Z" fill="#263238"/>
<path d="M245.089 417.436C244.219 419.834 242.325 421.282 240.943 420.664C239.561 420.046 239.022 417.647 239.893 415.188C240.764 412.729 242.657 411.342 244.039 411.96C245.421 412.579 245.946 415.037 245.089 417.436Z" fill="#263238"/>
<path d="M240.542 415.882H240.432C240.289 415.849 240.164 415.757 240.084 415.624C240.004 415.491 239.975 415.329 240.003 415.173C241.828 405.262 249.373 389.529 256.021 385.004C256.081 384.947 256.152 384.905 256.229 384.881C256.305 384.857 256.386 384.851 256.464 384.864C256.543 384.877 256.618 384.908 256.685 384.956C256.752 385.003 256.808 385.066 256.85 385.14C256.893 385.214 256.92 385.296 256.93 385.383C256.94 385.469 256.934 385.556 256.91 385.64C256.886 385.723 256.846 385.799 256.793 385.864C256.74 385.928 256.674 385.98 256.601 386.014C250.175 390.434 242.864 405.624 241.081 415.384C241.059 415.523 240.993 415.649 240.894 415.739C240.796 415.83 240.671 415.881 240.542 415.882Z" fill="#263238"/>
<path d="M246.665 417.934C246.029 420 244.398 421.282 243.016 420.785C241.634 420.287 241.012 418.19 241.634 416.108C242.256 414.027 243.901 412.76 245.283 413.257C246.665 413.755 247.3 415.852 246.665 417.934Z" fill="white"/>
<path d="M246.762 418.145C245.919 420.694 244.357 422.429 243.293 422.007C242.229 421.584 242.049 419.171 242.906 416.606C243.763 414.042 245.31 412.322 246.375 412.744C247.439 413.167 247.618 415.58 246.762 418.145Z" fill="#263238"/>
<path d="M289.051 443.548C288.926 444.664 288.263 445.494 287.586 445.403C286.909 445.313 286.466 444.317 286.605 443.201C286.743 442.085 287.392 441.255 288.07 441.345C288.747 441.436 289.189 442.416 289.051 443.548Z" fill="#263238"/>
<path d="M367.41 378.185C372.026 391.958 359.754 398.882 351.711 419.171C343.667 439.46 363.071 463.656 392.853 464.184C422.635 464.712 423.575 433.577 418.959 411.236C414.343 388.895 423.989 385.26 421.944 368.199C419.318 345.783 389.729 328.798 377.982 349.373C367.534 348.302 363.375 366.148 367.41 378.185Z" fill="#263238"/>
<path d="M455.623 563.578V561.828C455.596 560.988 455.402 560.165 455.056 559.414L450.054 548.644L444.194 547.437C440.048 552.309 444.194 562.024 444.194 562.024V563.578C444.195 564.851 444.576 566.089 445.279 567.104C445.982 568.119 446.969 568.857 448.091 569.204L448.879 569.461C449.69 569.695 450.54 569.718 451.361 569.528C452.182 569.339 452.951 568.943 453.607 568.371C454.262 567.799 454.786 567.068 455.136 566.236C455.486 565.403 455.653 564.493 455.623 563.578Z" fill="#FFC3BD"/>
<path d="M430.788 425.024L432.944 441.526L435.211 457.984C435.957 463.49 436.745 468.966 437.546 474.457L439.937 490.809L440.228 492.423C440.324 492.951 440.49 493.629 440.615 494.218L441.029 496.073L441.513 497.989C442.135 500.523 442.895 503.148 443.558 505.743C444.94 510.947 446.529 516.211 448.091 521.446C451.27 531.9 454.587 542.399 458.124 552.717L438.583 560.259L428.798 528.37C427.181 523.045 425.537 517.72 423.975 512.289C423.201 509.559 422.427 506.859 421.695 504.038L421.128 501.941L420.589 499.754C420.41 499 420.216 498.336 420.05 497.506L419.539 495.032L416.651 478.439C415.729 472.968 414.767 467.498 413.762 462.027L410.805 445.614L407.723 429.323L430.788 425.024Z" fill="#407BFF"/>
<path opacity="0.6" d="M430.788 425.024L432.944 441.526L435.211 457.984C435.957 463.49 436.745 468.966 437.546 474.457L439.937 490.809L440.228 492.423C440.324 492.951 440.49 493.629 440.615 494.218L441.029 496.073L441.513 497.989C442.135 500.523 442.895 503.148 443.558 505.743C444.94 510.947 446.529 516.211 448.091 521.446C451.27 531.9 454.587 542.399 458.124 552.717L438.583 560.259L428.798 528.37C427.181 523.045 425.537 517.72 423.975 512.289C423.201 509.559 422.427 506.859 421.695 504.038L421.128 501.941L420.589 499.754C420.41 499 420.216 498.336 420.05 497.506L419.539 495.032L416.651 478.439C415.729 472.968 414.767 467.498 413.762 462.027L410.805 445.614L407.723 429.323L430.788 425.024Z" fill="white"/>
<path d="M427.679 423.757C428.329 431.797 427.748 451.799 420.354 501.383H369.22C370.036 479.842 370.091 466.115 361.619 425.009C361.427 424.084 361.41 423.127 361.57 422.195C361.73 421.263 362.063 420.377 362.548 419.591C363.034 418.805 363.662 418.136 364.393 417.625C365.125 417.115 365.945 416.773 366.802 416.621C371.794 415.726 376.828 415.127 381.88 414.826C389.618 414.222 397.386 414.222 405.125 414.826C411.482 415.46 418.378 416.712 422.552 417.542C423.911 417.823 425.149 418.584 426.075 419.706C427.001 420.829 427.564 422.251 427.679 423.757Z" fill="#263238"/>
<path d="M384.132 386.256C385.597 394.417 387.062 409.381 381.824 414.826C381.824 414.826 388.375 423.515 398.408 423.515C408.442 423.515 405.083 414.826 405.083 414.826C396.791 412.654 396.957 405.896 398.408 399.56L384.132 386.256Z" fill="#FFC3BD"/>
<path opacity="0.2" d="M389.951 391.686L398.395 399.545C398.036 401.029 397.796 402.543 397.676 404.071C394.483 403.573 389.481 400.601 388.79 396.815C388.472 395.02 389.674 392.531 389.951 391.686Z" fill="black"/>
<path d="M375.329 370.236C377.278 383.721 377.844 389.469 384.727 395.774C395.092 405.263 409.838 399.696 411.62 385.848C413.223 373.388 409.755 353.416 397.123 349.298C394.34 348.374 391.387 348.242 388.545 348.914C385.702 349.586 383.063 351.039 380.88 353.137C378.697 355.235 377.041 357.906 376.069 360.899C375.098 363.892 374.843 367.105 375.329 370.236Z" fill="#FFC3BD"/>
<path d="M377.388 379.95C384.464 372.302 386.896 361.667 386.233 357.323C393.046 359.39 398.049 356.463 397.745 355.196C402.554 360.325 411.275 364.383 410.293 358.862C409.312 353.341 402.858 343.158 389.398 346.794C375.937 350.429 370.754 365.514 370.948 371.639C371.141 377.763 377.388 379.95 377.388 379.95Z" fill="#263238"/>
<path d="M393.06 371.759C393.157 372.875 393.765 373.705 394.442 373.645C395.119 373.584 395.561 372.619 395.465 371.518C395.368 370.417 394.746 369.572 394.083 369.632C393.419 369.693 393.06 370.658 393.06 371.759Z" fill="#263238"/>
<path d="M404.544 370.568C404.641 371.669 405.263 372.513 405.926 372.438C406.59 372.363 407.046 371.427 406.949 370.326C406.852 369.225 406.23 368.38 405.567 368.441C404.904 368.501 404.448 369.466 404.544 370.568Z" fill="#263238"/>
<path d="M405.291 368.531L407.654 367.52C407.654 367.52 406.576 369.723 405.291 368.531Z" fill="#263238"/>
<path d="M401.2 372.921C402.317 375.349 403.736 377.597 405.415 379.603C404.934 380.058 404.369 380.393 403.758 380.585C403.148 380.778 402.506 380.824 401.877 380.72L401.2 372.921Z" fill="#ED847E"/>
<path d="M396.736 385.577C397.238 385.614 397.741 385.614 398.242 385.577C398.321 385.565 398.392 385.521 398.441 385.454C398.49 385.386 398.513 385.301 398.505 385.215C398.503 385.172 398.494 385.131 398.476 385.093C398.459 385.055 398.435 385.021 398.405 384.994C398.375 384.967 398.34 384.947 398.302 384.936C398.265 384.924 398.226 384.922 398.187 384.928C396.93 385.087 395.655 384.922 394.467 384.445C393.279 383.968 392.21 383.193 391.346 382.183C391.293 382.13 391.224 382.099 391.152 382.097C391.08 382.094 391.009 382.12 390.953 382.169C390.896 382.218 390.858 382.287 390.844 382.364C390.83 382.441 390.841 382.521 390.876 382.59C391.624 383.486 392.527 384.211 393.532 384.723C394.538 385.236 395.627 385.526 396.736 385.577Z" fill="#263238"/>
<path d="M372.593 381.202C373.515 383.644 375.283 385.59 377.513 386.618C380.47 387.945 382.336 385.109 381.824 381.896C381.368 378.879 379.268 374.701 376.144 374.761C375.464 374.797 374.803 375.016 374.219 375.397C373.635 375.778 373.145 376.311 372.794 376.947C372.443 377.584 372.241 378.305 372.206 379.047C372.171 379.789 372.304 380.529 372.593 381.202Z" fill="#FFC3BD"/>
<path d="M389.121 365.967C389.24 366.012 389.369 366.017 389.491 365.979C389.612 365.941 389.72 365.863 389.798 365.755C391.54 363.417 395.091 363.644 395.119 363.644C395.276 363.652 395.43 363.594 395.548 363.481C395.667 363.369 395.741 363.211 395.755 363.04C395.762 362.955 395.754 362.868 395.73 362.786C395.706 362.704 395.667 362.628 395.615 362.563C395.563 362.499 395.5 362.446 395.429 362.408C395.358 362.371 395.281 362.35 395.202 362.346C395.036 362.346 390.987 362.075 388.872 364.941C388.774 365.076 388.727 365.247 388.743 365.419C388.758 365.591 388.835 365.75 388.955 365.861L389.121 365.967Z" fill="#263238"/>
<path d="M408.704 364.594C408.835 364.603 408.965 364.564 409.074 364.483C409.182 364.403 409.264 364.285 409.305 364.149C409.346 364.013 409.344 363.866 409.301 363.731C409.257 363.596 409.174 363.48 409.064 363.402C408.29 362.806 407.398 362.42 406.461 362.276C405.523 362.132 404.568 362.233 403.674 362.573C403.528 362.642 403.414 362.771 403.354 362.932C403.295 363.093 403.296 363.272 403.356 363.432C403.386 363.512 403.43 363.585 403.487 363.646C403.543 363.706 403.61 363.754 403.683 363.787C403.756 363.819 403.835 363.835 403.914 363.834C403.993 363.832 404.071 363.814 404.144 363.779C404.854 363.521 405.61 363.451 406.35 363.574C407.09 363.697 407.793 364.011 408.4 364.488C408.491 364.552 408.596 364.589 408.704 364.594Z" fill="#263238"/>
<path d="M452.126 813.669L464.855 813.005L461.082 781.629L448.367 782.307L452.126 813.669Z" fill="#FFC3BD"/>
<g opacity="0.2">
<path d="M461.082 781.644L463.031 797.815L450.302 798.478L448.354 782.308L461.082 781.644Z" fill="black"/>
</g>
<path d="M420.354 501.383C420.354 501.383 436.372 607.354 442.895 648.671C449.694 691.633 465.007 792.746 465.007 792.746L448.174 795.763C448.174 795.763 425.482 694.544 416.388 652.458C406.521 606.524 382.612 544.933 382.861 501.504L420.354 501.383Z" fill="#407BFF"/>
<path opacity="0.2" d="M394.635 533.906C392.231 530.089 387.601 524.734 384.049 520.33C387.269 547.331 396.487 578.663 404.904 608.168C407.143 585.692 405.871 551.6 394.635 533.906Z" fill="black"/>
<path d="M373.601 811.542H386.205L387.048 779.683H374.43L373.601 811.542Z" fill="#FFC3BD"/>
<path d="M386.799 809.46H372.634C372.389 809.458 372.151 809.553 371.965 809.728C371.78 809.903 371.659 810.145 371.625 810.411L370.008 822.629C369.979 822.94 370.01 823.253 370.099 823.55C370.188 823.846 370.333 824.119 370.524 824.351C370.715 824.582 370.949 824.768 371.21 824.895C371.471 825.022 371.754 825.088 372.04 825.088C376.973 824.983 379.35 824.666 385.583 824.666C389.411 824.666 397.33 825.103 402.623 825.103C407.916 825.103 408.151 819.401 405.995 818.873C396.114 816.565 392.175 813.367 388.9 810.305C388.311 809.766 387.568 809.468 386.799 809.46Z" fill="#263238"/>
<g opacity="0.2">
<path d="M387.034 779.698L386.606 796.125H374.002L374.431 779.698H387.034Z" fill="black"/>
</g>
<path d="M405.968 501.383C405.968 501.383 400.855 608.712 397.4 650.496C393.793 693.971 389.453 792.49 389.453 792.49H372.399C372.399 792.49 369.359 694.348 370.547 651.477C371.832 604.714 361.537 544.812 368.488 501.383H405.968Z" fill="#407BFF"/>
<path d="M370.92 793.154L390.918 793.561L391.222 780.256L370.837 781.644L370.92 793.154Z" fill="#263238"/>
<path d="M391.526 811.919C392.602 812.027 393.68 811.729 394.58 811.074C394.783 810.877 394.939 810.627 395.033 810.348C395.127 810.069 395.156 809.77 395.119 809.475C395.109 809.298 395.058 809.126 394.971 808.976C394.884 808.825 394.764 808.701 394.622 808.615C393.074 807.68 388.043 810.486 387.477 810.818C387.424 810.85 387.381 810.899 387.354 810.958C387.327 811.018 387.317 811.084 387.325 811.15C387.332 811.216 387.359 811.278 387.401 811.327C387.444 811.376 387.499 811.409 387.559 811.421C388.864 811.725 390.192 811.892 391.526 811.919ZM393.778 809.068C393.969 809.063 394.158 809.104 394.331 809.189C394.39 809.222 394.438 809.272 394.472 809.333C394.507 809.394 394.525 809.464 394.525 809.536C394.555 809.727 394.539 809.924 394.479 810.106C394.418 810.289 394.315 810.451 394.179 810.576C393.419 811.331 391.346 811.466 388.555 810.954C390.184 810.004 391.951 809.366 393.778 809.068Z" fill="#407BFF"/>
<path d="M387.615 811.436H387.739C389.246 810.697 392.217 807.725 391.982 806.172C391.982 805.794 391.692 805.342 390.863 805.251C390.566 805.214 390.265 805.244 389.98 805.34C389.694 805.436 389.43 805.596 389.204 805.81C387.629 807.243 387.339 810.953 387.325 811.104C387.319 811.162 387.328 811.22 387.35 811.273C387.372 811.326 387.406 811.372 387.449 811.406C387.501 811.431 387.558 811.441 387.615 811.436ZM390.628 805.855H390.807C391.346 805.855 391.388 806.141 391.388 806.232C391.54 807.167 389.522 809.49 387.988 810.501C388.106 808.941 388.667 807.459 389.591 806.262C389.88 805.993 390.248 805.849 390.628 805.855Z" fill="#407BFF"/>
<path d="M464.703 809.46H450.537C450.423 809.452 450.31 809.472 450.204 809.518C450.098 809.564 450.003 809.635 449.925 809.726C449.847 809.817 449.788 809.925 449.753 810.043C449.718 810.162 449.707 810.287 449.722 810.41L450.44 822.629C450.524 823.293 450.82 823.903 451.275 824.352C451.73 824.802 452.315 825.062 452.928 825.088C457.848 824.982 460.17 824.666 466.389 824.666C470.231 824.666 478.232 825.103 483.526 825.103C488.819 825.103 488.003 819.401 485.709 818.873C475.386 816.565 470.88 813.367 466.969 810.305C466.311 809.777 465.52 809.482 464.703 809.46Z" fill="#263238"/>
<path d="M469.429 811.919C470.51 812.027 471.593 811.729 472.497 811.074C472.699 810.875 472.853 810.625 472.947 810.347C473.04 810.069 473.071 809.77 473.036 809.475C473.024 809.297 472.97 809.124 472.881 808.974C472.792 808.824 472.669 808.701 472.525 808.615C470.977 807.68 465.96 810.486 465.394 810.818C465.339 810.848 465.293 810.896 465.263 810.955C465.234 811.015 465.221 811.083 465.228 811.15C465.239 811.215 465.268 811.275 465.309 811.323C465.351 811.371 465.404 811.405 465.463 811.421C466.768 811.725 468.096 811.892 469.429 811.919ZM471.682 809.068C471.872 809.059 472.062 809.101 472.235 809.189C472.295 809.221 472.345 809.27 472.382 809.331C472.418 809.392 472.439 809.463 472.442 809.536C472.466 809.727 472.447 809.921 472.387 810.102C472.327 810.284 472.227 810.446 472.097 810.576C471.323 811.331 469.25 811.466 466.458 810.954C468.089 810.006 469.855 809.368 471.682 809.068Z" fill="#407BFF"/>
<path d="M465.532 811.436H465.656C467.149 810.697 470.12 807.726 469.885 806.172C469.885 805.795 469.595 805.342 468.766 805.252C468.471 805.215 468.173 805.245 467.89 805.341C467.606 805.437 467.345 805.597 467.121 805.81C465.532 807.243 465.242 810.954 465.228 811.105C465.226 811.162 465.237 811.219 465.258 811.271C465.28 811.323 465.312 811.37 465.352 811.406C465.409 811.432 465.471 811.442 465.532 811.436ZM468.531 805.855H468.711C469.25 805.855 469.291 806.142 469.305 806.232C469.443 807.167 467.425 809.491 465.891 810.501C466.015 808.942 466.575 807.463 467.494 806.262C467.784 805.996 468.152 805.852 468.531 805.855Z" fill="#407BFF"/>
<path d="M446.764 796.623L466.513 793.153L464.288 781.629L444.719 786.667L446.764 796.623Z" fill="#263238"/>
<path d="M393.848 369.723L396.211 368.712C396.211 368.712 395.147 370.914 393.848 369.723Z" fill="#263238"/>
<path d="M368.391 498.109L367.092 503.118C366.912 503.495 367.327 503.902 367.921 503.902H420.603C421.073 503.902 421.446 503.646 421.474 503.329L421.944 498.336C421.944 497.989 421.571 497.687 421.073 497.687H369.234C369.072 497.672 368.909 497.703 368.762 497.777C368.614 497.851 368.486 497.966 368.391 498.109Z" fill="#263238"/>
<path d="M375.536 504.43H374.154C373.878 504.43 373.67 504.279 373.684 504.098L374.334 497.597C374.334 497.401 374.596 497.25 374.873 497.25H376.255C376.531 497.25 376.738 497.401 376.725 497.597L376.061 504.098C376.047 504.279 375.813 504.43 375.536 504.43Z" fill="#407BFF"/>
<path d="M416.706 504.43H415.324C415.048 504.43 414.827 504.279 414.854 504.098L415.504 497.597C415.504 497.401 415.766 497.25 416.043 497.25H417.425C417.701 497.25 417.908 497.401 417.895 497.597L417.245 504.098C417.217 504.279 416.982 504.43 416.706 504.43Z" fill="#407BFF"/>
<path d="M396.197 504.43H394.815C394.539 504.43 394.331 504.279 394.345 504.098L394.995 497.597C394.995 497.401 395.257 497.25 395.534 497.25H396.916C397.192 497.25 397.399 497.401 397.372 497.597L396.722 504.098C396.722 504.279 396.473 504.43 396.197 504.43Z" fill="#407BFF"/>
<path d="M379.613 414.374C371.584 415.173 359.311 413.514 359.685 426.954C360.058 440.395 357.667 475.995 358.303 492.664C358.938 509.333 354.958 617.264 361.398 648.55C362.531 654.056 404.13 653.347 409.16 652.819V647.857C409.16 647.857 439.385 643.422 446.861 644.84C446.212 626.044 429.476 531.1 428.826 504.43C428.177 477.76 430.927 431.932 430.761 424.662C430.595 417.391 417.355 414.193 409.243 414.374C411.04 420.936 407.073 433.26 400.73 447.002C385.127 430.409 380.525 422.173 379.613 414.374Z" fill="#407BFF"/>
<path opacity="0.7" d="M379.613 414.374C371.584 415.173 359.311 413.514 359.685 426.954C360.058 440.395 357.667 475.995 358.303 492.664C358.938 509.333 354.958 617.264 361.398 648.55C362.531 654.056 404.13 653.347 409.16 652.819V647.857C409.16 647.857 439.385 643.422 446.861 644.84C446.212 626.044 429.476 531.1 428.826 504.43C428.177 477.76 430.927 431.932 430.761 424.662C430.595 417.391 417.355 414.193 409.243 414.374C411.04 420.936 407.073 433.26 400.73 447.002C385.127 430.409 380.525 422.173 379.613 414.374Z" fill="white"/>
<path opacity="0.2" d="M364.328 446.248L359.187 450.215C358.786 461.831 358.247 474.849 358.192 484.91C362.974 473.371 365.669 456.717 364.328 446.248Z" fill="#407BFF"/>
<path d="M380.705 434.195C380.444 434.618 380.163 435.026 379.862 435.417L379.572 435.779L379.42 435.96L379.143 436.277L378.59 436.925L377.485 438.268C376.739 439.158 376.02 440.078 375.301 441.013C373.864 442.884 372.482 444.79 371.155 446.731C368.444 450.607 365.921 454.635 363.596 458.798C359.026 466.485 355.723 474.985 353.839 483.915C353.49 485.906 353.273 487.923 353.189 489.949C353.275 490.956 353.543 491.935 353.977 492.83C355.731 496.885 357.842 500.744 360.279 504.355C362.836 508.337 365.738 512.214 368.709 516.045C370.202 517.976 371.749 519.847 373.311 521.702C374.873 523.558 376.504 525.458 378.024 527.103L363.126 542.821C361.315 540.664 359.712 538.703 358.04 536.636L353.162 530.406C349.928 526.228 346.818 521.883 343.75 517.328C340.419 512.516 337.539 507.351 335.154 501.911C334.456 500.226 333.861 498.492 333.371 496.722C333.084 495.667 332.858 494.594 332.694 493.509C332.588 492.885 332.514 492.256 332.473 491.623C332.418 490.961 332.394 490.296 332.404 489.632C332.437 486.393 332.691 483.16 333.164 479.962C334.121 473.921 335.668 468.009 337.78 462.328C339.767 456.949 342.075 451.719 344.69 446.67C347.233 441.692 350.024 436.941 352.913 432.294C354.378 429.971 355.87 427.694 357.432 425.446L359.795 422.082L361.025 420.392L361.647 419.548L361.965 419.14L362.103 418.944L361.91 419.186C361.661 419.533 361.426 419.88 361.205 420.242L380.705 434.195Z" fill="#407BFF"/>
<path opacity="0.7" d="M380.705 434.195C380.444 434.618 380.163 435.026 379.862 435.417L379.572 435.779L379.42 435.96L379.143 436.277L378.59 436.925L377.485 438.268C376.739 439.158 376.02 440.078 375.301 441.013C373.864 442.884 372.482 444.79 371.155 446.731C368.444 450.607 365.921 454.635 363.596 458.798C359.026 466.485 355.723 474.985 353.839 483.915C353.49 485.906 353.273 487.923 353.189 489.949C353.275 490.956 353.543 491.935 353.977 492.83C355.731 496.885 357.842 500.744 360.279 504.355C362.836 508.337 365.738 512.214 368.709 516.045C370.202 517.976 371.749 519.847 373.311 521.702C374.873 523.558 376.504 525.458 378.024 527.103L363.126 542.821C361.315 540.664 359.712 538.703 358.04 536.636L353.162 530.406C349.928 526.228 346.818 521.883 343.75 517.328C340.419 512.516 337.539 507.351 335.154 501.911C334.456 500.226 333.861 498.492 333.371 496.722C333.084 495.667 332.858 494.594 332.694 493.509C332.588 492.885 332.514 492.256 332.473 491.623C332.418 490.961 332.394 490.296 332.404 489.632C332.437 486.393 332.691 483.16 333.164 479.962C334.121 473.921 335.668 468.009 337.78 462.328C339.767 456.949 342.075 451.719 344.69 446.67C347.233 441.692 350.024 436.941 352.913 432.294C354.378 429.971 355.87 427.694 357.432 425.446L359.795 422.082L361.025 420.392L361.647 419.548L361.965 419.14L362.103 418.944L361.91 419.186C361.661 419.533 361.426 419.88 361.205 420.242L380.705 434.195Z" fill="white"/>
<path opacity="0.3" d="M400.744 447.002C402.195 479.193 410.072 591.454 409.174 647.857L411.579 647.51C411.579 647.51 407.847 560.772 406.161 522.818C404.475 484.865 400.744 447.002 400.744 447.002Z" fill="#407BFF"/>
<path opacity="0.3" d="M376.863 527.374L362.103 544.812C362.103 550.665 358.358 562.371 368.281 566.625C378.203 570.879 378.466 540.015 376.863 527.374Z" fill="#407BFF"/>
<path opacity="0.3" d="M424.984 526.831L431.48 544.601C431.673 550.635 433.566 562.703 429.724 567.304C425.882 571.904 424.763 539.91 424.984 526.831Z" fill="#407BFF"/>
<path d="M408.856 458.21L425.067 458.09C425.229 458.097 425.39 458.067 425.539 458C425.689 457.933 425.824 457.832 425.934 457.703C426.044 457.574 426.128 457.42 426.178 457.252C426.229 457.085 426.246 456.907 426.228 456.732L425.33 448.345C425.276 447.982 425.109 447.65 424.857 447.405C424.606 447.161 424.284 447.018 423.948 447.002L407.723 447.108C407.562 447.103 407.402 447.135 407.253 447.203C407.105 447.27 406.971 447.372 406.861 447.5C406.752 447.629 406.668 447.781 406.616 447.948C406.565 448.114 406.546 448.291 406.562 448.465L407.46 456.868C407.517 457.232 407.687 457.564 407.941 457.809C408.195 458.053 408.518 458.195 408.856 458.21Z" fill="white" stroke="#407BFF" stroke-width="0.466762" stroke-miterlimit="10"/>
</g>
<defs>
<filter id="filter0_d_683_546" x="-26" y="-10" width="680" height="1034" filterUnits="userSpaceOnUse" color-interpolation-filters="sRGB">
<feFlood flood-opacity="0" result="BackgroundImageFix"/>
<feColorMatrix in="SourceAlpha" type="matrix" values="0 0 0 0 0 0 0 0 0 0 0 0 0 0 0 0 0 0 127 0" result="hardAlpha"/>
<feMorphology radius="2" operator="dilate" in="SourceAlpha" result="effect1_dropShadow_683_546"/>
<feOffset dy="16"/>
<feGaussianBlur stdDeviation="12"/>
<feComposite in2="hardAlpha" operator="out"/>
<feColorMatrix type="matrix" values="0 0 0 0 0 0 0 0 0 0 0 0 0 0 0 0 0 0 0.14 0"/>
<feBlend mode="normal" in2="BackgroundImageFix" result="effect1_dropShadow_683_546"/>
<feBlend mode="normal" in="SourceGraphic" in2="effect1_dropShadow_683_546" result="shape"/>
</filter>
<clipPath id="clip0_683_546">
<rect width="628" height="982" fill="white"/>
</clipPath>
</defs>
</svg>
