<svg width="428" height="121" viewBox="0 0 428 121" fill="none" xmlns="http://www.w3.org/2000/svg">
<g filter="url(#filter0_d_621_617)">
<rect width="428" height="90" fill="white"/>
<rect x="370.5" y="27.5" width="42.6875" height="34" rx="2.5" stroke="#F0F4F0"/>
<path d="M382 37H401.688M382 52H401.688H382ZM382 44.5H401.688H382Z" stroke="#535653" stroke-width="1.5" stroke-linecap="round" stroke-linejoin="round"/>
<rect x="57.1912" y="41.0879" width="1.4209" height="8.90154" transform="rotate(-90 57.1912 41.0879)" fill="#0051B4"/>
<rect x="30.3089" y="41.0879" width="1.4209" height="9.58065" transform="rotate(-90 30.3089 41.0879)" fill="#0051B4"/>
<rect x="43.9595" y="46.2239" width="2.32799" height="8.90112" transform="rotate(-90 43.9595 46.2239)" fill="#0051B4"/>
<path fill-rule="evenodd" clip-rule="evenodd" d="M53.6822 31.0873C53.1904 31.3381 52.7211 31.6269 52.2784 31.9497V60.0829L53.1439 59.6411L53.1159 59.5863L53.1161 59.5862L53.1438 59.6405L53.1441 59.641L53.1444 59.6409L53.1449 59.6406L53.146 59.64L53.1482 59.6389L53.1529 59.6365L53.1632 59.6312L53.1879 59.6185L53.2529 59.5849C53.303 59.5589 53.3666 59.5255 53.4427 59.4852C53.5233 59.4425 53.6031 59.3989 53.6822 59.3543V31.0873ZM56.0102 57.9954C56.1028 57.9327 56.1941 57.8687 56.284 57.8034C56.5539 57.66 56.8197 57.5035 57.0807 57.3338C57.2013 57.2555 57.3237 57.1752 57.4477 57.093V30C56.9579 30.0447 56.478 30.1233 56.0102 30.2335V57.9954ZM39.3719 30C39.8497 30.0436 40.3183 30.1195 40.7753 30.2255V57.9699C40.679 57.91 40.581 57.8485 40.4814 57.7856C40.3519 57.7038 40.2249 57.6197 40.1003 57.5333C39.9697 57.4554 39.8402 57.3743 39.7119 57.29C39.6001 57.2166 39.4867 57.1415 39.3719 57.0647V30ZM43.3068 59.4461C43.2383 59.4092 43.1705 59.3716 43.1033 59.3333V31.0699C43.6075 31.3248 44.0882 31.6194 44.5412 31.9496V60.0923L43.5996 59.6019L43.6852 59.4376L43.685 59.4376C43.5994 59.6018 43.5994 59.6017 43.5994 59.6017L43.5991 59.6016L43.5986 59.6013L43.5976 59.6008L43.5954 59.5997L43.5909 59.5973L43.5809 59.5921L43.5568 59.5795L43.4933 59.5459C43.4442 59.5199 43.3817 59.4865 43.3068 59.4461ZM66.0929 33.3444V48.9526C66.2302 48.7573 66.3618 48.556 66.4873 48.3488C66.9356 47.6087 67.3736 46.7679 67.7472 45.8311C68.0408 45.0949 68.2445 44.3452 68.3635 43.594C68.6075 42.7926 68.7581 41.9485 68.802 41.0739C68.8136 40.8418 68.8196 40.607 68.8196 40.3696C68.8196 37.6623 67.7865 35.1963 66.0929 33.3444ZM28 40.3696C28 37.707 28.9993 35.2778 30.6433 33.4367V48.7514C30.5663 48.6181 30.4926 48.4836 30.422 48.3481C30.087 47.8769 29.7869 47.3714 29.527 46.8333C29.0938 45.9368 28.6931 44.9031 28.4105 43.7456C28.3057 43.3164 28.2292 42.8869 28.1797 42.4591C28.0974 42.014 28.0431 41.5585 28.0189 41.0942C28.0065 40.8557 28 40.6141 28 40.3696Z" fill="#0051B4"/>
<path fill-rule="evenodd" clip-rule="evenodd" d="M53.6822 31.0873C53.1904 31.3381 52.7211 31.6269 52.2784 31.9497V60.0829L53.1439 59.6411L53.1159 59.5863L53.1161 59.5862L53.1438 59.6405L53.1441 59.641L53.1444 59.6409L53.1449 59.6406L53.146 59.64L53.1482 59.6389L53.1529 59.6365L53.1632 59.6312L53.1879 59.6185L53.2529 59.5849C53.303 59.5589 53.3666 59.5255 53.4427 59.4852C53.5233 59.4425 53.6031 59.3989 53.6822 59.3543V31.0873ZM56.0102 57.9954C56.1028 57.9327 56.1941 57.8687 56.284 57.8034C56.5539 57.66 56.8197 57.5035 57.0807 57.3338C57.2013 57.2555 57.3237 57.1752 57.4477 57.093V30C56.9579 30.0447 56.478 30.1233 56.0102 30.2335V57.9954ZM39.3719 30C39.8497 30.0436 40.3183 30.1195 40.7753 30.2255V57.9699C40.679 57.91 40.581 57.8485 40.4814 57.7856C40.3519 57.7038 40.2249 57.6197 40.1003 57.5333C39.9697 57.4554 39.8402 57.3743 39.7119 57.29C39.6001 57.2166 39.4867 57.1415 39.3719 57.0647V30ZM43.3068 59.4461C43.2383 59.4092 43.1705 59.3716 43.1033 59.3333V31.0699C43.6075 31.3248 44.0882 31.6194 44.5412 31.9496V60.0923L43.5996 59.6019L43.6852 59.4376L43.685 59.4376C43.5994 59.6018 43.5994 59.6017 43.5994 59.6017L43.5991 59.6016L43.5986 59.6013L43.5976 59.6008L43.5954 59.5997L43.5909 59.5973L43.5809 59.5921L43.5568 59.5795L43.4933 59.5459C43.4442 59.5199 43.3817 59.4865 43.3068 59.4461ZM66.0929 33.3444V48.9526C66.2302 48.7573 66.3618 48.556 66.4873 48.3488C66.9356 47.6087 67.3736 46.7679 67.7472 45.8311C68.0408 45.0949 68.2445 44.3452 68.3635 43.594C68.6075 42.7926 68.7581 41.9485 68.802 41.0739C68.8136 40.8418 68.8196 40.607 68.8196 40.3696C68.8196 37.6623 67.7865 35.1963 66.0929 33.3444ZM28 40.3696C28 37.707 28.9993 35.2778 30.6433 33.4367V48.7514C30.5663 48.6181 30.4926 48.4836 30.422 48.3481C30.087 47.8769 29.7869 47.3714 29.527 46.8333C29.0938 45.9368 28.6931 44.9031 28.4105 43.7456C28.3057 43.3164 28.2292 42.8869 28.1797 42.4591C28.0974 42.014 28.0431 41.5585 28.0189 41.0942C28.0065 40.8557 28 40.6141 28 40.3696Z" fill="#0051B4"/>
<path d="M84.4916 38.3009V50.3796H82.9146V44.9035H76.7626V50.3796H75.1856V38.3009H76.7626V43.6038H82.9146V38.3009H84.4916ZM95.8491 45.2674C95.8491 45.5678 95.8318 45.8855 95.7971 46.2205H88.2068C88.2645 47.1563 88.5822 47.89 89.1599 48.4214C89.7491 48.9413 90.4596 49.2012 91.2914 49.2012C91.9731 49.2012 92.5392 49.0453 92.9897 48.7333C93.4519 48.4098 93.7753 47.9824 93.9602 47.4509H95.6585C95.4043 48.3636 94.896 49.1088 94.1335 49.6865C93.371 50.2526 92.4236 50.5356 91.2914 50.5356C90.3903 50.5356 89.5816 50.3334 88.8653 49.9291C88.1605 49.5247 87.606 48.9528 87.2016 48.2134C86.7973 47.4625 86.5951 46.596 86.5951 45.614C86.5951 44.632 86.7915 43.7713 87.1843 43.0319C87.5771 42.2925 88.1259 41.7264 88.8306 41.3336C89.5469 40.9292 90.3672 40.727 91.2914 40.727C92.1926 40.727 92.9897 40.9234 93.6829 41.3162C94.3761 41.7091 94.9075 42.252 95.2772 42.9452C95.6585 43.6269 95.8491 44.4009 95.8491 45.2674ZM94.2201 44.9381C94.2201 44.3374 94.0873 43.8233 93.8216 43.3958C93.5558 42.9568 93.1919 42.6275 92.7298 42.408C92.2792 42.177 91.7767 42.0614 91.2221 42.0614C90.4249 42.0614 89.7433 42.3156 89.1772 42.8239C88.6227 43.3323 88.305 44.037 88.2241 44.9381H94.2201ZM97.3415 45.5967C97.3415 44.6262 97.5379 43.7771 97.9307 43.0492C98.3235 42.3098 98.8607 41.7379 99.5424 41.3336C100.236 40.9292 101.004 40.727 101.847 40.727C102.679 40.727 103.401 40.9061 104.013 41.2643C104.626 41.6224 105.082 42.073 105.382 42.616V40.883H106.977V50.3796H105.382V48.612C105.071 49.1666 104.603 49.6287 103.979 49.9984C103.366 50.3565 102.65 50.5356 101.83 50.5356C100.986 50.5356 100.224 50.3276 99.5424 49.9117C98.8607 49.4958 98.3235 48.9124 97.9307 48.1614C97.5379 47.4105 97.3415 46.5556 97.3415 45.5967ZM105.382 45.614C105.382 44.8977 105.238 44.2738 104.949 43.7424C104.66 43.211 104.268 42.8066 103.771 42.5293C103.286 42.2405 102.748 42.0961 102.159 42.0961C101.57 42.0961 101.033 42.2347 100.547 42.512C100.062 42.7893 99.6752 43.1936 99.3864 43.7251C99.0976 44.2565 98.9531 44.8804 98.9531 45.5967C98.9531 46.3245 99.0976 46.9599 99.3864 47.5029C99.6752 48.0344 100.062 48.4445 100.547 48.7333C101.033 49.0106 101.57 49.1492 102.159 49.1492C102.748 49.1492 103.286 49.0106 103.771 48.7333C104.268 48.4445 104.66 48.0344 104.949 47.5029C105.238 46.9599 105.382 46.3303 105.382 45.614ZM111.219 37.5557V50.3796H109.642V37.5557H111.219ZM115.83 42.1827V47.7802C115.83 48.2423 115.928 48.5716 116.125 48.768C116.321 48.9528 116.662 49.0453 117.147 49.0453H118.308V50.3796H116.887C116.009 50.3796 115.351 50.1775 114.912 49.7731C114.473 49.3687 114.253 48.7044 114.253 47.7802V42.1827H113.023V40.883H114.253V38.4915H115.83V40.883H118.308V42.1827H115.83ZM124.933 40.7097C125.649 40.7097 126.296 40.8657 126.873 41.1776C127.451 41.478 127.902 41.9343 128.225 42.5467C128.56 43.159 128.728 43.9041 128.728 44.7822V50.3796H127.168V45.0075C127.168 44.0601 126.931 43.338 126.458 42.8413C125.984 42.3329 125.337 42.0788 124.517 42.0788C123.685 42.0788 123.021 42.3387 122.524 42.8586C122.039 43.3785 121.796 44.1352 121.796 45.1288V50.3796H120.219V37.5557H121.796V42.2347C122.108 41.7495 122.535 41.374 123.078 41.1083C123.633 40.8426 124.251 40.7097 124.933 40.7097ZM132.118 39.3407C131.818 39.3407 131.564 39.2367 131.356 39.0287C131.148 38.8208 131.044 38.5666 131.044 38.2662C131.044 37.9659 131.148 37.7117 131.356 37.5037C131.564 37.2958 131.818 37.1918 132.118 37.1918C132.407 37.1918 132.65 37.2958 132.846 37.5037C133.054 37.7117 133.158 37.9659 133.158 38.2662C133.158 38.5666 133.054 38.8208 132.846 39.0287C132.65 39.2367 132.407 39.3407 132.118 39.3407ZM132.881 40.883V50.3796H131.304V40.883H132.881ZM134.979 45.614C134.979 44.632 135.176 43.7771 135.568 43.0492C135.961 42.3098 136.504 41.7379 137.197 41.3336C137.902 40.9292 138.705 40.727 139.606 40.727C140.773 40.727 141.732 41.0101 142.483 41.5762C143.245 42.1423 143.748 42.9279 143.991 43.933H142.292C142.131 43.3554 141.813 42.899 141.339 42.564C140.877 42.2289 140.299 42.0614 139.606 42.0614C138.705 42.0614 137.977 42.3734 137.423 42.9972C136.868 43.6095 136.591 44.4818 136.591 45.614C136.591 46.7577 136.868 47.6416 137.423 48.2654C137.977 48.8893 138.705 49.2012 139.606 49.2012C140.299 49.2012 140.877 49.0395 141.339 48.716C141.801 48.3925 142.119 47.9304 142.292 47.3296H143.991C143.736 48.3001 143.228 49.0799 142.466 49.6691C141.703 50.2468 140.75 50.5356 139.606 50.5356C138.705 50.5356 137.902 50.3334 137.197 49.9291C136.504 49.5247 135.961 48.9528 135.568 48.2134C135.176 47.474 134.979 46.6076 134.979 45.614ZM145.506 45.5967C145.506 44.6262 145.702 43.7771 146.095 43.0492C146.488 42.3098 147.025 41.7379 147.707 41.3336C148.4 40.9292 149.168 40.727 150.011 40.727C150.843 40.727 151.565 40.9061 152.178 41.2643C152.79 41.6224 153.246 42.073 153.547 42.616V40.883H155.141V50.3796H153.547V48.612C153.235 49.1666 152.767 49.6287 152.143 49.9984C151.531 50.3565 150.814 50.5356 149.994 50.5356C149.151 50.5356 148.388 50.3276 147.707 49.9117C147.025 49.4958 146.488 48.9124 146.095 48.1614C145.702 47.4105 145.506 46.5556 145.506 45.5967ZM153.547 45.614C153.547 44.8977 153.402 44.2738 153.113 43.7424C152.825 43.211 152.432 42.8066 151.935 42.5293C151.45 42.2405 150.912 42.0961 150.323 42.0961C149.734 42.0961 149.197 42.2347 148.712 42.512C148.226 42.7893 147.839 43.1936 147.551 43.7251C147.262 44.2565 147.117 44.8804 147.117 45.5967C147.117 46.3245 147.262 46.9599 147.551 47.5029C147.839 48.0344 148.226 48.4445 148.712 48.7333C149.197 49.0106 149.734 49.1492 150.323 49.1492C150.912 49.1492 151.45 49.0106 151.935 48.7333C152.432 48.4445 152.825 48.0344 153.113 47.5029C153.402 46.9599 153.547 46.3303 153.547 45.614ZM159.383 37.5557V50.3796H157.806V37.5557H159.383Z" fill="#0051B4"/>
</g>
<defs>
<filter id="filter0_d_621_617" x="-26" y="-21" width="480" height="142" filterUnits="userSpaceOnUse" color-interpolation-filters="sRGB">
<feFlood flood-opacity="0" result="BackgroundImageFix"/>
<feColorMatrix in="SourceAlpha" type="matrix" values="0 0 0 0 0 0 0 0 0 0 0 0 0 0 0 0 0 0 127 0" result="hardAlpha"/>
<feMorphology radius="4" operator="dilate" in="SourceAlpha" result="effect1_dropShadow_621_617"/>
<feOffset dy="5"/>
<feGaussianBlur stdDeviation="11"/>
<feComposite in2="hardAlpha" operator="out"/>
<feColorMatrix type="matrix" values="0 0 0 0 0 0 0 0 0 0 0 0 0 0 0 0 0 0 0.12 0"/>
<feBlend mode="normal" in2="BackgroundImageFix" result="effect1_dropShadow_621_617"/>
<feBlend mode="normal" in="SourceGraphic" in2="effect1_dropShadow_621_617" result="shape"/>
</filter>
</defs>
</svg>
