<svg width="910" height="982" viewBox="0 0 910 982" fill="none" xmlns="http://www.w3.org/2000/svg">
<g filter="url(#filter0_d_683_521)">
<rect width="884" height="982" transform="translate(26)" fill="white"/>
<rect x="67.5" y="380.5" width="801" height="49" rx="4.5" fill="white" stroke="#D2EDFF"/>
<path d="M90.688 401.032V404.76H94.752V405.96H90.688V409.8H95.232V411H89.232V399.832H95.232V401.032H90.688ZM107.979 402.072C108.662 402.072 109.27 402.216 109.803 402.504C110.336 402.781 110.758 403.203 111.067 403.768C111.376 404.333 111.531 405.021 111.531 405.832V411H110.091V406.04C110.091 405.165 109.872 404.499 109.435 404.04C109.008 403.571 108.427 403.336 107.691 403.336C106.934 403.336 106.331 403.581 105.883 404.072C105.435 404.552 105.211 405.251 105.211 406.168V411H103.771V406.04C103.771 405.165 103.552 404.499 103.115 404.04C102.688 403.571 102.107 403.336 101.371 403.336C100.614 403.336 100.011 403.581 99.5631 404.072C99.1151 404.552 98.8911 405.251 98.8911 406.168V411H97.4351V402.232H98.8911V403.496C99.1791 403.037 99.5631 402.685 100.043 402.44C100.534 402.195 101.072 402.072 101.659 402.072C102.395 402.072 103.046 402.237 103.611 402.568C104.176 402.899 104.598 403.384 104.875 404.024C105.12 403.405 105.526 402.925 106.091 402.584C106.656 402.243 107.286 402.072 107.979 402.072ZM113.376 406.584C113.376 405.688 113.557 404.904 113.92 404.232C114.282 403.549 114.778 403.021 115.408 402.648C116.048 402.275 116.757 402.088 117.536 402.088C118.304 402.088 118.97 402.253 119.536 402.584C120.101 402.915 120.522 403.331 120.8 403.832V402.232H122.272V411H120.8V409.368C120.512 409.88 120.08 410.307 119.504 410.648C118.938 410.979 118.277 411.144 117.52 411.144C116.741 411.144 116.037 410.952 115.408 410.568C114.778 410.184 114.282 409.645 113.92 408.952C113.557 408.259 113.376 407.469 113.376 406.584ZM120.8 406.6C120.8 405.939 120.666 405.363 120.4 404.872C120.133 404.381 119.77 404.008 119.312 403.752C118.864 403.485 118.368 403.352 117.824 403.352C117.28 403.352 116.784 403.48 116.336 403.736C115.888 403.992 115.53 404.365 115.264 404.856C114.997 405.347 114.864 405.923 114.864 406.584C114.864 407.256 114.997 407.843 115.264 408.344C115.53 408.835 115.888 409.213 116.336 409.48C116.784 409.736 117.28 409.864 117.824 409.864C118.368 409.864 118.864 409.736 119.312 409.48C119.77 409.213 120.133 408.835 120.4 408.344C120.666 407.843 120.8 407.261 120.8 406.6ZM125.484 400.808C125.207 400.808 124.972 400.712 124.78 400.52C124.588 400.328 124.492 400.093 124.492 399.816C124.492 399.539 124.588 399.304 124.78 399.112C124.972 398.92 125.207 398.824 125.484 398.824C125.751 398.824 125.975 398.92 126.156 399.112C126.348 399.304 126.444 399.539 126.444 399.816C126.444 400.093 126.348 400.328 126.156 400.52C125.975 400.712 125.751 400.808 125.484 400.808ZM126.188 402.232V411H124.732V402.232H126.188ZM130.126 399.16V411H128.67V399.16H130.126ZM143.465 408.52H138.601L137.705 411H136.169L140.201 399.912H141.881L145.897 411H144.361L143.465 408.52ZM143.049 407.336L141.033 401.704L139.017 407.336H143.049ZM147.11 406.584C147.11 405.688 147.291 404.904 147.654 404.232C148.017 403.549 148.513 403.021 149.142 402.648C149.782 402.275 150.497 402.088 151.286 402.088C151.969 402.088 152.603 402.248 153.19 402.568C153.777 402.877 154.225 403.288 154.534 403.8V399.16H156.006V411H154.534V409.352C154.246 409.875 153.819 410.307 153.254 410.648C152.689 410.979 152.027 411.144 151.27 411.144C150.491 411.144 149.782 410.952 149.142 410.568C148.513 410.184 148.017 409.645 147.654 408.952C147.291 408.259 147.11 407.469 147.11 406.584ZM154.534 406.6C154.534 405.939 154.401 405.363 154.134 404.872C153.867 404.381 153.505 404.008 153.046 403.752C152.598 403.485 152.102 403.352 151.558 403.352C151.014 403.352 150.518 403.48 150.07 403.736C149.622 403.992 149.265 404.365 148.998 404.856C148.731 405.347 148.598 405.923 148.598 406.584C148.598 407.256 148.731 407.843 148.998 408.344C149.265 408.835 149.622 409.213 150.07 409.48C150.518 409.736 151.014 409.864 151.558 409.864C152.102 409.864 152.598 409.736 153.046 409.48C153.505 409.213 153.867 408.835 154.134 408.344C154.401 407.843 154.534 407.261 154.534 406.6ZM157.922 406.584C157.922 405.688 158.104 404.904 158.466 404.232C158.829 403.549 159.325 403.021 159.954 402.648C160.594 402.275 161.309 402.088 162.098 402.088C162.781 402.088 163.416 402.248 164.002 402.568C164.589 402.877 165.037 403.288 165.346 403.8V399.16H166.818V411H165.346V409.352C165.058 409.875 164.632 410.307 164.066 410.648C163.501 410.979 162.84 411.144 162.082 411.144C161.304 411.144 160.594 410.952 159.954 410.568C159.325 410.184 158.829 409.645 158.466 408.952C158.104 408.259 157.922 407.469 157.922 406.584ZM165.346 406.6C165.346 405.939 165.213 405.363 164.946 404.872C164.68 404.381 164.317 404.008 163.858 403.752C163.41 403.485 162.914 403.352 162.37 403.352C161.826 403.352 161.33 403.48 160.882 403.736C160.434 403.992 160.077 404.365 159.81 404.856C159.544 405.347 159.41 405.923 159.41 406.584C159.41 407.256 159.544 407.843 159.81 408.344C160.077 408.835 160.434 409.213 160.882 409.48C161.33 409.736 161.826 409.864 162.37 409.864C162.914 409.864 163.41 409.736 163.858 409.48C164.317 409.213 164.68 408.835 164.946 408.344C165.213 407.843 165.346 407.261 165.346 406.6ZM170.735 403.656C170.991 403.155 171.354 402.765 171.823 402.488C172.303 402.211 172.884 402.072 173.567 402.072V403.576H173.183C171.551 403.576 170.735 404.461 170.735 406.232V411H169.279V402.232H170.735V403.656ZM183.248 406.28C183.248 406.557 183.232 406.851 183.2 407.16H176.192C176.245 408.024 176.538 408.701 177.072 409.192C177.616 409.672 178.272 409.912 179.04 409.912C179.669 409.912 180.192 409.768 180.608 409.48C181.034 409.181 181.333 408.787 181.504 408.296H183.072C182.837 409.139 182.368 409.827 181.664 410.36C180.96 410.883 180.085 411.144 179.04 411.144C178.208 411.144 177.461 410.957 176.8 410.584C176.149 410.211 175.637 409.683 175.264 409C174.89 408.307 174.704 407.507 174.704 406.6C174.704 405.693 174.885 404.899 175.248 404.216C175.61 403.533 176.117 403.011 176.768 402.648C177.429 402.275 178.186 402.088 179.04 402.088C179.872 402.088 180.608 402.269 181.248 402.632C181.888 402.995 182.378 403.496 182.72 404.136C183.072 404.765 183.248 405.48 183.248 406.28ZM181.744 405.976C181.744 405.421 181.621 404.947 181.376 404.552C181.13 404.147 180.794 403.843 180.368 403.64C179.952 403.427 179.488 403.32 178.976 403.32C178.24 403.32 177.61 403.555 177.088 404.024C176.576 404.493 176.282 405.144 176.208 405.976H181.744ZM188.274 411.144C187.602 411.144 186.999 411.032 186.466 410.808C185.932 410.573 185.511 410.253 185.202 409.848C184.892 409.432 184.722 408.957 184.69 408.424H186.194C186.236 408.861 186.439 409.219 186.802 409.496C187.175 409.773 187.66 409.912 188.258 409.912C188.812 409.912 189.25 409.789 189.57 409.544C189.89 409.299 190.05 408.989 190.05 408.616C190.05 408.232 189.879 407.949 189.538 407.768C189.196 407.576 188.668 407.389 187.954 407.208C187.303 407.037 186.77 406.867 186.354 406.696C185.948 406.515 185.596 406.253 185.298 405.912C185.01 405.56 184.866 405.101 184.866 404.536C184.866 404.088 184.999 403.677 185.266 403.304C185.532 402.931 185.911 402.637 186.402 402.424C186.892 402.2 187.452 402.088 188.082 402.088C189.052 402.088 189.836 402.333 190.434 402.824C191.031 403.315 191.351 403.987 191.394 404.84H189.938C189.906 404.381 189.719 404.013 189.378 403.736C189.047 403.459 188.599 403.32 188.034 403.32C187.511 403.32 187.095 403.432 186.786 403.656C186.476 403.88 186.322 404.173 186.322 404.536C186.322 404.824 186.412 405.064 186.594 405.256C186.786 405.437 187.02 405.587 187.298 405.704C187.586 405.811 187.98 405.933 188.482 406.072C189.111 406.243 189.623 406.413 190.018 406.584C190.412 406.744 190.748 406.989 191.026 407.32C191.314 407.651 191.463 408.083 191.474 408.616C191.474 409.096 191.34 409.528 191.074 409.912C190.807 410.296 190.428 410.6 189.938 410.824C189.458 411.037 188.903 411.144 188.274 411.144ZM196.633 411.144C195.961 411.144 195.358 411.032 194.825 410.808C194.292 410.573 193.87 410.253 193.561 409.848C193.252 409.432 193.081 408.957 193.049 408.424H194.553C194.596 408.861 194.798 409.219 195.161 409.496C195.534 409.773 196.02 409.912 196.617 409.912C197.172 409.912 197.609 409.789 197.929 409.544C198.249 409.299 198.409 408.989 198.409 408.616C198.409 408.232 198.238 407.949 197.897 407.768C197.556 407.576 197.028 407.389 196.313 407.208C195.662 407.037 195.129 406.867 194.713 406.696C194.308 406.515 193.956 406.253 193.657 405.912C193.369 405.56 193.225 405.101 193.225 404.536C193.225 404.088 193.358 403.677 193.625 403.304C193.892 402.931 194.27 402.637 194.761 402.424C195.252 402.2 195.812 402.088 196.441 402.088C197.412 402.088 198.196 402.333 198.793 402.824C199.39 403.315 199.71 403.987 199.753 404.84H198.297C198.265 404.381 198.078 404.013 197.737 403.736C197.406 403.459 196.958 403.32 196.393 403.32C195.87 403.32 195.454 403.432 195.145 403.656C194.836 403.88 194.681 404.173 194.681 404.536C194.681 404.824 194.772 405.064 194.953 405.256C195.145 405.437 195.38 405.587 195.657 405.704C195.945 405.811 196.34 405.933 196.841 406.072C197.47 406.243 197.982 406.413 198.377 406.584C198.772 406.744 199.108 406.989 199.385 407.32C199.673 407.651 199.822 408.083 199.833 408.616C199.833 409.096 199.7 409.528 199.433 409.912C199.166 410.296 198.788 410.6 198.297 410.824C197.817 411.037 197.262 411.144 196.633 411.144Z" fill="#B4B4B4"/>
<path d="M68 477C68 470.373 73.3726 465 80 465H256C262.627 465 268 470.373 268 477V501C268 507.627 262.627 513 256 513H80C73.3726 513 68 507.627 68 501V477Z" fill="#0051B4"/>
<path d="M143.768 495.112C143.032 495.112 142.371 494.984 141.784 494.728C141.208 494.461 140.755 494.099 140.424 493.64C140.093 493.171 139.923 492.632 139.912 492.024H141.464C141.517 492.547 141.731 492.989 142.104 493.352C142.488 493.704 143.043 493.88 143.768 493.88C144.461 493.88 145.005 493.709 145.4 493.368C145.805 493.016 146.008 492.568 146.008 492.024C146.008 491.597 145.891 491.251 145.656 490.984C145.421 490.717 145.128 490.515 144.776 490.376C144.424 490.237 143.949 490.088 143.352 489.928C142.616 489.736 142.024 489.544 141.576 489.352C141.139 489.16 140.76 488.861 140.44 488.456C140.131 488.04 139.976 487.485 139.976 486.792C139.976 486.184 140.131 485.645 140.44 485.176C140.749 484.707 141.181 484.344 141.736 484.088C142.301 483.832 142.947 483.704 143.672 483.704C144.717 483.704 145.571 483.965 146.232 484.488C146.904 485.011 147.283 485.704 147.368 486.568H145.768C145.715 486.141 145.491 485.768 145.096 485.448C144.701 485.117 144.179 484.952 143.528 484.952C142.92 484.952 142.424 485.112 142.04 485.432C141.656 485.741 141.464 486.179 141.464 486.744C141.464 487.149 141.576 487.48 141.8 487.736C142.035 487.992 142.317 488.189 142.648 488.328C142.989 488.456 143.464 488.605 144.072 488.776C144.808 488.979 145.4 489.181 145.848 489.384C146.296 489.576 146.68 489.88 147 490.296C147.32 490.701 147.48 491.256 147.48 491.96C147.48 492.504 147.336 493.016 147.048 493.496C146.76 493.976 146.333 494.365 145.768 494.664C145.203 494.963 144.536 495.112 143.768 495.112ZM157.399 486.232V495H155.943V493.704C155.665 494.152 155.276 494.504 154.775 494.76C154.284 495.005 153.74 495.128 153.143 495.128C152.46 495.128 151.847 494.989 151.303 494.712C150.759 494.424 150.327 493.997 150.007 493.432C149.697 492.867 149.543 492.179 149.543 491.368V486.232H150.983V491.176C150.983 492.04 151.201 492.707 151.639 493.176C152.076 493.635 152.673 493.864 153.431 493.864C154.209 493.864 154.823 493.624 155.271 493.144C155.719 492.664 155.943 491.965 155.943 491.048V486.232H157.399ZM161.313 487.864C161.612 487.341 162.049 486.915 162.625 486.584C163.201 486.253 163.857 486.088 164.593 486.088C165.382 486.088 166.092 486.275 166.721 486.648C167.35 487.021 167.846 487.549 168.209 488.232C168.572 488.904 168.753 489.688 168.753 490.584C168.753 491.469 168.572 492.259 168.209 492.952C167.846 493.645 167.345 494.184 166.705 494.568C166.076 494.952 165.372 495.144 164.593 495.144C163.836 495.144 163.169 494.979 162.593 494.648C162.028 494.317 161.601 493.896 161.313 493.384V495H159.857V483.16H161.313V487.864ZM167.265 490.584C167.265 489.923 167.132 489.347 166.865 488.856C166.598 488.365 166.236 487.992 165.777 487.736C165.329 487.48 164.833 487.352 164.289 487.352C163.756 487.352 163.26 487.485 162.801 487.752C162.353 488.008 161.99 488.387 161.713 488.888C161.446 489.379 161.313 489.949 161.313 490.6C161.313 491.261 161.446 491.843 161.713 492.344C161.99 492.835 162.353 493.213 162.801 493.48C163.26 493.736 163.756 493.864 164.289 493.864C164.833 493.864 165.329 493.736 165.777 493.48C166.236 493.213 166.598 492.835 166.865 492.344C167.132 491.843 167.265 491.256 167.265 490.584ZM181.214 486.072C181.896 486.072 182.504 486.216 183.038 486.504C183.571 486.781 183.992 487.203 184.302 487.768C184.611 488.333 184.766 489.021 184.766 489.832V495H183.326V490.04C183.326 489.165 183.107 488.499 182.67 488.04C182.243 487.571 181.662 487.336 180.926 487.336C180.168 487.336 179.566 487.581 179.118 488.072C178.67 488.552 178.446 489.251 178.446 490.168V495H177.006V490.04C177.006 489.165 176.787 488.499 176.35 488.04C175.923 487.571 175.342 487.336 174.606 487.336C173.848 487.336 173.246 487.581 172.798 488.072C172.35 488.552 172.126 489.251 172.126 490.168V495H170.67V486.232H172.126V487.496C172.414 487.037 172.798 486.685 173.278 486.44C173.768 486.195 174.307 486.072 174.894 486.072C175.63 486.072 176.28 486.237 176.846 486.568C177.411 486.899 177.832 487.384 178.11 488.024C178.355 487.405 178.76 486.925 179.326 486.584C179.891 486.243 180.52 486.072 181.214 486.072ZM187.906 484.808C187.629 484.808 187.394 484.712 187.202 484.52C187.01 484.328 186.914 484.093 186.914 483.816C186.914 483.539 187.01 483.304 187.202 483.112C187.394 482.92 187.629 482.824 187.906 482.824C188.173 482.824 188.397 482.92 188.578 483.112C188.77 483.304 188.866 483.539 188.866 483.816C188.866 484.093 188.77 484.328 188.578 484.52C188.397 484.712 188.173 484.808 187.906 484.808ZM188.61 486.232V495H187.154V486.232H188.61ZM192.867 487.432V492.6C192.867 493.027 192.958 493.331 193.139 493.512C193.321 493.683 193.635 493.768 194.083 493.768H195.155V495H193.843C193.033 495 192.425 494.813 192.019 494.44C191.614 494.067 191.411 493.453 191.411 492.6V487.432H190.275V486.232H191.411V484.024H192.867V486.232H195.155V487.432H192.867Z" fill="white"/>
<path d="M219.954 307.112C219.954 308.04 219.634 308.813 218.994 309.432C218.364 310.04 217.399 310.344 216.098 310.344H213.954V315H212.498V303.848H216.098C217.356 303.848 218.311 304.152 218.962 304.76C219.623 305.368 219.954 306.152 219.954 307.112ZM216.098 309.144C216.908 309.144 217.506 308.968 217.89 308.616C218.274 308.264 218.466 307.763 218.466 307.112C218.466 305.736 217.676 305.048 216.098 305.048H213.954V309.144H216.098ZM223.219 303.16V315H221.763V303.16H223.219ZM233.701 310.28C233.701 310.557 233.685 310.851 233.653 311.16H226.645C226.698 312.024 226.991 312.701 227.525 313.192C228.069 313.672 228.725 313.912 229.493 313.912C230.122 313.912 230.645 313.768 231.061 313.48C231.487 313.181 231.786 312.787 231.957 312.296H233.525C233.29 313.139 232.821 313.827 232.117 314.36C231.413 314.883 230.538 315.144 229.493 315.144C228.661 315.144 227.914 314.957 227.253 314.584C226.602 314.211 226.09 313.683 225.717 313C225.343 312.307 225.157 311.507 225.157 310.6C225.157 309.693 225.338 308.899 225.701 308.216C226.063 307.533 226.57 307.011 227.221 306.648C227.882 306.275 228.639 306.088 229.493 306.088C230.325 306.088 231.061 306.269 231.701 306.632C232.341 306.995 232.831 307.496 233.173 308.136C233.525 308.765 233.701 309.48 233.701 310.28ZM232.197 309.976C232.197 309.421 232.074 308.947 231.829 308.552C231.583 308.147 231.247 307.843 230.821 307.64C230.405 307.427 229.941 307.32 229.429 307.32C228.693 307.32 228.063 307.555 227.541 308.024C227.029 308.493 226.735 309.144 226.661 309.976H232.197ZM235.079 310.584C235.079 309.688 235.26 308.904 235.623 308.232C235.985 307.549 236.481 307.021 237.111 306.648C237.751 306.275 238.46 306.088 239.239 306.088C240.007 306.088 240.673 306.253 241.239 306.584C241.804 306.915 242.225 307.331 242.503 307.832V306.232H243.975V315H242.503V313.368C242.215 313.88 241.783 314.307 241.207 314.648C240.641 314.979 239.98 315.144 239.223 315.144C238.444 315.144 237.74 314.952 237.111 314.568C236.481 314.184 235.985 313.645 235.623 312.952C235.26 312.259 235.079 311.469 235.079 310.584ZM242.503 310.6C242.503 309.939 242.369 309.363 242.103 308.872C241.836 308.381 241.473 308.008 241.015 307.752C240.567 307.485 240.071 307.352 239.527 307.352C238.983 307.352 238.487 307.48 238.039 307.736C237.591 307.992 237.233 308.365 236.967 308.856C236.7 309.347 236.567 309.923 236.567 310.584C236.567 311.256 236.7 311.843 236.967 312.344C237.233 312.835 237.591 313.213 238.039 313.48C238.487 313.736 238.983 313.864 239.527 313.864C240.071 313.864 240.567 313.736 241.015 313.48C241.473 313.213 241.836 312.835 242.103 312.344C242.369 311.843 242.503 311.261 242.503 310.6ZM249.539 315.144C248.867 315.144 248.264 315.032 247.731 314.808C247.198 314.573 246.776 314.253 246.467 313.848C246.158 313.432 245.987 312.957 245.955 312.424H247.459C247.502 312.861 247.704 313.219 248.067 313.496C248.44 313.773 248.926 313.912 249.523 313.912C250.078 313.912 250.515 313.789 250.835 313.544C251.155 313.299 251.315 312.989 251.315 312.616C251.315 312.232 251.144 311.949 250.803 311.768C250.462 311.576 249.934 311.389 249.219 311.208C248.568 311.037 248.035 310.867 247.619 310.696C247.214 310.515 246.862 310.253 246.563 309.912C246.275 309.56 246.131 309.101 246.131 308.536C246.131 308.088 246.264 307.677 246.531 307.304C246.798 306.931 247.176 306.637 247.667 306.424C248.158 306.2 248.718 306.088 249.347 306.088C250.318 306.088 251.102 306.333 251.699 306.824C252.296 307.315 252.616 307.987 252.659 308.84H251.203C251.171 308.381 250.984 308.013 250.643 307.736C250.312 307.459 249.864 307.32 249.299 307.32C248.776 307.32 248.36 307.432 248.051 307.656C247.742 307.88 247.587 308.173 247.587 308.536C247.587 308.824 247.678 309.064 247.859 309.256C248.051 309.437 248.286 309.587 248.563 309.704C248.851 309.811 249.246 309.933 249.747 310.072C250.376 310.243 250.888 310.413 251.283 310.584C251.678 310.744 252.014 310.989 252.291 311.32C252.579 311.651 252.728 312.083 252.739 312.616C252.739 313.096 252.606 313.528 252.339 313.912C252.072 314.296 251.694 314.6 251.203 314.824C250.723 315.037 250.168 315.144 249.539 315.144ZM262.795 310.28C262.795 310.557 262.779 310.851 262.747 311.16H255.739C255.792 312.024 256.085 312.701 256.619 313.192C257.163 313.672 257.819 313.912 258.587 313.912C259.216 313.912 259.739 313.768 260.155 313.48C260.581 313.181 260.88 312.787 261.051 312.296H262.619C262.384 313.139 261.915 313.827 261.211 314.36C260.507 314.883 259.632 315.144 258.587 315.144C257.755 315.144 257.008 314.957 256.347 314.584C255.696 314.211 255.184 313.683 254.811 313C254.437 312.307 254.251 311.507 254.251 310.6C254.251 309.693 254.432 308.899 254.795 308.216C255.157 307.533 255.664 307.011 256.315 306.648C256.976 306.275 257.733 306.088 258.587 306.088C259.419 306.088 260.155 306.269 260.795 306.632C261.435 306.995 261.925 307.496 262.267 308.136C262.619 308.765 262.795 309.48 262.795 310.28ZM261.291 309.976C261.291 309.421 261.168 308.947 260.923 308.552C260.677 308.147 260.341 307.843 259.915 307.64C259.499 307.427 259.035 307.32 258.523 307.32C257.787 307.32 257.157 307.555 256.635 308.024C256.123 308.493 255.829 309.144 255.755 309.976H261.291ZM276.982 310.28C276.982 310.557 276.966 310.851 276.934 311.16H269.926C269.979 312.024 270.273 312.701 270.806 313.192C271.35 313.672 272.006 313.912 272.774 313.912C273.403 313.912 273.926 313.768 274.342 313.48C274.769 313.181 275.067 312.787 275.238 312.296H276.806C276.571 313.139 276.102 313.827 275.398 314.36C274.694 314.883 273.819 315.144 272.774 315.144C271.942 315.144 271.195 314.957 270.534 314.584C269.883 314.211 269.371 313.683 268.998 313C268.625 312.307 268.438 311.507 268.438 310.6C268.438 309.693 268.619 308.899 268.982 308.216C269.345 307.533 269.851 307.011 270.502 306.648C271.163 306.275 271.921 306.088 272.774 306.088C273.606 306.088 274.342 306.269 274.982 306.632C275.622 306.995 276.113 307.496 276.454 308.136C276.806 308.765 276.982 309.48 276.982 310.28ZM275.478 309.976C275.478 309.421 275.355 308.947 275.11 308.552C274.865 308.147 274.529 307.843 274.102 307.64C273.686 307.427 273.222 307.32 272.71 307.32C271.974 307.32 271.345 307.555 270.822 308.024C270.31 308.493 270.017 309.144 269.942 309.976H275.478ZM283.176 306.072C284.243 306.072 285.107 306.397 285.768 307.048C286.429 307.688 286.76 308.616 286.76 309.832V315H285.32V310.04C285.32 309.165 285.101 308.499 284.664 308.04C284.227 307.571 283.629 307.336 282.872 307.336C282.104 307.336 281.491 307.576 281.032 308.056C280.584 308.536 280.36 309.235 280.36 310.152V315H278.904V306.232H280.36V307.48C280.648 307.032 281.037 306.685 281.528 306.44C282.029 306.195 282.579 306.072 283.176 306.072ZM290.914 307.432V312.6C290.914 313.027 291.005 313.331 291.186 313.512C291.368 313.683 291.682 313.768 292.13 313.768H293.202V315H291.89C291.08 315 290.472 314.813 290.066 314.44C289.661 314.067 289.458 313.453 289.458 312.6V307.432H288.322V306.232H289.458V304.024H290.914V306.232H293.202V307.432H290.914ZM302.966 310.28C302.966 310.557 302.95 310.851 302.918 311.16H295.91C295.964 312.024 296.257 312.701 296.79 313.192C297.334 313.672 297.99 313.912 298.758 313.912C299.388 313.912 299.91 313.768 300.326 313.48C300.753 313.181 301.052 312.787 301.222 312.296H302.79C302.556 313.139 302.086 313.827 301.382 314.36C300.678 314.883 299.804 315.144 298.758 315.144C297.926 315.144 297.18 314.957 296.518 314.584C295.868 314.211 295.356 313.683 294.982 313C294.609 312.307 294.422 311.507 294.422 310.6C294.422 309.693 294.604 308.899 294.966 308.216C295.329 307.533 295.836 307.011 296.486 306.648C297.148 306.275 297.905 306.088 298.758 306.088C299.59 306.088 300.326 306.269 300.966 306.632C301.606 306.995 302.097 307.496 302.438 308.136C302.79 308.765 302.966 309.48 302.966 310.28ZM301.462 309.976C301.462 309.421 301.34 308.947 301.094 308.552C300.849 308.147 300.513 307.843 300.086 307.64C299.67 307.427 299.206 307.32 298.694 307.32C297.958 307.32 297.329 307.555 296.806 308.024C296.294 308.493 296.001 309.144 295.926 309.976H301.462ZM306.344 307.656C306.6 307.155 306.963 306.765 307.432 306.488C307.912 306.211 308.494 306.072 309.176 306.072V307.576H308.792C307.16 307.576 306.344 308.461 306.344 310.232V315H304.888V306.232H306.344V307.656ZM322.675 306.232L317.395 319.128H315.891L317.619 314.904L314.083 306.232H315.699L318.451 313.336L321.171 306.232H322.675ZM327.962 315.144C327.141 315.144 326.394 314.957 325.722 314.584C325.061 314.211 324.538 313.683 324.154 313C323.781 312.307 323.594 311.507 323.594 310.6C323.594 309.704 323.786 308.915 324.17 308.232C324.565 307.539 325.098 307.011 325.77 306.648C326.442 306.275 327.194 306.088 328.026 306.088C328.858 306.088 329.61 306.275 330.282 306.648C330.954 307.011 331.482 307.533 331.866 308.216C332.261 308.899 332.458 309.693 332.458 310.6C332.458 311.507 332.256 312.307 331.85 313C331.456 313.683 330.917 314.211 330.234 314.584C329.552 314.957 328.794 315.144 327.962 315.144ZM327.962 313.864C328.485 313.864 328.976 313.741 329.434 313.496C329.893 313.251 330.261 312.883 330.538 312.392C330.826 311.901 330.97 311.304 330.97 310.6C330.97 309.896 330.832 309.299 330.554 308.808C330.277 308.317 329.914 307.955 329.466 307.72C329.018 307.475 328.533 307.352 328.01 307.352C327.477 307.352 326.986 307.475 326.538 307.72C326.101 307.955 325.749 308.317 325.482 308.808C325.216 309.299 325.082 309.896 325.082 310.6C325.082 311.315 325.21 311.917 325.466 312.408C325.733 312.899 326.085 313.267 326.522 313.512C326.96 313.747 327.44 313.864 327.962 313.864ZM342.149 306.232V315H340.693V313.704C340.415 314.152 340.026 314.504 339.525 314.76C339.034 315.005 338.49 315.128 337.893 315.128C337.21 315.128 336.597 314.989 336.053 314.712C335.509 314.424 335.077 313.997 334.757 313.432C334.447 312.867 334.293 312.179 334.293 311.368V306.232H335.733V311.176C335.733 312.04 335.951 312.707 336.389 313.176C336.826 313.635 337.423 313.864 338.181 313.864C338.959 313.864 339.573 313.624 340.021 313.144C340.469 312.664 340.693 311.965 340.693 311.048V306.232H342.149ZM346.063 307.656C346.319 307.155 346.682 306.765 347.151 306.488C347.631 306.211 348.212 306.072 348.895 306.072V307.576H348.511C346.879 307.576 346.063 308.461 346.063 310.232V315H344.607V306.232H346.063V307.656ZM362.841 310.28C362.841 310.557 362.825 310.851 362.793 311.16H355.785C355.839 312.024 356.132 312.701 356.665 313.192C357.209 313.672 357.865 313.912 358.633 313.912C359.263 313.912 359.785 313.768 360.201 313.48C360.628 313.181 360.927 312.787 361.097 312.296H362.665C362.431 313.139 361.961 313.827 361.257 314.36C360.553 314.883 359.679 315.144 358.633 315.144C357.801 315.144 357.055 314.957 356.393 314.584C355.743 314.211 355.231 313.683 354.857 313C354.484 312.307 354.297 311.507 354.297 310.6C354.297 309.693 354.479 308.899 354.841 308.216C355.204 307.533 355.711 307.011 356.361 306.648C357.023 306.275 357.78 306.088 358.633 306.088C359.465 306.088 360.201 306.269 360.841 306.632C361.481 306.995 361.972 307.496 362.313 308.136C362.665 308.765 362.841 309.48 362.841 310.28ZM361.337 309.976C361.337 309.421 361.215 308.947 360.969 308.552C360.724 308.147 360.388 307.843 359.961 307.64C359.545 307.427 359.081 307.32 358.569 307.32C357.833 307.32 357.204 307.555 356.681 308.024C356.169 308.493 355.876 309.144 355.801 309.976H361.337ZM375.307 306.072C375.99 306.072 376.598 306.216 377.131 306.504C377.665 306.781 378.086 307.203 378.395 307.768C378.705 308.333 378.859 309.021 378.859 309.832V315H377.419V310.04C377.419 309.165 377.201 308.499 376.763 308.04C376.337 307.571 375.755 307.336 375.019 307.336C374.262 307.336 373.659 307.581 373.211 308.072C372.763 308.552 372.539 309.251 372.539 310.168V315H371.099V310.04C371.099 309.165 370.881 308.499 370.443 308.04C370.017 307.571 369.435 307.336 368.699 307.336C367.942 307.336 367.339 307.581 366.891 308.072C366.443 308.552 366.219 309.251 366.219 310.168V315H364.763V306.232H366.219V307.496C366.507 307.037 366.891 306.685 367.371 306.44C367.862 306.195 368.401 306.072 368.987 306.072C369.723 306.072 370.374 306.237 370.939 306.568C371.505 306.899 371.926 307.384 372.203 308.024C372.449 307.405 372.854 306.925 373.419 306.584C373.985 306.243 374.614 306.072 375.307 306.072ZM380.704 310.584C380.704 309.688 380.885 308.904 381.248 308.232C381.61 307.549 382.106 307.021 382.736 306.648C383.376 306.275 384.085 306.088 384.864 306.088C385.632 306.088 386.298 306.253 386.864 306.584C387.429 306.915 387.85 307.331 388.128 307.832V306.232H389.6V315H388.128V313.368C387.84 313.88 387.408 314.307 386.832 314.648C386.266 314.979 385.605 315.144 384.848 315.144C384.069 315.144 383.365 314.952 382.736 314.568C382.106 314.184 381.61 313.645 381.248 312.952C380.885 312.259 380.704 311.469 380.704 310.584ZM388.128 310.6C388.128 309.939 387.994 309.363 387.728 308.872C387.461 308.381 387.098 308.008 386.64 307.752C386.192 307.485 385.696 307.352 385.152 307.352C384.608 307.352 384.112 307.48 383.664 307.736C383.216 307.992 382.858 308.365 382.592 308.856C382.325 309.347 382.192 309.923 382.192 310.584C382.192 311.256 382.325 311.843 382.592 312.344C382.858 312.835 383.216 313.213 383.664 313.48C384.112 313.736 384.608 313.864 385.152 313.864C385.696 313.864 386.192 313.736 386.64 313.48C387.098 313.213 387.461 312.835 387.728 312.344C387.994 311.843 388.128 311.261 388.128 310.6ZM392.812 304.808C392.535 304.808 392.3 304.712 392.108 304.52C391.916 304.328 391.82 304.093 391.82 303.816C391.82 303.539 391.916 303.304 392.108 303.112C392.3 302.92 392.535 302.824 392.812 302.824C393.079 302.824 393.303 302.92 393.484 303.112C393.676 303.304 393.772 303.539 393.772 303.816C393.772 304.093 393.676 304.328 393.484 304.52C393.303 304.712 393.079 304.808 392.812 304.808ZM393.516 306.232V315H392.06V306.232H393.516ZM397.454 303.16V315H395.998V303.16H397.454ZM403.657 310.584C403.657 309.688 403.838 308.904 404.201 308.232C404.563 307.549 405.059 307.021 405.689 306.648C406.329 306.275 407.038 306.088 407.817 306.088C408.585 306.088 409.251 306.253 409.817 306.584C410.382 306.915 410.803 307.331 411.081 307.832V306.232H412.553V315H411.081V313.368C410.793 313.88 410.361 314.307 409.785 314.648C409.219 314.979 408.558 315.144 407.801 315.144C407.022 315.144 406.318 314.952 405.689 314.568C405.059 314.184 404.563 313.645 404.201 312.952C403.838 312.259 403.657 311.469 403.657 310.584ZM411.081 310.6C411.081 309.939 410.947 309.363 410.681 308.872C410.414 308.381 410.051 308.008 409.593 307.752C409.145 307.485 408.649 307.352 408.105 307.352C407.561 307.352 407.065 307.48 406.617 307.736C406.169 307.992 405.811 308.365 405.545 308.856C405.278 309.347 405.145 309.923 405.145 310.584C405.145 311.256 405.278 311.843 405.545 312.344C405.811 312.835 406.169 313.213 406.617 313.48C407.065 313.736 407.561 313.864 408.105 313.864C408.649 313.864 409.145 313.736 409.593 313.48C410.051 313.213 410.414 312.835 410.681 312.344C410.947 311.843 411.081 311.261 411.081 310.6ZM414.469 310.584C414.469 309.688 414.651 308.904 415.013 308.232C415.376 307.549 415.872 307.021 416.501 306.648C417.141 306.275 417.856 306.088 418.645 306.088C419.328 306.088 419.963 306.248 420.549 306.568C421.136 306.877 421.584 307.288 421.893 307.8V303.16H423.365V315H421.893V313.352C421.605 313.875 421.179 314.307 420.613 314.648C420.048 314.979 419.387 315.144 418.629 315.144C417.851 315.144 417.141 314.952 416.501 314.568C415.872 314.184 415.376 313.645 415.013 312.952C414.651 312.259 414.469 311.469 414.469 310.584ZM421.893 310.6C421.893 309.939 421.76 309.363 421.493 308.872C421.227 308.381 420.864 308.008 420.405 307.752C419.957 307.485 419.461 307.352 418.917 307.352C418.373 307.352 417.877 307.48 417.429 307.736C416.981 307.992 416.624 308.365 416.357 308.856C416.091 309.347 415.957 309.923 415.957 310.584C415.957 311.256 416.091 311.843 416.357 312.344C416.624 312.835 416.981 313.213 417.429 313.48C417.877 313.736 418.373 313.864 418.917 313.864C419.461 313.864 419.957 313.736 420.405 313.48C420.864 313.213 421.227 312.835 421.493 312.344C421.76 311.843 421.893 311.261 421.893 310.6ZM425.282 310.584C425.282 309.688 425.463 308.904 425.826 308.232C426.188 307.549 426.684 307.021 427.314 306.648C427.954 306.275 428.668 306.088 429.458 306.088C430.14 306.088 430.775 306.248 431.362 306.568C431.948 306.877 432.396 307.288 432.706 307.8V303.16H434.178V315H432.706V313.352C432.418 313.875 431.991 314.307 431.426 314.648C430.86 314.979 430.199 315.144 429.442 315.144C428.663 315.144 427.954 314.952 427.314 314.568C426.684 314.184 426.188 313.645 425.826 312.952C425.463 312.259 425.282 311.469 425.282 310.584ZM432.706 310.6C432.706 309.939 432.572 309.363 432.306 308.872C432.039 308.381 431.676 308.008 431.218 307.752C430.77 307.485 430.274 307.352 429.73 307.352C429.186 307.352 428.69 307.48 428.242 307.736C427.794 307.992 427.436 308.365 427.17 308.856C426.903 309.347 426.77 309.923 426.77 310.584C426.77 311.256 426.903 311.843 427.17 312.344C427.436 312.835 427.794 313.213 428.242 313.48C428.69 313.736 429.186 313.864 429.73 313.864C430.274 313.864 430.77 313.736 431.218 313.48C431.676 313.213 432.039 312.835 432.306 312.344C432.572 311.843 432.706 311.261 432.706 310.6ZM438.094 307.656C438.35 307.155 438.713 306.765 439.182 306.488C439.662 306.211 440.244 306.072 440.926 306.072V307.576H440.542C438.91 307.576 438.094 308.461 438.094 310.232V315H436.638V306.232H438.094V307.656ZM450.607 310.28C450.607 310.557 450.591 310.851 450.559 311.16H443.551C443.604 312.024 443.898 312.701 444.431 313.192C444.975 313.672 445.631 313.912 446.399 313.912C447.028 313.912 447.551 313.768 447.967 313.48C448.394 313.181 448.692 312.787 448.863 312.296H450.431C450.196 313.139 449.727 313.827 449.023 314.36C448.319 314.883 447.444 315.144 446.399 315.144C445.567 315.144 444.82 314.957 444.159 314.584C443.508 314.211 442.996 313.683 442.623 313C442.25 312.307 442.063 311.507 442.063 310.6C442.063 309.693 442.244 308.899 442.607 308.216C442.97 307.533 443.476 307.011 444.127 306.648C444.788 306.275 445.546 306.088 446.399 306.088C447.231 306.088 447.967 306.269 448.607 306.632C449.247 306.995 449.738 307.496 450.079 308.136C450.431 308.765 450.607 309.48 450.607 310.28ZM449.103 309.976C449.103 309.421 448.98 308.947 448.735 308.552C448.49 308.147 448.154 307.843 447.727 307.64C447.311 307.427 446.847 307.32 446.335 307.32C445.599 307.32 444.97 307.555 444.447 308.024C443.935 308.493 443.642 309.144 443.567 309.976H449.103ZM455.633 315.144C454.961 315.144 454.358 315.032 453.825 314.808C453.292 314.573 452.87 314.253 452.561 313.848C452.252 313.432 452.081 312.957 452.049 312.424H453.553C453.596 312.861 453.798 313.219 454.161 313.496C454.534 313.773 455.02 313.912 455.617 313.912C456.172 313.912 456.609 313.789 456.929 313.544C457.249 313.299 457.409 312.989 457.409 312.616C457.409 312.232 457.238 311.949 456.897 311.768C456.556 311.576 456.028 311.389 455.313 311.208C454.662 311.037 454.129 310.867 453.713 310.696C453.308 310.515 452.956 310.253 452.657 309.912C452.369 309.56 452.225 309.101 452.225 308.536C452.225 308.088 452.358 307.677 452.625 307.304C452.892 306.931 453.27 306.637 453.761 306.424C454.252 306.2 454.812 306.088 455.441 306.088C456.412 306.088 457.196 306.333 457.793 306.824C458.39 307.315 458.71 307.987 458.753 308.84H457.297C457.265 308.381 457.078 308.013 456.737 307.736C456.406 307.459 455.958 307.32 455.393 307.32C454.87 307.32 454.454 307.432 454.145 307.656C453.836 307.88 453.681 308.173 453.681 308.536C453.681 308.824 453.772 309.064 453.953 309.256C454.145 309.437 454.38 309.587 454.657 309.704C454.945 309.811 455.34 309.933 455.841 310.072C456.47 310.243 456.982 310.413 457.377 310.584C457.772 310.744 458.108 310.989 458.385 311.32C458.673 311.651 458.822 312.083 458.833 312.616C458.833 313.096 458.7 313.528 458.433 313.912C458.166 314.296 457.788 314.6 457.297 314.824C456.817 315.037 456.262 315.144 455.633 315.144ZM463.992 315.144C463.32 315.144 462.718 315.032 462.184 314.808C461.651 314.573 461.23 314.253 460.92 313.848C460.611 313.432 460.44 312.957 460.408 312.424H461.912C461.955 312.861 462.158 313.219 462.52 313.496C462.894 313.773 463.379 313.912 463.976 313.912C464.531 313.912 464.968 313.789 465.288 313.544C465.608 313.299 465.768 312.989 465.768 312.616C465.768 312.232 465.598 311.949 465.256 311.768C464.915 311.576 464.387 311.389 463.672 311.208C463.022 311.037 462.488 310.867 462.072 310.696C461.667 310.515 461.315 310.253 461.016 309.912C460.728 309.56 460.584 309.101 460.584 308.536C460.584 308.088 460.718 307.677 460.984 307.304C461.251 306.931 461.63 306.637 462.12 306.424C462.611 306.2 463.171 306.088 463.8 306.088C464.771 306.088 465.555 306.333 466.152 306.824C466.75 307.315 467.07 307.987 467.112 308.84H465.656C465.624 308.381 465.438 308.013 465.096 307.736C464.766 307.459 464.318 307.32 463.752 307.32C463.23 307.32 462.814 307.432 462.504 307.656C462.195 307.88 462.04 308.173 462.04 308.536C462.04 308.824 462.131 309.064 462.312 309.256C462.504 309.437 462.739 309.587 463.016 309.704C463.304 309.811 463.699 309.933 464.2 310.072C464.83 310.243 465.342 310.413 465.736 310.584C466.131 310.744 466.467 310.989 466.744 311.32C467.032 311.651 467.182 312.083 467.192 312.616C467.192 313.096 467.059 313.528 466.792 313.912C466.526 314.296 466.147 314.6 465.656 314.824C465.176 315.037 464.622 315.144 463.992 315.144ZM472.969 310.584C472.969 309.688 473.151 308.904 473.513 308.232C473.876 307.549 474.372 307.021 475.001 306.648C475.641 306.275 476.351 306.088 477.129 306.088C477.897 306.088 478.564 306.253 479.129 306.584C479.695 306.915 480.116 307.331 480.393 307.832V306.232H481.865V315H480.393V313.368C480.105 313.88 479.673 314.307 479.097 314.648C478.532 314.979 477.871 315.144 477.113 315.144C476.335 315.144 475.631 314.952 475.001 314.568C474.372 314.184 473.876 313.645 473.513 312.952C473.151 312.259 472.969 311.469 472.969 310.584ZM480.393 310.6C480.393 309.939 480.26 309.363 479.993 308.872C479.727 308.381 479.364 308.008 478.905 307.752C478.457 307.485 477.961 307.352 477.417 307.352C476.873 307.352 476.377 307.48 475.929 307.736C475.481 307.992 475.124 308.365 474.857 308.856C474.591 309.347 474.457 309.923 474.457 310.584C474.457 311.256 474.591 311.843 474.857 312.344C475.124 312.835 475.481 313.213 475.929 313.48C476.377 313.736 476.873 313.864 477.417 313.864C477.961 313.864 478.457 313.736 478.905 313.48C479.364 313.213 479.727 312.835 479.993 312.344C480.26 311.843 480.393 311.261 480.393 310.6ZM488.598 306.072C489.664 306.072 490.528 306.397 491.19 307.048C491.851 307.688 492.182 308.616 492.182 309.832V315H490.742V310.04C490.742 309.165 490.523 308.499 490.086 308.04C489.648 307.571 489.051 307.336 488.294 307.336C487.526 307.336 486.912 307.576 486.454 308.056C486.006 308.536 485.782 309.235 485.782 310.152V315H484.326V306.232H485.782V307.48C486.07 307.032 486.459 306.685 486.95 306.44C487.451 306.195 488 306.072 488.598 306.072ZM494.016 310.584C494.016 309.688 494.197 308.904 494.56 308.232C494.923 307.549 495.419 307.021 496.048 306.648C496.688 306.275 497.403 306.088 498.192 306.088C498.875 306.088 499.509 306.248 500.096 306.568C500.683 306.877 501.131 307.288 501.44 307.8V303.16H502.912V315H501.44V313.352C501.152 313.875 500.725 314.307 500.16 314.648C499.595 314.979 498.933 315.144 498.176 315.144C497.397 315.144 496.688 314.952 496.048 314.568C495.419 314.184 494.923 313.645 494.56 312.952C494.197 312.259 494.016 311.469 494.016 310.584ZM501.44 310.6C501.44 309.939 501.307 309.363 501.04 308.872C500.773 308.381 500.411 308.008 499.952 307.752C499.504 307.485 499.008 307.352 498.464 307.352C497.92 307.352 497.424 307.48 496.976 307.736C496.528 307.992 496.171 308.365 495.904 308.856C495.637 309.347 495.504 309.923 495.504 310.584C495.504 311.256 495.637 311.843 495.904 312.344C496.171 312.835 496.528 313.213 496.976 313.48C497.424 313.736 497.92 313.864 498.464 313.864C499.008 313.864 499.504 313.736 499.952 313.48C500.411 313.213 500.773 312.835 501.04 312.344C501.307 311.843 501.44 311.261 501.44 310.6ZM509.094 310.584C509.094 309.688 509.276 308.904 509.638 308.232C510.001 307.549 510.497 307.021 511.126 306.648C511.766 306.275 512.476 306.088 513.254 306.088C514.022 306.088 514.689 306.253 515.254 306.584C515.82 306.915 516.241 307.331 516.518 307.832V306.232H517.99V315H516.518V313.368C516.23 313.88 515.798 314.307 515.222 314.648C514.657 314.979 513.996 315.144 513.238 315.144C512.46 315.144 511.756 314.952 511.126 314.568C510.497 314.184 510.001 313.645 509.638 312.952C509.276 312.259 509.094 311.469 509.094 310.584ZM516.518 310.6C516.518 309.939 516.385 309.363 516.118 308.872C515.852 308.381 515.489 308.008 515.03 307.752C514.582 307.485 514.086 307.352 513.542 307.352C512.998 307.352 512.502 307.48 512.054 307.736C511.606 307.992 511.249 308.365 510.982 308.856C510.716 309.347 510.582 309.923 510.582 310.584C510.582 311.256 510.716 311.843 510.982 312.344C511.249 312.835 511.606 313.213 512.054 313.48C512.502 313.736 512.998 313.864 513.542 313.864C514.086 313.864 514.582 313.736 515.03 313.48C515.489 313.213 515.852 312.835 516.118 312.344C516.385 311.843 516.518 311.261 516.518 310.6ZM526.172 303.16V315H524.716V303.16H526.172ZM529.406 304.808C529.129 304.808 528.894 304.712 528.702 304.52C528.51 304.328 528.414 304.093 528.414 303.816C528.414 303.539 528.51 303.304 528.702 303.112C528.894 302.92 529.129 302.824 529.406 302.824C529.673 302.824 529.897 302.92 530.078 303.112C530.27 303.304 530.366 303.539 530.366 303.816C530.366 304.093 530.27 304.328 530.078 304.52C529.897 304.712 529.673 304.808 529.406 304.808ZM530.11 306.232V315H528.654V306.232H530.11ZM536.863 306.072C537.93 306.072 538.794 306.397 539.455 307.048C540.117 307.688 540.447 308.616 540.447 309.832V315H539.007V310.04C539.007 309.165 538.789 308.499 538.351 308.04C537.914 307.571 537.317 307.336 536.559 307.336C535.791 307.336 535.178 307.576 534.719 308.056C534.271 308.536 534.047 309.235 534.047 310.152V315H532.591V306.232H534.047V307.48C534.335 307.032 534.725 306.685 535.215 306.44C535.717 306.195 536.266 306.072 536.863 306.072ZM547.722 315L544.282 311.128V315H542.826V303.16H544.282V310.12L547.658 306.232H549.69L545.562 310.6L549.706 315H547.722ZM554.782 310.584C554.782 309.688 554.963 308.904 555.326 308.232C555.688 307.549 556.184 307.021 556.814 306.648C557.454 306.275 558.163 306.088 558.942 306.088C559.71 306.088 560.376 306.253 560.942 306.584C561.507 306.915 561.928 307.331 562.206 307.832V306.232H563.678V315H562.206V313.368C561.918 313.88 561.486 314.307 560.91 314.648C560.344 314.979 559.683 315.144 558.926 315.144C558.147 315.144 557.443 314.952 556.814 314.568C556.184 314.184 555.688 313.645 555.326 312.952C554.963 312.259 554.782 311.469 554.782 310.584ZM562.206 310.6C562.206 309.939 562.072 309.363 561.806 308.872C561.539 308.381 561.176 308.008 560.718 307.752C560.27 307.485 559.774 307.352 559.23 307.352C558.686 307.352 558.19 307.48 557.742 307.736C557.294 307.992 556.936 308.365 556.67 308.856C556.403 309.347 556.27 309.923 556.27 310.584C556.27 311.256 556.403 311.843 556.67 312.344C556.936 312.835 557.294 313.213 557.742 313.48C558.19 313.736 558.686 313.864 559.23 313.864C559.774 313.864 560.27 313.736 560.718 313.48C561.176 313.213 561.539 312.835 561.806 312.344C562.072 311.843 562.206 311.261 562.206 310.6ZM567.594 303.16V315H566.138V303.16H567.594ZM571.532 303.16V315H570.076V303.16H571.532ZM577.837 315.144C577.016 315.144 576.269 314.957 575.597 314.584C574.936 314.211 574.413 313.683 574.029 313C573.656 312.307 573.469 311.507 573.469 310.6C573.469 309.704 573.661 308.915 574.045 308.232C574.44 307.539 574.973 307.011 575.645 306.648C576.317 306.275 577.069 306.088 577.901 306.088C578.733 306.088 579.485 306.275 580.157 306.648C580.829 307.011 581.357 307.533 581.741 308.216C582.136 308.899 582.333 309.693 582.333 310.6C582.333 311.507 582.131 312.307 581.725 313C581.331 313.683 580.792 314.211 580.109 314.584C579.427 314.957 578.669 315.144 577.837 315.144ZM577.837 313.864C578.36 313.864 578.851 313.741 579.309 313.496C579.768 313.251 580.136 312.883 580.413 312.392C580.701 311.901 580.845 311.304 580.845 310.6C580.845 309.896 580.707 309.299 580.429 308.808C580.152 308.317 579.789 307.955 579.341 307.72C578.893 307.475 578.408 307.352 577.885 307.352C577.352 307.352 576.861 307.475 576.413 307.72C575.976 307.955 575.624 308.317 575.357 308.808C575.091 309.299 574.957 309.896 574.957 310.6C574.957 311.315 575.085 311.917 575.341 312.408C575.608 312.899 575.96 313.267 576.397 313.512C576.835 313.747 577.315 313.864 577.837 313.864ZM595.928 306.232L593.192 315H591.688L589.576 308.04L587.464 315H585.96L583.208 306.232H584.696L586.712 313.592L588.888 306.232H590.376L592.504 313.608L594.488 306.232H595.928ZM598.125 304.808C597.847 304.808 597.613 304.712 597.421 304.52C597.229 304.328 597.133 304.093 597.133 303.816C597.133 303.539 597.229 303.304 597.421 303.112C597.613 302.92 597.847 302.824 598.125 302.824C598.391 302.824 598.615 302.92 598.797 303.112C598.989 303.304 599.085 303.539 599.085 303.816C599.085 304.093 598.989 304.328 598.797 304.52C598.615 304.712 598.391 304.808 598.125 304.808ZM598.829 306.232V315H597.373V306.232H598.829ZM605.582 306.072C606.649 306.072 607.513 306.397 608.174 307.048C608.835 307.688 609.166 308.616 609.166 309.832V315H607.726V310.04C607.726 309.165 607.507 308.499 607.07 308.04C606.633 307.571 606.035 307.336 605.278 307.336C604.51 307.336 603.897 307.576 603.438 308.056C602.99 308.536 602.766 309.235 602.766 310.152V315H601.31V306.232H602.766V307.48C603.054 307.032 603.443 306.685 603.934 306.44C604.435 306.195 604.985 306.072 605.582 306.072ZM615.161 306.088C615.918 306.088 616.579 306.253 617.145 306.584C617.721 306.915 618.147 307.331 618.425 307.832V306.232H619.897V315.192C619.897 315.992 619.726 316.701 619.385 317.32C619.043 317.949 618.553 318.44 617.913 318.792C617.283 319.144 616.547 319.32 615.705 319.32C614.553 319.32 613.593 319.048 612.825 318.504C612.057 317.96 611.603 317.219 611.465 316.28H612.905C613.065 316.813 613.395 317.24 613.897 317.56C614.398 317.891 615.001 318.056 615.705 318.056C616.505 318.056 617.155 317.805 617.657 317.304C618.169 316.803 618.425 316.099 618.425 315.192V313.352C618.137 313.864 617.71 314.291 617.145 314.632C616.579 314.973 615.918 315.144 615.161 315.144C614.382 315.144 613.673 314.952 613.033 314.568C612.403 314.184 611.907 313.645 611.545 312.952C611.182 312.259 611.001 311.469 611.001 310.584C611.001 309.688 611.182 308.904 611.545 308.232C611.907 307.549 612.403 307.021 613.033 306.648C613.673 306.275 614.382 306.088 615.161 306.088ZM618.425 310.6C618.425 309.939 618.291 309.363 618.025 308.872C617.758 308.381 617.395 308.008 616.937 307.752C616.489 307.485 615.993 307.352 615.449 307.352C614.905 307.352 614.409 307.48 613.961 307.736C613.513 307.992 613.155 308.365 612.889 308.856C612.622 309.347 612.489 309.923 612.489 310.584C612.489 311.256 612.622 311.843 612.889 312.344C613.155 312.835 613.513 313.213 613.961 313.48C614.409 313.736 614.905 313.864 615.449 313.864C615.993 313.864 616.489 313.736 616.937 313.48C617.395 313.213 617.758 312.835 618.025 312.344C618.291 311.843 618.425 311.261 618.425 310.6ZM634.175 306.232L628.895 319.128H627.391L629.119 314.904L625.583 306.232H627.199L629.951 313.336L632.671 306.232H634.175ZM639.462 315.144C638.641 315.144 637.894 314.957 637.222 314.584C636.561 314.211 636.038 313.683 635.654 313C635.281 312.307 635.094 311.507 635.094 310.6C635.094 309.704 635.286 308.915 635.67 308.232C636.065 307.539 636.598 307.011 637.27 306.648C637.942 306.275 638.694 306.088 639.526 306.088C640.358 306.088 641.11 306.275 641.782 306.648C642.454 307.011 642.982 307.533 643.366 308.216C643.761 308.899 643.958 309.693 643.958 310.6C643.958 311.507 643.756 312.307 643.35 313C642.956 313.683 642.417 314.211 641.734 314.584C641.052 314.957 640.294 315.144 639.462 315.144ZM639.462 313.864C639.985 313.864 640.476 313.741 640.934 313.496C641.393 313.251 641.761 312.883 642.038 312.392C642.326 311.901 642.47 311.304 642.47 310.6C642.47 309.896 642.332 309.299 642.054 308.808C641.777 308.317 641.414 307.955 640.966 307.72C640.518 307.475 640.033 307.352 639.51 307.352C638.977 307.352 638.486 307.475 638.038 307.72C637.601 307.955 637.249 308.317 636.982 308.808C636.716 309.299 636.582 309.896 636.582 310.6C636.582 311.315 636.71 311.917 636.966 312.408C637.233 312.899 637.585 313.267 638.022 313.512C638.46 313.747 638.94 313.864 639.462 313.864ZM653.649 306.232V315H652.193V313.704C651.915 314.152 651.526 314.504 651.025 314.76C650.534 315.005 649.99 315.128 649.393 315.128C648.71 315.128 648.097 314.989 647.553 314.712C647.009 314.424 646.577 313.997 646.257 313.432C645.947 312.867 645.793 312.179 645.793 311.368V306.232H647.233V311.176C647.233 312.04 647.451 312.707 647.889 313.176C648.326 313.635 648.923 313.864 649.681 313.864C650.459 313.864 651.073 313.624 651.521 313.144C651.969 312.664 652.193 311.965 652.193 311.048V306.232H653.649ZM662.149 307.432V312.6C662.149 313.027 662.239 313.331 662.421 313.512C662.602 313.683 662.917 313.768 663.365 313.768H664.437V315H663.125C662.314 315 661.706 314.813 661.301 314.44C660.895 314.067 660.693 313.453 660.693 312.6V307.432H659.557V306.232H660.693V304.024H662.149V306.232H664.437V307.432H662.149ZM670.025 315.144C669.203 315.144 668.457 314.957 667.785 314.584C667.123 314.211 666.601 313.683 666.217 313C665.843 312.307 665.657 311.507 665.657 310.6C665.657 309.704 665.849 308.915 666.233 308.232C666.627 307.539 667.161 307.011 667.833 306.648C668.505 306.275 669.257 306.088 670.089 306.088C670.921 306.088 671.673 306.275 672.345 306.648C673.017 307.011 673.545 307.533 673.929 308.216C674.323 308.899 674.521 309.693 674.521 310.6C674.521 311.507 674.318 312.307 673.913 313C673.518 313.683 672.979 314.211 672.297 314.584C671.614 314.957 670.857 315.144 670.025 315.144ZM670.025 313.864C670.547 313.864 671.038 313.741 671.497 313.496C671.955 313.251 672.323 312.883 672.601 312.392C672.889 311.901 673.033 311.304 673.033 310.6C673.033 309.896 672.894 309.299 672.617 308.808C672.339 308.317 671.977 307.955 671.529 307.72C671.081 307.475 670.595 307.352 670.073 307.352C669.539 307.352 669.049 307.475 668.601 307.72C668.163 307.955 667.811 308.317 667.545 308.808C667.278 309.299 667.145 309.896 667.145 310.6C667.145 311.315 667.273 311.917 667.529 312.408C667.795 312.899 668.147 313.267 668.585 313.512C669.022 313.747 669.502 313.864 670.025 313.864ZM682.157 307.656C682.413 307.155 682.775 306.765 683.245 306.488C683.725 306.211 684.306 306.072 684.989 306.072V307.576H684.605C682.973 307.576 682.157 308.461 682.157 310.232V315H680.701V306.232H682.157V307.656ZM694.67 310.28C694.67 310.557 694.654 310.851 694.622 311.16H687.614C687.667 312.024 687.96 312.701 688.494 313.192C689.038 313.672 689.694 313.912 690.462 313.912C691.091 313.912 691.614 313.768 692.03 313.48C692.456 313.181 692.755 312.787 692.926 312.296H694.494C694.259 313.139 693.79 313.827 693.086 314.36C692.382 314.883 691.507 315.144 690.462 315.144C689.63 315.144 688.883 314.957 688.222 314.584C687.571 314.211 687.059 313.683 686.686 313C686.312 312.307 686.126 311.507 686.126 310.6C686.126 309.693 686.307 308.899 686.67 308.216C687.032 307.533 687.539 307.011 688.19 306.648C688.851 306.275 689.608 306.088 690.462 306.088C691.294 306.088 692.03 306.269 692.67 306.632C693.31 306.995 693.8 307.496 694.142 308.136C694.494 308.765 694.67 309.48 694.67 310.28ZM693.166 309.976C693.166 309.421 693.043 308.947 692.798 308.552C692.552 308.147 692.216 307.843 691.79 307.64C691.374 307.427 690.91 307.32 690.398 307.32C689.662 307.32 689.032 307.555 688.51 308.024C687.998 308.493 687.704 309.144 687.63 309.976H693.166ZM699.695 315.144C699.023 315.144 698.421 315.032 697.887 314.808C697.354 314.573 696.933 314.253 696.623 313.848C696.314 313.432 696.143 312.957 696.111 312.424H697.615C697.658 312.861 697.861 313.219 698.223 313.496C698.597 313.773 699.082 313.912 699.679 313.912C700.234 313.912 700.671 313.789 700.991 313.544C701.311 313.299 701.471 312.989 701.471 312.616C701.471 312.232 701.301 311.949 700.959 311.768C700.618 311.576 700.09 311.389 699.375 311.208C698.725 311.037 698.191 310.867 697.775 310.696C697.37 310.515 697.018 310.253 696.719 309.912C696.431 309.56 696.287 309.101 696.287 308.536C696.287 308.088 696.421 307.677 696.687 307.304C696.954 306.931 697.333 306.637 697.823 306.424C698.314 306.2 698.874 306.088 699.503 306.088C700.474 306.088 701.258 306.333 701.855 306.824C702.453 307.315 702.773 307.987 702.815 308.84H701.359C701.327 308.381 701.141 308.013 700.799 307.736C700.469 307.459 700.021 307.32 699.455 307.32C698.933 307.32 698.517 307.432 698.207 307.656C697.898 307.88 697.743 308.173 697.743 308.536C697.743 308.824 697.834 309.064 698.015 309.256C698.207 309.437 698.442 309.587 698.719 309.704C699.007 309.811 699.402 309.933 699.903 310.072C700.533 310.243 701.045 310.413 701.439 310.584C701.834 310.744 702.17 310.989 702.447 311.32C702.735 311.651 702.885 312.083 702.895 312.616C702.895 313.096 702.762 313.528 702.495 313.912C702.229 314.296 701.85 314.6 701.359 314.824C700.879 315.037 700.325 315.144 699.695 315.144ZM712.951 310.28C712.951 310.557 712.935 310.851 712.903 311.16H705.895C705.948 312.024 706.241 312.701 706.775 313.192C707.319 313.672 707.975 313.912 708.743 313.912C709.372 313.912 709.895 313.768 710.311 313.48C710.737 313.181 711.036 312.787 711.207 312.296H712.775C712.54 313.139 712.071 313.827 711.367 314.36C710.663 314.883 709.788 315.144 708.743 315.144C707.911 315.144 707.164 314.957 706.503 314.584C705.852 314.211 705.34 313.683 704.967 313C704.593 312.307 704.407 311.507 704.407 310.6C704.407 309.693 704.588 308.899 704.951 308.216C705.313 307.533 705.82 307.011 706.471 306.648C707.132 306.275 707.889 306.088 708.743 306.088C709.575 306.088 710.311 306.269 710.951 306.632C711.591 306.995 712.081 307.496 712.423 308.136C712.775 308.765 712.951 309.48 712.951 310.28ZM711.447 309.976C711.447 309.421 711.324 308.947 711.079 308.552C710.833 308.147 710.497 307.843 710.071 307.64C709.655 307.427 709.191 307.32 708.679 307.32C707.943 307.32 707.313 307.555 706.791 308.024C706.279 308.493 705.985 309.144 705.911 309.976H711.447ZM716.649 307.432V312.6C716.649 313.027 716.739 313.331 716.921 313.512C717.102 313.683 717.417 313.768 717.865 313.768H718.937V315H717.625C716.814 315 716.206 314.813 715.801 314.44C715.395 314.067 715.193 313.453 715.193 312.6V307.432H714.057V306.232H715.193V304.024H716.649V306.232H718.937V307.432H716.649ZM326.315 330.232L321.035 343.128H319.531L321.259 338.904L317.723 330.232H319.339L322.091 337.336L324.811 330.232H326.315ZM331.603 339.144C330.782 339.144 330.035 338.957 329.363 338.584C328.702 338.211 328.179 337.683 327.795 337C327.422 336.307 327.235 335.507 327.235 334.6C327.235 333.704 327.427 332.915 327.811 332.232C328.206 331.539 328.739 331.011 329.411 330.648C330.083 330.275 330.835 330.088 331.667 330.088C332.499 330.088 333.251 330.275 333.923 330.648C334.595 331.011 335.123 331.533 335.507 332.216C335.902 332.899 336.099 333.693 336.099 334.6C336.099 335.507 335.896 336.307 335.491 337C335.096 337.683 334.558 338.211 333.875 338.584C333.192 338.957 332.435 339.144 331.603 339.144ZM331.603 337.864C332.126 337.864 332.616 337.741 333.075 337.496C333.534 337.251 333.902 336.883 334.179 336.392C334.467 335.901 334.611 335.304 334.611 334.6C334.611 333.896 334.472 333.299 334.195 332.808C333.918 332.317 333.555 331.955 333.107 331.72C332.659 331.475 332.174 331.352 331.651 331.352C331.118 331.352 330.627 331.475 330.179 331.72C329.742 331.955 329.39 332.317 329.123 332.808C328.856 333.299 328.723 333.896 328.723 334.6C328.723 335.315 328.851 335.917 329.107 336.408C329.374 336.899 329.726 337.267 330.163 337.512C330.6 337.747 331.08 337.864 331.603 337.864ZM345.789 330.232V339H344.333V337.704C344.056 338.152 343.667 338.504 343.165 338.76C342.675 339.005 342.131 339.128 341.533 339.128C340.851 339.128 340.237 338.989 339.693 338.712C339.149 338.424 338.717 337.997 338.397 337.432C338.088 336.867 337.933 336.179 337.933 335.368V330.232H339.373V335.176C339.373 336.04 339.592 336.707 340.029 337.176C340.467 337.635 341.064 337.864 341.821 337.864C342.6 337.864 343.213 337.624 343.661 337.144C344.109 336.664 344.333 335.965 344.333 335.048V330.232H345.789ZM349.704 331.656C349.96 331.155 350.322 330.765 350.792 330.488C351.272 330.211 351.853 330.072 352.536 330.072V331.576H352.152C350.52 331.576 349.704 332.461 349.704 334.232V339H348.248V330.232H349.704V331.656ZM359.938 331.848C360.226 331.347 360.653 330.931 361.218 330.6C361.794 330.259 362.461 330.088 363.218 330.088C363.997 330.088 364.701 330.275 365.33 330.648C365.97 331.021 366.471 331.549 366.834 332.232C367.197 332.904 367.378 333.688 367.378 334.584C367.378 335.469 367.197 336.259 366.834 336.952C366.471 337.645 365.97 338.184 365.33 338.568C364.701 338.952 363.997 339.144 363.218 339.144C362.471 339.144 361.81 338.979 361.234 338.648C360.669 338.307 360.237 337.885 359.938 337.384V343.16H358.482V330.232H359.938V331.848ZM365.89 334.584C365.89 333.923 365.757 333.347 365.49 332.856C365.223 332.365 364.861 331.992 364.402 331.736C363.954 331.48 363.458 331.352 362.914 331.352C362.381 331.352 361.885 331.485 361.426 331.752C360.978 332.008 360.615 332.387 360.338 332.888C360.071 333.379 359.938 333.949 359.938 334.6C359.938 335.261 360.071 335.843 360.338 336.344C360.615 336.835 360.978 337.213 361.426 337.48C361.885 337.736 362.381 337.864 362.914 337.864C363.458 337.864 363.954 337.736 364.402 337.48C364.861 337.213 365.223 336.835 365.49 336.344C365.757 335.843 365.89 335.256 365.89 334.584ZM368.751 334.584C368.751 333.688 368.932 332.904 369.295 332.232C369.657 331.549 370.153 331.021 370.783 330.648C371.423 330.275 372.132 330.088 372.911 330.088C373.679 330.088 374.345 330.253 374.911 330.584C375.476 330.915 375.897 331.331 376.175 331.832V330.232H377.647V339H376.175V337.368C375.887 337.88 375.455 338.307 374.879 338.648C374.313 338.979 373.652 339.144 372.895 339.144C372.116 339.144 371.412 338.952 370.783 338.568C370.153 338.184 369.657 337.645 369.295 336.952C368.932 336.259 368.751 335.469 368.751 334.584ZM376.175 334.6C376.175 333.939 376.041 333.363 375.775 332.872C375.508 332.381 375.145 332.008 374.687 331.752C374.239 331.485 373.743 331.352 373.199 331.352C372.655 331.352 372.159 331.48 371.711 331.736C371.263 331.992 370.905 332.365 370.639 332.856C370.372 333.347 370.239 333.923 370.239 334.584C370.239 335.256 370.372 335.843 370.639 336.344C370.905 336.835 371.263 337.213 371.711 337.48C372.159 337.736 372.655 337.864 373.199 337.864C373.743 337.864 374.239 337.736 374.687 337.48C375.145 337.213 375.508 336.835 375.775 336.344C376.041 335.843 376.175 335.261 376.175 334.6ZM383.211 339.144C382.539 339.144 381.936 339.032 381.403 338.808C380.87 338.573 380.448 338.253 380.139 337.848C379.83 337.432 379.659 336.957 379.627 336.424H381.131C381.174 336.861 381.376 337.219 381.739 337.496C382.112 337.773 382.598 337.912 383.195 337.912C383.75 337.912 384.187 337.789 384.507 337.544C384.827 337.299 384.987 336.989 384.987 336.616C384.987 336.232 384.816 335.949 384.475 335.768C384.134 335.576 383.606 335.389 382.891 335.208C382.24 335.037 381.707 334.867 381.291 334.696C380.886 334.515 380.534 334.253 380.235 333.912C379.947 333.56 379.803 333.101 379.803 332.536C379.803 332.088 379.936 331.677 380.203 331.304C380.47 330.931 380.848 330.637 381.339 330.424C381.83 330.2 382.39 330.088 383.019 330.088C383.99 330.088 384.774 330.333 385.371 330.824C385.968 331.315 386.288 331.987 386.331 332.84H384.875C384.843 332.381 384.656 332.013 384.315 331.736C383.984 331.459 383.536 331.32 382.971 331.32C382.448 331.32 382.032 331.432 381.723 331.656C381.414 331.88 381.259 332.173 381.259 332.536C381.259 332.824 381.35 333.064 381.531 333.256C381.723 333.437 381.958 333.587 382.235 333.704C382.523 333.811 382.918 333.933 383.419 334.072C384.048 334.243 384.56 334.413 384.955 334.584C385.35 334.744 385.686 334.989 385.963 335.32C386.251 335.651 386.4 336.083 386.411 336.616C386.411 337.096 386.278 337.528 386.011 337.912C385.744 338.296 385.366 338.6 384.875 338.824C384.395 339.037 383.84 339.144 383.211 339.144ZM391.57 339.144C390.898 339.144 390.296 339.032 389.762 338.808C389.229 338.573 388.808 338.253 388.498 337.848C388.189 337.432 388.018 336.957 387.986 336.424H389.49C389.533 336.861 389.736 337.219 390.098 337.496C390.472 337.773 390.957 337.912 391.554 337.912C392.109 337.912 392.546 337.789 392.866 337.544C393.186 337.299 393.346 336.989 393.346 336.616C393.346 336.232 393.176 335.949 392.834 335.768C392.493 335.576 391.965 335.389 391.25 335.208C390.6 335.037 390.066 334.867 389.65 334.696C389.245 334.515 388.893 334.253 388.594 333.912C388.306 333.56 388.162 333.101 388.162 332.536C388.162 332.088 388.296 331.677 388.562 331.304C388.829 330.931 389.208 330.637 389.698 330.424C390.189 330.2 390.749 330.088 391.378 330.088C392.349 330.088 393.133 330.333 393.73 330.824C394.328 331.315 394.648 331.987 394.69 332.84H393.234C393.202 332.381 393.016 332.013 392.674 331.736C392.344 331.459 391.896 331.32 391.33 331.32C390.808 331.32 390.392 331.432 390.082 331.656C389.773 331.88 389.618 332.173 389.618 332.536C389.618 332.824 389.709 333.064 389.89 333.256C390.082 333.437 390.317 333.587 390.594 333.704C390.882 333.811 391.277 333.933 391.778 334.072C392.408 334.243 392.92 334.413 393.314 334.584C393.709 334.744 394.045 334.989 394.322 335.32C394.61 335.651 394.76 336.083 394.77 336.616C394.77 337.096 394.637 337.528 394.37 337.912C394.104 338.296 393.725 338.6 393.234 338.824C392.754 339.037 392.2 339.144 391.57 339.144ZM408.506 330.232L405.77 339H404.266L402.154 332.04L400.042 339H398.538L395.786 330.232H397.274L399.29 337.592L401.466 330.232H402.954L405.082 337.608L407.066 330.232H408.506ZM413.775 339.144C412.953 339.144 412.207 338.957 411.535 338.584C410.873 338.211 410.351 337.683 409.967 337C409.593 336.307 409.407 335.507 409.407 334.6C409.407 333.704 409.599 332.915 409.983 332.232C410.377 331.539 410.911 331.011 411.583 330.648C412.255 330.275 413.007 330.088 413.839 330.088C414.671 330.088 415.423 330.275 416.095 330.648C416.767 331.011 417.295 331.533 417.679 332.216C418.073 332.899 418.271 333.693 418.271 334.6C418.271 335.507 418.068 336.307 417.663 337C417.268 337.683 416.729 338.211 416.047 338.584C415.364 338.957 414.607 339.144 413.775 339.144ZM413.775 337.864C414.297 337.864 414.788 337.741 415.247 337.496C415.705 337.251 416.073 336.883 416.351 336.392C416.639 335.901 416.783 335.304 416.783 334.6C416.783 333.896 416.644 333.299 416.367 332.808C416.089 332.317 415.727 331.955 415.279 331.72C414.831 331.475 414.345 331.352 413.823 331.352C413.289 331.352 412.799 331.475 412.351 331.72C411.913 331.955 411.561 332.317 411.295 332.808C411.028 333.299 410.895 333.896 410.895 334.6C410.895 335.315 411.023 335.917 411.279 336.408C411.545 336.899 411.897 337.267 412.335 337.512C412.772 337.747 413.252 337.864 413.775 337.864ZM421.641 331.656C421.897 331.155 422.26 330.765 422.729 330.488C423.209 330.211 423.79 330.072 424.473 330.072V331.576H424.089C422.457 331.576 421.641 332.461 421.641 334.232V339H420.185V330.232H421.641V331.656ZM425.61 334.584C425.61 333.688 425.791 332.904 426.154 332.232C426.517 331.549 427.013 331.021 427.642 330.648C428.282 330.275 428.997 330.088 429.786 330.088C430.469 330.088 431.103 330.248 431.69 330.568C432.277 330.877 432.725 331.288 433.034 331.8V327.16H434.506V339H433.034V337.352C432.746 337.875 432.319 338.307 431.754 338.648C431.189 338.979 430.527 339.144 429.77 339.144C428.991 339.144 428.282 338.952 427.642 338.568C427.013 338.184 426.517 337.645 426.154 336.952C425.791 336.259 425.61 335.469 425.61 334.584ZM433.034 334.6C433.034 333.939 432.901 333.363 432.634 332.872C432.367 332.381 432.005 332.008 431.546 331.752C431.098 331.485 430.602 331.352 430.058 331.352C429.514 331.352 429.018 331.48 428.57 331.736C428.122 331.992 427.765 332.365 427.498 332.856C427.231 333.347 427.098 333.923 427.098 334.584C427.098 335.256 427.231 335.843 427.498 336.344C427.765 336.835 428.122 337.213 428.57 337.48C429.018 337.736 429.514 337.864 430.058 337.864C430.602 337.864 431.098 337.736 431.546 337.48C432.005 337.213 432.367 336.835 432.634 336.344C432.901 335.843 433.034 335.261 433.034 334.6ZM452.912 330.232L450.176 339H448.672L446.56 332.04L444.448 339H442.944L440.192 330.232H441.68L443.696 337.592L445.872 330.232H447.36L449.488 337.608L451.472 330.232H452.912ZM455.109 328.808C454.832 328.808 454.597 328.712 454.405 328.52C454.213 328.328 454.117 328.093 454.117 327.816C454.117 327.539 454.213 327.304 454.405 327.112C454.597 326.92 454.832 326.824 455.109 326.824C455.376 326.824 455.6 326.92 455.781 327.112C455.973 327.304 456.069 327.539 456.069 327.816C456.069 328.093 455.973 328.328 455.781 328.52C455.6 328.712 455.376 328.808 455.109 328.808ZM455.813 330.232V339H454.357V330.232H455.813ZM459.751 327.16V339H458.295V327.16H459.751ZM463.688 327.16V339H462.232V327.16H463.688ZM471.891 331.864C472.19 331.341 472.627 330.915 473.203 330.584C473.779 330.253 474.435 330.088 475.171 330.088C475.96 330.088 476.67 330.275 477.299 330.648C477.928 331.021 478.424 331.549 478.787 332.232C479.15 332.904 479.331 333.688 479.331 334.584C479.331 335.469 479.15 336.259 478.787 336.952C478.424 337.645 477.923 338.184 477.283 338.568C476.654 338.952 475.95 339.144 475.171 339.144C474.414 339.144 473.747 338.979 473.171 338.648C472.606 338.317 472.179 337.896 471.891 337.384V339H470.435V327.16H471.891V331.864ZM477.843 334.584C477.843 333.923 477.71 333.347 477.443 332.856C477.176 332.365 476.814 331.992 476.355 331.736C475.907 331.48 475.411 331.352 474.867 331.352C474.334 331.352 473.838 331.485 473.379 331.752C472.931 332.008 472.568 332.387 472.291 332.888C472.024 333.379 471.891 333.949 471.891 334.6C471.891 335.261 472.024 335.843 472.291 336.344C472.568 336.835 472.931 337.213 473.379 337.48C473.838 337.736 474.334 337.864 474.867 337.864C475.411 337.864 475.907 337.736 476.355 337.48C476.814 337.213 477.176 336.835 477.443 336.344C477.71 335.843 477.843 335.256 477.843 334.584ZM489.248 334.28C489.248 334.557 489.232 334.851 489.2 335.16H482.192C482.245 336.024 482.538 336.701 483.072 337.192C483.616 337.672 484.272 337.912 485.04 337.912C485.669 337.912 486.192 337.768 486.608 337.48C487.034 337.181 487.333 336.787 487.504 336.296H489.072C488.837 337.139 488.368 337.827 487.664 338.36C486.96 338.883 486.085 339.144 485.04 339.144C484.208 339.144 483.461 338.957 482.8 338.584C482.149 338.211 481.637 337.683 481.264 337C480.89 336.307 480.704 335.507 480.704 334.6C480.704 333.693 480.885 332.899 481.248 332.216C481.61 331.533 482.117 331.011 482.768 330.648C483.429 330.275 484.186 330.088 485.04 330.088C485.872 330.088 486.608 330.269 487.248 330.632C487.888 330.995 488.378 331.496 488.72 332.136C489.072 332.765 489.248 333.48 489.248 334.28ZM487.744 333.976C487.744 333.421 487.621 332.947 487.376 332.552C487.13 332.147 486.794 331.843 486.368 331.64C485.952 331.427 485.488 331.32 484.976 331.32C484.24 331.32 483.61 331.555 483.088 332.024C482.576 332.493 482.282 333.144 482.208 333.976H487.744ZM503.435 334.28C503.435 334.557 503.419 334.851 503.387 335.16H496.379C496.432 336.024 496.726 336.701 497.259 337.192C497.803 337.672 498.459 337.912 499.227 337.912C499.856 337.912 500.379 337.768 500.795 337.48C501.222 337.181 501.52 336.787 501.691 336.296H503.259C503.024 337.139 502.555 337.827 501.851 338.36C501.147 338.883 500.272 339.144 499.227 339.144C498.395 339.144 497.648 338.957 496.987 338.584C496.336 338.211 495.824 337.683 495.451 337C495.078 336.307 494.891 335.507 494.891 334.6C494.891 333.693 495.072 332.899 495.435 332.216C495.798 331.533 496.304 331.011 496.955 330.648C497.616 330.275 498.374 330.088 499.227 330.088C500.059 330.088 500.795 330.269 501.435 330.632C502.075 330.995 502.566 331.496 502.907 332.136C503.259 332.765 503.435 333.48 503.435 334.28ZM501.931 333.976C501.931 333.421 501.808 332.947 501.563 332.552C501.318 332.147 500.982 331.843 500.555 331.64C500.139 331.427 499.675 331.32 499.163 331.32C498.427 331.32 497.798 331.555 497.275 332.024C496.763 332.493 496.47 333.144 496.395 333.976H501.931ZM515.901 330.072C516.584 330.072 517.192 330.216 517.725 330.504C518.258 330.781 518.68 331.203 518.989 331.768C519.298 332.333 519.453 333.021 519.453 333.832V339H518.013V334.04C518.013 333.165 517.794 332.499 517.357 332.04C516.93 331.571 516.349 331.336 515.613 331.336C514.856 331.336 514.253 331.581 513.805 332.072C513.357 332.552 513.133 333.251 513.133 334.168V339H511.693V334.04C511.693 333.165 511.474 332.499 511.037 332.04C510.61 331.571 510.029 331.336 509.293 331.336C508.536 331.336 507.933 331.581 507.485 332.072C507.037 332.552 506.813 333.251 506.813 334.168V339H505.357V330.232H506.813V331.496C507.101 331.037 507.485 330.685 507.965 330.44C508.456 330.195 508.994 330.072 509.581 330.072C510.317 330.072 510.968 330.237 511.533 330.568C512.098 330.899 512.52 331.384 512.797 332.024C513.042 331.405 513.448 330.925 514.013 330.584C514.578 330.243 515.208 330.072 515.901 330.072ZM521.297 334.584C521.297 333.688 521.479 332.904 521.841 332.232C522.204 331.549 522.7 331.021 523.329 330.648C523.969 330.275 524.679 330.088 525.457 330.088C526.225 330.088 526.892 330.253 527.457 330.584C528.023 330.915 528.444 331.331 528.721 331.832V330.232H530.193V339H528.721V337.368C528.433 337.88 528.001 338.307 527.425 338.648C526.86 338.979 526.199 339.144 525.441 339.144C524.663 339.144 523.959 338.952 523.329 338.568C522.7 338.184 522.204 337.645 521.841 336.952C521.479 336.259 521.297 335.469 521.297 334.584ZM528.721 334.6C528.721 333.939 528.588 333.363 528.321 332.872C528.055 332.381 527.692 332.008 527.233 331.752C526.785 331.485 526.289 331.352 525.745 331.352C525.201 331.352 524.705 331.48 524.257 331.736C523.809 331.992 523.452 332.365 523.185 332.856C522.919 333.347 522.785 333.923 522.785 334.584C522.785 335.256 522.919 335.843 523.185 336.344C523.452 336.835 523.809 337.213 524.257 337.48C524.705 337.736 525.201 337.864 525.745 337.864C526.289 337.864 526.785 337.736 527.233 337.48C527.692 337.213 528.055 336.835 528.321 336.344C528.588 335.843 528.721 335.261 528.721 334.6ZM533.406 328.808C533.129 328.808 532.894 328.712 532.702 328.52C532.51 328.328 532.414 328.093 532.414 327.816C532.414 327.539 532.51 327.304 532.702 327.112C532.894 326.92 533.129 326.824 533.406 326.824C533.673 326.824 533.897 326.92 534.078 327.112C534.27 327.304 534.366 327.539 534.366 327.816C534.366 328.093 534.27 328.328 534.078 328.52C533.897 328.712 533.673 328.808 533.406 328.808ZM534.11 330.232V339H532.654V330.232H534.11ZM538.047 327.16V339H536.591V327.16H538.047ZM548.529 334.28C548.529 334.557 548.513 334.851 548.481 335.16H541.473C541.526 336.024 541.82 336.701 542.353 337.192C542.897 337.672 543.553 337.912 544.321 337.912C544.95 337.912 545.473 337.768 545.889 337.48C546.316 337.181 546.614 336.787 546.785 336.296H548.353C548.118 337.139 547.649 337.827 546.945 338.36C546.241 338.883 545.366 339.144 544.321 339.144C543.489 339.144 542.742 338.957 542.081 338.584C541.43 338.211 540.918 337.683 540.545 337C540.172 336.307 539.985 335.507 539.985 334.6C539.985 333.693 540.166 332.899 540.529 332.216C540.892 331.533 541.398 331.011 542.049 330.648C542.71 330.275 543.468 330.088 544.321 330.088C545.153 330.088 545.889 330.269 546.529 330.632C547.169 330.995 547.66 331.496 548.001 332.136C548.353 332.765 548.529 333.48 548.529 334.28ZM547.025 333.976C547.025 333.421 546.902 332.947 546.657 332.552C546.412 332.147 546.076 331.843 545.649 331.64C545.233 331.427 544.769 331.32 544.257 331.32C543.521 331.32 542.892 331.555 542.369 332.024C541.857 332.493 541.564 333.144 541.489 333.976H547.025ZM549.907 334.584C549.907 333.688 550.088 332.904 550.451 332.232C550.813 331.549 551.309 331.021 551.939 330.648C552.579 330.275 553.293 330.088 554.083 330.088C554.765 330.088 555.4 330.248 555.987 330.568C556.573 330.877 557.021 331.288 557.331 331.8V327.16H558.803V339H557.331V337.352C557.043 337.875 556.616 338.307 556.051 338.648C555.485 338.979 554.824 339.144 554.067 339.144C553.288 339.144 552.579 338.952 551.939 338.568C551.309 338.184 550.813 337.645 550.451 336.952C550.088 336.259 549.907 335.469 549.907 334.584ZM557.331 334.6C557.331 333.939 557.197 333.363 556.931 332.872C556.664 332.381 556.301 332.008 555.843 331.752C555.395 331.485 554.899 331.352 554.355 331.352C553.811 331.352 553.315 331.48 552.867 331.736C552.419 331.992 552.061 332.365 551.795 332.856C551.528 333.347 551.395 333.923 551.395 334.584C551.395 335.256 551.528 335.843 551.795 336.344C552.061 336.835 552.419 337.213 552.867 337.48C553.315 337.736 553.811 337.864 554.355 337.864C554.899 337.864 555.395 337.736 555.843 337.48C556.301 337.213 556.664 336.835 556.931 336.344C557.197 335.843 557.331 335.261 557.331 334.6ZM567.305 331.432V336.6C567.305 337.027 567.396 337.331 567.577 337.512C567.758 337.683 568.073 337.768 568.521 337.768H569.593V339H568.281C567.47 339 566.862 338.813 566.457 338.44C566.052 338.067 565.849 337.453 565.849 336.6V331.432H564.713V330.232H565.849V328.024H567.305V330.232H569.593V331.432H567.305ZM575.181 339.144C574.36 339.144 573.613 338.957 572.941 338.584C572.28 338.211 571.757 337.683 571.373 337C571 336.307 570.813 335.507 570.813 334.6C570.813 333.704 571.005 332.915 571.389 332.232C571.784 331.539 572.317 331.011 572.989 330.648C573.661 330.275 574.413 330.088 575.245 330.088C576.077 330.088 576.829 330.275 577.501 330.648C578.173 331.011 578.701 331.533 579.085 332.216C579.48 332.899 579.677 333.693 579.677 334.6C579.677 335.507 579.474 336.307 579.069 337C578.674 337.683 578.136 338.211 577.453 338.584C576.77 338.957 576.013 339.144 575.181 339.144ZM575.181 337.864C575.704 337.864 576.194 337.741 576.653 337.496C577.112 337.251 577.48 336.883 577.757 336.392C578.045 335.901 578.189 335.304 578.189 334.6C578.189 333.896 578.05 333.299 577.773 332.808C577.496 332.317 577.133 331.955 576.685 331.72C576.237 331.475 575.752 331.352 575.229 331.352C574.696 331.352 574.205 331.475 573.757 331.72C573.32 331.955 572.968 332.317 572.701 332.808C572.434 333.299 572.301 333.896 572.301 334.6C572.301 335.315 572.429 335.917 572.685 336.408C572.952 336.899 573.304 337.267 573.741 337.512C574.178 337.747 574.658 337.864 575.181 337.864ZM593.409 330.232L588.129 343.128H586.625L588.353 338.904L584.817 330.232H586.433L589.185 337.336L591.905 330.232H593.409ZM598.697 339.144C597.875 339.144 597.129 338.957 596.457 338.584C595.795 338.211 595.273 337.683 594.889 337C594.515 336.307 594.329 335.507 594.329 334.6C594.329 333.704 594.521 332.915 594.905 332.232C595.299 331.539 595.833 331.011 596.505 330.648C597.177 330.275 597.929 330.088 598.761 330.088C599.593 330.088 600.345 330.275 601.017 330.648C601.689 331.011 602.217 331.533 602.601 332.216C602.995 332.899 603.193 333.693 603.193 334.6C603.193 335.507 602.99 336.307 602.585 337C602.19 337.683 601.651 338.211 600.969 338.584C600.286 338.957 599.529 339.144 598.697 339.144ZM598.697 337.864C599.219 337.864 599.71 337.741 600.169 337.496C600.627 337.251 600.995 336.883 601.273 336.392C601.561 335.901 601.705 335.304 601.705 334.6C601.705 333.896 601.566 333.299 601.289 332.808C601.011 332.317 600.649 331.955 600.201 331.72C599.753 331.475 599.267 331.352 598.745 331.352C598.211 331.352 597.721 331.475 597.273 331.72C596.835 331.955 596.483 332.317 596.217 332.808C595.95 333.299 595.817 333.896 595.817 334.6C595.817 335.315 595.945 335.917 596.201 336.408C596.467 336.899 596.819 337.267 597.257 337.512C597.694 337.747 598.174 337.864 598.697 337.864ZM612.883 330.232V339H611.427V337.704C611.15 338.152 610.76 338.504 610.259 338.76C609.768 339.005 609.224 339.128 608.627 339.128C607.944 339.128 607.331 338.989 606.787 338.712C606.243 338.424 605.811 337.997 605.491 337.432C605.182 336.867 605.027 336.179 605.027 335.368V330.232H606.467V335.176C606.467 336.04 606.686 336.707 607.123 337.176C607.56 337.635 608.158 337.864 608.915 337.864C609.694 337.864 610.307 337.624 610.755 337.144C611.203 336.664 611.427 335.965 611.427 335.048V330.232H612.883ZM615.805 339.096C615.528 339.096 615.293 339 615.101 338.808C614.909 338.616 614.813 338.381 614.813 338.104C614.813 337.827 614.909 337.592 615.101 337.4C615.293 337.208 615.528 337.112 615.805 337.112C616.072 337.112 616.296 337.208 616.477 337.4C616.669 337.592 616.765 337.827 616.765 338.104C616.765 338.381 616.669 338.616 616.477 338.808C616.296 339 616.072 339.096 615.805 339.096Z" fill="#535653"/>
<path d="M379.304 236.272V238.048H372.032V243.688H377.936V245.464H372.032V253H369.848V236.272H379.304ZM387.678 253.216C386.446 253.216 385.326 252.936 384.318 252.376C383.326 251.816 382.542 251.024 381.966 250C381.406 248.96 381.126 247.76 381.126 246.4C381.126 245.056 381.414 243.872 381.99 242.848C382.582 241.808 383.382 241.016 384.39 240.472C385.398 239.912 386.526 239.632 387.774 239.632C389.022 239.632 390.15 239.912 391.158 240.472C392.166 241.016 392.958 241.8 393.534 242.824C394.126 243.848 394.422 245.04 394.422 246.4C394.422 247.76 394.118 248.96 393.51 250C392.918 251.024 392.11 251.816 391.086 252.376C390.062 252.936 388.926 253.216 387.678 253.216ZM387.678 251.296C388.462 251.296 389.198 251.112 389.886 250.744C390.574 250.376 391.126 249.824 391.542 249.088C391.974 248.352 392.19 247.456 392.19 246.4C392.19 245.344 391.982 244.448 391.566 243.712C391.15 242.976 390.606 242.432 389.934 242.08C389.262 241.712 388.534 241.528 387.75 241.528C386.95 241.528 386.214 241.712 385.542 242.08C384.886 242.432 384.358 242.976 383.958 243.712C383.558 244.448 383.358 245.344 383.358 246.4C383.358 247.472 383.55 248.376 383.934 249.112C384.334 249.848 384.862 250.4 385.518 250.768C386.174 251.12 386.894 251.296 387.678 251.296ZM399.477 241.984C399.861 241.232 400.405 240.648 401.109 240.232C401.829 239.816 402.701 239.608 403.725 239.608V241.864H403.149C400.701 241.864 399.477 243.192 399.477 245.848V253H397.293V239.848H399.477V241.984ZM411.67 239.632C412.806 239.632 413.798 239.88 414.646 240.376C415.51 240.872 416.15 241.496 416.566 242.248V239.848H418.774V253.288C418.774 254.488 418.518 255.552 418.006 256.48C417.494 257.424 416.758 258.16 415.798 258.688C414.854 259.216 413.75 259.48 412.486 259.48C410.758 259.48 409.318 259.072 408.166 258.256C407.014 257.44 406.334 256.328 406.126 254.92H408.286C408.526 255.72 409.022 256.36 409.774 256.84C410.526 257.336 411.43 257.584 412.486 257.584C413.686 257.584 414.662 257.208 415.414 256.456C416.182 255.704 416.566 254.648 416.566 253.288V250.528C416.134 251.296 415.494 251.936 414.646 252.448C413.798 252.96 412.806 253.216 411.67 253.216C410.502 253.216 409.438 252.928 408.478 252.352C407.534 251.776 406.79 250.968 406.246 249.928C405.702 248.888 405.43 247.704 405.43 246.376C405.43 245.032 405.702 243.856 406.246 242.848C406.79 241.824 407.534 241.032 408.478 240.472C409.438 239.912 410.502 239.632 411.67 239.632ZM416.566 246.4C416.566 245.408 416.366 244.544 415.966 243.808C415.566 243.072 415.022 242.512 414.334 242.128C413.662 241.728 412.918 241.528 412.102 241.528C411.286 241.528 410.542 241.72 409.87 242.104C409.198 242.488 408.662 243.048 408.262 243.784C407.862 244.52 407.662 245.384 407.662 246.376C407.662 247.384 407.862 248.264 408.262 249.016C408.662 249.752 409.198 250.32 409.87 250.72C410.542 251.104 411.286 251.296 412.102 251.296C412.918 251.296 413.662 251.104 414.334 250.72C415.022 250.32 415.566 249.752 415.966 249.016C416.366 248.264 416.566 247.392 416.566 246.4ZM428.201 253.216C426.969 253.216 425.849 252.936 424.841 252.376C423.849 251.816 423.065 251.024 422.489 250C421.929 248.96 421.649 247.76 421.649 246.4C421.649 245.056 421.937 243.872 422.513 242.848C423.105 241.808 423.905 241.016 424.913 240.472C425.921 239.912 427.049 239.632 428.297 239.632C429.545 239.632 430.673 239.912 431.681 240.472C432.689 241.016 433.481 241.8 434.057 242.824C434.649 243.848 434.945 245.04 434.945 246.4C434.945 247.76 434.641 248.96 434.033 250C433.441 251.024 432.633 251.816 431.609 252.376C430.585 252.936 429.449 253.216 428.201 253.216ZM428.201 251.296C428.985 251.296 429.721 251.112 430.409 250.744C431.097 250.376 431.649 249.824 432.065 249.088C432.497 248.352 432.713 247.456 432.713 246.4C432.713 245.344 432.505 244.448 432.089 243.712C431.673 242.976 431.129 242.432 430.457 242.08C429.785 241.712 429.057 241.528 428.273 241.528C427.473 241.528 426.737 241.712 426.065 242.08C425.409 242.432 424.881 242.976 424.481 243.712C424.081 244.448 423.881 245.344 423.881 246.4C423.881 247.472 424.073 248.376 424.457 249.112C424.857 249.848 425.385 250.4 426.041 250.768C426.697 251.12 427.417 251.296 428.201 251.296ZM440.481 241.648V249.4C440.481 250.04 440.617 250.496 440.889 250.768C441.161 251.024 441.633 251.152 442.305 251.152H443.913V253H441.945C440.729 253 439.817 252.72 439.209 252.16C438.601 251.6 438.297 250.68 438.297 249.4V241.648H436.593V239.848H438.297V236.536H440.481V239.848H443.913V241.648H440.481ZM464.141 241.168C464.141 242.56 463.661 243.72 462.701 244.648C461.757 245.56 460.309 246.016 458.357 246.016H455.141V253H452.957V236.272H458.357C460.245 236.272 461.677 236.728 462.653 237.64C463.645 238.552 464.141 239.728 464.141 241.168ZM458.357 244.216C459.573 244.216 460.469 243.952 461.045 243.424C461.621 242.896 461.909 242.144 461.909 241.168C461.909 239.104 460.725 238.072 458.357 238.072H455.141V244.216H458.357ZM466.04 246.376C466.04 245.032 466.312 243.856 466.856 242.848C467.4 241.824 468.144 241.032 469.088 240.472C470.048 239.912 471.112 239.632 472.28 239.632C473.432 239.632 474.432 239.88 475.28 240.376C476.128 240.872 476.76 241.496 477.176 242.248V239.848H479.384V253H477.176V250.552C476.744 251.32 476.096 251.96 475.232 252.472C474.384 252.968 473.392 253.216 472.256 253.216C471.088 253.216 470.032 252.928 469.088 252.352C468.144 251.776 467.4 250.968 466.856 249.928C466.312 248.888 466.04 247.704 466.04 246.376ZM477.176 246.4C477.176 245.408 476.976 244.544 476.576 243.808C476.176 243.072 475.632 242.512 474.944 242.128C474.272 241.728 473.528 241.528 472.712 241.528C471.896 241.528 471.152 241.72 470.48 242.104C469.808 242.488 469.272 243.048 468.872 243.784C468.472 244.52 468.272 245.384 468.272 246.376C468.272 247.384 468.472 248.264 468.872 249.016C469.272 249.752 469.808 250.32 470.48 250.72C471.152 251.104 471.896 251.296 472.712 251.296C473.528 251.296 474.272 251.104 474.944 250.72C475.632 250.32 476.176 249.752 476.576 249.016C476.976 248.264 477.176 247.392 477.176 246.4ZM487.731 253.216C486.723 253.216 485.819 253.048 485.019 252.712C484.219 252.36 483.587 251.88 483.123 251.272C482.659 250.648 482.403 249.936 482.355 249.136H484.611C484.675 249.792 484.979 250.328 485.523 250.744C486.083 251.16 486.811 251.368 487.707 251.368C488.539 251.368 489.195 251.184 489.675 250.816C490.155 250.448 490.395 249.984 490.395 249.424C490.395 248.848 490.139 248.424 489.627 248.152C489.115 247.864 488.323 247.584 487.251 247.312C486.275 247.056 485.475 246.8 484.851 246.544C484.243 246.272 483.715 245.88 483.267 245.368C482.835 244.84 482.619 244.152 482.619 243.304C482.619 242.632 482.819 242.016 483.219 241.456C483.619 240.896 484.187 240.456 484.923 240.136C485.659 239.8 486.499 239.632 487.443 239.632C488.899 239.632 490.075 240 490.971 240.736C491.867 241.472 492.347 242.48 492.411 243.76H490.227C490.179 243.072 489.899 242.52 489.387 242.104C488.891 241.688 488.219 241.48 487.371 241.48C486.587 241.48 485.963 241.648 485.499 241.984C485.035 242.32 484.803 242.76 484.803 243.304C484.803 243.736 484.939 244.096 485.211 244.384C485.499 244.656 485.851 244.88 486.267 245.056C486.699 245.216 487.291 245.4 488.043 245.608C488.987 245.864 489.755 246.12 490.347 246.376C490.939 246.616 491.443 246.984 491.859 247.48C492.291 247.976 492.515 248.624 492.531 249.424C492.531 250.144 492.331 250.792 491.931 251.368C491.531 251.944 490.963 252.4 490.227 252.736C489.507 253.056 488.675 253.216 487.731 253.216ZM500.27 253.216C499.262 253.216 498.358 253.048 497.558 252.712C496.758 252.36 496.126 251.88 495.662 251.272C495.198 250.648 494.942 249.936 494.894 249.136H497.15C497.214 249.792 497.518 250.328 498.062 250.744C498.622 251.16 499.35 251.368 500.246 251.368C501.078 251.368 501.734 251.184 502.214 250.816C502.694 250.448 502.934 249.984 502.934 249.424C502.934 248.848 502.678 248.424 502.166 248.152C501.654 247.864 500.862 247.584 499.79 247.312C498.814 247.056 498.014 246.8 497.39 246.544C496.782 246.272 496.254 245.88 495.806 245.368C495.374 244.84 495.158 244.152 495.158 243.304C495.158 242.632 495.358 242.016 495.758 241.456C496.158 240.896 496.726 240.456 497.462 240.136C498.198 239.8 499.038 239.632 499.982 239.632C501.438 239.632 502.614 240 503.51 240.736C504.406 241.472 504.886 242.48 504.95 243.76H502.766C502.718 243.072 502.438 242.52 501.926 242.104C501.43 241.688 500.758 241.48 499.91 241.48C499.126 241.48 498.502 241.648 498.038 241.984C497.574 242.32 497.342 242.76 497.342 243.304C497.342 243.736 497.478 244.096 497.75 244.384C498.038 244.656 498.39 244.88 498.806 245.056C499.238 245.216 499.83 245.4 500.582 245.608C501.526 245.864 502.294 246.12 502.886 246.376C503.478 246.616 503.982 246.984 504.398 247.48C504.83 247.976 505.054 248.624 505.07 249.424C505.07 250.144 504.87 250.792 504.47 251.368C504.07 251.944 503.502 252.4 502.766 252.736C502.046 253.056 501.214 253.216 500.27 253.216ZM525.673 239.848L521.569 253H519.313L516.145 242.56L512.977 253H510.721L506.593 239.848H508.825L511.849 250.888L515.113 239.848H517.345L520.537 250.912L523.513 239.848H525.673ZM533.576 253.216C532.344 253.216 531.224 252.936 530.216 252.376C529.224 251.816 528.44 251.024 527.864 250C527.304 248.96 527.024 247.76 527.024 246.4C527.024 245.056 527.312 243.872 527.888 242.848C528.48 241.808 529.28 241.016 530.288 240.472C531.296 239.912 532.424 239.632 533.672 239.632C534.92 239.632 536.048 239.912 537.056 240.472C538.064 241.016 538.856 241.8 539.432 242.824C540.024 243.848 540.32 245.04 540.32 246.4C540.32 247.76 540.016 248.96 539.408 250C538.816 251.024 538.008 251.816 536.984 252.376C535.96 252.936 534.824 253.216 533.576 253.216ZM533.576 251.296C534.36 251.296 535.096 251.112 535.784 250.744C536.472 250.376 537.024 249.824 537.44 249.088C537.872 248.352 538.088 247.456 538.088 246.4C538.088 245.344 537.88 244.448 537.464 243.712C537.048 242.976 536.504 242.432 535.832 242.08C535.16 241.712 534.432 241.528 533.648 241.528C532.848 241.528 532.112 241.712 531.44 242.08C530.784 242.432 530.256 242.976 529.856 243.712C529.456 244.448 529.256 245.344 529.256 246.4C529.256 247.472 529.448 248.376 529.832 249.112C530.232 249.848 530.76 250.4 531.416 250.768C532.072 251.12 532.792 251.296 533.576 251.296ZM545.376 241.984C545.76 241.232 546.304 240.648 547.008 240.232C547.728 239.816 548.6 239.608 549.624 239.608V241.864H549.048C546.6 241.864 545.376 243.192 545.376 245.848V253H543.192V239.848H545.376V241.984ZM551.329 246.376C551.329 245.032 551.601 243.856 552.145 242.848C552.689 241.824 553.433 241.032 554.377 240.472C555.337 239.912 556.409 239.632 557.593 239.632C558.617 239.632 559.569 239.872 560.449 240.352C561.329 240.816 562.001 241.432 562.465 242.2V235.24H564.673V253H562.465V250.528C562.033 251.312 561.393 251.96 560.545 252.472C559.697 252.968 558.705 253.216 557.569 253.216C556.401 253.216 555.337 252.928 554.377 252.352C553.433 251.776 552.689 250.968 552.145 249.928C551.601 248.888 551.329 247.704 551.329 246.376ZM562.465 246.4C562.465 245.408 562.265 244.544 561.865 243.808C561.465 243.072 560.921 242.512 560.233 242.128C559.561 241.728 558.817 241.528 558.001 241.528C557.185 241.528 556.441 241.72 555.769 242.104C555.097 242.488 554.561 243.048 554.161 243.784C553.761 244.52 553.561 245.384 553.561 246.376C553.561 247.384 553.761 248.264 554.161 249.016C554.561 249.752 555.097 250.32 555.769 250.72C556.441 251.104 557.185 251.296 558.001 251.296C558.817 251.296 559.561 251.104 560.233 250.72C560.921 250.32 561.465 249.752 561.865 249.016C562.265 248.264 562.465 247.392 562.465 246.4Z" fill="#0051B4"/>
</g>
<defs>
<filter id="filter0_d_683_521" x="0" y="-21" width="936" height="1034" filterUnits="userSpaceOnUse" color-interpolation-filters="sRGB">
<feFlood flood-opacity="0" result="BackgroundImageFix"/>
<feColorMatrix in="SourceAlpha" type="matrix" values="0 0 0 0 0 0 0 0 0 0 0 0 0 0 0 0 0 0 127 0" result="hardAlpha"/>
<feMorphology radius="4" operator="dilate" in="SourceAlpha" result="effect1_dropShadow_683_521"/>
<feOffset dy="5"/>
<feGaussianBlur stdDeviation="11"/>
<feComposite in2="hardAlpha" operator="out"/>
<feColorMatrix type="matrix" values="0 0 0 0 0 0 0 0 0 0 0 0 0 0 0 0 0 0 0.12 0"/>
<feBlend mode="normal" in2="BackgroundImageFix" result="effect1_dropShadow_683_521"/>
<feBlend mode="normal" in="SourceGraphic" in2="effect1_dropShadow_683_521" result="shape"/>
</filter>
</defs>
</svg>
