<svg width="246" height="50" viewBox="0 0 246 50" fill="none" xmlns="http://www.w3.org/2000/svg">
<path d="M25.088 12.856V35H22.176V18.488L14.816 35H12.768L5.376 18.456V35H2.464V12.856H5.6L13.792 31.16L21.984 12.856H25.088ZM46.0265 25.56C46.0265 26.1147 45.9945 26.7013 45.9305 27.32H31.9145C32.0212 29.048 32.6078 30.4027 33.6745 31.384C34.7625 32.344 36.0745 32.824 37.6105 32.824C38.8692 32.824 39.9145 32.536 40.7465 31.96C41.5998 31.3627 42.1972 30.5733 42.5385 29.592H45.6745C45.2052 31.2773 44.2665 32.6533 42.8585 33.72C41.4505 34.7653 39.7012 35.288 37.6105 35.288C35.9465 35.288 34.4532 34.9147 33.1305 34.168C31.8292 33.4213 30.8052 32.3653 30.0585 31C29.3118 29.6133 28.9385 28.0133 28.9385 26.2C28.9385 24.3867 29.3012 22.7973 30.0265 21.432C30.7518 20.0667 31.7652 19.0213 33.0665 18.296C34.3892 17.5493 35.9038 17.176 37.6105 17.176C39.2745 17.176 40.7465 17.5387 42.0265 18.264C43.3065 18.9893 44.2878 19.992 44.9705 21.272C45.6745 22.5307 46.0265 23.96 46.0265 25.56ZM43.0185 24.952C43.0185 23.8427 42.7732 22.8933 42.2825 22.104C41.7918 21.2933 41.1198 20.6853 40.2665 20.28C39.4345 19.8533 38.5065 19.64 37.4825 19.64C36.0105 19.64 34.7518 20.1093 33.7065 21.048C32.6825 21.9867 32.0958 23.288 31.9465 24.952H43.0185ZM65.8703 25.56C65.8703 26.1147 65.8383 26.7013 65.7743 27.32H51.7583C51.8649 29.048 52.4516 30.4027 53.5183 31.384C54.6063 32.344 55.9183 32.824 57.4543 32.824C58.7129 32.824 59.7583 32.536 60.5903 31.96C61.4436 31.3627 62.0409 30.5733 62.3823 29.592H65.5183C65.0489 31.2773 64.1103 32.6533 62.7023 33.72C61.2943 34.7653 59.5449 35.288 57.4543 35.288C55.7903 35.288 54.2969 34.9147 52.9743 34.168C51.6729 33.4213 50.6489 32.3653 49.9023 31C49.1556 29.6133 48.7823 28.0133 48.7823 26.2C48.7823 24.3867 49.1449 22.7973 49.8703 21.432C50.5956 20.0667 51.6089 19.0213 52.9103 18.296C54.2329 17.5493 55.7476 17.176 57.4543 17.176C59.1183 17.176 60.5903 17.5387 61.8703 18.264C63.1503 18.9893 64.1316 19.992 64.8143 21.272C65.5183 22.5307 65.8703 23.96 65.8703 25.56ZM62.8623 24.952C62.8623 23.8427 62.6169 22.8933 62.1263 22.104C61.6356 21.2933 60.9636 20.6853 60.1103 20.28C59.2783 19.8533 58.3503 19.64 57.3263 19.64C55.8543 19.64 54.5956 20.1093 53.5503 21.048C52.5263 21.9867 51.9396 23.288 51.7903 24.952H62.8623ZM73.266 19.864V30.2C73.266 31.0533 73.4473 31.6613 73.81 32.024C74.1727 32.3653 74.802 32.536 75.698 32.536H77.842V35H75.218C73.5967 35 72.3807 34.6267 71.57 33.88C70.7593 33.1333 70.354 31.9067 70.354 30.2V19.864H68.082V17.464H70.354V13.048H73.266V17.464H77.842V19.864H73.266ZM103.63 12.696V15.064H97.5495V35H94.6375V15.064H88.5255V12.696H103.63ZM115.918 17.144C117.241 17.144 118.435 17.432 119.502 18.008C120.569 18.5627 121.401 19.4053 121.998 20.536C122.617 21.6667 122.926 23.0427 122.926 24.664V35H120.046V25.08C120.046 23.3307 119.609 21.9973 118.734 21.08C117.859 20.1413 116.665 19.672 115.15 19.672C113.614 19.672 112.387 20.152 111.47 21.112C110.574 22.072 110.126 23.4693 110.126 25.304V35H107.214V11.32H110.126V19.96C110.702 19.064 111.491 18.3707 112.494 17.88C113.518 17.3893 114.659 17.144 115.918 17.144ZM143.683 25.56C143.683 26.1147 143.651 26.7013 143.587 27.32H129.571C129.677 29.048 130.264 30.4027 131.331 31.384C132.419 32.344 133.731 32.824 135.267 32.824C136.525 32.824 137.571 32.536 138.403 31.96C139.256 31.3627 139.853 30.5733 140.195 29.592H143.331C142.861 31.2773 141.923 32.6533 140.515 33.72C139.107 34.7653 137.357 35.288 135.267 35.288C133.603 35.288 132.109 34.9147 130.787 34.168C129.485 33.4213 128.461 32.3653 127.715 31C126.968 29.6133 126.595 28.0133 126.595 26.2C126.595 24.3867 126.957 22.7973 127.683 21.432C128.408 20.0667 129.421 19.0213 130.723 18.296C132.045 17.5493 133.56 17.176 135.267 17.176C136.931 17.176 138.403 17.5387 139.683 18.264C140.963 18.9893 141.944 19.992 142.627 21.272C143.331 22.5307 143.683 23.96 143.683 25.56ZM140.675 24.952C140.675 23.8427 140.429 22.8933 139.939 22.104C139.448 21.2933 138.776 20.6853 137.923 20.28C137.091 19.8533 136.163 19.64 135.139 19.64C133.667 19.64 132.408 20.1093 131.363 21.048C130.339 21.9867 129.752 23.288 129.603 24.952H140.675ZM169.786 12.696V15.064H163.706V35H160.794V15.064H154.682V12.696H169.786ZM189.37 25.56C189.37 26.1147 189.338 26.7013 189.274 27.32H175.258C175.365 29.048 175.952 30.4027 177.018 31.384C178.106 32.344 179.418 32.824 180.954 32.824C182.213 32.824 183.258 32.536 184.09 31.96C184.944 31.3627 185.541 30.5733 185.882 29.592H189.018C188.549 31.2773 187.61 32.6533 186.202 33.72C184.794 34.7653 183.045 35.288 180.954 35.288C179.29 35.288 177.797 34.9147 176.474 34.168C175.173 33.4213 174.149 32.3653 173.402 31C172.656 29.6133 172.282 28.0133 172.282 26.2C172.282 24.3867 172.645 22.7973 173.37 21.432C174.096 20.0667 175.109 19.0213 176.41 18.296C177.733 17.5493 179.248 17.176 180.954 17.176C182.618 17.176 184.09 17.5387 185.37 18.264C186.65 18.9893 187.632 19.992 188.314 21.272C189.018 22.5307 189.37 23.96 189.37 25.56ZM186.362 24.952C186.362 23.8427 186.117 22.8933 185.626 22.104C185.136 21.2933 184.464 20.6853 183.61 20.28C182.778 19.8533 181.85 19.64 180.826 19.64C179.354 19.64 178.096 20.1093 177.05 21.048C176.026 21.9867 175.44 23.288 175.29 24.952H186.362ZM192.126 26.168C192.126 24.376 192.489 22.808 193.214 21.464C193.939 20.0987 194.931 19.0427 196.19 18.296C197.47 17.5493 198.889 17.176 200.446 17.176C201.982 17.176 203.315 17.5067 204.446 18.168C205.577 18.8293 206.419 19.6613 206.974 20.664V17.464H209.918V35H206.974V31.736C206.398 32.76 205.534 33.6133 204.382 34.296C203.251 34.9573 201.929 35.288 200.414 35.288C198.857 35.288 197.449 34.904 196.19 34.136C194.931 33.368 193.939 32.2907 193.214 30.904C192.489 29.5173 192.126 27.9387 192.126 26.168ZM206.974 26.2C206.974 24.8773 206.707 23.7253 206.174 22.744C205.641 21.7627 204.915 21.016 203.998 20.504C203.102 19.9707 202.11 19.704 201.022 19.704C199.934 19.704 198.942 19.96 198.046 20.472C197.15 20.984 196.435 21.7307 195.902 22.712C195.369 23.6933 195.102 24.8453 195.102 26.168C195.102 27.512 195.369 28.6853 195.902 29.688C196.435 30.6693 197.15 31.4267 198.046 31.96C198.942 32.472 199.934 32.728 201.022 32.728C202.11 32.728 203.102 32.472 203.998 31.96C204.915 31.4267 205.641 30.6693 206.174 29.688C206.707 28.6853 206.974 27.5227 206.974 26.2ZM235.927 17.144C237.292 17.144 238.508 17.432 239.575 18.008C240.642 18.5627 241.484 19.4053 242.103 20.536C242.722 21.6667 243.031 23.0427 243.031 24.664V35H240.151V25.08C240.151 23.3307 239.714 21.9973 238.839 21.08C237.986 20.1413 236.823 19.672 235.351 19.672C233.836 19.672 232.631 20.1627 231.735 21.144C230.839 22.104 230.391 23.5013 230.391 25.336V35H227.511V25.08C227.511 23.3307 227.074 21.9973 226.199 21.08C225.346 20.1413 224.183 19.672 222.711 19.672C221.196 19.672 219.991 20.1627 219.095 21.144C218.199 22.104 217.751 23.5013 217.751 25.336V35H214.839V17.464H217.751V19.992C218.327 19.0747 219.095 18.3707 220.055 17.88C221.036 17.3893 222.114 17.144 223.287 17.144C224.759 17.144 226.06 17.4747 227.191 18.136C228.322 18.7973 229.164 19.768 229.719 21.048C230.21 19.8107 231.02 18.8507 232.151 18.168C233.282 17.4853 234.54 17.144 235.927 17.144Z" fill="#0051B4"/>
<rect x="81" y="46" width="84" height="4" rx="2" fill="#0051B4"/>
</svg>
