<svg width="441" height="50" viewBox="0 0 441 50" fill="none" xmlns="http://www.w3.org/2000/svg">
<path d="M15.072 12.696V15.064H5.376V22.584H13.248V24.952H5.376V35H2.464V12.696H15.072ZM21.501 20.312C22.013 19.3093 22.7383 18.5307 23.677 17.976C24.637 17.4213 25.7997 17.144 27.165 17.144V20.152H26.397C23.133 20.152 21.501 21.9227 21.501 25.464V35H18.589V17.464H21.501V20.312ZM46.5265 25.56C46.5265 26.1147 46.4945 26.7013 46.4305 27.32H32.4145C32.5212 29.048 33.1078 30.4027 34.1745 31.384C35.2625 32.344 36.5745 32.824 38.1105 32.824C39.3692 32.824 40.4145 32.536 41.2465 31.96C42.0998 31.3627 42.6972 30.5733 43.0385 29.592H46.1745C45.7052 31.2773 44.7665 32.6533 43.3585 33.72C41.9505 34.7653 40.2012 35.288 38.1105 35.288C36.4465 35.288 34.9532 34.9147 33.6305 34.168C32.3292 33.4213 31.3052 32.3653 30.5585 31C29.8118 29.6133 29.4385 28.0133 29.4385 26.2C29.4385 24.3867 29.8012 22.7973 30.5265 21.432C31.2518 20.0667 32.2652 19.0213 33.5665 18.296C34.8892 17.5493 36.4038 17.176 38.1105 17.176C39.7745 17.176 41.2465 17.5387 42.5265 18.264C43.8065 18.9893 44.7878 19.992 45.4705 21.272C46.1745 22.5307 46.5265 23.96 46.5265 25.56ZM43.5185 24.952C43.5185 23.8427 43.2732 22.8933 42.7825 22.104C42.2918 21.2933 41.6198 20.6853 40.7665 20.28C39.9345 19.8533 39.0065 19.64 37.9825 19.64C36.5105 19.64 35.2518 20.1093 34.2065 21.048C33.1825 21.9867 32.5958 23.288 32.4465 24.952H43.5185ZM49.2823 26.168C49.2823 24.376 49.6449 22.808 50.3703 21.464C51.0956 20.0987 52.0876 19.0427 53.3463 18.296C54.6263 17.5493 56.0556 17.176 57.6343 17.176C59.1489 17.176 60.4716 17.5173 61.6023 18.2C62.7543 18.8613 63.5969 19.6827 64.1303 20.664V17.464H67.0743V43.32H64.1303V31.768C63.5756 32.7493 62.7223 33.5813 61.5703 34.264C60.4183 34.9467 59.0743 35.288 57.5383 35.288C56.0023 35.288 54.6049 34.904 53.3463 34.136C52.0876 33.368 51.0956 32.2907 50.3703 30.904C49.6449 29.5173 49.2823 27.9387 49.2823 26.168ZM64.1303 26.2C64.1303 24.8773 63.8636 23.7253 63.3303 22.744C62.7969 21.7627 62.0716 21.016 61.1543 20.504C60.2583 19.9707 59.2663 19.704 58.1783 19.704C57.0903 19.704 56.0983 19.96 55.2023 20.472C54.3063 20.984 53.5916 21.7307 53.0583 22.712C52.5249 23.6933 52.2583 24.8453 52.2583 26.168C52.2583 27.512 52.5249 28.6853 53.0583 29.688C53.5916 30.6693 54.3063 31.4267 55.2023 31.96C56.0983 32.472 57.0903 32.728 58.1783 32.728C59.2663 32.728 60.2583 32.472 61.1543 31.96C62.0716 31.4267 62.7969 30.6693 63.3303 29.688C63.8636 28.6853 64.1303 27.5227 64.1303 26.2ZM87.5473 17.464V35H84.6353V32.408C84.0806 33.304 83.3019 34.008 82.2993 34.52C81.3179 35.0107 80.2299 35.256 79.0353 35.256C77.6699 35.256 76.4433 34.9787 75.3553 34.424C74.2673 33.848 73.4033 32.9947 72.7633 31.864C72.1446 30.7333 71.8353 29.3573 71.8353 27.736V17.464H74.7153V27.352C74.7153 29.08 75.1526 30.4133 76.0273 31.352C76.9019 32.2693 78.0966 32.728 79.6113 32.728C81.1686 32.728 82.3953 32.248 83.2913 31.288C84.1873 30.328 84.6353 28.9307 84.6353 27.096V17.464H87.5473ZM108.464 25.56C108.464 26.1147 108.432 26.7013 108.368 27.32H94.352C94.4587 29.048 95.0453 30.4027 96.112 31.384C97.2 32.344 98.512 32.824 100.048 32.824C101.307 32.824 102.352 32.536 103.184 31.96C104.037 31.3627 104.635 30.5733 104.976 29.592H108.112C107.643 31.2773 106.704 32.6533 105.296 33.72C103.888 34.7653 102.139 35.288 100.048 35.288C98.384 35.288 96.8907 34.9147 95.568 34.168C94.2667 33.4213 93.2427 32.3653 92.496 31C91.7493 29.6133 91.376 28.0133 91.376 26.2C91.376 24.3867 91.7387 22.7973 92.464 21.432C93.1893 20.0667 94.2027 19.0213 95.504 18.296C96.8267 17.5493 98.3413 17.176 100.048 17.176C101.712 17.176 103.184 17.5387 104.464 18.264C105.744 18.9893 106.725 19.992 107.408 21.272C108.112 22.5307 108.464 23.96 108.464 25.56ZM105.456 24.952C105.456 23.8427 105.211 22.8933 104.72 22.104C104.229 21.2933 103.557 20.6853 102.704 20.28C101.872 19.8533 100.944 19.64 99.92 19.64C98.448 19.64 97.1893 20.1093 96.144 21.048C95.12 21.9867 94.5333 23.288 94.384 24.952H105.456ZM120.852 17.144C122.985 17.144 124.713 17.7947 126.036 19.096C127.358 20.376 128.02 22.232 128.02 24.664V35H125.14V25.08C125.14 23.3307 124.702 21.9973 123.828 21.08C122.953 20.1413 121.758 19.672 120.244 19.672C118.708 19.672 117.481 20.152 116.564 21.112C115.668 22.072 115.22 23.4693 115.22 25.304V35H112.308V17.464H115.22V19.96C115.796 19.064 116.574 18.3707 117.556 17.88C118.558 17.3893 119.657 17.144 120.852 17.144ZM136.329 19.864V30.2C136.329 31.0533 136.51 31.6613 136.873 32.024C137.235 32.3653 137.865 32.536 138.76 32.536H140.905V35H138.281C136.659 35 135.443 34.6267 134.633 33.88C133.822 33.1333 133.417 31.9067 133.417 30.2V19.864H131.145V17.464H133.417V13.048H136.329V17.464H140.905V19.864H136.329ZM147.345 11.32V35H144.433V11.32H147.345ZM167.412 17.464L156.852 43.256H153.844L157.3 34.808L150.228 17.464H153.46L158.964 31.672L164.404 17.464H167.412ZM192.054 30.04H182.326L180.534 35H177.462L185.526 12.824H188.886L196.918 35H193.846L192.054 30.04ZM191.222 27.672L187.19 16.408L183.158 27.672H191.222ZM206.641 35.288C205.297 35.288 204.091 35.064 203.025 34.616C201.958 34.1467 201.115 33.5067 200.497 32.696C199.878 31.864 199.537 30.9147 199.473 29.848H202.481C202.566 30.7227 202.971 31.4373 203.697 31.992C204.443 32.5467 205.414 32.824 206.609 32.824C207.718 32.824 208.593 32.5787 209.233 32.088C209.873 31.5973 210.193 30.9787 210.193 30.232C210.193 29.464 209.851 28.8987 209.169 28.536C208.486 28.152 207.43 27.7787 206.001 27.416C204.699 27.0747 203.633 26.7333 202.801 26.392C201.99 26.0293 201.286 25.5067 200.689 24.824C200.113 24.12 199.825 23.2027 199.825 22.072C199.825 21.176 200.091 20.3547 200.625 19.608C201.158 18.8613 201.915 18.2747 202.897 17.848C203.878 17.4 204.998 17.176 206.257 17.176C208.198 17.176 209.766 17.6667 210.961 18.648C212.155 19.6293 212.795 20.9733 212.881 22.68H209.969C209.905 21.7627 209.531 21.0267 208.849 20.472C208.187 19.9173 207.291 19.64 206.161 19.64C205.115 19.64 204.283 19.864 203.665 20.312C203.046 20.76 202.737 21.3467 202.737 22.072C202.737 22.648 202.918 23.128 203.281 23.512C203.665 23.8747 204.134 24.1733 204.689 24.408C205.265 24.6213 206.054 24.8667 207.057 25.144C208.315 25.4853 209.339 25.8267 210.129 26.168C210.918 26.488 211.59 26.9787 212.145 27.64C212.721 28.3013 213.019 29.1653 213.041 30.232C213.041 31.192 212.774 32.056 212.241 32.824C211.707 33.592 210.95 34.2 209.969 34.648C209.009 35.0747 207.899 35.288 206.641 35.288ZM226.944 35L220.064 27.256V35H217.152V11.32H220.064V25.24L226.816 17.464H230.88L222.624 26.2L230.912 35H226.944ZM249.62 25.56C249.62 26.1147 249.588 26.7013 249.524 27.32H235.508C235.615 29.048 236.202 30.4027 237.268 31.384C238.356 32.344 239.668 32.824 241.204 32.824C242.463 32.824 243.508 32.536 244.34 31.96C245.194 31.3627 245.791 30.5733 246.132 29.592H249.268C248.799 31.2773 247.86 32.6533 246.452 33.72C245.044 34.7653 243.295 35.288 241.204 35.288C239.54 35.288 238.047 34.9147 236.724 34.168C235.423 33.4213 234.399 32.3653 233.652 31C232.906 29.6133 232.532 28.0133 232.532 26.2C232.532 24.3867 232.895 22.7973 233.62 21.432C234.346 20.0667 235.359 19.0213 236.66 18.296C237.983 17.5493 239.498 17.176 241.204 17.176C242.868 17.176 244.34 17.5387 245.62 18.264C246.9 18.9893 247.882 19.992 248.564 21.272C249.268 22.5307 249.62 23.96 249.62 25.56ZM246.612 24.952C246.612 23.8427 246.367 22.8933 245.876 22.104C245.386 21.2933 244.714 20.6853 243.86 20.28C243.028 19.8533 242.1 19.64 241.076 19.64C239.604 19.64 238.346 20.1093 237.3 21.048C236.276 21.9867 235.69 23.288 235.54 24.952H246.612ZM252.376 26.168C252.376 24.376 252.739 22.808 253.464 21.464C254.189 20.0987 255.181 19.0427 256.44 18.296C257.72 17.5493 259.149 17.176 260.728 17.176C262.093 17.176 263.363 17.496 264.536 18.136C265.709 18.7547 266.605 19.576 267.224 20.6V11.32H270.168V35H267.224V31.704C266.648 32.7493 265.795 33.6133 264.664 34.296C263.533 34.9573 262.211 35.288 260.696 35.288C259.139 35.288 257.72 34.904 256.44 34.136C255.181 33.368 254.189 32.2907 253.464 30.904C252.739 29.5173 252.376 27.9387 252.376 26.168ZM267.224 26.2C267.224 24.8773 266.957 23.7253 266.424 22.744C265.891 21.7627 265.165 21.016 264.248 20.504C263.352 19.9707 262.36 19.704 261.272 19.704C260.184 19.704 259.192 19.96 258.296 20.472C257.4 20.984 256.685 21.7307 256.152 22.712C255.619 23.6933 255.352 24.8453 255.352 26.168C255.352 27.512 255.619 28.6853 256.152 29.688C256.685 30.6693 257.4 31.4267 258.296 31.96C259.192 32.472 260.184 32.728 261.272 32.728C262.36 32.728 263.352 32.472 264.248 31.96C265.165 31.4267 265.891 30.6693 266.424 29.688C266.957 28.6853 267.224 27.5227 267.224 26.2ZM301.508 39.224L297.06 34.776C295.972 35.0747 294.863 35.224 293.732 35.224C291.663 35.224 289.775 34.744 288.068 33.784C286.362 32.8027 285.007 31.448 284.004 29.72C283.023 27.9707 282.532 26.008 282.532 23.832C282.532 21.656 283.023 19.704 284.004 17.976C285.007 16.2267 286.362 14.872 288.068 13.912C289.775 12.9307 291.663 12.44 293.732 12.44C295.823 12.44 297.722 12.9307 299.428 13.912C301.135 14.872 302.479 16.216 303.46 17.944C304.442 19.672 304.932 21.6347 304.932 23.832C304.932 25.9653 304.463 27.8853 303.524 29.592C302.586 31.2987 301.295 32.6427 299.652 33.624L305.284 39.224H301.508ZM285.508 23.832C285.508 25.6027 285.86 27.16 286.564 28.504C287.29 29.848 288.271 30.8827 289.508 31.608C290.767 32.3333 292.175 32.696 293.732 32.696C295.29 32.696 296.687 32.3333 297.924 31.608C299.183 30.8827 300.164 29.848 300.868 28.504C301.594 27.16 301.956 25.6027 301.956 23.832C301.956 22.04 301.594 20.4827 300.868 19.16C300.164 17.816 299.194 16.7813 297.956 16.056C296.719 15.3307 295.311 14.968 293.732 14.968C292.154 14.968 290.746 15.3307 289.508 16.056C288.271 16.7813 287.29 17.816 286.564 19.16C285.86 20.4827 285.508 22.04 285.508 23.832ZM324.391 17.464V35H321.479V32.408C320.924 33.304 320.146 34.008 319.143 34.52C318.162 35.0107 317.074 35.256 315.879 35.256C314.514 35.256 313.287 34.9787 312.199 34.424C311.111 33.848 310.247 32.9947 309.607 31.864C308.988 30.7333 308.679 29.3573 308.679 27.736V17.464H311.559V27.352C311.559 29.08 311.996 30.4133 312.871 31.352C313.746 32.2693 314.94 32.728 316.455 32.728C318.012 32.728 319.239 32.248 320.135 31.288C321.031 30.328 321.479 28.9307 321.479 27.096V17.464H324.391ZM345.308 25.56C345.308 26.1147 345.276 26.7013 345.212 27.32H331.196C331.302 29.048 331.889 30.4027 332.956 31.384C334.044 32.344 335.356 32.824 336.892 32.824C338.15 32.824 339.196 32.536 340.028 31.96C340.881 31.3627 341.478 30.5733 341.82 29.592H344.956C344.486 31.2773 343.548 32.6533 342.14 33.72C340.732 34.7653 338.982 35.288 336.892 35.288C335.228 35.288 333.734 34.9147 332.412 34.168C331.11 33.4213 330.086 32.3653 329.34 31C328.593 29.6133 328.22 28.0133 328.22 26.2C328.22 24.3867 328.582 22.7973 329.308 21.432C330.033 20.0667 331.046 19.0213 332.348 18.296C333.67 17.5493 335.185 17.176 336.892 17.176C338.556 17.176 340.028 17.5387 341.308 18.264C342.588 18.9893 343.569 19.992 344.252 21.272C344.956 22.5307 345.308 23.96 345.308 25.56ZM342.3 24.952C342.3 23.8427 342.054 22.8933 341.564 22.104C341.073 21.2933 340.401 20.6853 339.548 20.28C338.716 19.8533 337.788 19.64 336.764 19.64C335.292 19.64 334.033 20.1093 332.988 21.048C331.964 21.9867 331.377 23.288 331.228 24.952H342.3ZM355.36 35.288C354.016 35.288 352.81 35.064 351.744 34.616C350.677 34.1467 349.834 33.5067 349.216 32.696C348.597 31.864 348.256 30.9147 348.192 29.848H351.2C351.285 30.7227 351.69 31.4373 352.416 31.992C353.162 32.5467 354.133 32.824 355.328 32.824C356.437 32.824 357.312 32.5787 357.952 32.088C358.592 31.5973 358.912 30.9787 358.912 30.232C358.912 29.464 358.57 28.8987 357.888 28.536C357.205 28.152 356.149 27.7787 354.72 27.416C353.418 27.0747 352.352 26.7333 351.52 26.392C350.709 26.0293 350.005 25.5067 349.408 24.824C348.832 24.12 348.544 23.2027 348.544 22.072C348.544 21.176 348.81 20.3547 349.344 19.608C349.877 18.8613 350.634 18.2747 351.616 17.848C352.597 17.4 353.717 17.176 354.976 17.176C356.917 17.176 358.485 17.6667 359.68 18.648C360.874 19.6293 361.514 20.9733 361.6 22.68H358.688C358.624 21.7627 358.25 21.0267 357.568 20.472C356.906 19.9173 356.01 19.64 354.88 19.64C353.834 19.64 353.002 19.864 352.384 20.312C351.765 20.76 351.456 21.3467 351.456 22.072C351.456 22.648 351.637 23.128 352 23.512C352.384 23.8747 352.853 24.1733 353.408 24.408C353.984 24.6213 354.773 24.8667 355.776 25.144C357.034 25.4853 358.058 25.8267 358.848 26.168C359.637 26.488 360.309 26.9787 360.864 27.64C361.44 28.3013 361.738 29.1653 361.76 30.232C361.76 31.192 361.493 32.056 360.96 32.824C360.426 33.592 359.669 34.2 358.688 34.648C357.728 35.0747 356.618 35.288 355.36 35.288ZM369.422 19.864V30.2C369.422 31.0533 369.604 31.6613 369.966 32.024C370.329 32.3653 370.958 32.536 371.854 32.536H373.998V35H371.374C369.753 35 368.537 34.6267 367.726 33.88C366.916 33.1333 366.51 31.9067 366.51 30.2V19.864H364.238V17.464H366.51V13.048H369.422V17.464H373.998V19.864H369.422ZM379.031 14.616C378.476 14.616 378.007 14.424 377.623 14.04C377.239 13.656 377.047 13.1867 377.047 12.632C377.047 12.0773 377.239 11.608 377.623 11.224C378.007 10.84 378.476 10.648 379.031 10.648C379.564 10.648 380.012 10.84 380.375 11.224C380.759 11.608 380.951 12.0773 380.951 12.632C380.951 13.1867 380.759 13.656 380.375 14.04C380.012 14.424 379.564 14.616 379.031 14.616ZM380.439 17.464V35H377.527V17.464H380.439ZM393.05 35.288C391.407 35.288 389.914 34.9147 388.57 34.168C387.247 33.4213 386.202 32.3653 385.434 31C384.687 29.6133 384.314 28.0133 384.314 26.2C384.314 24.408 384.698 22.8293 385.466 21.464C386.255 20.0773 387.322 19.0213 388.666 18.296C390.01 17.5493 391.514 17.176 393.178 17.176C394.842 17.176 396.346 17.5493 397.69 18.296C399.034 19.0213 400.09 20.0667 400.858 21.432C401.647 22.7973 402.042 24.3867 402.042 26.2C402.042 28.0133 401.636 29.6133 400.826 31C400.036 32.3653 398.959 33.4213 397.594 34.168C396.228 34.9147 394.714 35.288 393.05 35.288ZM393.05 32.728C394.095 32.728 395.076 32.4827 395.994 31.992C396.911 31.5013 397.647 30.7653 398.202 29.784C398.778 28.8027 399.066 27.608 399.066 26.2C399.066 24.792 398.788 23.5973 398.234 22.616C397.679 21.6347 396.954 20.9093 396.058 20.44C395.162 19.9493 394.191 19.704 393.146 19.704C392.079 19.704 391.098 19.9493 390.202 20.44C389.327 20.9093 388.623 21.6347 388.09 22.616C387.556 23.5973 387.29 24.792 387.29 26.2C387.29 27.6293 387.546 28.8347 388.058 29.816C388.591 30.7973 389.295 31.5333 390.17 32.024C391.044 32.4933 392.004 32.728 393.05 32.728ZM414.414 17.144C416.548 17.144 418.276 17.7947 419.598 19.096C420.921 20.376 421.582 22.232 421.582 24.664V35H418.702V25.08C418.702 23.3307 418.265 21.9973 417.39 21.08C416.516 20.1413 415.321 19.672 413.806 19.672C412.27 19.672 411.044 20.152 410.126 21.112C409.23 22.072 408.782 23.4693 408.782 25.304V35H405.87V17.464H408.782V19.96C409.358 19.064 410.137 18.3707 411.118 17.88C412.121 17.3893 413.22 17.144 414.414 17.144ZM432.547 35.288C431.203 35.288 429.998 35.064 428.931 34.616C427.864 34.1467 427.022 33.5067 426.403 32.696C425.784 31.864 425.443 30.9147 425.379 29.848H428.387C428.472 30.7227 428.878 31.4373 429.603 31.992C430.35 32.5467 431.32 32.824 432.515 32.824C433.624 32.824 434.499 32.5787 435.139 32.088C435.779 31.5973 436.099 30.9787 436.099 30.232C436.099 29.464 435.758 28.8987 435.075 28.536C434.392 28.152 433.336 27.7787 431.907 27.416C430.606 27.0747 429.539 26.7333 428.707 26.392C427.896 26.0293 427.192 25.5067 426.595 24.824C426.019 24.12 425.731 23.2027 425.731 22.072C425.731 21.176 425.998 20.3547 426.531 19.608C427.064 18.8613 427.822 18.2747 428.803 17.848C429.784 17.4 430.904 17.176 432.163 17.176C434.104 17.176 435.672 17.6667 436.867 18.648C438.062 19.6293 438.702 20.9733 438.787 22.68H435.875C435.811 21.7627 435.438 21.0267 434.755 20.472C434.094 19.9173 433.198 19.64 432.067 19.64C431.022 19.64 430.19 19.864 429.571 20.312C428.952 20.76 428.643 21.3467 428.643 22.072C428.643 22.648 428.824 23.128 429.187 23.512C429.571 23.8747 430.04 24.1733 430.595 24.408C431.171 24.6213 431.96 24.8667 432.963 25.144C434.222 25.4853 435.246 25.8267 436.035 26.168C436.824 26.488 437.496 26.9787 438.051 27.64C438.627 28.3013 438.926 29.1653 438.947 30.232C438.947 31.192 438.68 32.056 438.147 32.824C437.614 33.592 436.856 34.2 435.875 34.648C434.915 35.0747 433.806 35.288 432.547 35.288Z" fill="#0051B4"/>
<rect x="179" y="46" width="84" height="4" rx="2" fill="#0051B4"/>
</svg>
